<svg width="1405" height="204" viewBox="0 0 1405 204" fill="none" xmlns="http://www.w3.org/2000/svg">
<g clip-path="url(#clip0_3056_836)">
<path d="M83.7238 3.68498C93.7927 3.68498 103.184 6.58948 111.897 12.3985C120.805 18.2075 127.969 26.0496 133.391 35.9249C138.812 45.8002 141.523 56.8373 141.523 69.0362C141.523 81.0415 138.812 91.9818 133.391 101.857C127.969 111.732 120.805 119.671 111.897 125.674C103.184 131.483 93.7927 134.387 83.7238 134.387H30.281L33.1855 129.159V189.283C33.1855 194.317 31.6364 198.577 28.5383 202.062C25.4402 205.354 21.3739 207 16.3394 207C11.4986 207 7.52909 205.354 4.43095 202.062C1.33282 198.577 -0.216248 194.317 -0.216248 189.283V21.4024C-0.216248 16.368 1.42964 12.2049 4.7214 8.91308C8.2068 5.42768 12.4667 3.68498 17.5012 3.68498H83.7238ZM83.7238 101.276C87.4028 101.276 90.9851 99.7271 94.4705 96.629C97.9559 93.5309 100.86 89.5614 103.184 84.7205C105.508 79.6861 106.669 74.458 106.669 69.0362C106.669 63.4209 105.508 58.1928 103.184 53.3519C100.86 48.5111 97.9559 44.6384 94.4705 41.7339C90.9851 38.6358 87.4028 37.0867 83.7238 37.0867H29.7001L33.1855 31.8586V105.923L29.9906 101.276H83.7238ZM361.841 105.342C361.841 119.865 359.421 133.419 354.58 146.005C349.739 158.592 342.865 169.726 333.958 179.407C325.244 188.895 314.788 196.35 302.589 201.772C290.584 207.194 277.417 209.905 263.088 209.905C248.759 209.905 235.592 207.194 223.587 201.772C211.582 196.35 201.125 188.895 192.218 179.407C183.505 169.726 176.728 158.592 171.887 146.005C167.046 133.419 164.625 119.865 164.625 105.342C164.625 90.82 167.046 77.2657 171.887 64.6795C176.728 52.0933 183.505 41.0562 192.218 31.5682C201.125 21.8865 211.582 14.3348 223.587 8.91308C235.592 3.49135 248.759 0.78048 263.088 0.78048C277.417 0.78048 290.584 3.49135 302.589 8.91308C314.788 14.3348 325.244 21.8865 333.958 31.5682C342.865 41.0562 349.739 52.0933 354.58 64.6795C359.421 77.2657 361.841 90.82 361.841 105.342ZM324.083 105.342C324.083 92.3691 321.468 80.6542 316.24 70.198C311.012 59.5482 303.848 51.1252 294.747 44.9289C285.646 38.7326 275.093 35.6345 263.088 35.6345C251.083 35.6345 240.53 38.7326 231.429 44.9289C222.328 51.1252 215.164 59.4514 209.936 69.9076C204.901 80.3638 202.384 92.1754 202.384 105.342C202.384 118.316 204.901 130.128 209.936 140.777C215.164 151.234 222.328 159.56 231.429 165.756C240.53 171.952 251.083 175.05 263.088 175.05C275.093 175.05 285.646 171.952 294.747 165.756C303.848 159.56 311.012 151.234 316.24 140.777C321.468 130.128 324.083 118.316 324.083 105.342ZM482.317 3.68498C496.258 3.68498 508.651 6.29903 519.494 11.5271C530.338 16.7552 539.438 24.1133 546.796 33.6013C554.348 42.8957 559.964 53.7392 563.643 66.1317C567.515 78.3306 569.452 91.4009 569.452 105.342C569.452 124.125 566.063 141.261 559.286 156.752C552.509 172.049 542.633 184.248 529.66 193.349C516.88 202.45 501.099 207 482.317 207H412.899C407.865 207 403.605 205.354 400.119 202.062C396.827 198.577 395.182 194.317 395.182 189.283V21.4024C395.182 16.368 396.827 12.2049 400.119 8.91308C403.605 5.42768 407.865 3.68498 412.899 3.68498H482.317ZM479.412 173.598C491.611 173.598 501.583 170.5 509.328 164.304C517.074 157.914 522.689 149.588 526.174 139.325C529.854 128.869 531.693 117.541 531.693 105.342C531.693 96.2417 530.628 87.625 528.498 79.4924C526.562 71.1662 523.464 63.905 519.204 57.7087C514.944 51.3188 509.522 46.2843 502.938 42.6053C496.355 38.9262 488.513 37.0867 479.412 37.0867H428.583L431.488 34.4727V176.793L429.745 173.598H479.412ZM613.264 135.259C608.23 135.259 603.97 133.613 600.484 130.321C597.193 127.029 595.547 122.866 595.547 117.832C595.547 112.797 597.193 108.731 600.484 105.633C603.97 102.341 608.23 100.695 613.264 100.695H663.802C668.837 100.695 673 102.438 676.292 105.923C679.777 109.215 681.52 113.378 681.52 118.413C681.52 123.254 679.777 127.32 676.292 130.612C673 133.71 668.837 135.259 663.802 135.259H613.264ZM728.713 166.047C730.456 166.047 732.296 166.337 734.232 166.918C736.362 167.499 738.686 168.661 741.203 170.403C744.495 172.921 748.367 175.147 752.821 177.084C757.468 179.02 762.793 179.988 768.796 179.988C774.798 179.988 780.414 178.536 785.642 175.631C791.063 172.533 795.517 168.273 799.002 162.852C802.488 157.236 804.23 150.556 804.23 142.811C804.23 135.452 802.681 129.353 799.583 124.512C796.679 119.671 792.709 115.992 787.675 113.475C782.834 110.958 777.606 109.699 771.99 109.699C767.731 109.699 764.148 110.087 761.244 110.861C758.533 111.636 755.822 112.507 753.111 113.475C750.594 114.25 747.593 114.637 744.107 114.637C739.654 114.637 736.168 113.088 733.651 109.99C731.327 106.892 730.166 103.213 730.166 98.9526C730.166 96.2417 730.65 93.8213 731.618 91.6913C732.78 89.5614 734.426 87.2378 736.556 84.7205L787.675 30.4064L795.517 37.0867H724.066C719.419 37.0867 715.546 35.5377 712.448 32.4395C709.35 29.3414 707.801 25.4687 707.801 20.8215C707.801 16.368 709.35 12.6889 712.448 9.78444C715.546 6.6863 719.419 5.13723 724.066 5.13723H812.944C818.947 5.13723 823.4 6.78311 826.305 10.0749C829.403 13.3667 830.952 17.5298 830.952 22.5642C830.952 25.0815 830.274 27.5987 828.919 30.1159C827.563 32.4395 825.917 34.5695 823.981 36.5058L772.571 91.6913L764.729 81.816C766.859 80.8479 769.764 79.9765 773.443 79.202C777.315 78.4275 780.51 78.0402 783.028 78.0402C794.452 78.0402 804.327 81.0415 812.654 87.0441C821.173 92.8531 827.66 100.502 832.114 109.99C836.761 119.284 839.084 129.353 839.084 140.196C839.084 154.525 835.89 166.918 829.5 177.374C823.11 187.83 814.106 195.866 802.488 201.481C790.87 207.097 777.315 209.905 761.825 209.905C754.66 209.905 747.593 209.033 740.622 207.29C733.651 205.548 727.648 203.224 722.614 200.32C718.354 197.996 715.45 195.479 713.9 192.768C712.545 189.863 711.867 187.153 711.867 184.635C711.867 180.182 713.416 176.019 716.515 172.146C719.806 168.08 723.873 166.047 728.713 166.047ZM934.965 209.905C924.509 209.905 915.02 207.775 906.501 203.515C898.174 199.061 891.01 193.058 885.007 185.507C879.198 177.955 874.648 169.435 871.356 159.947C868.258 150.459 866.709 140.681 866.709 130.612C866.709 124.028 867.387 116.089 868.742 106.795C870.291 97.5003 872.905 87.7219 876.584 77.4593C880.263 67.1967 885.395 57.2246 891.978 47.5429C898.562 37.8613 906.888 29.1478 916.957 21.4024C927.219 13.6571 939.709 7.75128 954.425 3.68498C956.748 3.10409 958.975 2.81364 961.105 2.81364C965.559 2.81364 969.528 3.97544 973.014 6.29903C976.693 8.62263 978.532 12.8826 978.532 19.0788C978.532 23.3388 977.08 27.1146 974.175 30.4064C971.465 33.5045 967.786 35.7313 963.138 37.0867C956.555 39.0231 949.971 41.9276 943.388 45.8002C936.998 49.4793 930.995 54.0297 925.38 59.4514C919.958 64.8731 915.214 71.0694 911.148 78.0402C907.275 84.8174 904.467 92.1754 902.725 100.114L894.883 99.8239C897.593 96.5322 900.885 93.0468 904.758 89.3677C908.824 85.4951 913.665 82.2033 919.28 79.4924C925.089 76.5879 931.867 75.1357 939.612 75.1357C947.164 75.1357 954.619 76.8784 961.977 80.3638C969.528 83.8492 976.305 88.69 982.308 94.8863C988.504 100.889 993.442 108.053 997.121 116.38C1000.8 124.512 1002.64 133.226 1002.64 142.52C1002.64 154.913 999.541 166.24 993.345 176.503C987.343 186.765 979.21 194.898 968.947 200.901C958.878 206.903 947.551 209.905 934.965 209.905ZM934.965 177.955C941.161 177.955 946.68 176.406 951.52 173.308C956.555 170.21 960.524 165.95 963.429 160.528C966.333 155.106 967.786 149.104 967.786 142.52C967.786 135.743 966.333 129.74 963.429 124.512C960.524 119.09 956.555 114.831 951.52 111.732C946.68 108.634 941.161 107.085 934.965 107.085C928.768 107.085 923.153 108.634 918.119 111.732C913.278 114.831 909.405 119.09 906.501 124.512C903.596 129.74 902.144 135.743 902.144 142.52C902.144 149.104 903.596 155.106 906.501 160.528C909.405 165.95 913.278 170.21 918.119 173.308C923.153 176.406 928.768 177.955 934.965 177.955ZM1101.9 209.905C1085.24 209.905 1071.11 205.548 1059.49 196.834C1048.07 187.927 1039.35 175.631 1033.35 159.947C1027.35 144.069 1024.35 125.868 1024.35 105.342C1024.35 84.6237 1027.35 66.4222 1033.35 50.7379C1039.35 35.0536 1048.07 22.8547 1059.49 14.1412C1071.11 5.23405 1085.24 0.78048 1101.9 0.78048C1118.55 0.78048 1132.59 5.23405 1144.01 14.1412C1155.63 22.8547 1164.44 35.0536 1170.44 50.7379C1176.45 66.4222 1179.45 84.6237 1179.45 105.342C1179.45 125.868 1176.45 144.069 1170.44 159.947C1164.44 175.631 1155.63 187.927 1144.01 196.834C1132.59 205.548 1118.55 209.905 1101.9 209.905ZM1101.9 175.05C1110.03 175.05 1117 172.533 1122.81 167.499C1128.81 162.271 1133.46 154.525 1136.75 144.263C1140.04 133.807 1141.69 120.833 1141.69 105.342C1141.69 89.6582 1140.04 76.6848 1136.75 66.4222C1133.46 56.1596 1128.81 48.5111 1122.81 43.4766C1117 38.2485 1110.03 35.6345 1101.9 35.6345C1093.96 35.6345 1086.99 38.2485 1080.98 43.4766C1074.98 48.5111 1070.33 56.1596 1067.04 66.4222C1063.75 76.6848 1062.1 89.6582 1062.1 105.342C1062.1 120.833 1063.75 133.807 1067.04 144.263C1070.33 154.525 1074.98 162.271 1080.98 167.499C1086.99 172.533 1093.96 175.05 1101.9 175.05ZM1208.57 29.8255C1205.27 29.8255 1202.47 28.5669 1200.14 26.0496C1198.01 23.3388 1196.95 19.8534 1196.95 15.5934C1196.95 11.3335 1198.01 8.33218 1200.14 6.58947C1202.47 4.65314 1205.27 3.68498 1208.57 3.68498H1265.2C1268.3 3.68498 1271.01 4.65314 1273.34 6.58947C1275.66 8.33218 1276.82 11.3335 1276.82 15.5934C1276.82 19.8534 1275.95 23.3388 1274.21 26.0496C1272.66 28.5669 1269.66 29.8255 1265.2 29.8255H1208.57ZM1236.16 105.342C1232.67 105.342 1229.67 104.278 1227.16 102.148C1224.64 99.8239 1223.38 97.0163 1223.38 93.7245V10.6558H1249.81V93.7245C1249.81 97.0163 1248.65 99.8239 1246.32 102.148C1244 104.278 1240.61 105.342 1236.16 105.342ZM1302.38 3.68498C1306.45 3.68498 1309.64 4.26588 1311.97 5.42769C1314.48 6.58949 1316.71 8.91309 1318.65 12.3985L1356.99 75.7166H1336.65L1373.54 12.3985C1376.45 7.75129 1379.64 5.13724 1383.13 4.55633C1386.61 3.7818 1389.9 3.58816 1393 3.97542C1397.07 4.16907 1400.17 5.13724 1402.3 6.87994C1404.43 8.62264 1405.49 11.4303 1405.49 15.303V96.629C1405.49 99.9208 1404.04 102.728 1401.13 105.052C1398.23 107.182 1394.84 108.247 1390.97 108.247C1386.71 108.247 1383.22 107.182 1380.51 105.052C1377.8 102.728 1376.45 99.9208 1376.45 96.629V22.5642H1393.58L1358.15 85.5919C1357.37 86.9473 1355.92 88.2059 1353.79 89.3677C1351.86 90.3359 1349.05 90.82 1345.37 90.82C1342.27 90.82 1339.85 90.2391 1338.11 89.0773C1336.56 87.9155 1335.49 86.7537 1334.91 85.5919L1296.57 20.2406H1318.07V96.629C1317.49 99.9208 1316.03 102.728 1313.71 105.052C1311.39 107.182 1308.09 108.247 1303.83 108.247C1299.57 108.247 1296.09 107.182 1293.38 105.052C1290.86 102.728 1289.6 99.9208 1289.6 96.629V15.303C1289.6 11.624 1290.86 8.81627 1293.38 6.87994C1295.9 4.74996 1298.9 3.68498 1302.38 3.68498Z" fill="white"/>
</g>
<defs>
<clipPath id="clip0_3056_836">
<rect width="1405" height="204" fill="white"/>
</clipPath>
</defs>
</svg>
