<svg width="1400" height="251" viewBox="0 0 1400 251" fill="none" xmlns="http://www.w3.org/2000/svg">
<g clip-path="url(#clip0_3009_860)">
<path d="M103.02 4.88497C115.307 4.88497 126.768 8.42948 137.401 15.5185C148.271 22.6075 157.014 32.1776 163.631 44.2289C170.247 56.2802 173.555 69.7493 173.555 84.6362C173.555 99.2868 170.247 112.638 163.631 124.689C157.014 136.74 148.271 146.429 137.401 153.754C126.768 160.843 115.307 164.387 103.02 164.387H37.801L41.3455 158.007V231.379C41.3455 237.522 39.4551 242.721 35.6743 246.974C31.8935 250.991 26.9312 253 20.7874 253C14.8799 253 10.0358 250.991 6.25495 246.974C2.47415 242.721 0.583752 237.522 0.583752 231.379V26.5064C0.583752 20.3626 2.5923 15.2822 6.6094 11.2651C10.8628 7.01168 16.0614 4.88497 22.2052 4.88497H103.02ZM103.02 123.98C107.51 123.98 111.881 122.09 116.134 118.309C120.388 114.528 123.932 109.684 126.768 103.777C129.604 97.6327 131.021 91.2526 131.021 84.6362C131.021 77.7835 129.604 71.4034 126.768 65.4959C123.932 59.5884 120.388 54.8624 116.134 51.3179C111.881 47.5371 107.51 45.6467 103.02 45.6467H37.0921L41.3455 39.2666V129.651L37.4466 123.98H103.02ZM442.42 128.942C442.42 146.665 439.466 163.206 433.558 178.565C427.651 193.925 419.262 207.512 408.392 219.327C397.759 230.906 384.999 240.003 370.112 246.62C355.461 253.236 339.393 256.545 321.907 256.545C304.42 256.545 288.352 253.236 273.701 246.62C259.051 240.003 246.291 230.906 235.421 219.327C224.787 207.512 216.517 193.925 210.609 178.565C204.702 163.206 201.748 146.665 201.748 128.942C201.748 111.22 204.702 94.679 210.609 79.3195C216.517 63.96 224.787 50.4909 235.421 38.9122C246.291 27.0972 259.051 17.8815 273.701 11.2651C288.352 4.64868 304.42 1.34048 321.907 1.34048C339.393 1.34048 355.461 4.64868 370.112 11.2651C384.999 17.8815 397.759 27.0972 408.392 38.9122C419.262 50.4909 427.651 63.96 433.558 79.3195C439.466 94.679 442.42 111.22 442.42 128.942ZM396.341 128.942C396.341 113.11 393.151 98.8142 386.771 86.054C380.391 73.0575 371.648 62.7785 360.542 55.2169C349.435 47.6553 336.557 43.8745 321.907 43.8745C307.256 43.8745 294.378 47.6553 283.271 55.2169C272.165 62.7785 263.422 72.9394 257.042 85.6996C250.898 98.4598 247.826 112.874 247.826 128.942C247.826 144.775 250.898 159.189 257.042 172.185C263.422 184.946 272.165 195.106 283.271 202.668C294.378 210.23 307.256 214.01 321.907 214.01C336.557 214.01 349.435 210.23 360.542 202.668C371.648 195.106 380.391 184.946 386.771 172.185C393.151 159.189 396.341 144.775 396.341 128.942ZM589.442 4.88497C606.455 4.88497 621.578 8.07503 634.811 14.4551C648.044 20.8352 659.15 29.8146 668.129 41.3933C677.345 52.7357 684.198 65.9685 688.688 81.0917C693.414 95.9786 695.777 111.929 695.777 128.942C695.777 151.864 691.641 172.776 683.371 191.68C675.1 210.348 663.049 225.235 647.217 236.341C631.621 247.447 612.363 253 589.442 253H504.728C498.584 253 493.386 250.991 489.132 246.974C485.115 242.721 483.107 237.522 483.107 231.379V26.5064C483.107 20.3626 485.115 15.2822 489.132 11.2651C493.386 7.01168 498.584 4.88497 504.728 4.88497H589.442ZM585.897 212.238C600.784 212.238 612.953 208.457 622.405 200.896C631.857 193.098 638.71 182.937 642.963 170.413C647.453 157.653 649.698 143.829 649.698 128.942C649.698 117.836 648.398 107.321 645.799 97.3964C643.436 87.2355 639.655 78.3743 634.457 70.8127C629.258 63.0148 622.642 56.871 614.607 52.3813C606.573 47.8916 597.003 45.6467 585.897 45.6467H523.868L527.413 42.4567V216.137L525.286 212.238H585.897ZM848.94 203.023C851.067 203.023 853.312 203.377 855.675 204.086C858.274 204.795 861.11 206.213 864.182 208.339C868.199 211.411 872.925 214.129 878.36 216.492C884.031 218.855 890.529 220.036 897.855 220.036C905.18 220.036 912.033 218.264 918.413 214.719C925.029 210.939 930.464 205.74 934.717 199.124C938.971 192.271 941.097 184.119 941.097 174.667C941.097 165.687 939.207 158.244 935.426 152.336C931.882 146.429 927.038 141.939 920.894 138.867C914.986 135.795 908.606 134.259 901.754 134.259C896.555 134.259 892.183 134.732 888.639 135.677C885.331 136.622 882.022 137.686 878.714 138.867C875.642 139.812 871.98 140.285 867.726 140.285C862.291 140.285 858.038 138.394 854.966 134.614C852.131 130.833 850.713 126.343 850.713 121.145C850.713 117.836 851.303 114.883 852.485 112.283C853.903 109.684 855.911 106.848 858.511 103.777L920.894 37.4944L930.464 45.6467H843.269C837.598 45.6467 832.872 43.7563 829.091 39.9755C825.31 36.1947 823.42 31.4687 823.42 25.7975C823.42 20.3626 825.31 15.8729 829.091 12.3284C832.872 8.54763 837.598 6.65722 843.269 6.65722H951.731C959.056 6.65722 964.491 8.66578 968.036 12.6829C971.816 16.7 973.707 21.7804 973.707 27.9242C973.707 30.9961 972.88 34.068 971.226 37.1399C969.572 39.9755 967.563 42.5748 965.2 44.9378L902.462 112.283L892.892 100.232C895.492 99.0505 899.036 97.9872 903.526 97.042C908.252 96.0968 912.151 95.6242 915.223 95.6242C929.164 95.6242 941.216 99.2868 951.377 106.612C961.774 113.701 969.69 123.035 975.125 134.614C980.796 145.956 983.631 158.244 983.631 171.476C983.631 188.963 979.733 204.086 971.935 216.846C964.137 229.606 953.149 239.413 938.971 246.265C924.793 253.118 908.252 256.545 889.348 256.545C880.605 256.545 871.98 255.481 863.473 253.354C854.966 251.228 847.641 248.392 841.497 244.848C836.298 242.012 832.754 238.94 830.864 235.632C829.209 232.087 828.382 228.779 828.382 225.707C828.382 220.272 830.273 215.192 834.054 210.466C838.071 205.504 843.033 203.023 848.94 203.023ZM1100.64 256.545C1087.88 256.545 1076.3 253.945 1065.9 248.747C1055.74 243.312 1047 235.986 1039.67 226.771C1032.58 217.555 1027.03 207.158 1023.01 195.579C1019.23 184 1017.34 172.067 1017.34 159.78C1017.34 151.745 1018.17 142.057 1019.82 130.715C1021.71 119.372 1024.9 107.439 1029.39 94.9153C1033.88 82.3914 1040.15 70.2219 1048.18 58.4069C1056.21 46.5919 1066.38 35.9584 1078.66 26.5064C1091.19 17.0544 1106.43 9.84728 1124.39 4.88497C1127.22 4.17608 1129.94 3.82164 1132.54 3.82164C1137.97 3.82164 1142.82 5.23943 1147.07 8.07503C1151.56 10.9106 1153.81 16.1092 1153.81 23.6708C1153.81 28.8694 1152.03 33.4773 1148.49 37.4944C1145.18 41.2752 1140.69 43.9926 1135.02 45.6467C1126.99 48.0097 1118.95 51.5542 1110.92 56.2802C1103.12 60.7699 1095.79 66.323 1088.94 72.9394C1082.33 79.5558 1076.54 87.1174 1071.57 95.6242C1066.85 103.895 1063.42 112.874 1061.29 122.562L1051.72 122.208C1055.03 118.191 1059.05 113.937 1063.78 109.448C1068.74 104.722 1074.65 100.705 1081.5 97.3964C1088.59 93.8519 1096.86 92.0797 1106.31 92.0797C1115.53 92.0797 1124.62 94.2064 1133.6 98.4598C1142.82 102.713 1151.09 108.621 1158.41 116.182C1165.98 123.508 1172 132.251 1176.49 142.412C1180.98 152.336 1183.23 162.97 1183.23 174.312C1183.23 189.435 1179.44 203.259 1171.88 215.783C1164.56 228.307 1154.63 238.231 1142.11 245.557C1129.82 252.882 1116 256.545 1100.64 256.545ZM1100.64 217.555C1108.2 217.555 1114.93 215.665 1120.84 211.884C1126.99 208.103 1131.83 202.904 1135.37 196.288C1138.92 189.672 1140.69 182.346 1140.69 174.312C1140.69 166.042 1138.92 158.716 1135.37 152.336C1131.83 145.72 1126.99 140.521 1120.84 136.74C1114.93 132.96 1108.2 131.069 1100.64 131.069C1093.08 131.069 1086.22 132.96 1080.08 136.74C1074.17 140.521 1069.45 145.72 1065.9 152.336C1062.36 158.716 1060.59 166.042 1060.59 174.312C1060.59 182.346 1062.36 189.672 1065.9 196.288C1069.45 202.904 1074.17 208.103 1080.08 211.884C1086.22 215.665 1093.08 217.555 1100.64 217.555ZM1304.35 256.545C1284.03 256.545 1266.78 251.228 1252.6 240.594C1238.66 229.724 1228.03 214.719 1220.7 195.579C1213.38 176.202 1209.72 153.99 1209.72 128.942C1209.72 103.658 1213.38 81.4462 1220.7 62.3059C1228.03 43.1656 1238.66 28.2787 1252.6 17.6452C1266.78 6.77538 1284.03 1.34048 1304.35 1.34048C1324.68 1.34048 1341.81 6.77538 1355.75 17.6452C1369.93 28.2787 1380.68 43.1656 1388 62.3059C1395.33 81.4462 1398.99 103.658 1398.99 128.942C1398.99 153.99 1395.33 176.202 1388 195.579C1380.68 214.719 1369.93 229.724 1355.75 240.594C1341.81 251.228 1324.68 256.545 1304.35 256.545ZM1304.35 214.01C1314.28 214.01 1322.78 210.939 1329.87 204.795C1337.2 198.415 1342.87 188.963 1346.89 176.439C1350.9 163.679 1352.91 147.846 1352.91 128.942C1352.91 109.802 1350.9 93.9701 1346.89 81.4462C1342.87 68.9223 1337.2 59.5884 1329.87 53.4446C1322.78 47.0645 1314.28 43.8745 1304.35 43.8745C1294.67 43.8745 1286.16 47.0645 1278.83 53.4446C1271.51 59.5884 1265.84 68.9223 1261.82 81.4462C1257.8 93.9701 1255.79 109.802 1255.79 128.942C1255.79 147.846 1257.8 163.679 1261.82 176.439C1265.84 188.963 1271.51 198.415 1278.83 204.795C1286.16 210.939 1294.67 214.01 1304.35 214.01Z" fill="white"/>
</g>
<defs>
<clipPath id="clip0_3009_860">
<rect width="1400" height="251" fill="white"/>
</clipPath>
</defs>
</svg>
