<svg width="1440" height="145" viewBox="0 0 1440 145" fill="none" xmlns="http://www.w3.org/2000/svg">
<g clip-path="url(#clip0_2932_1402)">
<path d="M48.9077 151.678C45.9517 151.678 43.5236 150.78 41.6233 148.986C39.723 147.085 38.7728 144.763 38.7728 142.018V50.1702H59.3594V142.018C59.3594 144.763 58.3564 147.085 56.3506 148.986C54.4503 150.78 51.9693 151.678 48.9077 151.678ZM13.9106 59.0382C11.1657 59.0382 8.84313 58.1937 6.94283 56.5045C5.14811 54.8154 4.25074 52.5983 4.25074 49.8535C4.25074 47.1086 5.14811 44.9444 6.94283 43.3608C8.84313 41.6716 11.1657 40.8271 13.9106 40.8271H84.2216C86.9665 40.8271 89.2363 41.6716 91.031 43.3608C92.9313 45.0499 93.8814 47.267 93.8814 50.0118C93.8814 52.7567 92.9313 54.9737 91.031 56.6629C89.2363 58.2465 86.9665 59.0382 84.2216 59.0382H13.9106ZM143.316 65.6893L109.111 146.135C108.372 148.141 107.211 149.725 105.627 150.886C104.149 151.942 102.513 152.47 100.718 152.47C97.8676 152.47 95.7562 151.678 94.3837 150.094C93.0113 148.511 92.3251 146.557 92.3251 144.235C92.3251 143.285 92.4834 142.282 92.8001 141.226L132.231 46.528C133.076 44.4165 134.343 42.7801 136.032 41.6189C137.827 40.4576 139.727 39.9825 141.733 40.1936C143.633 40.1936 145.375 40.7743 146.959 41.9356C148.648 42.9913 149.862 44.5221 150.601 46.528L189.557 139.326C190.085 140.698 190.349 141.965 190.349 143.126C190.349 145.977 189.399 148.247 187.498 149.936C185.704 151.625 183.698 152.47 181.481 152.47C179.58 152.47 177.838 151.889 176.255 150.728C174.777 149.566 173.616 147.983 172.771 145.977L138.724 66.6394L143.316 65.6893ZM114.02 126.816L122.73 108.604H165.487L168.495 126.816H114.02ZM264.883 133.15C267.628 133.15 269.898 134.047 271.693 135.842C273.593 137.531 274.543 139.748 274.543 142.493C274.543 145.132 273.593 147.349 271.693 149.144C269.898 150.833 267.628 151.678 264.883 151.678H213.417C210.672 151.678 208.35 150.78 206.449 148.986C204.655 147.085 203.757 144.763 203.757 142.018V50.4869C203.757 47.742 204.707 45.4722 206.608 43.6775C208.508 41.7772 210.936 40.8271 213.892 40.8271C216.426 40.8271 218.643 41.7772 220.543 43.6775C222.549 45.4722 223.552 47.742 223.552 50.4869V135.842L220.068 133.15H264.883ZM302.339 40.8271H355.389C358.134 40.8271 360.403 41.7244 362.198 43.5192C364.098 45.2083 365.049 47.4253 365.049 50.1702C365.049 52.8095 364.098 54.9737 362.198 56.6629C360.403 58.2465 358.134 59.0382 355.389 59.0382H311.049L312.474 56.3462V87.226L311.207 85.9591H348.263C351.008 85.9591 353.277 86.8565 355.072 88.6512C356.972 90.3404 357.923 92.5574 357.923 95.3023C357.923 97.9416 356.972 100.106 355.072 101.795C353.277 103.379 351.008 104.17 348.263 104.17H311.682L312.474 102.903V134.892L311.207 133.467H355.389C358.134 133.467 360.403 134.417 362.198 136.317C364.098 138.112 365.049 140.223 365.049 142.651C365.049 145.291 364.098 147.455 362.198 149.144C360.403 150.833 358.134 151.678 355.389 151.678H302.339C299.594 151.678 297.271 150.78 295.371 148.986C293.576 147.085 292.679 144.763 292.679 142.018V50.4869C292.679 47.742 293.576 45.4722 295.371 43.6775C297.271 41.7772 299.594 40.8271 302.339 40.8271ZM467.39 40.8271C469.924 40.8271 471.982 41.6716 473.566 43.3608C475.15 45.0499 475.941 47.1614 475.941 49.6951V142.018C475.941 144.763 474.991 147.085 473.091 148.986C471.296 150.78 469.026 151.678 466.282 151.678C464.909 151.678 463.484 151.467 462.006 151.044C460.633 150.516 459.578 149.83 458.839 148.986L396.604 69.965L400.721 67.4312V142.81C400.721 145.343 399.877 147.455 398.188 149.144C396.604 150.833 394.493 151.678 391.853 151.678C389.319 151.678 387.261 150.833 385.677 149.144C384.094 147.455 383.302 145.343 383.302 142.81V50.4869C383.302 47.742 384.199 45.4722 385.994 43.6775C387.894 41.7772 390.217 40.8271 392.962 40.8271C394.44 40.8271 395.971 41.1438 397.554 41.7772C399.138 42.3051 400.299 43.1497 401.038 44.3109L461.372 121.273L458.68 123.173V49.6951C458.68 47.1614 459.472 45.0499 461.056 43.3608C462.639 41.6716 464.751 40.8271 467.39 40.8271ZM537.282 151.678C534.326 151.678 531.897 150.78 529.997 148.986C528.097 147.085 527.147 144.763 527.147 142.018V50.1702H547.733V142.018C547.733 144.763 546.73 147.085 544.724 148.986C542.824 150.78 540.343 151.678 537.282 151.678ZM502.284 59.0382C499.54 59.0382 497.217 58.1937 495.317 56.5045C493.522 54.8154 492.625 52.5983 492.625 49.8535C492.625 47.1086 493.522 44.9444 495.317 43.3608C497.217 41.6716 499.54 40.8271 502.284 40.8271H572.595C575.34 40.8271 577.61 41.6716 579.405 43.3608C581.305 45.0499 582.255 47.267 582.255 50.0118C582.255 52.7567 581.305 54.9737 579.405 56.6629C577.61 58.2465 575.34 59.0382 572.595 59.0382H502.284ZM692.829 40.8271C702.964 40.8271 710.512 43.2024 715.474 47.9532C720.436 52.7039 722.917 59.7245 722.917 69.0148C722.917 73.9767 721.703 78.3579 719.275 82.1585C716.847 85.8536 713.257 88.7568 708.506 90.8682C703.756 92.8741 697.896 93.877 690.929 93.877L691.562 86.7509C694.835 86.7509 698.583 87.226 702.805 88.1761C707.028 89.0207 711.093 90.6043 714.999 92.9269C719.011 95.1439 722.283 98.3111 724.817 102.428C727.457 106.44 728.776 111.613 728.776 117.947C728.776 124.915 727.615 130.616 725.292 135.05C723.075 139.484 720.119 142.915 716.424 145.343C712.729 147.772 708.77 149.461 704.547 150.411C700.324 151.255 696.26 151.678 692.354 151.678H652.923C650.178 151.678 647.855 150.78 645.955 148.986C644.16 147.085 643.263 144.763 643.263 142.018V50.4869C643.263 47.742 644.16 45.4722 645.955 43.6775C647.855 41.7772 650.178 40.8271 652.923 40.8271H692.829ZM689.978 59.5133H661.791L663.849 56.9796V85.6424L661.949 84.2172H690.453C693.515 84.2172 696.26 83.2142 698.688 81.2084C701.116 79.2025 702.33 76.2993 702.33 72.4987C702.33 67.9591 701.169 64.6863 698.846 62.6805C696.629 60.569 693.673 59.5133 689.978 59.5133ZM691.245 102.903H662.424L663.849 101.637V135.05L662.266 133.467H692.354C697.21 133.467 701.063 132.2 703.914 129.666C706.764 127.027 708.19 123.12 708.19 117.947C708.19 113.197 707.239 109.766 705.339 107.654C703.439 105.543 701.169 104.223 698.53 103.695C695.89 103.167 693.462 102.903 691.245 102.903ZM813.947 40.352C816.375 40.352 818.539 41.3021 820.44 43.2024C822.445 44.9972 823.448 47.3197 823.448 50.1702C823.448 51.1203 823.29 52.1233 822.973 53.179C822.762 54.1291 822.34 55.0793 821.706 56.0294L785.759 107.496L788.61 96.5691V142.018C788.61 144.763 787.659 147.085 785.759 148.986C783.964 150.78 781.853 151.678 779.425 151.678C776.785 151.678 774.516 150.78 772.615 148.986C770.821 147.085 769.923 144.763 769.923 142.018V97.836L771.19 102.903L736.985 57.4547C735.929 56.0822 735.19 54.7626 734.768 53.4957C734.345 52.2288 734.134 51.0676 734.134 50.0118C734.134 47.1614 735.243 44.8388 737.46 43.0441C739.677 41.2494 741.947 40.352 744.269 40.352C747.225 40.352 749.812 41.83 752.029 44.786L782.434 86.7509L778 86.1175L806.029 45.1027C808.246 41.9356 810.885 40.352 813.947 40.352ZM929.545 40.8271C937.146 40.8271 943.902 42.2523 949.814 45.1027C955.726 47.9532 960.688 51.9649 964.7 57.138C968.817 62.2054 971.879 68.1174 973.885 74.8741C975.996 81.5251 977.052 88.6512 977.052 96.2524C977.052 106.493 975.204 115.836 971.509 124.282C967.814 132.622 962.43 139.273 955.357 144.235C948.389 149.197 939.785 151.678 929.545 151.678H891.697C888.952 151.678 886.629 150.78 884.729 148.986C882.934 147.085 882.037 144.763 882.037 142.018V50.4869C882.037 47.742 882.934 45.4722 884.729 43.6775C886.629 41.7772 888.952 40.8271 891.697 40.8271H929.545ZM927.961 133.467C934.612 133.467 940.049 131.777 944.272 128.399C948.495 124.915 951.556 120.376 953.457 114.78C955.462 109.079 956.465 102.903 956.465 96.2524C956.465 91.2905 955.885 86.5926 954.723 82.1585C953.668 77.6189 951.979 73.66 949.656 70.2817C947.333 66.7978 944.377 64.0529 940.788 62.047C937.198 60.0412 932.923 59.0382 927.961 59.0382H900.248L901.832 57.613V135.208L900.882 133.467H927.961ZM1004.9 40.8271H1057.95C1060.69 40.8271 1062.96 41.7244 1064.76 43.5192C1066.66 45.2083 1067.61 47.4253 1067.61 50.1702C1067.61 52.8095 1066.66 54.9737 1064.76 56.6629C1062.96 58.2465 1060.69 59.0382 1057.95 59.0382H1013.61L1015.03 56.3462V87.226L1013.77 85.9591H1050.82C1053.57 85.9591 1055.84 86.8565 1057.63 88.6512C1059.53 90.3404 1060.48 92.5574 1060.48 95.3023C1060.48 97.9416 1059.53 100.106 1057.63 101.795C1055.84 103.379 1053.57 104.17 1050.82 104.17H1014.24L1015.03 102.903V134.892L1013.77 133.467H1057.95C1060.69 133.467 1062.96 134.417 1064.76 136.317C1066.66 138.112 1067.61 140.223 1067.61 142.651C1067.61 145.291 1066.66 147.455 1064.76 149.144C1062.96 150.833 1060.69 151.678 1057.95 151.678H1004.9C1002.15 151.678 999.831 150.78 997.93 148.986C996.136 147.085 995.238 144.763 995.238 142.018V50.4869C995.238 47.742 996.136 45.4722 997.93 43.6775C999.831 41.7772 1002.15 40.8271 1004.9 40.8271ZM1121.49 153.261C1114.1 153.261 1107.45 152.364 1101.54 150.569C1095.63 148.669 1089.98 145.396 1084.59 140.751C1083.22 139.59 1082.17 138.27 1081.43 136.792C1080.69 135.314 1080.32 133.836 1080.32 132.358C1080.32 129.93 1081.16 127.818 1082.85 126.024C1084.65 124.123 1086.86 123.173 1089.5 123.173C1091.51 123.173 1093.3 123.807 1094.89 125.074C1098.9 128.346 1102.86 130.827 1106.76 132.516C1110.78 134.206 1115.69 135.05 1121.49 135.05C1125.4 135.05 1128.99 134.469 1132.26 133.308C1135.53 132.041 1138.17 130.405 1140.18 128.399C1142.18 126.288 1143.19 123.912 1143.19 121.273C1143.19 118.106 1142.24 115.414 1140.34 113.197C1138.44 110.98 1135.53 109.132 1131.63 107.654C1127.72 106.071 1122.76 104.857 1116.74 104.012C1111.04 103.167 1106.03 101.901 1101.7 100.211C1097.37 98.4166 1093.73 96.1996 1090.77 93.5603C1087.92 90.8154 1085.76 87.6483 1084.28 84.0588C1082.8 80.3638 1082.06 76.2465 1082.06 71.7069C1082.06 64.8447 1083.8 58.9855 1087.29 54.1291C1090.88 49.2728 1095.68 45.5778 1101.7 43.0441C1107.71 40.5103 1114.37 39.2435 1121.65 39.2435C1128.51 39.2435 1134.85 40.2992 1140.65 42.4106C1146.57 44.4165 1151.37 47.003 1155.06 50.1702C1158.13 52.5983 1159.66 55.396 1159.66 58.5632C1159.66 60.8858 1158.76 62.9972 1156.96 64.8975C1155.17 66.7978 1153.06 67.7479 1150.63 67.7479C1149.05 67.7479 1147.62 67.2729 1146.35 66.3227C1144.66 64.8447 1142.4 63.4723 1139.54 62.2054C1136.69 60.833 1133.69 59.7245 1130.52 58.8799C1127.35 57.9297 1124.4 57.4547 1121.65 57.4547C1117.11 57.4547 1113.26 58.0353 1110.09 59.1966C1107.03 60.3579 1104.71 61.9415 1103.12 63.9473C1101.54 65.9532 1100.75 68.2758 1100.75 70.9151C1100.75 74.0823 1101.64 76.7216 1103.44 78.833C1105.34 80.8389 1108.03 82.4752 1111.52 83.7421C1115 84.9034 1119.17 85.9591 1124.03 86.9093C1130.36 88.0706 1135.9 89.443 1140.65 91.0266C1145.51 92.6102 1149.52 94.6688 1152.69 97.2025C1155.86 99.6307 1158.23 102.745 1159.81 106.546C1161.4 110.241 1162.19 114.78 1162.19 120.164C1162.19 127.027 1160.29 132.939 1156.49 137.901C1152.69 142.862 1147.67 146.663 1141.44 149.302C1135.32 151.942 1128.67 153.261 1121.49 153.261ZM1200.15 142.018C1200.15 144.763 1199.14 147.085 1197.14 148.986C1195.13 150.78 1192.81 151.678 1190.17 151.678C1187.21 151.678 1184.84 150.78 1183.04 148.986C1181.25 147.085 1180.35 144.763 1180.35 142.018V50.4869C1180.35 47.742 1181.3 45.4722 1183.2 43.6775C1185.1 41.7772 1187.53 40.8271 1190.49 40.8271C1193.02 40.8271 1195.24 41.7772 1197.14 43.6775C1199.14 45.4722 1200.15 47.742 1200.15 50.4869V142.018ZM1276.22 153.261C1268.2 153.261 1260.7 151.783 1253.73 148.827C1246.76 145.871 1240.64 141.807 1235.36 136.634C1230.08 131.355 1225.91 125.285 1222.85 118.423C1219.9 111.56 1218.42 104.17 1218.42 96.2524C1218.42 88.3345 1219.9 80.9445 1222.85 74.0823C1225.91 67.2201 1230.08 61.2025 1235.36 56.0294C1240.64 50.7508 1246.76 46.6335 1253.73 43.6775C1260.7 40.7215 1268.2 39.2435 1276.22 39.2435C1281.18 39.2435 1285.98 39.7713 1290.63 40.8271C1295.27 41.8828 1299.55 43.4664 1303.46 45.5778C1305.04 46.4224 1306.2 47.5837 1306.94 49.0617C1307.78 50.4341 1308.21 51.8593 1308.21 53.3374C1308.21 55.8711 1307.36 58.1409 1305.67 60.1468C1303.98 62.1526 1301.82 63.1556 1299.18 63.1556C1298.34 63.1556 1297.44 63.05 1296.49 62.8388C1295.64 62.6277 1294.8 62.311 1293.95 61.8887C1291.32 60.7274 1288.52 59.83 1285.56 59.1966C1282.61 58.5632 1279.49 58.2465 1276.22 58.2465C1269.36 58.2465 1263.08 59.9884 1257.37 63.4723C1251.78 66.8506 1247.29 71.443 1243.91 77.2494C1240.64 82.9503 1239 89.2846 1239 96.2524C1239 103.115 1240.64 109.449 1243.91 115.255C1247.29 121.062 1251.78 125.707 1257.37 129.191C1263.08 132.569 1269.36 134.258 1276.22 134.258C1279.39 134.258 1282.87 133.942 1286.67 133.308C1290.47 132.675 1293.59 131.83 1296.01 130.774L1294.59 135.525V108.446L1297.28 110.821H1279.7C1276.96 110.821 1274.64 109.924 1272.74 108.129C1270.94 106.335 1270.04 104.065 1270.04 101.32C1270.04 98.575 1270.94 96.3052 1272.74 94.5105C1274.64 92.7157 1276.96 91.8184 1279.7 91.8184H1305.67C1308.42 91.8184 1310.69 92.7685 1312.48 94.6688C1314.28 96.4635 1315.17 98.7333 1315.17 101.478V135.05C1315.17 137.162 1314.65 138.904 1313.59 140.276C1312.64 141.648 1311.53 142.757 1310.27 143.601C1305.41 146.557 1300.08 148.933 1294.27 150.728C1288.57 152.417 1282.55 153.261 1276.22 153.261ZM1418.31 40.8271C1420.85 40.8271 1422.9 41.6716 1424.49 43.3608C1426.07 45.0499 1426.86 47.1614 1426.86 49.6951V142.018C1426.86 144.763 1425.91 147.085 1424.01 148.986C1422.22 150.78 1419.95 151.678 1417.2 151.678C1415.83 151.678 1414.41 151.467 1412.93 151.044C1411.56 150.516 1410.5 149.83 1409.76 148.986L1347.53 69.965L1351.64 67.4312V142.81C1351.64 145.343 1350.8 147.455 1349.11 149.144C1347.53 150.833 1345.41 151.678 1342.77 151.678C1340.24 151.678 1338.18 150.833 1336.6 149.144C1335.02 147.455 1334.22 145.343 1334.22 142.81V50.4869C1334.22 47.742 1335.12 45.4722 1336.92 43.6775C1338.82 41.7772 1341.14 40.8271 1343.88 40.8271C1345.36 40.8271 1346.89 41.1438 1348.48 41.7772C1350.06 42.3051 1351.22 43.1497 1351.96 44.3109L1412.29 121.273L1409.6 123.173V49.6951C1409.6 47.1614 1410.39 45.0499 1411.98 43.3608C1413.56 41.6716 1415.67 40.8271 1418.31 40.8271Z" fill="white"/>
</g>
<defs>
<clipPath id="clip0_2932_1402">
<rect width="1440" height="145" fill="white"/>
</clipPath>
</defs>
</svg>
