<svg width="1440" height="1024" viewBox="0 0 1440 1024" fill="none" xmlns="http://www.w3.org/2000/svg">
<g clip-path="url(#clip0_1341_802)">
<path fill-rule="evenodd" clip-rule="evenodd" d="M1475 588.466C1474.87 594.943 1468.03 605.725 1457.04 617.926C1449.07 626.763 1439.8 635.306 1432.03 641.063L1431.55 641.418L1431.87 642.849C1433.76 651.148 1436.22 660.171 1435.29 669.27C1433.03 691.353 1415.79 716.269 1393.01 728.51C1384.7 733.181 1375.26 736.061 1365.57 737.315L1364.65 737.429C1357.43 738.281 1350.51 738.14 1346.29 737.267C1329.9 733.88 1316.02 722.396 1307.62 705.774C1307.59 705.719 1307.57 705.661 1307.56 705.603C1306.45 706.235 1304.96 706.94 1304.29 707.171L1302.43 707.801C1282.38 714.557 1262.51 720.208 1254.39 716.681C1251.3 715.338 1250.25 712.755 1251.54 709.286C1252.8 705.914 1256.28 701.569 1262.12 696.162L1262.44 695.866C1267.98 690.78 1280.27 681.487 1299.33 667.987L1299.33 667.739C1300.26 627.737 1331.27 597.242 1370.25 599.731C1382.17 600.493 1391.66 604.738 1396.4 607.345L1398.49 606.223C1418.05 595.743 1433.74 588.377 1445.72 583.968C1465.41 576.717 1475.15 580.107 1475 588.466ZM1446.36 588.265C1424.34 596.373 1389.54 614.608 1341.09 643.941L1339.62 644.833C1301.89 667.719 1276.91 685.105 1263.7 697.239L1263.05 697.841L1262.43 698.422C1252.51 707.81 1250.76 713.069 1255.13 714.971C1262.63 718.228 1282.75 712.738 1302.46 706.261L1304.29 705.657C1306.04 705.073 1307.21 704.738 1307.93 704.584C1307.96 704.561 1308 704.541 1308.03 704.522C1308.28 704.398 1308.56 704.393 1308.79 704.487C1308.84 704.497 1308.88 704.513 1308.9 704.535C1309.06 704.622 1309.19 704.758 1309.28 704.933C1317.43 721.069 1330.85 730.902 1346.67 734.169C1350.77 735.016 1357.7 735.141 1364.9 734.248L1365.34 734.193C1374.8 732.968 1384.02 731.43 1392.12 726.877C1414.38 714.914 1431.24 690.537 1433.44 669.079C1434.38 659.909 1433.18 650.907 1430 642.53C1429.73 642.714 1429.47 642.894 1429.21 643.072C1428.72 643.406 1428.91 642.864 1429.76 641.447C1429.81 641.262 1429.91 641.093 1430.05 640.967L1430.32 640.549C1430.41 640.403 1430.51 640.252 1430.61 640.094L1431.71 639.163C1442.1 630.36 1450.08 622.865 1455.66 616.676L1456.29 615.966C1466.61 604.395 1473.03 594.173 1473.13 588.432C1473.25 582.133 1464.96 581.416 1446.36 588.265ZM1352.99 706.09C1355.49 713.73 1351.71 718.645 1345.07 718.899C1338.93 719.133 1333.34 715.257 1333.63 709.749C1333.87 704.989 1337.13 699.9 1341.13 698.032C1345.97 695.771 1350.52 698.513 1352.99 706.09ZM1342.11 700.143C1338.91 701.638 1336.15 705.951 1335.95 709.87C1335.75 713.774 1340.05 716.759 1344.98 716.571C1350.14 716.374 1352.78 712.929 1350.78 706.814C1348.71 700.448 1345.54 698.541 1342.11 700.143ZM1403.71 690.521C1406.9 696.548 1406.06 702.47 1401.17 705.123L1401.03 705.196L1400.96 705.267C1394.4 711.779 1386.2 712.57 1380.85 707.849L1380.67 707.684C1374.51 702.03 1375.98 692.317 1385.78 684.702C1392.08 679.802 1399.79 683.088 1403.71 690.521ZM1387 686.28C1378.1 693.193 1376.85 701.471 1382.01 706.212C1385.72 709.612 1391.19 709.8 1396.3 706.5L1396.4 706.433L1396.36 706.426C1396.01 706.332 1395.73 706.046 1395.65 705.673L1395.63 705.578C1395.56 705.031 1395.96 704.535 1396.5 704.47C1397.75 704.321 1398.84 704.019 1399.76 703.586L1399.88 703.524L1400.03 703.366C1400.63 702.734 1401.22 702.046 1401.79 701.301L1401.98 701.051C1402.19 700.765 1402.52 700.626 1402.86 700.653L1402.88 700.655L1402.89 700.631C1404.09 698.267 1403.8 695.065 1402.06 691.656L1401.95 691.455C1398.54 684.991 1392.16 682.27 1387 686.28ZM1446.25 614.637C1445.73 616.46 1444.18 618.961 1441.79 621.924C1437.62 627.088 1431.37 633.098 1425.9 637.208L1427.11 635.871C1427.1 635.861 1427.09 635.847 1427.08 635.831L1426.66 635.06C1423.93 630.055 1420.88 625.119 1415.95 621.094C1403.2 626.363 1388.58 633.564 1375.26 641.094L1370.89 643.568C1338.74 661.82 1321.82 672.747 1303.73 686.181C1304.41 689.262 1305.27 692.269 1306.3 695.182C1306.47 695.639 1304.35 697.35 1303.97 697.139C1300.36 699.562 1294.71 701.322 1291.49 701.413C1288.35 701.503 1286.54 700.231 1287.47 697.695C1288.25 695.573 1291.2 692.547 1296.49 688.492L1297.09 688.033L1298.31 687.115C1318.23 672.172 1337.95 660.046 1374.34 639.471L1375.87 638.615C1400.83 624.652 1429.74 612.073 1442.98 610.912C1445.7 610.673 1446.94 612.182 1446.25 614.637ZM1301.31 687.988L1297.13 691.144C1293.41 693.972 1290.73 696.064 1289.28 697.406L1289.17 697.506C1287.4 699.169 1289.4 699.608 1291.44 699.551C1294.51 699.464 1299.22 697.126 1303.21 694.999C1302.48 692.71 1301.84 690.37 1301.31 687.988ZM1366.58 677.872C1367.08 677.998 1367.38 678.505 1367.26 679.004C1367.13 679.503 1366.62 679.805 1366.13 679.678C1363.63 679.041 1362.15 679.286 1361.67 679.961C1361.35 680.408 1361.53 681.171 1362.12 681.659C1362.59 682.04 1363.21 682.221 1363.63 682.129C1364 682.048 1364.21 681.762 1364.21 681.047C1364.21 680.532 1364.63 680.115 1365.14 680.115C1365.65 680.115 1366.07 680.532 1366.07 681.047C1366.07 682.602 1365.29 683.673 1364.03 683.949C1363.01 684.171 1361.83 683.822 1360.95 683.101C1359.65 682.035 1359.22 680.196 1360.16 678.88C1361.18 677.438 1363.42 677.068 1366.58 677.872ZM1325.74 674.451C1327.18 674.882 1327.79 675.985 1327.99 677.64L1328.01 677.82L1328.03 678.092C1328.04 678.138 1328.04 678.184 1328.04 678.234L1328.09 679.18L1328.11 679.393C1328.11 679.487 1328.12 679.563 1328.13 679.631L1328.16 679.773L1328.17 679.836L1328.2 679.859C1328.48 680.141 1328.56 680.582 1328.37 680.947L1328.33 681.029C1328.05 681.462 1327.47 681.586 1327.04 681.307C1326.45 680.924 1326.31 680.529 1326.24 679.396L1326.18 678.286C1326.17 678.186 1326.17 678.099 1326.16 678.001C1326.05 676.916 1325.79 676.41 1325.21 676.236C1323.59 675.749 1322.65 676.246 1322.36 677.334C1322.1 678.304 1322.48 679.322 1323.14 679.605L1323.31 679.668C1323.75 679.855 1323.98 680.346 1323.83 680.808C1323.67 681.298 1323.15 681.568 1322.66 681.412C1320.89 680.847 1320.05 678.739 1320.56 676.845C1321.14 674.732 1323.13 673.667 1325.74 674.451ZM1392.82 660.185C1395.4 663.812 1394.92 668.428 1390.79 670.516C1390.33 670.748 1389.77 670.563 1389.54 670.104C1389.31 669.644 1389.49 669.084 1389.95 668.853C1392.94 667.34 1393.28 664.048 1391.31 661.265C1389.39 658.562 1386.72 658.265 1384.88 661.185C1382.94 664.282 1383.08 666.1 1384.48 666.918C1385.59 667.568 1387.38 667.432 1387.87 666.9L1387.92 666.842C1388.22 666.423 1388.8 666.325 1389.22 666.623C1389.64 666.922 1389.73 667.504 1389.44 667.923C1388.4 669.377 1385.45 669.645 1383.54 668.528C1381.09 667.098 1380.86 664.088 1383.31 660.193C1385.93 656.022 1390.2 656.497 1392.82 660.185ZM1354.27 654.843C1354.76 654.843 1355.15 655.213 1355.2 655.685L1355.2 655.775C1355.2 655.939 1355.36 656.122 1355.9 656.523L1356.42 656.894C1356.98 657.305 1357.25 657.561 1357.51 657.967C1358.09 658.896 1358.43 659.841 1358.43 660.954C1358.43 663.801 1354.16 667.674 1349.5 669.397C1343.91 671.463 1339.34 669.931 1338.09 664.187C1337.98 663.684 1338.3 663.188 1338.8 663.079C1339.3 662.97 1339.8 663.289 1339.91 663.792C1340.87 668.249 1344.21 669.366 1348.85 667.649C1352.86 666.166 1356.57 662.807 1356.57 660.954C1356.57 660.236 1356.35 659.617 1355.94 658.963L1355.88 658.884C1355.79 658.764 1355.64 658.634 1355.37 658.436L1354.76 657.994C1353.74 657.241 1353.34 656.732 1353.34 655.775C1353.34 655.26 1353.76 654.843 1354.27 654.843ZM1358.64 603.203L1358.05 603.269C1326.32 607.093 1302.52 632.521 1301.23 666.644L1304.63 664.244C1314.4 657.371 1325.74 649.52 1338.65 640.691L1341.17 639.168C1348.68 634.627 1355.86 630.353 1362.72 626.344C1362.59 626.125 1362.56 625.854 1362.64 625.595C1363.12 624.129 1363.57 623.144 1364.38 622.157C1366.92 619.069 1370.4 617.561 1372.86 619.5C1373.11 619.691 1373.23 619.978 1373.22 620.265L1375.41 619.013C1382.31 615.078 1388.83 611.444 1394.99 608.107L1392.59 607.421C1389.02 606.414 1384.58 605.221 1380.16 604.302C1380.2 607.25 1378 609.604 1374.34 611.224C1371.23 612.601 1367.17 613.341 1364.29 613.169C1358.9 612.847 1355.87 608.108 1358.64 603.203ZM1414.29 643.664C1416.57 649.893 1414.69 655.557 1409.01 655.52C1400.92 655.467 1393.01 648.385 1394.29 642.04C1394.86 639.21 1396.98 636.706 1400.67 635.457C1406.57 633.461 1411.98 637.323 1414.29 643.664ZM1401.27 637.222C1398.22 638.255 1396.55 640.219 1396.11 642.409C1395.1 647.445 1401.98 653.611 1409.02 653.657C1413.06 653.683 1414.44 649.497 1412.55 644.305C1410.54 638.81 1406.05 635.604 1401.27 637.222ZM1332.9 615.166L1332.97 615.262L1333.42 615.975C1333.64 616.338 1333.83 616.692 1334.02 617.076C1336.08 621.294 1336.02 626.825 1332.54 634.503C1330.96 637.98 1326.94 642.654 1323.43 645.444C1318.94 649.005 1315.59 649.814 1311.6 649.374L1310.41 649.235L1310.27 649.221C1310.19 649.216 1310.14 649.216 1310.08 649.217L1310 649.221C1309.94 649.223 1309.92 649.221 1309.91 649.213V649.206L1309.88 649.255C1309.61 649.642 1309.09 649.769 1308.67 649.535C1308.22 649.284 1308.06 648.718 1308.31 648.268C1308.64 647.665 1309.2 647.393 1309.91 647.36C1310.1 647.351 1310.3 647.357 1310.54 647.377L1310.81 647.404L1311.58 647.497C1315.22 647.939 1318.12 647.283 1322.27 643.984C1325.57 641.364 1329.41 636.908 1330.85 633.731C1334.11 626.547 1334.16 621.598 1332.35 617.894C1332.23 617.648 1332.1 617.413 1331.97 617.178L1331.77 616.852L1331.38 616.234C1331.11 615.799 1331.24 615.224 1331.67 614.95C1332.08 614.694 1332.61 614.794 1332.9 615.166ZM1443.14 612.768C1437.2 613.289 1427.88 616.231 1417.14 620.608L1417.45 620.886C1420.44 623.574 1426.47 629.947 1428.36 634.493L1430.24 632.403C1434.88 627.232 1438.25 623.348 1440.34 620.752L1440.76 620.221C1442.77 617.677 1444.06 615.551 1444.46 614.132L1444.51 613.917C1444.76 612.894 1444.47 612.651 1443.14 612.768ZM1354.11 615.794C1356.43 616.915 1357.37 619.412 1355.85 621.674C1355.56 622.101 1354.98 622.214 1354.55 621.926C1354.13 621.638 1354.02 621.059 1354.3 620.633C1355.14 619.388 1354.67 618.133 1353.3 617.472C1351.87 616.776 1350.3 617.177 1349.48 618.695C1348.74 620.094 1348.69 621.988 1349.28 623.229C1349.81 624.318 1350.57 624.527 1351.73 623.649C1352.14 623.339 1352.73 623.421 1353.04 623.833C1353.34 624.244 1353.26 624.828 1352.85 625.137C1350.73 626.738 1348.63 626.163 1347.61 624.039C1346.75 622.258 1346.82 619.736 1347.85 617.815C1349.16 615.365 1351.83 614.686 1354.11 615.794ZM1365.81 623.342C1365.38 623.869 1365.07 624.425 1364.78 625.139C1367.18 623.744 1369.53 622.381 1371.85 621.051L1371.78 621.012L1371.72 620.965C1370.3 619.849 1367.79 620.933 1365.81 623.342ZM1361.85 602.918L1361.03 602.975L1360.98 603.044C1357.77 607.114 1359 610.418 1363.39 610.887C1366.55 611.224 1374.91 608.88 1375.9 608.058C1376.85 607.256 1378.06 605.414 1378.25 603.921C1375.41 603.386 1372.63 602.993 1370.15 602.866C1367.62 602.737 1365.12 602.739 1362.66 602.87L1361.85 602.918Z" fill="#4B9BE9" fill-opacity="0.3"/>
<path d="M1446.23 588.527C1466.04 581.252 1465.59 583.411 1446.88 590.282C1424.72 598.417 1341.09 649.388 1341.09 649.388C1303.13 672.349 1300.3 668.804 1337.09 646.462L1339.36 645.087C1339.78 644.829 1381.67 618.413 1411.6 604.279C1414.97 602.689 1443.97 589.356 1446.23 588.527Z" fill="#4B9BE9" fill-opacity="0.45"/>
<path fill-rule="evenodd" clip-rule="evenodd" d="M191.227 137.108C191.181 139.486 188.67 143.443 184.633 147.922C181.71 151.166 178.307 154.302 175.454 156.415L175.277 156.546L175.394 157.071C176.088 160.118 176.994 163.43 176.652 166.77C175.821 174.877 169.493 184.023 161.131 188.516C158.081 190.231 154.615 191.288 151.058 191.748L150.719 191.79C148.068 192.103 145.531 192.051 143.98 191.731C137.962 190.488 132.866 186.272 129.786 180.17C129.775 180.15 129.767 180.129 129.761 180.107C129.356 180.339 128.81 180.598 128.561 180.683L127.878 180.914C120.52 183.394 113.226 185.469 110.246 184.174C109.112 183.681 108.724 182.733 109.198 181.459C109.659 180.221 110.938 178.627 113.083 176.642L113.2 176.533C115.233 174.666 119.746 171.255 126.74 166.299L126.742 166.208C127.083 151.524 138.466 140.329 152.774 141.243C157.15 141.523 160.635 143.081 162.376 144.038L163.141 143.626C170.321 139.779 176.082 137.075 180.478 135.457C187.706 132.795 191.281 134.039 191.227 137.108ZM180.713 137.034C172.631 140.01 159.856 146.704 142.071 157.472L141.53 157.8C127.681 166.201 118.511 172.583 113.661 177.037L113.423 177.258L113.196 177.471C109.556 180.918 108.911 182.848 110.518 183.546C113.269 184.742 120.656 182.727 127.89 180.349L128.561 180.127C129.206 179.913 129.634 179.79 129.899 179.733C129.91 179.725 129.923 179.718 129.936 179.711C130.027 179.665 130.128 179.663 130.215 179.698C130.234 179.701 130.247 179.707 130.253 179.715C130.312 179.747 130.362 179.797 130.395 179.862C133.385 185.785 138.313 189.394 144.118 190.594C145.625 190.905 148.167 190.95 150.812 190.623L150.971 190.602C154.445 190.153 157.829 189.588 160.803 187.917C168.974 183.525 175.166 174.577 175.973 166.7C176.318 163.334 175.877 160.029 174.707 156.954C174.611 157.021 174.515 157.088 174.42 157.153C174.24 157.276 174.308 157.077 174.621 156.556C174.638 156.489 174.675 156.427 174.729 156.38L174.826 156.227C174.859 156.173 174.895 156.118 174.932 156.06L175.337 155.718C179.149 152.487 182.079 149.735 184.127 147.464L184.361 147.203C188.149 142.955 190.503 139.203 190.542 137.095C190.585 134.783 187.541 134.52 180.713 137.034ZM146.441 180.286C147.356 183.091 145.971 184.895 143.532 184.988C141.279 185.074 139.227 183.651 139.331 181.63C139.422 179.882 140.616 178.014 142.086 177.328C143.864 176.498 145.532 177.505 146.441 180.286ZM142.446 178.103C141.27 178.652 140.258 180.235 140.184 181.674C140.11 183.107 141.69 184.203 143.5 184.134C145.392 184.061 146.362 182.797 145.63 180.552C144.867 178.215 143.706 177.515 142.446 178.103ZM165.06 174.571C166.228 176.784 165.922 178.957 164.125 179.931L164.075 179.958L164.049 179.984C161.64 182.375 158.63 182.665 156.667 180.932L156.6 180.871C154.339 178.796 154.877 175.23 158.475 172.435C160.79 170.636 163.619 171.842 165.06 174.571ZM158.923 173.014C155.657 175.552 155.198 178.591 157.094 180.331C158.453 181.579 160.462 181.648 162.339 180.437L162.375 180.412L162.361 180.409C162.232 180.375 162.127 180.27 162.098 180.133L162.092 180.098C162.068 179.897 162.212 179.715 162.412 179.691C162.871 179.637 163.269 179.526 163.607 179.367L163.653 179.344L163.709 179.286C163.929 179.054 164.144 178.802 164.352 178.528L164.421 178.436C164.5 178.331 164.623 178.28 164.744 178.29L164.754 178.291L164.759 178.282C165.197 177.414 165.093 176.239 164.451 174.988L164.413 174.914C163.16 172.541 160.818 171.542 158.923 173.014ZM180.673 146.715C180.485 147.384 179.913 148.302 179.036 149.39C177.507 151.285 175.211 153.492 173.204 155.001L173.649 154.51C173.645 154.506 173.641 154.501 173.638 154.495L173.484 154.212C172.48 152.375 171.361 150.563 169.552 149.085C164.871 151.019 159.504 153.663 154.614 156.427L153.011 157.335C141.207 164.035 134.997 168.046 128.356 172.978C128.607 174.109 128.923 175.213 129.301 176.282C129.361 176.45 128.585 177.078 128.443 177C127.118 177.89 125.044 178.536 123.863 178.57C122.712 178.602 122.047 178.135 122.389 177.204C122.676 176.426 123.755 175.315 125.698 173.826L125.92 173.658L126.367 173.321C133.679 167.835 140.917 163.384 154.278 155.831L154.838 155.517C164.001 150.391 174.613 145.773 179.473 145.347C180.473 145.26 180.926 145.814 180.673 146.715ZM127.467 173.641L125.935 174.8C124.569 175.838 123.583 176.606 123.051 177.099L123.012 177.135C122.362 177.746 123.098 177.907 123.843 177.886C124.973 177.854 126.702 176.996 128.167 176.215C127.896 175.375 127.663 174.516 127.467 173.641ZM151.43 169.928C151.612 169.974 151.723 170.16 151.677 170.343C151.63 170.526 151.445 170.637 151.262 170.591C150.344 170.357 149.802 170.447 149.626 170.694C149.509 170.859 149.574 171.139 149.792 171.318C149.963 171.458 150.19 171.524 150.346 171.49C150.482 171.461 150.558 171.356 150.558 171.093C150.558 170.904 150.711 170.751 150.899 170.751C151.088 170.751 151.24 170.904 151.24 171.093C151.24 171.664 150.955 172.057 150.491 172.159C150.118 172.24 149.683 172.112 149.36 171.847C148.883 171.456 148.727 170.781 149.07 170.298C149.446 169.768 150.269 169.632 151.43 169.928ZM136.437 168.672C136.964 168.83 137.19 169.235 137.262 169.843L137.269 169.909L137.278 170.009C137.279 170.025 137.28 170.042 137.281 170.061L137.299 170.408L137.304 170.486C137.307 170.52 137.31 170.548 137.314 170.574L137.323 170.626L137.328 170.649L137.338 170.657C137.443 170.761 137.471 170.923 137.403 171.056L137.386 171.087C137.283 171.246 137.072 171.291 136.914 171.189C136.696 171.048 136.646 170.903 136.62 170.487L136.598 170.08C136.596 170.043 136.593 170.011 136.589 169.975C136.551 169.577 136.454 169.391 136.241 169.327C135.645 169.148 135.303 169.331 135.195 169.73C135.098 170.086 135.238 170.46 135.483 170.564L135.544 170.587C135.704 170.656 135.789 170.836 135.735 171.005C135.678 171.185 135.486 171.285 135.306 171.227C134.656 171.02 134.348 170.246 134.536 169.551C134.747 168.775 135.479 168.384 136.437 168.672ZM161.061 163.435C162.007 164.767 161.831 166.461 160.314 167.227C160.146 167.312 159.941 167.245 159.856 167.076C159.771 166.907 159.839 166.702 160.007 166.617C161.105 166.062 161.23 164.853 160.505 163.831C159.801 162.839 158.82 162.73 158.146 163.802C157.432 164.939 157.484 165.606 157.998 165.907C158.407 166.145 159.064 166.095 159.245 165.9L159.262 165.879C159.372 165.725 159.585 165.689 159.738 165.798C159.892 165.908 159.928 166.122 159.818 166.275C159.439 166.809 158.356 166.908 157.654 166.498C156.756 165.973 156.67 164.868 157.569 163.438C158.531 161.907 160.1 162.081 161.061 163.435ZM146.911 161.474C147.088 161.474 147.234 161.61 147.25 161.783L147.252 161.816C147.252 161.876 147.308 161.943 147.508 162.091L147.698 162.227C147.904 162.378 148.004 162.472 148.098 162.621C148.313 162.962 148.435 163.309 148.435 163.717C148.435 164.762 146.868 166.184 145.158 166.817C143.107 167.575 141.427 167.013 140.97 164.904C140.93 164.72 141.047 164.537 141.231 164.497C141.415 164.457 141.597 164.574 141.637 164.759C141.992 166.395 143.217 166.805 144.921 166.175C146.393 165.631 147.752 164.397 147.752 163.717C147.752 163.454 147.673 163.227 147.521 162.986L147.5 162.957C147.466 162.914 147.411 162.866 147.314 162.793L147.088 162.631C146.714 162.354 146.569 162.168 146.569 161.816C146.569 161.627 146.722 161.474 146.911 161.474ZM148.513 142.517L148.297 142.542C136.651 143.945 127.914 153.28 127.437 165.806L128.687 164.925C132.274 162.402 136.437 159.52 141.177 156.279L142.1 155.72C144.858 154.053 147.494 152.484 150.011 151.012C149.965 150.932 149.952 150.833 149.983 150.737C150.159 150.199 150.322 149.838 150.62 149.475C151.552 148.342 152.83 147.788 153.735 148.5C153.824 148.57 153.869 148.675 153.865 148.781L154.669 148.321C157.201 146.877 159.597 145.543 161.858 144.318L160.975 144.066C159.665 143.696 158.036 143.258 156.413 142.921C156.428 144.003 155.619 144.867 154.276 145.462C153.134 145.967 151.646 146.239 150.588 146.176C148.609 146.058 147.495 144.318 148.513 142.517ZM168.943 157.37C169.778 159.657 169.089 161.736 167.004 161.723C164.032 161.703 161.131 159.103 161.6 156.774C161.809 155.735 162.588 154.816 163.944 154.358C166.109 153.625 168.093 155.043 168.943 157.37ZM164.162 155.006C163.042 155.385 162.431 156.106 162.269 156.91C161.897 158.758 164.423 161.022 167.008 161.039C168.489 161.048 168.998 159.512 168.302 157.606C167.565 155.588 165.918 154.412 164.162 155.006ZM139.065 146.909L139.09 146.944L139.254 147.206C139.334 147.339 139.407 147.469 139.475 147.61C140.231 149.159 140.212 151.189 138.932 154.007C138.353 155.284 136.876 157 135.587 158.024C133.941 159.331 132.712 159.628 131.245 159.467L130.809 159.415L130.756 159.41C130.727 159.408 130.709 159.408 130.688 159.409L130.658 159.41C130.636 159.411 130.628 159.41 130.626 159.407V159.405L130.616 159.423C130.517 159.565 130.324 159.611 130.17 159.525C130.005 159.434 129.946 159.225 130.038 159.06C130.16 158.839 130.365 158.739 130.626 158.727C130.695 158.724 130.768 158.726 130.855 158.733L130.957 158.743L131.239 158.777C132.575 158.94 133.638 158.699 135.163 157.488C136.374 156.526 137.782 154.89 138.311 153.724C139.508 151.087 139.526 149.27 138.862 147.911C138.818 147.82 138.772 147.734 138.722 147.648L138.65 147.528L138.507 147.301C138.407 147.141 138.455 146.93 138.615 146.83C138.765 146.736 138.959 146.772 139.065 146.909ZM179.533 146.029C177.351 146.22 173.931 147.3 169.987 148.907L170.103 149.009C171.2 149.995 173.414 152.335 174.107 154.004L174.798 153.237C176.501 151.338 177.737 149.913 178.505 148.96L178.66 148.765C179.395 147.831 179.869 147.05 180.016 146.53L180.036 146.451C180.127 146.075 180.022 145.986 179.533 146.029ZM146.852 147.14C147.702 147.551 148.046 148.468 147.488 149.298C147.382 149.455 147.17 149.496 147.014 149.39C146.857 149.285 146.816 149.072 146.922 148.916C147.229 148.459 147.055 147.998 146.555 147.756C146.028 147.5 145.451 147.647 145.153 148.205C144.878 148.718 144.859 149.413 145.078 149.869C145.271 150.269 145.551 150.345 145.978 150.023C146.129 149.909 146.343 149.939 146.457 150.091C146.57 150.241 146.54 150.456 146.389 150.569C145.61 151.157 144.839 150.946 144.464 150.166C144.149 149.512 144.174 148.587 144.551 147.881C145.032 146.982 146.012 146.733 146.852 147.14ZM151.146 149.91C150.987 150.104 150.874 150.308 150.768 150.57C151.648 150.058 152.512 149.558 153.362 149.069L153.337 149.055L153.313 149.038C152.792 148.628 151.874 149.026 151.146 149.91ZM149.691 142.413L149.392 142.434L149.372 142.459C148.193 143.953 148.647 145.166 150.258 145.338C151.415 145.462 154.487 144.602 154.848 144.3C155.199 144.006 155.643 143.329 155.711 142.781C154.668 142.585 153.649 142.441 152.739 142.394C151.809 142.346 150.892 142.347 149.991 142.395L149.691 142.413Z" fill="#4B9BE9" fill-opacity="0.3"/>
<path d="M180.667 137.13C187.94 134.46 187.773 135.252 180.904 137.774C172.771 140.76 142.072 159.472 142.072 159.472C128.138 167.9 127.096 166.599 140.602 158.397L141.434 157.893C141.591 157.798 156.968 148.101 167.956 142.913C169.192 142.329 179.839 137.434 180.667 137.13Z" fill="#4B9BE9" fill-opacity="0.45"/>
<path d="M1323.65 969.159H1223.56V969.914H1323.65V969.159Z" fill="#4B9BE9" fill-opacity="0.15"/>
<path d="M964.983 977.379H938.721V978.134H964.983V977.379Z" fill="#4B9BE9" fill-opacity="0.15"/>
<path d="M1220.53 941.114H1162.54V941.869H1220.53V941.114Z" fill="#4B9BE9" fill-opacity="0.15"/>
<path d="M1162.39 97.4308L1178.53 100.09L1162.39 102.75L1159.7 118.888L1157.04 102.75L1140.9 100.09L1157.04 97.4308L1159.7 81.2927L1162.39 97.4308Z" fill="#4B9BE9" fill-opacity="0.15"/>
<path d="M1163.48 100.09L1173.03 113.387L1159.7 103.868L1146.4 113.387L1155.95 100.09L1146.4 86.7927L1159.7 96.3426L1173.03 86.7927L1163.48 100.09Z" fill="#4B9BE9" fill-opacity="0.15"/>
<path d="M1163.45 100.09C1163.45 101.084 1163.05 102.037 1162.35 102.74C1161.65 103.443 1160.69 103.837 1159.7 103.837C1158.7 103.837 1157.75 103.443 1157.05 102.74C1156.35 102.037 1155.95 101.084 1155.95 100.09C1155.95 99.0961 1156.35 98.1429 1157.05 97.4401C1157.75 96.7374 1158.7 96.3425 1159.7 96.3425C1160.69 96.3425 1161.65 96.7374 1162.35 97.4401C1163.05 98.1429 1163.45 99.0961 1163.45 100.09Z" fill="#4B9BE9" fill-opacity="0.5"/>
<path d="M1275.54 721.92L1291.7 724.579L1275.54 727.239L1272.88 743.377L1270.22 727.239L1254.08 724.579L1270.22 721.92L1272.88 705.751L1275.54 721.92Z" fill="#4B9BE9" fill-opacity="0.15"/>
<path d="M1276.65 724.579L1286.17 737.877L1272.88 728.327L1259.58 737.877L1269.13 724.579L1259.58 711.282L1272.88 720.802L1286.17 711.282L1276.65 724.579Z" fill="#4B9BE9" fill-opacity="0.15"/>
<path d="M1276.62 724.579C1276.62 725.32 1276.4 726.045 1275.99 726.661C1275.58 727.278 1275 727.758 1274.31 728.041C1273.63 728.325 1272.87 728.399 1272.15 728.255C1271.42 728.11 1270.75 727.753 1270.23 727.229C1269.7 726.705 1269.35 726.037 1269.2 725.31C1269.06 724.583 1269.13 723.83 1269.41 723.145C1269.7 722.461 1270.18 721.875 1270.79 721.463C1271.41 721.052 1272.14 720.832 1272.88 720.832C1273.87 720.832 1274.82 721.227 1275.53 721.93C1276.23 722.632 1276.62 723.585 1276.62 724.579Z" fill="#4B9BE9" fill-opacity="0.5"/>
<path d="M380.779 954.593L396.917 957.252L380.779 959.911L378.119 976.05L375.46 959.911L359.292 957.252L375.46 954.593L378.119 938.424L380.779 954.593Z" fill="#4B9BE9" fill-opacity="0.15"/>
<path d="M381.868 957.252L391.418 970.549L378.121 960.999L364.823 970.549L374.343 957.252L364.823 943.954L378.121 953.474L391.418 943.954L381.868 957.252Z" fill="#4B9BE9" fill-opacity="0.15"/>
<path d="M381.838 957.252C381.838 957.994 381.617 958.72 381.204 959.337C380.791 959.954 380.204 960.434 379.517 960.717C378.831 960.999 378.076 961.072 377.348 960.925C376.62 960.778 375.953 960.418 375.43 959.891C374.907 959.364 374.552 958.693 374.411 957.964C374.27 957.235 374.349 956.481 374.637 955.797C374.925 955.112 375.41 954.529 376.03 954.121C376.651 953.713 377.378 953.498 378.12 953.504C379.109 953.512 380.054 953.911 380.751 954.612C381.447 955.314 381.838 956.263 381.838 957.252Z" fill="#4B9BE9" fill-opacity="0.5"/>
<path d="M958.698 30.7025L974.866 33.362L958.698 36.0214L956.039 52.1897L953.379 36.0214L937.241 33.362L953.379 30.7025L956.039 14.5645L958.698 30.7025Z" fill="#4B9BE9" fill-opacity="0.15"/>
<path d="M959.816 33.362L969.336 46.6593L956.039 37.1396L942.741 46.6593L952.291 33.362L942.741 20.0647L956.039 29.6146L969.336 20.0647L959.816 33.362Z" fill="#4B9BE9" fill-opacity="0.15"/>
<path d="M959.786 33.3619C959.786 34.3558 959.391 35.309 958.688 36.0117C957.986 36.7145 957.032 37.1093 956.038 37.1093C955.045 37.1093 954.091 36.7145 953.389 36.0117C952.686 35.309 952.291 34.3558 952.291 33.3619C952.291 32.368 952.686 31.4149 953.389 30.7121C954.091 30.0093 955.045 29.6145 956.038 29.6145C957.032 29.6145 957.986 30.0093 958.688 30.7121C959.391 31.4149 959.786 32.368 959.786 33.3619Z" fill="#4B9BE9" fill-opacity="0.5"/>
<path d="M1085.51 309.674L1101.64 312.333L1085.51 314.992L1082.85 331.13L1080.19 314.992L1064.05 312.333L1080.19 309.674L1082.85 293.535L1085.51 309.674Z" fill="#4B9BE9" fill-opacity="0.15"/>
<path d="M1086.59 312.333L1096.14 325.63L1082.85 316.111L1069.55 325.63L1079.1 312.333L1069.55 299.036L1082.85 308.586L1096.14 299.036L1086.59 312.333Z" fill="#4B9BE9" fill-opacity="0.15"/>
<path d="M1086.59 312.333C1086.59 313.074 1086.37 313.799 1085.96 314.415C1085.55 315.031 1084.96 315.512 1084.28 315.795C1083.6 316.079 1082.84 316.153 1082.11 316.009C1081.39 315.864 1080.72 315.507 1080.2 314.983C1079.67 314.459 1079.32 313.791 1079.17 313.064C1079.03 312.337 1079.1 311.584 1079.38 310.899C1079.67 310.214 1080.15 309.629 1080.76 309.217C1081.38 308.805 1082.1 308.586 1082.85 308.586C1083.84 308.594 1084.79 308.991 1085.49 309.692C1086.19 310.393 1086.59 311.342 1086.59 312.333Z" fill="#4B9BE9" fill-opacity="0.5"/>
<path d="M1083.6 923.736L1099.74 926.396L1083.6 929.055L1080.94 945.193L1078.28 929.055L1062.14 926.396L1078.28 923.736L1080.94 907.568L1083.6 923.736Z" fill="#4B9BE9" fill-opacity="0.15"/>
<path d="M1084.69 926.396L1094.24 939.693L1080.94 930.143L1067.65 939.693L1077.17 926.396L1067.65 913.099L1080.94 922.618L1094.24 913.099L1084.69 926.396Z" fill="#4B9BE9" fill-opacity="0.15"/>
<path d="M1084.69 926.396C1084.69 927.39 1084.3 928.343 1083.59 929.046C1082.89 929.749 1081.94 930.143 1080.94 930.143C1079.95 930.143 1079 929.749 1078.29 929.046C1077.59 928.343 1077.2 927.39 1077.2 926.396C1077.2 925.402 1077.59 924.449 1078.29 923.746C1079 923.044 1079.95 922.649 1080.94 922.649C1081.94 922.649 1082.89 923.044 1083.59 923.746C1084.3 924.449 1084.69 925.402 1084.69 926.396Z" fill="#4B9BE9" fill-opacity="0.5"/>
<path d="M145.054 578.098L158.745 580.364L145.054 582.601L142.788 596.291L140.551 582.601L126.861 580.364L140.551 578.098L142.788 564.407L145.054 578.098Z" fill="#4B9BE9" fill-opacity="0.15"/>
<path d="M145.992 580.364L154.061 591.637L142.788 583.537L131.516 591.637L139.615 580.364L131.516 569.092L142.788 577.161L154.061 569.092L145.992 580.364Z" fill="#4B9BE9" fill-opacity="0.15"/>
<path d="M145.961 580.364C145.991 580.997 145.831 581.625 145.501 582.166C145.171 582.708 144.687 583.138 144.11 583.401C143.534 583.665 142.892 583.75 142.267 583.645C141.641 583.54 141.062 583.25 140.603 582.813C140.144 582.376 139.826 581.811 139.691 581.192C139.556 580.573 139.609 579.927 139.844 579.338C140.08 578.75 140.486 578.245 141.01 577.889C141.535 577.533 142.154 577.343 142.788 577.342C143.197 577.322 143.606 577.385 143.991 577.527C144.375 577.67 144.726 577.889 145.023 578.172C145.32 578.455 145.556 578.795 145.717 579.172C145.879 579.549 145.962 579.954 145.961 580.364Z" fill="#4B9BE9" fill-opacity="0.5"/>
<path d="M1139.78 588.282L1153.47 590.549L1139.78 592.815L1137.55 606.506L1135.28 592.815L1121.59 590.549L1135.28 588.282L1137.55 574.622L1139.78 588.282Z" fill="#4B9BE9" fill-opacity="0.15"/>
<path d="M1140.72 590.549L1148.82 601.821L1137.55 593.722L1126.27 601.821L1134.34 590.549L1126.27 579.276L1137.55 587.376L1148.82 579.276L1140.72 590.549Z" fill="#4B9BE9" fill-opacity="0.15"/>
<path d="M1137.55 593.722C1139.3 593.722 1140.72 592.301 1140.72 590.549C1140.72 588.796 1139.3 587.375 1137.55 587.375C1135.79 587.375 1134.37 588.796 1134.37 590.549C1134.37 592.301 1135.79 593.722 1137.55 593.722Z" fill="#4B9BE9" fill-opacity="0.5"/>
<path d="M1285.81 313.058L1299.5 315.295L1285.81 317.561L1283.54 331.251L1281.31 317.561L1267.62 315.295L1281.31 313.058L1283.54 299.368L1285.81 313.058Z" fill="#4B9BE9" fill-opacity="0.15"/>
<path d="M1286.75 315.295L1294.82 326.567L1283.54 318.498L1272.27 326.567L1280.37 315.295L1272.27 304.022L1283.54 312.121L1294.82 304.022L1286.75 315.295Z" fill="#4B9BE9" fill-opacity="0.15"/>
<path d="M1283.54 318.468C1285.3 318.468 1286.72 317.047 1286.72 315.295C1286.72 313.542 1285.3 312.122 1283.54 312.122C1281.79 312.122 1280.37 313.542 1280.37 315.295C1280.37 317.047 1281.79 318.468 1283.54 318.468Z" fill="#4B9BE9" fill-opacity="0.5"/>
<path d="M334.662 39.5571L348.352 41.8237L334.662 44.0903L332.395 57.7502L330.159 44.0903L316.469 41.8237L330.159 39.5571L332.395 25.8669L334.662 39.5571Z" fill="#4B9BE9" fill-opacity="0.15"/>
<path d="M335.599 41.824L343.668 53.0965L332.396 44.9972L321.123 53.0965L329.222 41.824L321.123 30.5515L332.396 38.6205L343.668 30.5515L335.599 41.824Z" fill="#4B9BE9" fill-opacity="0.15"/>
<path d="M332.395 44.9971C334.148 44.9971 335.569 43.5764 335.569 41.8239C335.569 40.0713 334.148 38.6506 332.395 38.6506C330.643 38.6506 329.222 40.0713 329.222 41.8239C329.222 43.5764 330.643 44.9971 332.395 44.9971Z" fill="#4B9BE9" fill-opacity="0.5"/>
<path d="M422.182 665.346L435.842 667.613L422.182 669.849L419.916 683.539L417.679 669.849L403.989 667.613L417.679 665.346L419.916 651.686L422.182 665.346Z" fill="#4B9BE9" fill-opacity="0.15"/>
<path d="M423.119 667.613L431.188 678.885L419.916 670.786L408.644 678.885L416.743 667.613L408.644 656.34L419.916 664.409L431.188 656.34L423.119 667.613Z" fill="#4B9BE9" fill-opacity="0.15"/>
<path d="M419.916 670.786C421.668 670.786 423.089 669.365 423.089 667.612C423.089 665.86 421.668 664.439 419.916 664.439C418.163 664.439 416.743 665.86 416.743 667.612C416.743 669.365 418.163 670.786 419.916 670.786Z" fill="#4B9BE9" fill-opacity="0.5"/>
<path d="M711.882 911.195L725.572 913.431L711.882 915.698L709.615 929.358L707.348 915.698L693.688 913.431L707.348 911.195L709.615 897.505L711.882 911.195Z" fill="#4B9BE9" fill-opacity="0.15"/>
<path d="M712.819 913.431L720.888 924.704L709.615 916.635L698.343 924.704L706.442 913.431L698.343 902.159L709.615 910.258L720.888 902.159L712.819 913.431Z" fill="#4B9BE9" fill-opacity="0.15"/>
<path d="M712.788 913.431C712.788 914.059 712.602 914.672 712.254 915.194C711.905 915.716 711.409 916.123 710.829 916.363C710.25 916.603 709.612 916.666 708.996 916.543C708.381 916.421 707.815 916.119 707.371 915.675C706.928 915.231 706.625 914.666 706.503 914.05C706.38 913.435 706.443 912.797 706.683 912.217C706.924 911.637 707.33 911.141 707.852 910.793C708.374 910.444 708.988 910.258 709.615 910.258C710.038 910.236 710.46 910.303 710.855 910.455C711.249 910.607 711.608 910.84 711.907 911.139C712.206 911.438 712.439 911.797 712.591 912.192C712.743 912.586 712.81 913.009 712.788 913.431Z" fill="#4B9BE9" fill-opacity="0.5"/>
<path d="M853.8 276.551L867.491 278.788L853.8 281.054L851.534 294.744L849.298 281.054L835.607 278.788L849.298 276.551L851.534 262.861L853.8 276.551Z" fill="#4B9BE9" fill-opacity="0.15"/>
<path d="M854.738 278.788L862.807 290.06L851.534 281.991L840.262 290.06L848.361 278.788L840.262 267.515L851.534 275.614L862.807 267.515L854.738 278.788Z" fill="#4B9BE9" fill-opacity="0.15"/>
<path d="M854.707 278.788C854.707 279.415 854.521 280.029 854.172 280.55C853.824 281.072 853.328 281.479 852.748 281.719C852.169 281.959 851.531 282.022 850.915 281.9C850.299 281.777 849.734 281.475 849.29 281.031C848.846 280.588 848.544 280.022 848.422 279.407C848.299 278.791 848.362 278.153 848.602 277.573C848.843 276.993 849.249 276.498 849.771 276.149C850.293 275.8 850.906 275.614 851.534 275.614C851.956 275.593 852.379 275.66 852.774 275.812C853.168 275.963 853.527 276.196 853.826 276.496C854.125 276.795 854.358 277.153 854.51 277.548C854.662 277.943 854.729 278.365 854.707 278.788Z" fill="#4B9BE9" fill-opacity="0.5"/>
<path d="M228.737 208.765L244.875 211.394L228.737 214.054L226.078 230.222L223.418 214.054L207.28 211.394L223.418 208.765L226.078 192.597L228.737 208.765Z" fill="#4B9BE9" fill-opacity="0.15"/>
<path d="M229.825 211.395L239.375 224.722L226.078 215.172L212.78 224.722L222.3 211.395L212.78 198.097L226.078 207.647L239.375 198.097L229.825 211.395Z" fill="#4B9BE9" fill-opacity="0.15"/>
<path d="M229.945 211.394C229.951 212.137 229.737 212.864 229.329 213.485C228.92 214.105 228.337 214.59 227.653 214.878C226.969 215.166 226.215 215.245 225.486 215.104C224.757 214.963 224.086 214.608 223.559 214.085C223.032 213.562 222.672 212.895 222.525 212.167C222.378 211.439 222.45 210.684 222.733 209.998C223.016 209.311 223.496 208.724 224.113 208.311C224.73 207.898 225.456 207.677 226.198 207.677C227.187 207.677 228.135 208.068 228.837 208.764C229.539 209.46 229.937 210.406 229.945 211.394Z" fill="#4B9BE9" fill-opacity="0.5"/>
<path d="M611.246 4.13807L627.384 6.79754L611.246 9.45699L608.586 25.6253L605.927 9.45699L589.789 6.79754L605.927 4.13807L608.586 -12L611.246 4.13807Z" fill="#4B9BE9" fill-opacity="0.15"/>
<path d="M612.333 6.79754L621.883 20.0948L608.586 10.5752L595.289 20.0948L604.838 6.79754L595.289 -6.49976L608.586 3.05011L621.883 -6.49976L612.333 6.79754Z" fill="#4B9BE9" fill-opacity="0.15"/>
<path d="M612.333 6.79773C612.333 7.7916 611.938 8.74476 611.236 9.44754C610.533 10.1503 609.58 10.5451 608.586 10.5451C607.592 10.5451 606.639 10.1503 605.936 9.44754C605.233 8.74476 604.838 7.7916 604.838 6.79773C604.838 5.80385 605.233 4.85067 605.936 4.14789C606.639 3.44512 607.592 3.05029 608.586 3.05029C609.58 3.05029 610.533 3.44512 611.236 4.14789C611.938 4.85067 612.333 5.80385 612.333 6.79773Z" fill="#4B9BE9" fill-opacity="0.5"/>
<path d="M508.161 341.436L524.299 344.096L508.161 346.755L505.502 362.893L502.812 346.755L486.674 344.096L502.812 341.436L505.502 325.298L508.161 341.436Z" fill="#4B9BE9" fill-opacity="0.15"/>
<path d="M509.25 344.095L518.769 357.393L505.502 347.873L492.205 357.393L501.725 344.095L492.205 330.798L505.502 340.348L518.769 330.798L509.25 344.095Z" fill="#4B9BE9" fill-opacity="0.15"/>
<path d="M509.219 344.095C509.219 344.838 508.999 345.564 508.586 346.18C508.173 346.797 507.586 347.278 506.899 347.56C506.212 347.843 505.458 347.916 504.73 347.769C504.002 347.621 503.334 347.262 502.811 346.734C502.289 346.207 501.934 345.537 501.793 344.808C501.652 344.079 501.73 343.324 502.019 342.64C502.307 341.956 502.792 341.373 503.412 340.965C504.032 340.557 504.76 340.342 505.502 340.348C505.993 340.348 506.479 340.445 506.932 340.634C507.385 340.823 507.796 341.099 508.141 341.447C508.487 341.796 508.76 342.209 508.945 342.664C509.13 343.118 509.223 343.605 509.219 344.095Z" fill="#4B9BE9" fill-opacity="0.5"/>
<path d="M259.2 851.931L275.338 854.59L259.2 857.25L256.54 873.388L253.881 857.25L237.743 854.59L253.881 851.931L256.54 835.793L259.2 851.931Z" fill="#4B9BE9" fill-opacity="0.15"/>
<path d="M260.288 854.591L269.838 867.888L256.541 858.368L243.244 867.888L252.763 854.591L243.244 841.293L256.541 850.843L269.838 841.293L260.288 854.591Z" fill="#4B9BE9" fill-opacity="0.15"/>
<path d="M260.167 854.591C260.167 855.332 259.947 856.056 259.536 856.673C259.124 857.289 258.539 857.769 257.854 858.053C257.169 858.336 256.416 858.411 255.689 858.266C254.962 858.121 254.294 857.764 253.77 857.24C253.246 856.716 252.889 856.049 252.744 855.322C252.6 854.595 252.674 853.841 252.958 853.156C253.241 852.472 253.722 851.886 254.338 851.475C254.954 851.063 255.679 850.843 256.42 850.843C257.414 850.843 258.367 851.238 259.07 851.941C259.772 852.644 260.167 853.597 260.167 854.591Z" fill="#4B9BE9" fill-opacity="0.5"/>
<path d="M911.553 651.656L927.691 654.315L911.553 656.975L908.893 673.113L906.234 656.975L890.065 654.315L906.234 651.656L908.893 635.518L911.553 651.656Z" fill="#4B9BE9" fill-opacity="0.15"/>
<path d="M912.64 654.315L922.19 667.612L908.893 658.062L895.596 667.612L905.115 654.315L895.596 641.018L908.893 650.537L922.19 641.018L912.64 654.315Z" fill="#4B9BE9" fill-opacity="0.15"/>
<path d="M912.641 654.315C912.641 655.309 912.246 656.262 911.543 656.965C910.84 657.668 909.887 658.063 908.893 658.063C907.9 658.063 906.946 657.668 906.244 656.965C905.541 656.262 905.146 655.309 905.146 654.315C905.146 653.322 905.541 652.368 906.244 651.666C906.946 650.963 907.9 650.568 908.893 650.568C909.887 650.568 910.84 650.963 911.543 651.666C912.246 652.368 912.641 653.322 912.641 654.315Z" fill="#4B9BE9" fill-opacity="0.5"/>
<path d="M521.886 108.362C526.438 80.3212 507.396 53.9001 479.356 49.3485C451.315 44.7969 424.894 63.8384 420.342 91.8789C415.791 119.919 434.832 146.34 462.873 150.892C490.913 155.444 517.334 136.402 521.886 108.362Z" fill="#4B9BE9" fill-opacity="0.15"/>
<path d="M1285.02 482.581C1291.54 454.933 1274.42 427.23 1246.77 420.705C1219.13 414.179 1191.42 431.302 1184.9 458.95C1178.37 486.598 1195.49 514.301 1223.14 520.826C1250.79 527.352 1278.49 510.229 1285.02 482.581Z" fill="#4B9BE9" fill-opacity="0.15"/>
<path d="M819.378 1035.71C847.786 1035.71 870.815 1012.68 870.815 984.269C870.815 955.862 847.786 932.833 819.378 932.833C790.971 932.833 767.942 955.862 767.942 984.269C767.942 1012.68 790.971 1035.71 819.378 1035.71Z" fill="#4B9BE9" fill-opacity="0.15"/>
<path d="M1070.56 140.862C1074.3 125.024 1064.49 109.154 1048.65 105.416C1032.81 101.678 1016.95 111.487 1013.21 127.325C1009.47 143.164 1019.28 159.033 1035.12 162.771C1050.95 166.51 1066.82 156.701 1070.56 140.862Z" fill="#4B9BE9" fill-opacity="0.15"/>
<path d="M703.844 746.792C720.117 746.792 733.309 733.6 733.309 717.326C733.309 701.053 720.117 687.861 703.844 687.861C687.57 687.861 674.378 701.053 674.378 717.326C674.378 733.6 687.57 746.792 703.844 746.792Z" fill="#4B9BE9" fill-opacity="0.15"/>
<path d="M289.768 637.665C301.275 626.158 301.275 607.502 289.768 595.995C278.261 584.488 259.605 584.488 248.098 595.995C236.59 607.502 236.59 626.158 248.098 637.665C259.605 649.172 278.261 649.172 289.768 637.665Z" fill="#4B9BE9" fill-opacity="0.15"/>
</g>
<defs>
<clipPath id="clip0_1341_802">
<rect width="1440" height="1024" fill="white"/>
</clipPath>
</defs>
</svg>
