<svg width="120" height="120" viewBox="0 0 120 120" fill="none" xmlns="http://www.w3.org/2000/svg">
<rect x="10" y="10" width="100" height="100" rx="50" fill="#E8E8E8"/>
<path d="M38.9091 65.5V53.8636H40.3182V64.25H45.7273V65.5H38.9091ZM57.2741 59.6818C57.2741 60.9091 57.0526 61.9697 56.6094 62.8636C56.1662 63.7576 55.5582 64.447 54.7855 64.9318C54.0128 65.4167 53.1302 65.6591 52.1378 65.6591C51.1454 65.6591 50.2628 65.4167 49.4901 64.9318C48.7173 64.447 48.1094 63.7576 47.6662 62.8636C47.223 61.9697 47.0014 60.9091 47.0014 59.6818C47.0014 58.4545 47.223 57.3939 47.6662 56.5C48.1094 55.6061 48.7173 54.9167 49.4901 54.4318C50.2628 53.947 51.1454 53.7045 52.1378 53.7045C53.1302 53.7045 54.0128 53.947 54.7855 54.4318C55.5582 54.9167 56.1662 55.6061 56.6094 56.5C57.0526 57.3939 57.2741 58.4545 57.2741 59.6818ZM55.9105 59.6818C55.9105 58.6742 55.742 57.8239 55.4048 57.1307C55.0715 56.4375 54.6188 55.9129 54.0469 55.5568C53.4787 55.2008 52.8423 55.0227 52.1378 55.0227C51.4332 55.0227 50.795 55.2008 50.223 55.5568C49.6548 55.9129 49.2022 56.4375 48.8651 57.1307C48.5317 57.8239 48.3651 58.6742 48.3651 59.6818C48.3651 60.6894 48.5317 61.5398 48.8651 62.233C49.2022 62.9261 49.6548 63.4508 50.223 63.8068C50.795 64.1629 51.4332 64.3409 52.1378 64.3409C52.8423 64.3409 53.4787 64.1629 54.0469 63.8068C54.6188 63.4508 55.0715 62.9261 55.4048 62.233C55.742 61.5398 55.9105 60.6894 55.9105 59.6818ZM67.598 57.5C67.473 57.1174 67.3082 56.7746 67.1037 56.4716C66.9029 56.1648 66.6624 55.9034 66.3821 55.6875C66.1056 55.4716 65.7912 55.3068 65.4389 55.1932C65.0866 55.0795 64.7003 55.0227 64.2798 55.0227C63.5904 55.0227 62.9635 55.2008 62.3991 55.5568C61.8348 55.9129 61.3859 56.4375 61.0526 57.1307C60.7192 57.8239 60.5526 58.6742 60.5526 59.6818C60.5526 60.6894 60.7211 61.5398 61.0582 62.233C61.3954 62.9261 61.8518 63.4508 62.4276 63.8068C63.0033 64.1629 63.651 64.3409 64.3707 64.3409C65.0374 64.3409 65.6245 64.1989 66.1321 63.9148C66.6435 63.6269 67.0412 63.2216 67.3253 62.6989C67.6132 62.1723 67.7571 61.553 67.7571 60.8409L68.1889 60.9318H64.6889V59.6818H69.1207V60.9318C69.1207 61.8902 68.9162 62.7235 68.5071 63.4318C68.1018 64.1402 67.5412 64.6894 66.8253 65.0795C66.1132 65.4659 65.295 65.6591 64.3707 65.6591C63.3404 65.6591 62.4351 65.4167 61.6548 64.9318C60.8783 64.447 60.2723 63.7576 59.8366 62.8636C59.4048 61.9697 59.1889 60.9091 59.1889 59.6818C59.1889 58.7614 59.312 57.9337 59.5582 57.1989C59.8082 56.4602 60.1605 55.8314 60.6151 55.3125C61.0696 54.7936 61.6075 54.3958 62.2287 54.1193C62.8499 53.8428 63.5336 53.7045 64.2798 53.7045C64.8935 53.7045 65.4654 53.7973 65.9957 53.983C66.5298 54.1648 67.0052 54.4242 67.4219 54.7614C67.8423 55.0947 68.1927 55.4943 68.473 55.9602C68.7533 56.4223 68.9465 56.9356 69.0526 57.5H67.598ZM81.3523 59.6818C81.3523 60.9091 81.1307 61.9697 80.6875 62.8636C80.2443 63.7576 79.6364 64.447 78.8636 64.9318C78.0909 65.4167 77.2083 65.6591 76.2159 65.6591C75.2235 65.6591 74.3409 65.4167 73.5682 64.9318C72.7955 64.447 72.1875 63.7576 71.7443 62.8636C71.3011 61.9697 71.0795 60.9091 71.0795 59.6818C71.0795 58.4545 71.3011 57.3939 71.7443 56.5C72.1875 55.6061 72.7955 54.9167 73.5682 54.4318C74.3409 53.947 75.2235 53.7045 76.2159 53.7045C77.2083 53.7045 78.0909 53.947 78.8636 54.4318C79.6364 54.9167 80.2443 55.6061 80.6875 56.5C81.1307 57.3939 81.3523 58.4545 81.3523 59.6818ZM79.9886 59.6818C79.9886 58.6742 79.8201 57.8239 79.483 57.1307C79.1496 56.4375 78.697 55.9129 78.125 55.5568C77.5568 55.2008 76.9205 55.0227 76.2159 55.0227C75.5114 55.0227 74.8731 55.2008 74.3011 55.5568C73.733 55.9129 73.2803 56.4375 72.9432 57.1307C72.6098 57.8239 72.4432 58.6742 72.4432 59.6818C72.4432 60.6894 72.6098 61.5398 72.9432 62.233C73.2803 62.9261 73.733 63.4508 74.3011 63.8068C74.8731 64.1629 75.5114 64.3409 76.2159 64.3409C76.9205 64.3409 77.5568 64.1629 78.125 63.8068C78.697 63.4508 79.1496 62.9261 79.483 62.233C79.8201 61.5398 79.9886 60.6894 79.9886 59.6818Z" fill="black"/>
</svg>
