<svg width="459" height="380" viewBox="0 0 459 380" fill="none" xmlns="http://www.w3.org/2000/svg">
<path d="M56.707 303.459C56.707 318.202 45.7868 327.305 28.1688 327.305H13.0363V346.65H0.588867V279.622H28.1688C45.7868 279.622 56.707 288.626 56.707 303.469V303.459ZM44.1597 303.459C44.1597 295.034 38.51 290.153 27.5898 290.153H13.0363V316.775H27.5898C38.51 316.775 44.1597 311.893 44.1597 303.469V303.459Z" fill="#1F3338"/>
<path d="M65.3215 313.131C65.3215 293.307 80.6437 278.654 101.426 278.654C122.208 278.654 137.53 293.207 137.53 313.131C137.53 333.055 122.208 347.609 101.426 347.609C80.6437 347.609 65.3215 332.955 65.3215 313.131ZM124.983 313.131C124.983 299.436 114.931 289.574 101.426 289.574C87.9205 289.574 77.8688 299.436 77.8688 313.131C77.8688 326.826 87.9205 336.688 101.426 336.688C114.931 336.688 124.983 326.826 124.983 313.131Z" fill="#1F3338"/>
<path d="M150.736 279.622H180.043C201.783 279.622 216.626 293.028 216.626 313.141C216.626 333.255 201.783 346.66 180.043 346.66H150.736V279.632V279.622ZM179.464 336.119C194.397 336.119 204.069 327.026 204.069 313.141C204.069 299.256 194.397 290.163 179.464 290.163H163.183V336.129H179.464V336.119Z" fill="#1F3338"/>
<path d="M226.578 315.048H252.911V325.01H226.578V315.048Z" fill="#1F3338"/>
<path d="M308.07 326.537C308.07 337.836 299.546 347.599 281.549 347.599C272.066 347.599 262.583 344.724 256.364 339.843L261.725 330.17C266.516 334.193 273.793 336.778 281.359 336.778C290.263 336.778 295.533 332.855 295.533 326.627C295.533 320.398 291.131 316.665 280.98 316.665H274.851V308.14L290.073 290.043H259.618V279.602H305.295V287.937L289.015 307.282C301.652 308.909 308.07 316.475 308.07 326.527V326.537Z" fill="#1F3338"/>
<path d="M369.728 325.868C369.728 339.174 358.908 347.609 345.213 347.609C326.926 347.609 316.196 335.83 316.196 314.289C316.196 291.311 329.601 278.664 349.036 278.664C355.744 278.664 362.152 280.101 366.654 282.976L362.052 292.359C358.409 289.963 354.007 289.105 349.316 289.105C336.679 289.105 328.733 296.961 328.733 312.183V312.283C332.756 307.591 339.174 305.295 346.64 305.295C359.856 305.295 369.718 313.341 369.718 325.878L369.728 325.868ZM357.67 326.447C357.67 319.46 352.4 315.048 344.265 315.048C336.129 315.048 330.669 319.929 330.669 326.537C330.669 333.145 335.65 337.836 344.554 337.836C352.31 337.836 357.67 333.434 357.67 326.437V326.447Z" fill="#1F3338"/>
<path d="M376.247 313.131C376.247 291.111 388.315 278.654 404.206 278.654C420.097 278.654 432.265 291.101 432.265 313.131C432.265 335.161 420.197 347.609 404.206 347.609C388.215 347.609 376.247 335.161 376.247 313.131ZM419.718 313.131C419.718 296.951 413.399 289.474 404.206 289.474C395.013 289.474 388.784 296.941 388.784 313.131C388.784 329.322 395.102 336.788 404.206 336.788C413.309 336.788 419.718 329.322 419.718 313.131Z" fill="#1F3338"/>
<path d="M438.224 279.443H446.529V281.02H443.375V288.416H441.389V281.02H438.234V279.443H438.224ZM456.651 288.416L456.631 282.747L453.606 287.418H452.698L449.644 282.856V288.416H447.767V279.443H449.364L453.167 285.192L456.91 279.443H458.507L458.527 288.416H456.651Z" fill="#1F3338"/>
<path d="M0 371.456C0 366.554 3.79312 362.931 8.93379 362.931C14.0745 362.931 17.8676 366.535 17.8676 371.456C17.8676 376.377 14.0745 379.98 8.93379 379.98C3.79312 379.98 0 376.357 0 371.456ZM14.7532 371.456C14.7532 368.072 12.2677 365.626 8.9238 365.626C5.57987 365.626 3.09439 368.062 3.09439 371.456C3.09439 374.849 5.57987 377.285 8.9238 377.285C12.2677 377.285 14.7532 374.849 14.7532 371.456Z" fill="#1F3338"/>
<path d="M21.7107 371.455C21.7107 366.504 25.5038 362.931 30.5946 362.931C33.2997 362.931 35.6154 363.899 37.1527 365.706L35.1663 367.573C33.9585 366.275 32.4612 365.626 30.7343 365.626C27.3006 365.626 24.8151 368.042 24.8151 371.455C24.8151 374.869 27.3006 377.285 30.7343 377.285C32.4612 377.285 33.9585 376.646 35.1663 375.318L37.1527 377.215C35.6154 379.012 33.2897 379.99 30.5646 379.99C25.4938 379.99 21.7107 376.416 21.7107 371.465V371.455Z" fill="#1F3338"/>
<path d="M57.1264 379.74L57.1064 368.75L51.6563 377.844H50.2788L44.8287 368.89V379.74H41.894V363.161H44.4294L51.0175 374.151L57.4858 363.161H60.0211L60.0411 379.74H57.1264Z" fill="#1F3338"/>
<path d="M88.4793 369.06C88.4793 372.703 85.7742 374.959 81.4221 374.959H77.6789V379.74H74.6045V363.161H81.4221C85.7842 363.161 88.4793 365.386 88.4793 369.06ZM85.3749 369.06C85.3749 366.974 83.9775 365.766 81.2824 365.766H77.6789V372.354H81.2824C83.9775 372.354 85.3749 371.146 85.3749 369.06Z" fill="#1F3338"/>
<path d="M93.3305 363.161H96.405V377.135H105.069V379.74H93.3206V363.161H93.3305Z" fill="#1F3338"/>
<path d="M120.172 375.907H111.887L110.25 379.74H107.076L114.532 363.161H117.567L125.053 379.74H121.829L120.172 375.907ZM119.154 373.492L116.029 366.245L112.925 373.492H119.154Z" fill="#1F3338"/>
<path d="M131.461 365.766H125.971V363.161H140.036V365.766H134.546V379.74H131.471V365.766H131.461Z" fill="#1F3338"/>
<path d="M147.213 365.746V370.787H155.218V373.392H147.213V379.74H144.138V363.161H156.236V365.746H147.213Z" fill="#1F3338"/>
<path d="M159.63 371.455C159.63 366.554 163.423 362.931 168.564 362.931C173.705 362.931 177.498 366.534 177.498 371.455C177.498 376.377 173.705 379.98 168.564 379.98C163.423 379.98 159.63 376.357 159.63 371.455ZM174.383 371.455C174.383 368.072 171.898 365.626 168.554 365.626C165.21 365.626 162.725 368.062 162.725 371.455C162.725 374.849 165.21 377.285 168.554 377.285C171.898 377.285 174.383 374.849 174.383 371.455Z" fill="#1F3338"/>
<path d="M193.379 379.74L189.995 374.889C189.786 374.909 189.566 374.909 189.356 374.909H185.613V379.74H182.539V363.161H189.356C193.719 363.161 196.414 365.386 196.414 369.06C196.414 371.575 195.136 373.422 192.88 374.29L196.693 379.74H193.379ZM189.207 365.766H185.603V372.374H189.207C191.902 372.374 193.299 371.146 193.299 369.06C193.299 366.974 191.902 365.766 189.207 365.766Z" fill="#1F3338"/>
<path d="M216.846 379.74L216.826 368.75L211.376 377.844H209.999L204.549 368.89V379.74H201.614V363.161H204.149L210.737 374.151L217.206 363.161H219.741L219.761 379.74H216.846Z" fill="#1F3338"/>
<path d="M246.762 380L244.676 377.984C243.179 379.261 241.292 379.97 239.106 379.97C235.602 379.97 233.067 378.143 233.067 375.538C233.067 373.482 234.205 372.034 236.9 370.517C235.552 369.17 235.053 368.082 235.053 366.874C235.053 364.548 236.95 362.961 239.865 362.961C242.54 362.961 244.296 364.358 244.296 366.604C244.296 368.311 243.298 369.539 240.913 370.887L244.486 374.3C244.885 373.522 245.195 372.573 245.414 371.505L247.81 372.284C247.501 373.731 247.002 375.009 246.313 376.077L248.399 378.064L246.762 379.98V380ZM242.919 376.307L238.537 372.114C236.62 373.182 235.952 374.061 235.952 375.239C235.952 376.616 237.279 377.564 239.316 377.564C240.693 377.564 241.901 377.135 242.919 376.307ZM237.758 366.834C237.758 367.573 238.068 368.112 239.256 369.299C241.172 368.261 241.791 367.573 241.791 366.674C241.791 365.726 241.102 365.087 239.875 365.087C238.547 365.087 237.768 365.826 237.768 366.844L237.758 366.834Z" fill="#1F3338"/>
<path d="M261.136 363.161H268.383C273.763 363.161 277.426 366.474 277.426 371.445C277.426 376.416 273.753 379.73 268.383 379.73H261.136V363.151V363.161ZM268.243 377.135C271.936 377.135 274.332 374.889 274.332 371.455C274.332 368.022 271.936 365.776 268.243 365.776H264.22V377.145H268.243V377.135Z" fill="#1F3338"/>
<path d="M282.477 363.161H285.551V379.74H282.477V363.161Z" fill="#1F3338"/>
<path d="M302.561 375.907H294.276L292.639 379.74H289.464L296.921 363.161H299.955L307.442 379.74H304.218L302.561 375.907ZM301.542 373.492L298.418 366.245L295.314 373.492H301.542Z" fill="#1F3338"/>
<path d="M322.405 371.266H325.319V377.874C323.592 379.271 321.177 379.98 318.831 379.98C313.69 379.98 309.907 376.406 309.907 371.455C309.907 366.504 313.7 362.931 318.881 362.931C321.656 362.931 323.972 363.859 325.539 365.636L323.592 367.533C322.285 366.225 320.797 365.636 319.021 365.636C315.487 365.636 313.002 368.032 313.002 371.465C313.002 374.899 315.487 377.295 318.991 377.295C320.179 377.295 321.336 377.055 322.405 376.446V371.286V371.266Z" fill="#1F3338"/>
<path d="M345.872 363.161V379.74H343.336L334.193 368.511V379.74H331.139V363.161H333.674L342.817 374.39V363.161H345.872Z" fill="#1F3338"/>
<path d="M350.923 371.455C350.923 366.554 354.716 362.931 359.857 362.931C364.997 362.931 368.79 366.534 368.79 371.455C368.79 376.377 364.997 379.98 359.857 379.98C354.716 379.98 350.923 376.357 350.923 371.455ZM365.676 371.455C365.676 368.072 363.191 365.626 359.847 365.626C356.503 365.626 354.017 368.062 354.017 371.455C354.017 374.849 356.503 377.285 359.847 377.285C363.191 377.285 365.676 374.849 365.676 371.455Z" fill="#1F3338"/>
<path d="M372.424 377.994L373.492 375.598C374.819 376.666 376.926 377.425 378.962 377.425C381.547 377.425 382.635 376.496 382.635 375.269C382.635 371.695 372.783 374.041 372.783 367.882C372.783 365.207 374.919 362.931 379.461 362.931C381.447 362.931 383.534 363.45 384.981 364.398L384.013 366.794C382.515 365.915 380.888 365.486 379.441 365.486C376.886 365.486 375.838 366.484 375.838 367.732C375.838 371.266 385.67 368.96 385.67 375.049C385.67 377.704 383.514 379.98 378.972 379.98C376.387 379.98 373.811 379.171 372.434 377.994H372.424Z" fill="#1F3338"/>
<path d="M393.625 365.766H388.135V363.161H402.2V365.766H396.71V379.74H393.635V365.766H393.625Z" fill="#1F3338"/>
<path d="M406.292 363.161H409.367V379.74H406.292V363.161Z" fill="#1F3338"/>
<path d="M414.437 371.455C414.437 366.504 418.23 362.931 423.321 362.931C426.026 362.931 428.342 363.899 429.879 365.706L427.893 367.573C426.685 366.275 425.188 365.626 423.461 365.626C420.027 365.626 417.542 368.042 417.542 371.455C417.542 374.869 420.027 377.285 423.461 377.285C425.188 377.285 426.685 376.646 427.893 375.318L429.879 377.215C428.342 379.012 426.016 379.99 423.291 379.99C418.221 379.99 414.437 376.416 414.437 371.465V371.455Z" fill="#1F3338"/>
<path d="M262.533 25.3442L200.666 0.000183105L183.646 13.9149V20.8723L151.834 41.2053L154.529 45.4077L188.637 23.6073V16.2806L201.524 5.73976L211.336 9.76245L192.301 23.9068L195.275 27.9095L216.736 11.9685L225.81 15.6917L200.995 33.6391L203.92 37.6817L231.25 17.9177L239.126 21.1418L208.881 43.3315L211.825 47.3542L244.536 23.3578L252.471 26.6119L217.116 52.974L220.989 62.9958L211.027 67.0784L188.957 56.5775L166.298 81.033L169.961 84.4169L190.125 62.6564L210.877 72.5385L227.407 65.7508L223.135 54.7108L262.533 25.3442Z" fill="#E11B50"/>
<path d="M154.06 30.6145L101.176 71.5202L104.73 93.2208L110.749 96.6945L112.446 134.416L117.437 134.186L115.61 93.7398L109.272 90.0765L106.586 73.6463L114.971 67.1581L117.696 90.7153L122.657 90.1464L119.583 63.5946L127.339 57.5955L130.473 88.0602L135.444 87.5511L131.99 54.002L138.718 48.7915L142.811 86.0738L147.772 85.5347L143.35 45.208L150.127 39.9575L155.278 83.768L165.899 85.415L164.451 96.0956L144.318 109.95L154.17 141.793L158.941 140.325L150.177 111.977L169.103 98.9504L171.499 81.2426L159.79 79.4159L154.06 30.6145Z" fill="#1C7ABF"/>
<path d="M104.39 127.189L113.374 193.439L133.947 201.215L139.966 197.741L173.475 215.129L175.771 210.697L139.836 192.051L133.498 195.715L117.926 189.825L116.498 179.314L138.259 188.737L140.245 184.156L115.71 173.535L114.392 163.823L142.351 176.34L144.388 171.788L113.604 157.993L112.456 149.568L146.803 164.661L148.81 160.089L111.677 143.769L110.519 135.264L151.036 152.713L157.773 144.338L166.298 150.926L168.224 175.292L200.735 182.688L201.843 177.817L172.916 171.239L171.099 148.331L156.955 137.401L149.518 146.624L104.39 127.189Z" fill="#713285"/>
<path d="M163.193 218.493L225.061 243.837L242.08 229.913V222.965L273.892 202.632L271.197 198.43L237.089 220.23V227.547L224.203 238.098L214.39 234.075L233.426 219.931L230.451 215.928L208.99 231.859L199.917 228.146L224.732 210.198L221.807 206.156L194.477 225.92L186.601 222.696L216.846 200.506L213.891 196.483L181.191 220.47L173.255 217.226L208.611 190.864L204.738 180.842L214.7 176.749L236.77 187.26L259.429 162.804L255.765 159.411L235.602 181.181L214.85 171.299L198.32 178.077L202.592 189.127L163.193 218.493Z" fill="#879D3B"/>
<path d="M271.667 213.223L324.551 172.317L320.997 150.617L314.978 147.143L313.281 109.421L308.29 109.651L310.117 150.098L316.455 153.751L319.14 170.181L310.756 176.679L308.031 153.122L303.07 153.691L306.144 180.243L298.388 186.242L295.254 155.777L290.283 156.286L293.736 189.835L287.009 195.046L282.916 157.764L277.955 158.303L282.377 198.629L275.599 203.87L270.449 160.069L259.828 158.422L261.275 147.742L281.409 133.887L271.557 102.035L266.785 103.512L275.55 131.851L256.624 144.887L254.228 162.595L265.937 164.422L271.667 213.223Z" fill="#5EC3CB"/>
<path d="M321.336 116.638L312.353 50.3887L291.78 42.6128L285.761 46.0965L252.252 28.7081L249.956 33.14L285.891 51.7862L292.229 48.1228L307.801 54.0121L309.228 64.523L287.468 55.1001L285.481 59.6818L310.017 70.2926L311.334 80.0149L283.375 67.4976L281.339 72.0494L312.123 85.8343L313.261 94.269L278.923 79.1764L276.917 83.7381L314.05 100.068L315.207 108.573L274.691 91.1247L267.953 99.4995L259.429 92.9115L257.502 68.5457L224.991 61.1492L223.883 66.0203L252.811 72.5984L254.627 95.5068L268.772 106.437L276.208 97.2137L321.336 116.638Z" fill="#F38E22"/>
<path d="M262.533 25.3442L200.666 0.000183105L183.646 13.9149V20.8723L151.834 41.2053L154.529 45.4077L188.637 23.6073V16.2806L201.524 5.73976L211.336 9.76245L192.301 23.9068L195.275 27.9095L216.736 11.9685L225.81 15.6917L200.995 33.6391L203.92 37.6817L231.25 17.9177L239.126 21.1418L208.881 43.3315L211.825 47.3542L244.536 23.3578L252.471 26.6119L217.116 52.974L220.989 62.9958L211.027 67.0784L188.957 56.5775L166.298 81.033L169.961 84.4169L190.125 62.6564L210.877 72.5385L227.407 65.7508L223.135 54.7108L262.533 25.3442Z" fill="#E11B50"/>
</svg>
