<svg width="793" height="383" viewBox="0 0 793 383" fill="none" xmlns="http://www.w3.org/2000/svg">
<path d="M772 262H780.305V263.577H777.151V270.974H775.164V263.577H772.01V262H772ZM790.426 270.974L790.406 265.304L787.382 269.976H786.474L783.419 265.414V270.974H781.543V262H783.14L786.943 267.75L790.686 262H792.283L792.303 270.974H790.426Z" fill="#1F3338"/>
<path fill-rule="evenodd" clip-rule="evenodd" d="M503.633 144.203C502.741 147.502 501.708 150.738 500.534 153.912C502.984 155.89 504.558 158.919 504.558 162.323C504.558 168.294 499.718 173.134 493.747 173.134C492.94 173.128 492.156 173.039 491.396 172.869C471.692 205.498 435.875 227.366 395.05 227.366C391.968 227.366 388.915 227.242 385.892 226.993L385.4 227.288L385.203 226.934C361.368 224.858 339.648 215.316 322.393 200.668C320.75 201.662 318.842 202.242 316.786 202.242C310.815 202.242 305.975 197.402 305.975 191.431C305.975 189.297 306.605 187.3 307.677 185.627C299.502 175.534 293.029 164.015 288.711 151.502C288.658 151.502 288.609 151.505 288.563 151.512C282.592 151.512 277.752 146.672 277.752 140.701C277.752 136.451 280.202 132.792 283.753 131.021C282.985 125.755 282.599 120.384 282.592 114.908C282.592 101.421 284.982 88.4755 289.36 76.4741C286.36 74.5559 284.353 71.1916 284.353 67.3551C284.353 61.3839 289.193 56.5441 295.164 56.5441C296.377 56.5572 297.528 56.7506 298.617 57.1244C309.772 38.5715 326.131 23.4813 345.658 13.8999C346.72 9.04036 351.039 5.41044 356.223 5.41044C358.496 5.41044 360.601 6.10887 362.342 7.30901C372.7 4.16111 383.679 2.45929 395.05 2.45929C402.517 2.45929 409.806 3.19708 416.869 4.58412C418.827 1.81988 422.044 0 425.693 0C431.517 0 436.249 4.60379 436.485 10.3585C454.664 17.5889 470.521 29.4328 482.611 44.4345C484.136 43.6082 485.887 43.1458 487.736 43.1458C493.707 43.1458 498.547 47.9857 498.547 53.9569C498.547 57.3704 496.954 60.4199 494.475 62.3971C502.787 78.0874 507.509 95.9517 507.509 114.908C507.509 123.771 506.476 132.389 504.538 140.652C504.833 141.577 504.735 142.59 504.243 143.446C504.073 143.728 503.869 143.98 503.633 144.203ZM434.193 17.4708L463.822 69.293C464.544 69.1422 465.285 69.0667 466.045 69.0667C467.472 69.0667 468.829 69.352 470.079 69.8439L478.706 59.8788C477.584 58.177 476.925 56.1407 476.925 53.9569C476.925 51.9894 477.456 50.1499 478.371 48.5661C467.039 34.3612 452.155 23.1173 435.078 16.1625C434.816 16.6215 434.52 17.0577 434.193 17.4708ZM497.013 139.235L469.016 90.2659C468.072 90.5413 467.082 90.6823 466.045 90.6889C464.206 90.6889 462.465 90.2265 460.95 89.41L422.132 134.248C423.165 135.625 423.864 137.248 424.139 139.019L497.013 139.235ZM424.169 21.504L399.812 87.0983C402.556 89.0657 404.347 92.2628 404.347 95.8927C404.347 99.08 402.96 101.933 400.776 103.91L412.482 129.939C412.81 129.906 413.141 129.89 413.476 129.89C414.872 129.89 416.21 130.165 417.45 130.657L456.7 85.2981C455.775 83.7045 455.234 81.8551 455.234 79.8778C455.234 76.7988 456.533 74.0247 458.599 72.0573L429.392 20.963C428.231 21.386 426.992 21.6319 425.693 21.6319C425.175 21.6254 424.667 21.5827 424.169 21.504ZM370.271 149.673C368.5 148.482 367.103 146.771 366.287 144.754L344.379 144.695L361.279 173.882L370.271 149.673ZM362.46 187.664L359.715 195.051L361.466 195.327L364.722 191.569L362.46 187.664ZM365.116 180.492L368.805 186.847L404.101 146.062C403.871 145.675 403.668 145.272 403.491 144.852L386.295 144.803C384.672 148.738 380.816 151.502 376.301 151.502C376.163 151.496 376.029 151.489 375.898 151.483L365.116 180.492ZM406.963 132.074L395.473 106.507C394.844 106.632 394.195 106.694 393.526 106.694C393.191 106.694 392.863 106.678 392.542 106.645L383.029 132.241C385.066 133.874 386.502 136.225 386.945 138.911L402.802 138.95C403.264 136.146 404.789 133.707 406.963 132.074ZM371.923 192.248L374.943 197.461L413.741 203.62L433.779 191.736L415.6 151.286C414.912 151.43 414.2 151.502 413.466 151.502C411.606 151.502 409.846 151.03 408.321 150.204L371.923 192.248ZM366.277 12.2965C366.749 13.5064 367.015 14.8246 367.015 16.2018C367.015 18.8579 366.06 21.2778 364.477 23.1665L392.335 85.1407C392.729 85.0948 393.126 85.0718 393.526 85.0718C393.762 85.0718 393.998 85.0817 394.234 85.1013L418.758 19.0939C416.377 17.1167 414.872 14.136 414.872 10.8012C414.879 10.6045 414.889 10.4077 414.902 10.211C408.468 8.99118 401.828 8.34193 395.041 8.34193C385.076 8.34193 375.435 9.72896 366.277 12.2965ZM352.387 26.3046L316.501 96.5715L340.946 138.773L365.647 138.842C366.523 133.756 370.949 129.88 376.291 129.88C376.724 129.88 377.153 129.906 377.58 129.959L387.033 104.51C384.417 102.533 382.715 99.4144 382.715 95.8829C382.715 92.4202 384.348 89.351 386.866 87.3737L359.509 26.5013C358.466 26.8424 357.364 27.0129 356.203 27.0129C354.856 27.0129 353.577 26.7571 352.387 26.3046ZM306.309 138.665L303.378 122.276L297.24 134.277C298.184 135.546 298.853 137.032 299.158 138.645L306.309 138.665ZM309.792 96.7486L302.601 84.3439L306.103 103.959L309.792 96.7486ZM307.834 113.57L312.32 138.684L334.129 138.743L313.323 102.828L307.834 113.57ZM303.496 60.4592C305.04 62.3283 305.975 64.7286 305.975 67.3452C305.975 69.9423 305.06 72.313 303.535 74.1821L312.989 90.4921L347.606 22.714C347.029 21.9533 346.557 21.1237 346.189 20.2252C328.492 29.4033 313.677 43.3917 303.496 60.4592ZM288.504 114.898C288.511 120 288.865 125.011 289.567 129.929C290.596 130.028 291.573 130.257 292.498 130.618L301.666 112.655L295.498 78.1366C295.387 78.1432 295.275 78.1497 295.164 78.1563C295.125 78.1563 295.082 78.153 295.036 78.1465C290.806 89.6068 288.504 101.992 288.504 114.898ZM313.884 181.014L307.372 144.567L298.656 144.547C297.82 146.721 296.315 148.551 294.377 149.791C298.44 161.477 304.48 172.249 312.103 181.693C312.674 181.417 313.268 181.191 313.884 181.014ZM351.678 199.744L326.682 195.779C326.597 195.963 326.508 196.147 326.417 196.33C332.919 201.819 340.09 206.551 347.783 210.378C347.816 210.181 347.868 209.991 347.94 209.807L351.678 199.744ZM353.774 194.097L358.623 181.033L337.552 144.656L313.372 144.587L319.895 181.063C323.888 182.263 326.899 185.706 327.489 189.926L353.774 194.097ZM381.544 220.598L371.254 202.852L363.778 201.662L353.833 213.152C362.548 216.821 371.845 219.369 381.544 220.598ZM405.793 208.332L378.77 204.043L387.525 219.152L405.793 208.332ZM436.268 213.171L414.922 209.787L395.228 221.464C409.767 221.435 423.627 218.484 436.268 213.171ZM441.079 207.958L436.229 197.157L422.88 205.066L441.079 207.958ZM486.202 170.055C485.677 169.544 485.208 168.983 484.795 168.373L441.334 194.137L447.424 207.682C463.34 198.662 476.719 185.667 486.202 170.055ZM495.094 151.601C495.875 149.476 496.59 147.321 497.239 145.138L423.431 144.921C422.831 146.318 421.945 147.558 420.853 148.581L438.895 188.716L482.955 162.608C482.949 162.51 482.942 162.415 482.936 162.323C482.936 156.352 487.776 151.512 493.747 151.512C494.206 151.519 494.655 151.548 495.094 151.601ZM501.607 114.918C501.607 96.7584 497.042 79.6614 489.005 64.6892C488.586 64.7351 488.163 64.7614 487.736 64.7679C486.103 64.7679 484.559 64.3941 483.172 63.7448L474.741 73.4738C476.069 75.2642 476.856 77.4775 476.856 79.8778C476.856 82.6814 475.784 85.2292 474.033 87.1475L500.111 132.753C501.085 126.949 501.607 120.997 501.607 114.918Z" fill="url(#paint0_linear_2014_1621)"/>
<path fill-rule="evenodd" clip-rule="evenodd" d="M55.3047 285.671C55.3047 300.211 44.5428 309.172 27.1802 309.172H12.2671V328.237H0.00012207V262.18H27.1802C44.5428 262.18 55.3047 271.043 55.3047 285.671ZM42.9394 285.671C42.9394 277.369 37.3715 272.558 26.6097 272.558H12.2671V298.794H26.6097C37.3715 298.794 42.9394 293.974 42.9394 285.671Z" fill="#1C3238"/>
<path fill-rule="evenodd" clip-rule="evenodd" d="M63.7942 295.203C63.7942 275.667 78.8942 261.236 99.3752 261.236C119.846 261.236 134.946 275.578 134.946 295.203C134.946 314.838 119.846 329.181 99.3752 329.181C78.8942 329.181 63.7942 314.74 63.7942 295.203ZM122.581 295.203C122.581 281.707 112.675 271.988 99.3752 271.988C86.0655 271.988 76.1595 281.707 76.1595 295.203C76.1595 308.7 86.0655 318.419 99.3752 318.419C112.675 318.419 122.581 308.7 122.581 295.203Z" fill="#1C3238"/>
<path fill-rule="evenodd" clip-rule="evenodd" d="M147.971 262.18H176.843C198.268 262.18 212.896 275.391 212.896 295.203C212.896 315.025 198.268 328.237 176.843 328.237H147.971V262.18ZM176.282 317.858C190.998 317.858 200.531 308.887 200.531 295.203C200.531 281.52 190.998 272.558 176.282 272.558H160.238V317.858H176.282Z" fill="#1C3238"/>
<path d="M222.704 297.092H248.654V306.91H222.704V297.092Z" fill="#1C3238"/>
<path d="M262.721 262.18H274.988V328.237H262.721V262.18Z" fill="#1C3238"/>
<path d="M341.33 299.355V328.237H329.526V300.87C329.526 291.898 325.099 287.56 317.544 287.56C309.143 287.56 303.487 292.656 303.487 302.758V328.237H291.692V277.841H302.916V284.353C306.782 279.73 312.92 277.27 320.279 277.27C332.359 277.27 341.33 284.166 341.33 299.355Z" fill="#1C3238"/>
<path d="M350.577 323.229L355.102 314.268C359.539 317.189 366.336 319.265 372.652 319.265C380.108 319.265 383.226 317.189 383.226 313.697C383.226 304.077 352.082 313.137 352.082 293.039C352.082 283.507 360.67 277.27 374.255 277.27C380.964 277.27 388.607 278.884 393.133 281.618L388.607 290.58C383.787 287.747 378.977 286.802 374.166 286.802C366.995 286.802 363.591 289.163 363.591 292.469C363.591 302.66 394.736 293.6 394.736 313.323C394.736 322.757 386.06 328.896 371.904 328.896C363.503 328.896 355.102 326.446 350.577 323.229Z" fill="#1C3238"/>
<path d="M403.324 262.455C403.324 258.491 406.531 255.383 410.879 255.383C415.217 255.383 418.424 258.304 418.424 262.18C418.424 266.331 415.306 269.538 410.879 269.538C406.531 269.538 403.324 266.42 403.324 262.455ZM404.927 277.841H416.722V328.237H404.927V277.841Z" fill="#1C3238"/>
<path fill-rule="evenodd" clip-rule="evenodd" d="M482.218 277.841V320.593C482.218 338.9 472.686 347.203 455.038 347.203C445.604 347.203 436.259 344.753 430.504 340.031L435.787 331.158C440.223 334.837 447.394 337.198 454.379 337.198C465.514 337.198 470.423 332.103 470.423 321.911V319.265C466.272 323.8 460.32 325.974 453.523 325.974C439.092 325.974 428.045 316.157 428.045 301.529C428.045 286.901 439.092 277.27 453.523 277.27C460.606 277.27 466.833 279.543 470.984 284.54V277.841H482.218ZM470.61 301.529C470.61 293.039 464.196 287.275 455.323 287.275C446.361 287.275 439.938 293.039 439.938 301.529C439.938 310.117 446.361 315.97 455.323 315.97C464.196 315.97 470.61 310.117 470.61 301.529Z" fill="#1C3238"/>
<path d="M547.33 299.355V328.237H535.535V300.87C535.535 291.898 531.099 287.56 523.544 287.56C515.153 287.56 509.487 292.656 509.487 302.758V328.237H497.692V258.216H509.487V283.694C513.353 279.543 519.304 277.27 526.289 277.27C538.359 277.27 547.33 284.166 547.33 299.355Z" fill="#1C3238"/>
<path d="M592.621 325.502C589.797 327.764 585.548 328.896 581.298 328.896C570.261 328.896 563.935 323.043 563.935 311.907V287.658H555.633V278.215H563.935V266.705H575.73V278.215H589.227V287.658H575.73V311.622C575.73 316.53 578.19 319.177 582.715 319.177C585.164 319.177 587.525 318.517 589.325 317.101L592.621 325.502Z" fill="#1C3238"/>
<path d="M596.585 323.229L601.12 314.268C605.557 317.189 612.344 319.265 618.669 319.265C626.126 319.265 629.235 317.189 629.235 313.697C629.235 304.077 598.1 313.137 598.1 293.039C598.1 283.507 606.688 277.27 620.273 277.27C626.972 277.27 634.615 278.884 639.15 281.618L634.615 290.58C629.805 287.747 624.995 286.802 620.175 286.802C613.003 286.802 609.609 289.163 609.609 292.469C609.609 302.66 640.754 293.6 640.754 313.323C640.754 322.757 632.068 328.896 617.912 328.896C609.511 328.896 601.12 326.446 596.585 323.229Z" fill="#1C3238"/>
<path fill-rule="evenodd" clip-rule="evenodd" d="M720.966 312.95H687.933L681.421 328.237H668.78L698.508 262.18H710.588L740.404 328.237H727.567L720.966 312.95ZM716.913 303.319L704.45 274.447L692.094 303.319H716.913Z" fill="#1C3238"/>
<path d="M748.795 262.18H761.072V328.237H748.795V262.18Z" fill="#1C3238"/>
<path d="M179.367 380.218L180.364 377.972C181.613 378.968 183.593 379.686 185.507 379.686C187.926 379.686 188.949 378.822 188.949 377.653C188.949 374.304 179.7 376.51 179.7 370.729C179.7 368.218 181.706 366.078 185.972 366.078C187.833 366.078 189.799 366.57 191.155 367.46L190.238 369.706C188.842 368.882 187.301 368.483 185.945 368.483C183.553 368.483 182.57 369.414 182.57 370.596C182.57 373.905 191.793 371.752 191.793 377.453C191.793 379.952 189.773 382.078 185.507 382.078C183.088 382.078 180.656 381.32 179.367 380.218Z" fill="#1C3238"/>
<path d="M199.261 368.749H194.105V366.304H207.314V368.749H202.158V381.865H199.261V368.749Z" fill="#1C3238"/>
<path fill-rule="evenodd" clip-rule="evenodd" d="M221.334 381.865L218.158 377.307C217.954 377.325 217.755 377.329 217.56 377.321H214.038V381.865H211.155V366.304H217.56C221.64 366.304 224.178 368.39 224.178 371.832C224.178 374.198 222.982 375.925 220.869 376.749L224.444 381.865H221.334ZM217.427 368.749H214.038V374.942H217.427C219.952 374.942 221.267 373.799 221.267 371.832C221.267 369.879 219.952 368.749 217.427 368.749Z" fill="#1C3238"/>
<path fill-rule="evenodd" clip-rule="evenodd" d="M239.155 378.264H231.381L229.852 381.865H226.876L233.866 366.304H236.709L243.739 381.865H240.709L239.155 378.264ZM238.211 375.992L235.274 369.188L232.364 375.992H238.211Z" fill="#1C3238"/>
<path d="M249.759 368.749H244.603V366.304H257.813V368.749H252.656V381.865H249.759V368.749Z" fill="#1C3238"/>
<path d="M273.321 379.434V381.865H261.653V366.304H273.015V368.723H264.55V372.776H272.058V375.154H264.55V379.434H273.321Z" fill="#1C3238"/>
<path d="M288.776 373.905H291.5V380.098C289.879 381.414 287.62 382.078 285.414 382.078C280.59 382.078 277.042 378.729 277.042 374.078C277.042 369.44 280.59 366.078 285.467 366.078C288.058 366.078 290.238 366.942 291.713 368.616L289.879 370.397C288.656 369.174 287.261 368.616 285.6 368.616C282.277 368.616 279.952 370.862 279.952 374.078C279.952 377.241 282.278 379.553 285.573 379.553C286.689 379.553 287.766 379.327 288.776 378.742V373.905Z" fill="#1C3238"/>
<path d="M296.975 366.304H299.859V381.865H296.975V366.304Z" fill="#1C3238"/>
<path d="M304.616 374.078C304.616 369.44 308.178 366.078 312.962 366.078C315.487 366.078 317.666 366.995 319.115 368.683L317.241 370.437C316.107 369.214 314.725 368.607 313.095 368.616C309.865 368.616 307.54 370.875 307.54 374.078C307.54 377.281 309.865 379.553 313.095 379.553C314.725 379.562 316.107 378.946 317.241 377.706L319.115 379.487C317.666 381.174 315.487 382.078 312.935 382.078C308.178 382.078 304.616 378.729 304.616 374.078Z" fill="#1C3238"/>
<path d="M331.367 366.304H334.251V381.865H331.367V366.304Z" fill="#1C3238"/>
<path d="M353.945 366.304V381.865H351.566L342.982 371.327V381.865H340.111V366.304H342.49L351.075 376.842V366.304H353.945Z" fill="#1C3238"/>
<path d="M362.942 368.749H357.786V366.304H370.995V368.749H365.839V381.865H362.942V368.749Z" fill="#1C3238"/>
<path d="M386.503 379.434V381.865H374.835V366.304H386.197V368.723H377.732V372.776H385.241V375.154H377.732V379.434H386.503Z" fill="#1C3238"/>
<path d="M391.393 366.304H394.29V379.42H402.423V381.865H391.393V366.304Z" fill="#1C3238"/>
<path d="M406.384 366.304H409.267V379.42H417.4V381.865H406.384V366.304Z" fill="#1C3238"/>
<path d="M421.36 366.304H424.244V381.865H421.36V366.304Z" fill="#1C3238"/>
<path d="M440.736 373.905H443.473V380.098C441.852 381.414 439.579 382.078 437.387 382.078C432.563 382.078 429.001 378.729 429.001 374.078C429.001 369.44 432.563 366.078 437.427 366.078C440.031 366.078 442.211 366.942 443.672 368.616L441.852 370.397C440.629 369.174 439.234 368.616 437.559 368.616C434.25 368.616 431.925 370.862 431.925 374.078C431.925 377.241 434.25 379.553 437.546 379.553C438.649 379.553 439.739 379.327 440.736 378.742V373.905Z" fill="#1C3238"/>
<path d="M460.616 379.434V381.865H448.948V366.304H460.297V368.723H451.832V372.776H459.34V375.154H451.832V379.434H460.616Z" fill="#1C3238"/>
<path d="M479.327 366.304V381.865H476.948L468.377 371.327V381.865H465.506V366.304H467.885L476.456 376.842V366.304H479.327Z" fill="#1C3238"/>
<path d="M484.071 374.078C484.071 369.44 487.619 366.078 492.403 366.078C494.928 366.078 497.107 366.995 498.556 368.683L496.682 370.437C495.548 369.214 494.166 368.607 492.536 368.616C489.307 368.616 486.981 370.875 486.981 374.078C486.981 377.281 489.307 379.553 492.536 379.553C494.166 379.562 495.548 378.946 496.682 377.706L498.556 379.487C497.107 381.174 494.928 382.078 492.377 382.078C487.619 382.078 484.071 378.729 484.071 374.078Z" fill="#1C3238"/>
<path d="M514.675 379.434V381.865H503.008V366.304H514.357V368.723H505.891V372.776H513.4V375.154H505.891V379.434H514.675Z" fill="#1C3238"/>
<path d="M527.367 366.304H530.25V379.42H538.383V381.865H527.367V366.304Z" fill="#1C3238"/>
<path fill-rule="evenodd" clip-rule="evenodd" d="M552.549 378.264H544.762L543.234 381.865H540.257L547.26 366.304H550.104L557.121 381.865H554.104L552.549 378.264ZM551.592 375.992L548.655 369.188L545.745 375.992H551.592Z" fill="#1C3238"/>
<path d="M566.542 376.377V381.865H563.659V376.417L557.546 366.304H560.642L565.187 373.879L569.798 366.304H572.642L566.542 376.377Z" fill="#1C3238"/>
<path d="M587.645 379.434V381.865H575.977V366.304H587.326V368.723H578.861V372.776H586.369V375.154H578.861V379.434H587.645Z" fill="#1C3238"/>
<path fill-rule="evenodd" clip-rule="evenodd" d="M602.715 381.865L599.539 377.307C599.335 377.325 599.131 377.329 598.927 377.321H595.419V381.865H592.535V366.304H598.927C603.02 366.304 605.559 368.39 605.559 371.832C605.559 374.198 604.349 375.925 602.25 376.749L605.824 381.865H602.715ZM598.808 368.749H595.419V374.942H598.808C601.333 374.942 602.648 373.799 602.648 371.832C602.648 369.879 601.333 368.749 598.808 368.749Z" fill="#1C3238"/>
<defs>
<linearGradient id="paint0_linear_2014_1621" x1="188.389" y1="152.686" x2="330.482" y2="-83.798" gradientUnits="userSpaceOnUse">
<stop stop-color="#E21A4F"/>
<stop offset="0.319" stop-color="#713286"/>
<stop offset="0.513" stop-color="#5161A6"/>
<stop offset="0.656" stop-color="#1D79BF"/>
<stop offset="0.986" stop-color="#5AC4CB"/>
</linearGradient>
</defs>
</svg>
