<svg width="321" height="300" viewBox="0 0 321 300" fill="none" xmlns="http://www.w3.org/2000/svg">
<path opacity="0.2" d="M312.839 292.314C312.839 296.559 242.808 300 156.42 300C70.031 300 0 296.559 0 292.314C0 288.069 70.031 284.627 156.42 284.627C242.808 284.627 312.839 288.069 312.839 292.314Z" fill="#4B9BE9"/>
<g opacity="0.1">
<path d="M72.558 246.598C32.4108 219.034 12.4001 155.221 30.497 109.282C38.4254 89.1582 54.916 81.4749 75.677 86.7111C97.5627 92.2305 112.444 77.9958 118.945 58.4522C123.05 46.1097 124.494 32.5513 130.15 20.8218C141.28 -2.26046 178.08 -6.32958 197.152 9.5042C206.043 16.8857 209.427 27.8095 216.458 36.5838C223.726 45.652 231.647 47.5291 243.048 48.0624C259.61 48.8364 274.603 39.6704 291.09 45.1553C304.424 49.5917 311.898 55.9455 308.362 70.8766C302.238 96.7445 271.964 114.524 281.132 143.857C285.278 157.119 298.446 166.198 305.107 178.279C328.279 220.304 267.326 244.646 237.896 256.329C222.451 262.461 205.067 267.998 188.608 270.341C151.586 275.611 105.38 269.132 72.558 246.598Z" fill="#F9F0CD"/>
</g>
<g opacity="0.1">
<path d="M303.03 149.1C323.175 151.183 327.014 121.243 307.936 118.114C287.818 114.815 282.996 147.029 303.03 149.1Z" fill="#F9F0CD"/>
</g>
<g opacity="0.1">
<path d="M111.862 34.113C113.552 -9.82371 31.591 5.44304 29.2144 39.8617C27.777 62.1405 61.5546 69.3272 78.0841 65.7339C94.6135 61.4218 111.143 52.7978 111.862 34.113Z" fill="#F9F0CD"/>
</g>
<g opacity="0.1">
<path d="M2.62402 255.464C2.62402 266.379 14.3607 276.229 24.9862 276.408C31.9042 276.523 47.7667 272.812 49.3492 264.825C51.3198 254.878 31.7971 243.441 23.5137 241.509C12.7487 238.998 2.6233 243.179 2.62402 255.464Z" fill="#F9F0CD"/>
</g>
<path opacity="0.2" d="M146.48 214.533C146.31 214.556 146.046 214.587 145.66 214.593C144.898 214.612 143.721 214.554 142.221 214.385C141.476 214.301 140.638 214.191 139.76 214.041C138.857 213.871 137.879 213.685 136.835 213.486C134.745 213.08 132.436 212.574 130.014 211.692C129.403 211.475 128.793 211.228 128.162 210.984C127.537 210.723 126.865 210.461 126.248 210.19C125.38 209.808 124.482 209.428 123.571 209.046C120.739 205.699 118.983 199.261 117.34 195.708C115.528 191.938 114.075 190.319 109.922 190.452C106.837 190.523 102.646 191.363 99.9005 189.558C97.2651 187.875 96.9712 184.543 94.0872 183.084C91.0932 181.502 88.3457 181.947 85.3719 182.142C81.5801 182.174 78.9455 180.494 75.8257 179.023C72.0096 177.278 67.9556 177.771 63.964 177.082C58.4439 176.194 52.7384 174.346 47.1946 173.931C44.2473 173.653 40.9277 173.711 38.0186 172.726C43.5983 174.686 46.8151 178.767 50.8648 182.775C54.704 186.297 59.1791 186.775 63.5673 188.907C67.3706 190.888 69.4906 195.504 73.2809 197.722C75.4685 198.906 77.0209 200.884 79.3321 201.955C81.6319 203.264 83.7318 203.852 85.4955 206.315C87.2461 209.015 87.9016 212.25 91.5186 213.274C96.0693 214.585 101.469 211.082 105.968 213.34C107.582 214.137 108.538 216.202 110.417 216.541C112.405 217.002 114.37 215.688 116.188 214.955C118.577 214.053 123.262 212.276 126.628 211.885C126.956 212.025 127.281 212.163 127.607 212.305C128.248 212.566 128.877 212.834 129.503 213.068C132.011 214.031 134.42 214.6 136.514 215.047C137.567 215.262 138.552 215.466 139.463 215.655C140.406 215.826 141.25 215.946 142.028 216.044C143.576 216.236 144.81 216.318 145.691 216.306C146.128 216.306 146.491 216.269 146.742 216.237C147.014 216.182 147.156 216.153 147.156 216.153L146.698 214.487C146.696 214.487 146.623 214.504 146.48 214.533Z" fill="#4B9BE9"/>
<path opacity="0.2" d="M298.918 43C294.622 46.5302 291.018 51.3244 287.014 55.2268C284.146 58.0864 280.547 60.016 278.429 63.6381C276.724 66.6364 275.537 69.5269 272.416 71.6815C269.871 73.2324 267.368 74.4498 265.83 77.4675C264.31 80.3192 265.987 83.214 264.799 86.1053C263.592 89.1625 259.68 90.8866 257.116 92.6035C253.644 94.8838 253.386 97.0442 254.074 101.169C254.774 105.02 257.042 111.298 256.651 115.666C256.125 116.501 255.609 117.329 255.118 118.14C254.771 118.717 254.372 119.319 254.011 119.891C253.635 120.455 253.278 121.009 252.904 121.536C251.429 123.652 249.832 125.393 248.356 126.929C247.617 127.692 246.924 128.406 246.283 129.065C245.651 129.693 245.029 130.265 244.468 130.763C243.339 131.763 242.409 132.488 241.775 132.911C241.456 133.128 241.222 133.253 241.071 133.334C240.935 133.391 240.867 133.42 240.867 133.42L241.451 135.048C241.451 135.048 241.583 134.991 241.837 134.878C242.062 134.761 242.379 134.582 242.737 134.33C243.464 133.832 244.427 133.057 245.583 132.009C246.163 131.481 246.784 130.896 247.455 130.214C248.093 129.536 248.781 128.802 249.518 128.02C250.973 126.45 252.617 124.599 254.114 122.369C254.491 121.817 254.852 121.235 255.226 120.655C255.411 120.35 255.597 120.051 255.785 119.746C258.762 118.131 263.616 116.888 266.09 116.25C267.997 115.804 270.361 115.749 271.723 114.228C273.064 112.871 272.658 110.632 273.52 109.05C275.902 104.616 282.333 104.372 285.301 100.683C287.671 97.7636 286.345 94.7408 286.224 91.5262C286.248 88.4963 287.628 86.8081 288.756 84.4142C290.03 82.2079 290.161 79.6969 291.27 77.469C293.094 73.4746 292.172 68.4798 294.143 64.6709C296.505 60.4034 299.891 57.4382 301.004 52.3471C302.01 46.7393 302.293 41.5505 305.729 36.7368C303.918 39.2162 301.169 41.0783 298.918 43Z" fill="#4B9BE9"/>
<path opacity="0.2" d="M298.667 91.195C293.914 94.0812 289.668 98.3156 285.15 101.611C281.906 104.035 278.069 105.435 275.461 108.721C273.347 111.448 271.763 114.141 268.368 115.831C265.629 117.005 262.978 117.856 261.028 120.625C259.12 123.233 260.369 126.336 258.784 129.029C257.156 131.885 253.038 133.037 250.258 134.373C246.498 136.138 245.936 138.24 246.032 142.421C246.178 146.333 247.534 152.868 246.528 157.136C245.889 157.888 245.261 158.635 244.66 159.369C244.234 159.891 243.754 160.43 243.315 160.945C242.863 161.449 242.431 161.948 241.986 162.416C240.227 164.3 238.398 165.799 236.72 167.11C235.88 167.759 235.093 168.368 234.366 168.93C233.651 169.463 232.954 169.941 232.328 170.353C231.069 171.184 230.045 171.771 229.357 172.099C229.012 172.268 228.762 172.36 228.6 172.417C228.458 172.454 228.386 172.475 228.386 172.475L228.734 174.167C228.734 174.167 228.872 174.129 229.14 174.054C229.378 173.97 229.718 173.838 230.108 173.639C230.899 173.249 231.961 172.618 233.255 171.745C233.903 171.304 234.601 170.813 235.363 170.233C236.09 169.652 236.875 169.024 237.716 168.354C239.379 167.006 241.268 165.406 243.066 163.411C243.518 162.918 243.956 162.395 244.409 161.871C244.636 161.597 244.862 161.327 245.091 161.052C248.268 159.875 253.25 159.332 255.789 159.051C257.74 158.88 260.089 159.161 261.65 157.847C263.171 156.694 263.086 154.42 264.164 152.976C267.149 148.925 273.551 149.596 277.011 146.364C279.771 143.81 278.887 140.63 279.223 137.43C279.677 134.434 281.281 132.958 282.737 130.749C284.311 128.746 284.796 126.278 286.21 124.231C288.582 120.535 288.378 115.46 290.869 111.969C293.812 108.079 297.584 105.624 299.407 100.741C301.198 95.3331 302.213 90.2363 306.297 85.9587C304.152 88.1579 301.168 89.6117 298.667 91.195Z" fill="#4B9BE9"/>
<path opacity="0.2" d="M160.756 57.1782C159.273 52.0655 155.885 47.7384 152.609 43.6398C149.261 39.45 146.222 34.941 142.279 31.2686C137.972 27.257 132.214 25.4696 127.375 22.2493C121.953 18.6415 117.349 13.9709 112.914 9.24275L110.146 5.71191C109.614 12.6413 109.696 11.9514 109.295 14.1312C108.324 19.4163 107.971 24.9076 108.635 30.2804C109.186 34.7391 111.002 39.5484 109.685 44.0222C109.068 46.1185 107.676 48.1804 107.895 50.4255C108.089 52.4127 108.625 54.8346 109.307 56.7204C110.402 59.7438 110.561 62.4518 111.016 65.6377C111.593 69.5781 112.609 73.2757 114.537 76.6391C117.225 81.4801 121.01 86.1155 121.88 91.6205C122.34 89.7527 124.97 86.5065 126.055 84.5208C127.903 81.4219 130.515 79.7998 131.834 76.4738C132.989 73.9908 134.505 69.9799 134.789 67.1742C134.879 65.6556 135.024 63.2279 135.176 61.534C135.487 62.1262 135.796 62.7119 136.102 63.2703C137.077 65.067 137.983 66.7581 138.789 68.3276C139.176 69.116 139.55 69.8721 139.903 70.5907C140.233 71.3173 140.522 72.0137 140.808 72.6634C140.945 72.9911 141.095 73.3009 141.206 73.6099C141.315 73.9211 141.422 74.2208 141.523 74.5075C141.726 75.0817 141.912 75.6085 142.08 76.0843C142.362 77.0494 142.533 77.8191 142.674 78.3373C142.808 78.8576 142.879 79.1336 142.879 79.1336L145.025 78.6643C145.025 78.6643 144.941 78.3682 144.783 77.8148C144.617 77.2643 144.408 76.445 144.077 75.4267C143.885 74.9294 143.674 74.3789 143.441 73.7795C143.326 73.4798 143.206 73.1679 143.081 72.8452C142.954 72.5225 142.789 72.2063 142.637 71.8707C142.322 71.2038 141.999 70.4887 141.637 69.7485C141.253 69.0219 140.85 68.2594 140.429 67.4631C139.562 65.8899 138.598 64.2097 137.574 62.4489C137.295 61.9717 137.022 61.4909 136.749 61.0037C138.756 62.0364 141.142 63.279 141.884 63.6254C147.108 66.066 152.61 67.803 157.792 70.2602C158.738 70.71 163.4 72.2185 163.625 73.2649C162.479 67.9439 162.278 62.4216 160.756 57.1782Z" fill="#4B9BE9"/>
<path opacity="0.2" d="M309.474 203.403C309.225 201.044 308.026 198.93 307.3 196.85C304.039 200.566 299.906 203.365 295.478 205.345C291.89 207.101 282.189 212.808 278.568 209.819C271.517 203.673 288.539 202.856 290.912 202.837C298.46 202.246 302.036 196.477 306.946 191.915C307.429 189.583 308.538 187.287 308.563 185.099C308.985 181.664 307.659 179.748 306.605 176.572C306.345 175.75 306.107 174.939 305.876 174.131C303.652 178.446 300.968 182.529 297.571 185.792C296.185 187.337 293.272 189.87 291.067 190.083C287.246 189.997 286.695 187.405 289.415 185.041C291.549 183.183 294.674 182.854 296.81 180.997C298.945 179.14 299.798 177.375 301.063 174.911C302.158 173.056 303.132 170.722 304.344 168.658C303.591 166.045 302.729 163.462 301.454 160.864C301.248 161.545 301.032 162.22 300.81 162.855C298.98 168.198 296.059 173.466 291.616 176.987C286.206 181.352 279.554 179.976 287.244 174.311C293.618 169.684 296.668 164.378 299.845 157.858C296.506 151.714 293.563 145.5 289.066 140.328C288.339 140.281 287.587 140.591 286.862 140.541C285.32 140.323 283.529 140.479 281.645 140.838C281.651 146.905 282.13 161.858 279.392 161.36C277.157 160.922 276.506 148.854 276.591 142.121C273.875 142.936 271.233 143.854 269.083 144.409C268.137 144.671 267.241 144.973 266.369 145.29C265.634 150.424 266.915 156.874 268.838 160.99C270.234 164.553 277.571 171.813 276.175 176.092C273.495 183.202 268.596 169.727 268.188 167.694C266.535 162.655 264.297 158.12 262.642 153.08C262.202 151.64 261.957 149.308 262.054 147.171C259.395 148.521 256.887 150.124 254.151 151.942C252.819 152.796 251.487 153.714 250.164 154.676C253.405 163.548 252.838 174.539 260.11 181.541C261.827 183.117 270.201 191.182 263.404 189.249C259.099 188.217 253.137 182.15 250.659 178.511C246.901 172.871 246.338 165.903 244.037 159.654C238.89 164.336 234.425 169.877 231.857 176.108C231.769 176.305 231.686 176.506 231.599 176.706C236.254 181.222 240.16 186.924 245.634 190.38C248.244 192.205 260.629 195.074 259.403 199.549C257.766 204.723 247.772 196.368 245.671 195.126C240.374 192.571 236.964 191.784 233.83 187.005C232.993 185.64 231.089 183.871 229.371 182.19C227.053 188.329 225.442 194.483 225.496 200.775C228.301 202.259 232.507 203.474 234.964 204.775C237.793 206.068 240.207 208.061 243.279 208.457C246.328 209.216 249.746 207.265 252.404 208.363C260.795 210.955 247.466 216.408 243.667 215.961C236.688 215.156 232.922 208.401 226.447 208.451C226.668 209.355 226.916 210.258 227.223 211.168C228.734 215.65 230.531 221.246 234.711 224.093C236.813 225.333 241.387 225.104 242.906 226.853C244.959 228.818 243.254 232.347 245.839 234.534C250.668 230.677 253.167 221.001 258.426 218.815L258.738 219.566C259.117 221.964 257.853 224.43 257.505 226.777C257.279 230.042 257.919 233.917 259 236.73C259.911 239.346 261.577 241.651 263.651 243.254C267.302 245.879 268.684 244.335 272.198 243.668C278.442 242.68 282.09 243.427 286.554 239.834C284.102 238.355 281.702 235.822 279.584 234.516C277.845 233.301 274.628 232.346 273.472 230.626C271.496 227.569 272.906 225.661 276.292 226.808C280.233 227.81 283.39 232.229 287.839 233.814C289.444 234.199 291.155 234.488 292.815 234.824C295.736 233.167 298.743 231.835 300.444 228.31C301.4 226.218 301.668 223.978 302.336 221.887C297.907 223.281 292.927 224.338 288.666 224.57C286.463 224.782 280.629 224.739 279.525 222.291C278.131 218.728 282.874 218.696 285.078 218.483C291.851 217.892 298.189 218.63 304.826 217.272C305.809 215.958 306.834 214.749 307.511 213.298C308.825 210.104 309.805 206.523 309.474 203.403ZM273.113 157.273C270.527 155.089 272.09 151 271.928 148.071L272.681 147.759C274.784 148.999 275.78 155.637 273.113 157.273ZM233.237 198.087C230.961 199.387 227.87 196.618 230.537 194.981L231.096 194.836C232.767 194.404 236.268 196.473 233.237 198.087ZM279.135 191.254C279.985 189.491 282.941 188.965 284.341 189.794L284.705 189.818C288.73 194.841 275.41 197.561 279.135 191.254Z" fill="#4B9BE9"/>
<path opacity="0.2" d="M44.8869 95.1521C45.5639 96.6038 46.5888 97.8119 47.5719 99.1263C54.2081 100.484 60.5468 99.7451 67.3196 100.337C69.523 100.55 74.267 100.582 72.872 104.145C71.7689 106.593 65.9354 106.636 63.732 106.424C59.471 106.192 54.4913 105.135 50.0621 103.741C50.7297 105.832 50.9985 108.072 51.9544 110.165C53.6547 113.69 56.6631 115.023 59.5831 116.678C61.2432 116.343 62.9536 116.054 64.5591 115.669C69.0077 114.083 72.1656 109.664 76.106 108.663C79.4924 107.515 80.9017 109.423 78.9261 112.481C77.7712 114.201 74.5537 115.156 72.8138 116.371C70.6966 117.677 68.2962 120.211 65.8441 121.689C70.3085 125.282 73.9558 124.534 80.2003 125.524C83.7139 126.191 85.0966 127.735 88.7468 125.11C90.8216 123.506 92.4867 121.201 93.398 118.584C94.4796 115.773 95.1192 111.896 94.8929 108.631C94.5465 106.284 93.2816 103.819 93.6603 101.42L93.9722 100.669C99.2308 102.856 101.73 112.532 106.559 116.389C109.144 114.202 107.439 110.673 109.493 108.708C111.011 106.958 115.585 107.188 117.688 105.947C121.867 103.101 123.664 97.505 125.175 93.0227C125.482 92.1121 125.73 91.2095 125.952 90.3054C119.476 90.2565 115.711 97.0106 108.732 97.8162C104.933 98.2632 91.6028 92.8099 99.9947 90.2177C102.652 89.1196 106.07 91.0708 109.119 90.3118C112.191 89.9158 114.606 87.9223 117.435 86.6301C119.891 85.3278 124.097 84.114 126.902 82.6292C126.956 76.338 125.346 70.1833 123.027 64.0451C121.308 65.7254 119.405 67.4947 118.568 68.8602C115.435 73.6379 112.025 74.4256 106.727 76.9812C104.627 78.2238 94.6327 86.5783 92.9948 81.4039C91.7695 76.9287 104.154 74.0598 106.765 72.2344C112.238 68.7775 116.145 63.0763 120.799 58.5609C120.712 58.3611 120.629 58.1599 120.541 57.9623C117.974 51.7314 113.508 46.1911 108.361 41.509C106.06 47.7578 105.498 54.7261 101.74 60.3662C99.2609 64.0049 93.2996 70.0719 88.9947 71.1039C82.1968 73.0371 90.5715 64.9729 92.2884 63.3961C99.5599 56.3941 98.9936 45.4027 102.234 36.5307C100.911 35.5684 99.5793 34.6507 98.2469 33.7969C95.5109 31.9794 93.0035 30.376 90.3444 29.0257C90.4414 31.1623 90.1963 33.4951 89.7558 34.9346C88.1014 39.9746 85.8627 44.5094 84.2098 49.5488C83.8023 51.5819 78.9031 65.057 76.2232 57.9472C74.8275 53.6675 82.1644 46.4075 83.5601 42.8443C85.4833 38.7292 86.7647 32.2791 86.0287 27.1449C85.1563 26.828 84.2615 26.5268 83.3151 26.2638C81.1655 25.7097 78.5237 24.7905 75.8071 23.9755C75.8919 30.7088 75.2415 42.7767 73.0064 43.2151C70.2683 43.7132 70.7476 28.7605 70.7534 22.6927C68.869 22.3341 67.0788 22.1774 65.5358 22.3959C64.8107 22.4455 64.0582 22.1357 63.3324 22.1832C58.8356 27.354 55.8912 33.5691 52.5537 39.713C55.7303 46.2321 58.7803 51.5388 65.1542 56.1656C72.8447 61.8309 66.192 63.2071 60.7818 58.8419C56.339 55.3211 53.4183 50.0526 51.5878 44.7092C51.3665 44.0746 51.1509 43.4005 50.9439 42.7192C49.669 45.3172 48.8066 47.9001 48.0541 50.5125C49.2665 52.5765 50.2403 54.9108 51.3349 56.7657C52.6004 59.23 53.4528 60.9951 55.588 62.8514C57.7246 64.7092 60.8494 65.0376 62.9831 66.8961C65.7033 69.2598 65.1528 71.8513 61.3309 71.9376C59.1274 71.7248 56.2132 69.1929 54.8269 67.6464C51.4305 64.3836 48.7462 60.3008 46.5226 55.9859C46.2919 56.793 46.0541 57.6051 45.7932 58.4265C44.7389 61.6016 43.4129 63.5176 43.8348 66.9528C43.86 69.1412 44.9696 71.4373 45.4518 73.7687C50.3625 78.3316 53.9386 84.1004 61.4861 84.6911C63.8592 84.7098 80.8802 85.5269 73.83 91.673C70.2093 94.662 60.5087 88.9557 56.9204 87.1986C52.4919 85.2186 48.3588 82.4201 45.0982 78.7038C44.3717 80.7844 43.1722 82.898 42.9243 85.2574C42.5901 88.38 43.5711 91.9605 44.8869 95.1521ZM79.7159 29.6157L80.4684 29.9276C80.306 32.8569 81.8691 36.9454 79.284 39.1295C76.6163 37.493 77.6117 30.8554 79.7159 29.6157ZM121.3 76.6923L121.859 76.8375C124.526 78.4739 121.435 81.2444 119.158 79.9436C116.128 78.3294 119.63 76.2611 121.3 76.6923ZM67.6911 71.6752L68.0555 71.6508C69.4555 70.8229 72.4106 71.3475 73.2615 73.1104C76.9857 79.4175 63.6666 76.6973 67.6911 71.6752Z" fill="#4B9BE9"/>
<path d="M278.947 280.344C278.947 284.453 275.616 287.783 271.508 287.783H95.0601C90.9507 287.783 87.6211 284.453 87.6211 280.344V45.4854C87.6211 41.3767 90.9507 38.0464 95.0601 38.0464H271.508C275.616 38.0464 278.947 41.376 278.947 45.4854V280.344Z" fill="#2D5D8C"/>
<path d="M101.32 52.6023H96.8574V244.727L121.602 271.584H264.699V52.6023H101.32Z" fill="#2D5D8C"/>
<path d="M233.078 38.0471C233.078 38.0471 236.019 37.9968 241.166 37.9077C246.312 37.8495 253.665 37.7093 262.488 37.6439C264.693 37.6253 266.992 37.6066 269.369 37.5865C270.565 37.6073 271.733 37.4743 273.082 37.7137C274.366 37.9724 275.611 38.5466 276.65 39.4133C277.68 40.2851 278.528 41.4213 279.006 42.7343C279.264 43.3825 279.403 44.0775 279.482 44.7775C279.54 45.5041 279.524 46.1372 279.534 46.8056C279.546 49.4596 279.558 52.1705 279.57 54.928C279.6 65.9567 279.632 77.7207 279.665 89.4839C279.633 101.248 279.601 113.012 279.57 124.041C279.547 135.069 279.41 145.362 279.351 154.185C279.287 163.008 279.145 170.36 279.087 175.507C278.998 180.654 278.947 183.595 278.947 183.595C278.947 183.595 278.897 180.654 278.808 175.507C278.75 170.36 278.607 163.008 278.543 154.185C278.485 145.362 278.349 135.069 278.324 124.041C278.294 113.012 278.262 101.248 278.229 89.4839C278.262 77.72 278.295 65.956 278.325 54.928C278.337 52.1705 278.349 49.4596 278.361 46.8056C278.364 46.1473 278.385 45.4602 278.346 44.8767C278.286 44.2751 278.181 43.6765 277.966 43.1152C277.575 41.9783 276.857 40.9829 275.975 40.2089C275.084 39.4406 274.006 38.9225 272.89 38.6752C271.817 38.451 270.545 38.5408 269.369 38.5071C266.991 38.4869 264.693 38.4683 262.488 38.4496C253.665 38.3842 246.312 38.244 241.166 38.1858C236.018 38.0974 233.078 38.0471 233.078 38.0471Z" fill="#629B91"/>
<path d="M267.516 51.2576H99.0527V244.727L122.328 269.866H267.516V51.2576Z" fill="#EDEDED"/>
<path d="M122.328 244.727H99.0527L122.328 269.866V244.727Z" fill="white"/>
<path d="M278.947 253.143C278.947 253.143 278.991 259.312 279.067 270.107C279.086 272.806 279.108 275.794 279.131 279.046C279.128 279.857 279.185 280.688 279.044 281.557C278.91 282.423 278.631 283.272 278.198 284.068C277.34 285.658 275.836 286.983 273.996 287.621C273.085 287.951 272.067 288.066 271.094 288.059C270.124 288.066 269.14 288.074 268.141 288.08C266.145 288.094 264.09 288.109 261.982 288.124C257.766 288.143 253.333 288.163 248.706 288.184C230.2 288.249 208.61 288.323 185.478 288.404C162.346 288.434 137.672 288.467 112.998 288.5C109.914 288.496 106.83 288.493 103.748 288.489L99.1293 288.483L96.8223 288.48L95.6696 288.477L95.0932 288.477L94.4823 288.448C92.774 288.335 91.1728 287.662 89.8735 286.6C88.5971 285.52 87.6348 284.06 87.2209 282.438C87.1016 282.037 87.0484 281.622 86.9873 281.21C86.9614 280.801 86.9334 280.359 86.942 279.994L86.9449 277.707C86.9471 276.183 86.9492 274.662 86.9514 273.144C86.9679 261 86.983 249.048 86.9981 237.482C87.0786 214.351 87.1533 192.76 87.2173 174.255C87.4602 137.244 87.6219 112.57 87.6219 112.57C87.6219 112.57 87.7836 137.244 88.0265 174.255C88.0905 192.76 88.1652 214.35 88.2457 237.482C88.2608 249.048 88.2766 261 88.2924 273.144C88.2946 274.662 88.2967 276.182 88.2989 277.707L88.3017 279.994C88.2953 280.392 88.324 280.714 88.3434 281.067C88.3973 281.409 88.439 281.754 88.5411 282.086C88.886 283.433 89.6924 284.643 90.7539 285.54C91.8261 286.418 93.1894 286.975 94.5528 287.06C100.626 287.106 106.846 287.057 112.998 287.064C137.672 287.097 162.346 287.129 185.478 287.159C208.61 287.24 230.2 287.315 248.706 287.379C253.333 287.4 257.766 287.42 261.982 287.44C264.091 287.455 266.145 287.469 268.141 287.484C269.14 287.491 270.124 287.498 271.094 287.504C272.057 287.522 272.962 287.429 273.829 287.134C275.553 286.562 276.985 285.342 277.815 283.854C278.233 283.113 278.51 282.304 278.645 281.501C278.791 280.699 278.751 279.858 278.764 279.046C278.786 275.793 278.808 272.805 278.827 270.106C278.904 259.312 278.947 253.143 278.947 253.143Z" fill="#2D5D8C"/>
<path d="M147.519 24.9548V58.1496H219.049V24.9548H147.519ZM204.904 43.48H161.663C158.391 43.48 155.739 41.1918 155.739 38.3717C155.739 35.5509 158.391 33.2634 161.663 33.2634H204.904C208.175 33.2634 210.828 35.5509 210.828 38.3717C210.828 41.1925 208.175 43.48 204.904 43.48Z" fill="#B0B0B0"/>
<path d="M219.049 42.7371C218.921 39.7733 218.853 36.8095 218.764 33.8464C218.668 30.8826 218.626 27.9188 218.559 24.955L219.049 25.4451L210.108 25.5723L201.167 25.6464L192.226 25.673L183.285 25.6471L174.344 25.5745L165.403 25.4487C162.424 25.3819 159.443 25.3402 156.462 25.2425C153.483 25.1519 150.502 25.0837 147.521 24.955C150.502 24.8257 153.482 24.7581 156.462 24.6675C159.443 24.5698 162.424 24.5281 165.403 24.4613L174.344 24.3355L183.285 24.2629L192.226 24.2371L201.167 24.2636L210.108 24.3377L219.049 24.4649L219.55 24.4721L219.54 24.955C219.472 27.9188 219.43 30.8826 219.334 33.8464C219.244 36.8095 219.177 39.7733 219.049 42.7371Z" fill="#D1D1D1"/>
<path d="M181.333 33.2635C181.333 33.2635 184.195 33.0234 188.49 32.8524C190.637 32.7604 193.142 32.6835 195.826 32.6318C197.168 32.6131 198.555 32.5728 199.964 32.57C201.372 32.562 202.804 32.5534 204.235 32.5448C204.927 32.5398 205.725 32.5513 206.519 32.7367C207.288 32.9092 208.029 33.2053 208.696 33.6199C210.038 34.4306 211.052 35.8004 211.345 37.3132C211.419 37.702 211.446 38.0426 211.438 38.4717C211.423 38.6384 211.417 38.7929 211.396 38.9683L211.282 39.5425C211.092 40.2511 210.753 40.8886 210.334 41.4226C209.496 42.5042 208.357 43.1574 207.269 43.4909C206.722 43.6555 206.183 43.7518 205.67 43.7812C205.149 43.8078 204.675 43.7784 204.245 43.7539C203.373 43.7029 202.613 43.6583 201.986 43.6217C200.734 43.5304 200.018 43.4787 200.018 43.4787C200.018 43.4787 200.734 43.4269 201.986 43.3357C202.613 43.299 203.373 43.2545 204.245 43.2034C205.136 43.179 206.046 43.0863 206.996 42.7119C207.925 42.3374 208.839 41.6935 209.469 40.7858C209.782 40.3338 210.017 39.817 210.129 39.2673L210.186 38.8835C210.199 38.7347 210.201 38.5601 210.209 38.3991C210.2 38.1698 210.173 37.845 210.106 37.5762C209.852 36.4458 209.033 35.4454 207.969 34.8021C207.436 34.4795 206.838 34.2481 206.215 34.1165C205.616 33.9814 204.972 33.9685 204.234 33.9814C202.803 33.9728 201.372 33.9649 199.963 33.9563C198.554 33.9534 197.167 33.9124 195.825 33.8945C193.142 33.8434 190.636 33.7665 188.49 33.6738C184.195 33.5042 181.333 33.2635 181.333 33.2635Z" fill="#D1D1D1"/>
<path d="M129.911 99.5517H110.893V80.5327H129.911V99.5517ZM112.381 98.064H128.423V82.0204H112.381V98.064Z" fill="#5D5D5E"/>
<path d="M109.199 90.5704L120.404 101.302L141.333 74.8502L137.568 73.1821L120.404 95.5709L112.233 87.4305L109.199 90.5704Z" fill="#4B9BE9"/>
<path d="M129.911 143.725H110.893V124.705H129.911V143.725ZM112.381 142.236H128.423V126.192H112.381V142.236Z" fill="#5D5D5E"/>
<path d="M129.911 183.942H110.893V164.925H129.911V183.942ZM112.381 182.455H128.423V166.412H112.381V182.455Z" fill="#5D5D5E"/>
<path d="M129.911 223.576H110.893V204.558H129.911V223.576ZM112.381 222.088H128.423V206.046H112.381V222.088Z" fill="#5D5D5E"/>
<path d="M253.519 204.558H137.567V207.498H253.519V204.558Z" fill="#666C6D"/>
<path d="M244.535 209.917H137.567V212.857H244.535V209.917Z" fill="#666C6D"/>
<path d="M256.26 215.277H137.567V218.217H256.26V215.277Z" fill="#666C6D"/>
<path d="M248.488 220.635H137.567V223.576H248.488V220.635Z" fill="#666C6D"/>
<path d="M248.488 164.925H137.567V167.865H248.488V164.925Z" fill="#666C6D"/>
<path d="M256.26 170.284H137.567V173.224H256.26V170.284Z" fill="#666C6D"/>
<path d="M251.363 175.643H137.567V178.583H251.363V175.643Z" fill="#666C6D"/>
<path d="M232.318 181.002H137.567V183.943H232.318V181.002Z" fill="#666C6D"/>
<path d="M256.26 124.704H137.567V127.644H256.26V124.704Z" fill="#666C6D"/>
<path d="M244.535 130.063H137.567V133.004H244.535V130.063Z" fill="#666C6D"/>
<path d="M251.363 135.423H137.567V138.363H251.363V135.423Z" fill="#666C6D"/>
<path d="M196.914 140.782H137.567V143.722H196.914V140.782Z" fill="#666C6D"/>
<path d="M248.488 80.532H137.567V83.4721H248.488V80.532Z" fill="#666C6D"/>
<path d="M256.26 85.8911H137.567V88.8312H256.26V85.8911Z" fill="#666C6D"/>
<path d="M237.348 91.2502H137.567V94.1903H237.348V91.2502Z" fill="#666C6D"/>
<path d="M251.363 96.6096H137.567V99.5497H251.363V96.6096Z" fill="#666C6D"/>
<path d="M109.199 175.231L120.404 185.962L141.333 159.511L137.568 157.843L120.404 180.231L112.233 172.09L109.199 175.231Z" fill="#4B9BE9"/>
<path d="M151.628 58.1498C151.628 58.1498 152.682 58.0866 154.525 58.0104C156.368 57.9493 159.002 57.82 162.163 57.7387C165.323 57.6468 169.01 57.5699 172.96 57.5181C174.935 57.498 176.977 57.4771 179.051 57.4563C181.125 57.4484 183.232 57.4398 185.339 57.4312C187.446 57.4391 189.552 57.4477 191.626 57.4556C193.7 57.4556 195.741 57.4987 197.717 57.5167C201.667 57.567 205.354 57.6439 208.514 57.7366C211.674 57.8171 214.308 57.9479 216.152 58.009C217.995 58.0851 219.049 58.1491 219.049 58.1491C219.049 58.1491 217.995 58.2131 216.152 58.2892C214.308 58.3503 211.675 58.4818 208.514 58.5616C205.354 58.6543 201.667 58.7312 197.717 58.7815C195.741 58.8002 193.7 58.8426 191.626 58.8433C189.552 58.8513 187.446 58.8592 185.339 58.8678C183.232 58.8592 181.125 58.8513 179.051 58.8426C176.977 58.8211 174.935 58.8002 172.96 58.7808C169.01 58.7298 165.323 58.6529 162.163 58.5602C159.002 58.479 156.368 58.3503 154.525 58.2885C152.682 58.2131 151.628 58.1498 151.628 58.1498Z" fill="#8D8D8E"/>
<path d="M68.3063 108.274C65.6493 107.388 63.2626 104.996 61.7182 102.196C60.9981 98.8253 60.5489 95.454 60.73 91.9131C60.9305 87.9956 61.4789 84.3785 59.8453 80.5624C57.1546 74.2776 50.3344 70.6037 43.152 69.8319C33.4923 68.7941 23.1765 73.0063 21.3719 83.1783C20.3442 88.9694 22.059 93.7773 18.143 99.2744C15.3279 103.226 9.49733 107.212 9.86098 112.622C10.1729 117.269 15.1691 117.549 16.6488 120.983C18.3859 125.014 16.7703 127.555 21.9526 130.064C25.781 131.918 28.1239 130.352 32.0866 130.26C35.256 130.186 38.357 130.979 41.4732 131.509C46.169 132.308 53.641 135.429 55.7748 129.181C56.3418 127.521 55.5419 125.592 56.7924 123.993C57.6304 122.922 59.1216 122.995 60.3635 122.218C65.9878 118.701 64.4714 112.966 63.0003 107.439C64.5038 108.763 66.3048 109.37 68.3063 108.274Z" fill="#4F5556"/>
<path d="M55.1908 126.713L69.9875 148.95L74.14 154.968L87.1056 140.849L87.6094 148.95C87.6094 148.95 75.7197 164.213 73.3243 164.692C70.929 165.171 52.3262 136.942 52.3262 136.942" fill="#F9DBCD"/>
<path d="M48.834 123.978C48.834 123.978 55.0785 124.037 60.2048 132.996L72.0988 150.41L65.0321 156.766C65.0321 156.766 53.6002 141.976 51.2882 137.487C48.9763 133 48.834 123.978 48.834 123.978Z" fill="#448CD2"/>
<path d="M76.9303 288.152C81.4989 288.447 85.1699 289.189 85.4818 284.38L86.0373 275.88L68.9236 274.786L68.3709 283.287C68.0576 288.095 71.7932 287.825 76.3597 288.118L76.9303 288.152Z" fill="#FF7373"/>
<path d="M87.1002 260.371L69.9872 259.278L68.9229 274.787L86.0366 275.88L87.1002 260.371Z" fill="#999999"/>
<path d="M79.7462 112.069L69.9873 259.278L75.1122 259.622L84.8789 112.395L79.7462 112.069Z" fill="#E8C358"/>
<path d="M87.0999 260.371L96.858 113.16L90.0112 112.724L80.082 259.938L87.0999 260.371Z" fill="#E8C358"/>
<path d="M90.0108 112.724L84.8781 112.395L75.1113 259.622L80.2455 259.949L90.0108 112.724Z" fill="#EDCD76"/>
<path d="M90.5649 78.1426L87.1045 88.7552L92.5865 89.1045L90.5649 78.1426Z" fill="#4B9BE9"/>
<path d="M96.8584 113.161L92.5866 89.1044L87.1046 88.7551L79.7461 112.069L96.8584 113.161Z" fill="#F2D5B6"/>
<path d="M69.7031 263.452L69.8346 261.489L86.9462 262.607L86.8133 264.569L69.7031 263.452Z" fill="#B0B0B0"/>
<path d="M69.3896 268.001L69.5226 266.039L86.6327 267.156L86.5012 269.117L69.3896 268.001Z" fill="#B0B0B0"/>
<path d="M69.166 272.135L69.2983 270.172L86.4098 271.29L86.2769 273.252L69.166 272.135Z" fill="#B0B0B0"/>
<path d="M64.5401 286.949C61.6072 285.348 57.5173 282.857 55.9499 281.822C52.5649 279.595 59.7797 184.772 59.7797 184.772L44.7285 183.201L45.5916 200.121C45.5916 200.121 47.5407 233.96 46.7041 239.633C45.8633 245.305 47.8871 273.823 48.3894 283.779L48.4203 284.886C53.4848 286.838 59.3492 287.923 64.5401 286.949Z" fill="#F9DBCD"/>
<path d="M64.54 286.949C59.349 287.924 53.4847 286.838 48.4209 284.886L48.5115 288.095C53.9547 289.5 59.7953 290.831 65.439 290.736C66.1311 290.724 68.6989 290.908 68.4668 289.545C68.3094 288.624 65.2824 287.354 64.54 286.949Z" fill="#373A3A"/>
<path d="M42.5722 288.667C39.64 287.066 35.5507 284.573 33.9833 283.538C30.5998 281.308 37.8512 186.49 37.8512 186.49L22.8008 184.913L23.6574 201.833C23.6574 201.833 25.5928 235.673 24.7541 241.346C23.9111 247.018 25.9234 275.536 26.4222 285.492L26.4524 286.598C31.5168 288.553 37.3812 289.641 42.5722 288.667Z" fill="#F9DBCD"/>
<path d="M42.5725 288.667C37.3815 289.641 31.5171 288.552 26.4541 286.598L26.5432 289.807C31.9864 291.215 37.8256 292.548 43.4694 292.456C44.1615 292.443 46.7293 292.629 46.4971 291.265C46.3419 290.344 43.3149 289.074 42.5725 288.667Z" fill="#373A3A"/>
<path d="M28.2992 94.7723C31.9284 94.6128 35.0662 91.7712 37.6721 89.5152C40.2377 87.2938 41.4243 84.1051 41.8238 80.8689C44.6489 82.828 47.635 81.7514 50.6829 82.4945C59.1661 84.5679 56.9943 96.7386 57.2681 102.775C57.4384 106.536 56.3856 111.389 52.7944 113.611C50.9122 114.81 46.912 115.8 46.3184 116.103C44.9113 116.818 45.8096 119.703 46.3249 121.415C47.0069 124.151 50.3027 126.815 50.7677 127.57C52.4724 130.341 47.0076 133.898 44.6137 135.094C38.6265 138.171 31.056 130.817 30.8857 123.978C34.1369 123.122 37.4126 123.304 38.4403 119.883C38.7831 118.517 39.5557 115.597 38.5934 114.609C38.2599 114.264 38.2599 114.264 35.511 111.971C32.2023 109.21 30.2906 105.636 30.2906 105.636C29.2952 105.636 27.0214 105.797 25.722 103.896C23.3446 100.412 24.2652 98.411 28.7138 98.5827C28.6341 98.5784 28.3372 95.136 28.2992 94.7723Z" fill="#F9DBCD"/>
<path d="M55.8742 160.186C37.2534 163.76 29.2934 158.801 29.2934 158.801C20.2309 173.773 21.6855 213.29 21.6855 213.29C22.6399 213.657 24.9303 214.141 26.1255 214.415L26.9419 198.33L29.0641 214.415C42.665 216.077 61.2829 214.415 61.2829 214.415C63.7889 173.438 55.8742 160.186 55.8742 160.186Z" fill="#4F5556"/>
<path d="M29.533 132.266C28.8474 134.455 29.5266 134.506 28.1661 136.453C25.2246 140.663 12.7053 149.936 12.0621 151.038C11.5763 151.871 22.0186 165.821 25.2756 167.36C25.2756 167.36 32.5062 168.894 32.1641 169.883C31.822 170.871 28.4881 169.018 28.4881 169.018C28.4881 169.018 32.6104 171.611 34.2159 173.34C35.8207 175.068 33.4275 179.761 22.932 171.903C18.7256 168.754 2.20193 153.726 3.35755 151.54C6.07485 146.399 11.3815 140.97 14.6817 137.318C18.3929 133.212 22.9435 129.233 26.9163 125.346" fill="#F9DBCD"/>
<path d="M57.5153 163.151C57.4254 162.75 57.3277 162.376 57.2206 162.05C56.2058 158.966 54.992 154.549 54.2475 151.359C54.0764 150.626 54.269 148.924 54.2935 148.241C56.1146 139.797 54.3035 129.964 52.8396 126.714C51.8615 124.544 51.5891 125.029 47.2332 123.41C48.1819 123.936 44.0236 129.104 42.3786 128.713C39.501 128.03 35.6446 126 35.7905 122.778C33.5885 123.112 31.8041 123.387 30.4494 123.594V123.591C30.4494 123.591 29.3714 123.571 28.1395 123.936L28.1367 123.936L28.136 123.937C27.7091 124.064 27.2649 124.236 26.8395 124.472C24.0834 126.002 18.0336 131.008 6.81152 146.057C6.81152 146.057 9.12421 150.354 13.0683 152.695L26.6037 139.956C28.2416 146.262 29.4978 152.902 28.7892 156.769C28.7411 157.032 28.0483 159.579 27.2764 162.488C31.9837 164.369 42.4368 167.126 57.5153 163.151Z" fill="#4B9BE9"/>
<path d="M34.6705 82.0027C27.6325 88.4542 29.5974 102.115 33.2633 109.153C36.0496 114.285 38.2488 120.884 35.903 126.602C35.0234 128.655 30.3311 134.52 27.8381 132.467C28.8643 132.174 29.744 131.294 29.8906 130.121C27.6907 131.587 24.4653 131.88 21.9723 131.147C19.1867 130.267 17.3203 127.49 17.3203 124.704C17.3203 120.158 19.3326 116.924 18.3063 112.379C16.4004 104.167 21.9723 96.6895 27.3975 90.971L34.6705 82.0027Z" fill="#4F5556"/>
<path d="M49.4387 102.212C49.3583 101.84 49.2282 101.839 49.1829 101.755C49.1161 101.699 49.0521 101.651 48.9996 101.619C48.8875 101.545 48.7876 101.489 48.687 101.431C48.4829 101.327 48.2817 101.24 48.0783 101.161C47.8756 101.084 47.6701 101.018 47.4631 100.954C47.2446 100.884 47.0592 100.851 46.8213 100.731C46.8178 100.986 46.9852 101.231 47.1131 101.424C47.259 101.62 47.4236 101.791 47.5918 101.946C47.7621 102.098 47.9389 102.235 48.1078 102.362C48.1933 102.419 48.2795 102.48 48.3457 102.534C48.3607 102.544 48.3636 102.55 48.3744 102.559C48.3636 102.581 48.3564 102.608 48.3234 102.637C48.2752 102.676 48.2407 102.735 48.1796 102.781C48.0539 102.869 47.9152 102.977 47.7527 103.071L47.236 103.386C47.6241 103.594 48.056 103.656 48.5109 103.561C48.6245 103.534 48.7474 103.486 48.8652 103.437C48.9817 103.382 49.106 103.261 49.2188 103.162C49.3252 103.042 49.4129 102.846 49.4632 102.674C49.4718 102.526 49.4589 102.366 49.4387 102.212ZM48.3787 102.507C48.3766 102.508 48.378 102.508 48.3766 102.508C48.3758 102.504 48.3744 102.499 48.3737 102.495C48.3765 102.498 48.3708 102.502 48.3787 102.507ZM48.3773 102.512C48.3837 102.516 48.4017 102.523 48.3895 102.534C48.3881 102.535 48.3881 102.537 48.3866 102.539C48.3837 102.53 48.3809 102.523 48.3773 102.512ZM48.4276 102.598C48.4305 102.598 48.4305 102.598 48.4276 102.598Z" fill="#E8A07D"/>
<path d="M49.4346 102.148C49.4382 102.169 49.4353 102.191 49.4382 102.212C49.4446 102.243 49.4518 102.272 49.4576 102.308L49.4346 102.148Z" fill="#E8A07D"/>
<path d="M41.9209 106.46C41.9209 106.46 41.9877 106.585 42.1157 106.79C42.2414 106.983 42.4764 107.285 42.797 107.554C43.1089 107.848 43.5336 108.116 44.0165 108.352C44.2681 108.445 44.5175 108.581 44.7985 108.639C45.0716 108.72 45.3597 108.767 45.6501 108.811C45.9447 108.826 46.2387 108.851 46.5326 108.816C46.8258 108.809 47.1111 108.725 47.3828 108.653C47.9182 108.473 48.394 108.205 48.6944 107.868C48.8618 107.722 48.9754 107.549 49.0688 107.398C49.1723 107.255 49.2348 107.116 49.2736 106.995C49.3599 106.759 49.3944 106.627 49.3944 106.627C49.3944 106.627 49.2851 106.712 49.0925 106.86C48.9179 107.009 48.6369 107.186 48.3085 107.34C47.6545 107.669 46.7259 107.791 45.7723 107.681C45.2922 107.644 44.8193 107.522 44.3665 107.416C44.1495 107.334 43.921 107.295 43.7212 107.215C43.5192 107.139 43.318 107.079 43.1419 107.002C42.7768 106.861 42.4937 106.734 42.2687 106.623C42.0524 106.515 41.9209 106.46 41.9209 106.46Z" fill="#E8A07D"/>
<path d="M36.2724 101.353C37.8125 101.049 40.0282 102.171 38.7655 103.305C37.9253 104.063 35.6033 104.132 35.0765 102.947C34.7315 102.174 35.5803 101.489 36.2724 101.353Z" fill="#ECB8B6"/>
<path d="M54.623 101.161C54.1257 101.147 53.6629 101.256 53.4609 101.512C53.0103 102.081 53.4947 102.863 54.0431 103.14C54.7301 103.483 56.5124 103.129 56.368 102.077C56.2896 101.514 55.4143 101.181 54.623 101.161Z" fill="#ECB8B6"/>
<path d="M51.6016 98.3581C51.6016 98.974 52.101 99.4735 52.7148 99.4735C53.3328 99.4735 53.8309 98.974 53.8309 98.3581C53.8309 97.7422 53.3336 97.2449 52.7148 97.2449C52.101 97.2449 51.6016 97.7422 51.6016 98.3581Z" fill="black"/>
<path d="M38.5283 98.3581C38.5283 98.974 39.0249 99.4735 39.6415 99.4735C40.2567 99.4735 40.7526 98.974 40.7526 98.3581C40.7526 97.7422 40.2574 97.2449 39.6415 97.2449C39.0249 97.2449 38.5283 97.7422 38.5283 98.3581Z" fill="black"/>
<path d="M271.529 265.658C269.955 261.991 268.085 258.586 265.824 255.72C261.342 250.039 258.405 250.53 257 242.979C256.002 237.62 254.058 231.781 254.896 226.17C255.829 219.928 262.181 216.584 264.243 210.677C266.97 202.869 261.255 194.352 263.83 186.739C265.316 182.344 267.155 178.533 266.598 173.75C266.915 176.23 268.142 178.639 268.993 180.894C271.871 188.525 275.434 191.754 279.837 198.404C286.227 208.057 288.112 222.151 282.334 232.362C277.416 241.05 280.594 245.013 282.014 253.759C282.507 256.793 281.816 259.757 280.957 262.654C280.249 265.048 279.859 268.815 278.786 270.921C275.71 276.959 272.395 267.673 271.529 265.658Z" fill="#4B9BE9"/>
<path d="M240.867 202.545C243.072 211.539 249.272 217.512 254.473 225.14C256.525 228.148 258.814 230.994 259.758 234.568C260.916 238.954 260.527 243.734 262.872 247.768C266.135 253.383 269.745 255.816 269.152 263.149C268.362 272.931 260.272 281.724 270.843 289.481C265.249 280.39 257.871 272.42 250.77 264.489C247.146 260.442 241.292 257.968 239.09 252.742C236.275 246.063 244.116 240.659 242.855 233.818C241.537 226.654 238.484 220.129 237.625 212.834C236.528 203.519 235.806 190.321 234.305 181.002C234.305 179.513 239.31 196.194 240.867 202.545Z" fill="#C7E0F8"/>
<path d="M306.678 196.191C301.003 202.773 297.755 210.833 292.474 217.564C288.087 223.155 281.075 226.922 279.492 234.203C278.725 237.738 280.016 241.1 278.334 244.503C275.412 250.415 269.638 252.343 272.401 259.718C273.95 263.851 276.104 268.207 275.941 272.729C275.874 274.593 271.83 283.418 276.464 280.594C277.836 279.759 279.124 277.407 280.14 276.154C282.419 273.339 284.64 270.48 286.822 267.589C290.952 262.119 297.797 258.011 301.327 252.713C306.705 244.642 301.949 232.02 304.186 223.017C305.668 217.042 310.081 210.573 310.182 204.45C310.271 199.021 309.722 194.134 312.293 188.935C310.928 191.623 308.557 193.932 306.678 196.191Z" fill="#C7E0F8"/>
<path d="M269.195 208.817C271.659 215.001 273.567 221.454 274.504 228.054C274.89 230.779 274.652 233.054 276.221 235.246C277.733 237.358 280.423 239.039 280.037 242.048C279.681 244.83 275.436 246.608 275.959 249.661C276.483 252.719 281.013 252.587 279.983 256.835C278.643 262.362 273.009 265.862 270.657 270.937C269.433 273.581 268.335 274.706 265.016 274.533C262.444 274.4 259.454 273.104 258.45 270.563C257.654 268.543 258.358 266.309 259.189 264.508C261.352 259.823 261.55 257.146 259.133 252.64C256.619 247.953 256.611 244.267 259.442 239.706C261.741 236.001 264.727 232.094 265.087 227.584C265.446 223.079 263.311 218.506 264.665 213.945C265.969 210.088 267.342 199.167 267.342 199.167C267.62 201.344 268.449 206.836 269.195 208.817Z" fill="#2D5D8C"/>
<path d="M293.403 263.798C293.403 285.629 283.553 296.141 268.374 296.141C253.197 296.141 243.346 285.629 243.346 263.798" fill="#E8C358"/>
<path d="M293.403 267.627H243.346V268.346H293.403V267.627Z" fill="#EDCD76"/>
</svg>
