<svg width="391" height="350" viewBox="0 0 391 350" fill="none" xmlns="http://www.w3.org/2000/svg">
<path d="M257.832 68.3786H348.537C349.233 67.0292 349.381 65.5499 348.652 63.9798C346.944 60.303 341.955 61.123 338.829 62.0447C341.234 59.6347 343.498 57.5806 344.109 53.9782C344.968 48.9011 341.81 44.8683 337.194 43.0539C331.132 40.6711 324.858 43.9457 323.342 49.584C322.83 44.0537 318.046 37.3902 313.116 36.829C305.545 35.9681 303.002 41.6845 302.693 47.8949C302.673 37.8905 296.307 20.2691 283.86 24.5907C276.465 27.157 272.716 35.7511 271.864 42.9286C271.487 46.1042 271.154 51.5155 273.168 54.5376C270.899 52.7141 265.952 52.7168 263.629 52.7859C259.204 52.9175 254.608 54.523 253.75 59.5475C253.314 62.0892 255.195 65.7887 257.832 68.3786Z" fill="url(#paint0_linear_1320_1972)"/>
<path d="M5.97081 133.615H136.603C137.605 131.671 137.818 129.541 136.768 127.28C134.31 121.984 127.126 123.166 122.621 124.492C126.085 121.022 129.346 118.063 130.224 112.876C131.462 105.563 126.913 99.7549 120.266 97.1423C111.536 93.7107 102.498 98.4264 100.318 106.546C99.5781 98.5816 92.6893 88.9841 85.589 88.1768C74.6856 86.9354 71.0233 95.1691 70.5766 104.114C70.5475 89.706 61.3777 64.3268 43.453 70.5508C32.8038 74.2477 27.4025 86.6258 26.1766 96.9625C25.6345 101.536 25.1541 109.329 28.0555 113.681C24.7882 111.054 17.6624 111.059 14.317 111.16C7.94589 111.347 1.32595 113.66 0.0900435 120.898C-0.535628 124.557 2.17138 129.885 5.97081 133.615Z" fill="url(#paint1_linear_1320_1972)"/>
<path d="M115.613 55.3315H228.501C229.366 53.6524 229.55 51.8108 228.642 49.8575C226.519 45.2817 220.311 46.3024 216.419 47.4484C219.412 44.4499 222.229 41.8927 222.988 37.4095C224.058 31.0901 220.128 26.072 214.382 23.8127C206.837 20.8487 199.028 24.9233 197.144 31.941C196.505 25.0577 190.552 16.7642 184.416 16.0659C174.993 14.9934 171.829 22.1083 171.442 29.8379C171.417 17.3871 163.493 -4.54497 148.003 0.833624C138.802 4.02827 134.133 14.7246 133.074 23.6565C132.605 27.6085 132.19 34.3429 134.697 38.1042C131.874 35.8349 125.715 35.8385 122.825 35.9248C117.319 36.0891 111.597 38.0869 110.529 44.3409C109.991 47.5047 112.33 52.1087 115.613 55.3315Z" fill="url(#paint2_linear_1320_1972)"/>
<path d="M259.308 158.623H389.94C390.941 156.679 391.155 154.549 390.105 152.289C387.645 146.993 380.462 148.174 375.958 149.5C379.422 146.03 382.683 143.071 383.562 137.884C384.799 130.571 380.251 124.763 373.603 122.15C364.873 118.72 355.836 123.434 353.655 131.554C352.915 123.59 346.028 113.992 338.927 113.184C328.021 111.943 324.361 120.177 323.913 129.121C323.885 114.713 314.714 89.3339 296.79 95.5579C286.141 99.2547 280.74 111.633 279.514 121.97C278.972 126.542 278.491 134.336 281.392 138.688C278.125 136.061 270.999 136.066 267.654 136.166C261.283 136.355 254.662 138.667 253.427 145.905C252.802 149.565 255.508 154.893 259.308 158.623Z" fill="url(#paint3_linear_1320_1972)"/>
<path d="M199.873 322.538C254.196 322.538 298.233 319.458 298.233 315.66C298.233 311.861 254.196 308.782 199.873 308.782C145.55 308.782 101.513 311.861 101.513 315.66C101.513 319.458 145.55 322.538 199.873 322.538Z" fill="#A3A7AE"/>
<path d="M280.313 307.984C280.313 312.508 276.267 315.847 271.768 315.847H128.611C124.111 315.847 120.49 312.507 120.49 307.984V123.445C120.49 118.922 124.111 115.161 128.611 115.161H271.768C276.267 115.161 280.313 118.923 280.313 123.445V307.984Z" fill="#EFF0F4"/>
<path d="M268.508 128.781H132.295V303.133H268.508V128.781Z" fill="#98BDFC"/>
<path d="M218.584 172.743H148.081C147.511 172.743 147.049 172.281 147.049 171.712C147.049 171.142 147.511 170.68 148.081 170.68H218.584C219.154 170.68 219.617 171.142 219.617 171.712C219.617 172.281 219.154 172.743 218.584 172.743Z" fill="white"/>
<path d="M205.861 167.127H148.082C147.512 167.127 147.05 166.664 147.05 166.095C147.05 165.525 147.512 165.063 148.082 165.063H205.861C206.43 165.063 206.892 165.525 206.892 166.095C206.891 166.664 206.43 167.127 205.861 167.127Z" fill="white"/>
<path d="M155.648 161.508H148.082C147.512 161.508 147.05 161.047 147.05 160.477C147.05 159.908 147.512 159.445 148.082 159.445H155.648C156.218 159.445 156.679 159.908 156.679 160.477C156.679 161.047 156.218 161.508 155.648 161.508Z" fill="white"/>
<path d="M213.083 161.508H160.119C159.55 161.508 159.087 161.047 159.087 160.477C159.087 159.908 159.549 159.445 160.119 159.445H213.083C213.652 159.445 214.115 159.908 214.115 160.477C214.114 161.047 213.652 161.508 213.083 161.508Z" fill="white"/>
<path d="M154.273 155.892H148.082C147.512 155.892 147.05 155.43 147.05 154.86C147.05 154.29 147.512 153.829 148.082 153.829H154.273C154.842 153.829 155.304 154.291 155.304 154.86C155.303 155.429 154.842 155.892 154.273 155.892Z" fill="white"/>
<path d="M165.278 155.892H159.087C158.518 155.892 158.056 155.43 158.056 154.86C158.056 154.29 158.518 153.829 159.087 153.829H165.278C165.847 153.829 166.309 154.291 166.309 154.86C166.309 155.429 165.847 155.892 165.278 155.892Z" fill="white"/>
<path d="M214.114 155.892H207.923C207.354 155.892 206.892 155.43 206.892 154.86C206.892 154.29 207.354 153.829 207.923 153.829H214.114C214.684 153.829 215.147 154.291 215.147 154.86C215.147 155.429 214.684 155.892 214.114 155.892Z" fill="white"/>
<path d="M204.141 155.892H171.812C171.242 155.892 170.78 155.43 170.78 154.86C170.78 154.29 171.242 153.829 171.812 153.829H204.141C204.71 153.829 205.172 154.291 205.172 154.86C205.172 155.429 204.71 155.892 204.141 155.892Z" fill="white"/>
<path d="M218.584 287.955H148.081C147.511 287.955 147.049 287.494 147.049 286.924C147.049 286.354 147.511 285.892 148.081 285.892H218.584C219.154 285.892 219.617 286.354 219.617 286.924C219.617 287.494 219.154 287.955 218.584 287.955Z" fill="white"/>
<path d="M205.861 282.339H148.082C147.512 282.339 147.05 281.877 147.05 281.307C147.05 280.737 147.512 280.275 148.082 280.275H205.861C206.43 280.275 206.892 280.737 206.892 281.307C206.891 281.877 206.43 282.339 205.861 282.339Z" fill="white"/>
<path d="M155.648 276.721H148.082C147.512 276.721 147.05 276.259 147.05 275.688C147.05 275.119 147.512 274.657 148.082 274.657H155.648C156.218 274.657 156.679 275.119 156.679 275.688C156.679 276.259 156.218 276.721 155.648 276.721Z" fill="white"/>
<path d="M213.083 276.721H160.119C159.55 276.721 159.087 276.259 159.087 275.688C159.087 275.119 159.549 274.657 160.119 274.657H213.083C213.652 274.657 214.115 275.119 214.115 275.688C214.114 276.259 213.652 276.721 213.083 276.721Z" fill="white"/>
<path d="M154.273 271.104H148.082C147.512 271.104 147.05 270.641 147.05 270.073C147.05 269.503 147.512 269.04 148.082 269.04H154.273C154.842 269.04 155.304 269.503 155.304 270.073C155.303 270.641 154.842 271.104 154.273 271.104Z" fill="white"/>
<path d="M165.278 271.104H159.087C158.518 271.104 158.056 270.641 158.056 270.073C158.056 269.503 158.518 269.04 159.087 269.04H165.278C165.847 269.04 166.309 269.503 166.309 270.073C166.309 270.641 165.847 271.104 165.278 271.104Z" fill="white"/>
<path d="M214.114 271.104H207.923C207.354 271.104 206.892 270.641 206.892 270.073C206.892 269.503 207.354 269.04 207.923 269.04H214.114C214.684 269.04 215.147 269.503 215.147 270.073C215.147 270.641 214.684 271.104 214.114 271.104Z" fill="white"/>
<path d="M204.141 271.104H171.812C171.242 271.104 170.78 270.641 170.78 270.073C170.78 269.503 171.242 269.04 171.812 269.04H204.141C204.71 269.04 205.172 269.503 205.172 270.073C205.172 270.641 204.71 271.104 204.141 271.104Z" fill="white"/>
<path d="M217.554 192.347H148.082C147.512 192.347 147.05 192.809 147.05 193.379C147.05 193.949 147.512 194.41 148.082 194.41H217.554C218.122 194.41 218.585 193.949 218.585 193.379C218.584 192.809 218.122 192.347 217.554 192.347Z" fill="white"/>
<path d="M148.082 200.256H180.754C181.324 200.256 181.787 199.794 181.787 199.225C181.787 198.654 181.325 198.193 180.754 198.193H148.082C147.512 198.193 147.05 198.654 147.05 199.225C147.05 199.794 147.512 200.256 148.082 200.256Z" fill="white"/>
<path d="M200.013 204.04H148.081C147.511 204.04 147.049 204.502 147.049 205.072C147.049 205.641 147.511 206.103 148.081 206.103H200.013C200.582 206.103 201.045 205.641 201.045 205.072C201.045 204.502 200.582 204.04 200.013 204.04Z" fill="white"/>
<path d="M155.303 247.03H149.113C148.543 247.03 148.081 247.492 148.081 248.062C148.081 248.631 148.542 249.093 149.113 249.093H155.303C155.872 249.093 156.335 248.631 156.335 248.062C156.335 247.492 155.873 247.03 155.303 247.03Z" fill="white"/>
<path d="M166.31 247.03H160.119C159.55 247.03 159.087 247.492 159.087 248.062C159.087 248.631 159.549 249.093 160.119 249.093H166.31C166.88 249.093 167.341 248.631 167.341 248.062C167.341 247.492 166.879 247.03 166.31 247.03Z" fill="white"/>
<path d="M215.147 247.03H208.955C208.386 247.03 207.923 247.492 207.923 248.062C207.923 248.631 208.386 249.093 208.955 249.093H215.147C215.715 249.093 216.178 248.631 216.178 248.062C216.178 247.492 215.715 247.03 215.147 247.03Z" fill="white"/>
<path d="M205.172 247.03H172.844C172.275 247.03 171.812 247.492 171.812 248.062C171.812 248.631 172.275 249.093 172.844 249.093H205.172C205.742 249.093 206.204 248.631 206.204 248.062C206.204 247.492 205.742 247.03 205.172 247.03Z" fill="white"/>
<path d="M148.082 232.929H209.299C209.868 232.929 210.331 232.467 210.331 231.897C210.331 231.328 209.868 230.865 209.299 230.865H148.082C147.512 230.865 147.05 231.328 147.05 231.897C147.05 232.467 147.512 232.929 148.082 232.929Z" fill="white"/>
<path d="M148.082 238.317H209.299C209.868 238.317 210.331 237.854 210.331 237.285C210.331 236.715 209.868 236.253 209.299 236.253H148.082C147.512 236.253 147.05 236.715 147.05 237.285C147.05 237.854 147.512 238.317 148.082 238.317Z" fill="white"/>
<path d="M209.299 243.705C209.868 243.705 210.331 243.243 210.331 242.673C210.331 242.104 209.868 241.641 209.299 241.641H148.082C147.512 241.641 147.05 242.104 147.05 242.673C147.05 243.243 147.512 243.705 148.082 243.705H209.299Z" fill="white"/>
<path d="M219.37 107.49C219.37 104.158 212.422 103.965 212.818 100.865C213.538 95.2329 207.278 89.9269 200.304 89.5437V89.521C200.209 89.5219 200.114 89.5292 200.019 89.5319C199.924 89.5301 199.829 89.5228 199.734 89.521V89.5437C192.758 89.9269 186.5 95.2338 187.22 100.865C187.616 103.965 180.669 104.158 180.669 107.49C180.669 117.174 189.134 125.06 199.734 125.443V125.461C199.83 125.46 199.923 125.454 200.019 125.452C200.113 125.454 200.208 125.46 200.304 125.461V125.443C210.903 125.06 219.37 117.174 219.37 107.49ZM200.019 104.696C197.459 104.446 195.456 102.389 195.456 99.8705C195.456 97.3523 197.459 95.2955 200.019 95.0458C202.579 95.2946 204.582 97.3523 204.582 99.8705C204.582 102.389 202.579 104.446 200.019 104.696Z" fill="#A3A7AE"/>
<path d="M245.806 109.711H154.997V136.954H245.806V109.711Z" fill="#A3A7AE"/>
<path d="M245.806 116.068H154.997V127.873H245.806V116.068Z" fill="#BBC0C7"/>
<path d="M256.703 170.553H232.185V146.943H256.703V170.553ZM234.001 169.645H254.887V148.759H234.001V169.645Z" fill="white"/>
<path d="M258.099 148.385C256.279 150.58 254.583 152.866 252.965 155.093C249.254 160.199 245.863 165.523 242.837 171.059C241.718 168.18 240.798 165.23 239.883 162.266C238.939 159.213 238.199 155.796 236.876 152.784C236.027 153.212 235.188 153.655 234.356 154.11C234.854 157.216 235.749 160.352 236.449 163.328C237.529 167.937 238.996 172.446 240.952 176.756C241.594 178.172 243.773 177.882 244.416 176.66C247.954 169.927 251.96 163.427 256.429 157.277C257.938 155.202 259.543 153.19 261.161 151.187C260.121 150.269 259.091 149.342 258.099 148.385Z" fill="#518CE3"/>
<path d="M256.703 209.601H232.185V185.99H256.703V209.601ZM234.001 208.693H254.887V186.899H234.001V208.693Z" fill="white"/>
<path d="M256.703 247.74H232.185V223.222H256.703V247.74ZM234.001 245.924H254.887V225.038H234.001V245.924Z" fill="white"/>
<path d="M256.703 285.88H232.185V261.362H256.703V285.88ZM234.001 284.064H254.887V263.178H234.001V284.064Z" fill="white"/>
<path d="M360.981 293.586C360.981 295.707 350.963 297.426 338.603 297.426C326.244 297.426 316.226 295.707 316.226 293.586C316.226 291.465 326.244 289.745 338.603 289.745C350.963 289.744 360.981 291.465 360.981 293.586Z" fill="#A3A7AE"/>
<path d="M374.415 255.374C374.181 249.281 371.3 247.659 369.604 247.234C366.117 246.366 363.353 247.342 361.305 248.944C361.136 247.292 360.98 246.324 360.98 246.324L337.601 249.665L314.221 246.324C314.221 246.324 305.872 292.083 337.601 294.086C345.8 293.552 351.286 289.902 354.926 284.836C366.107 280.617 374.756 264.248 374.415 255.374ZM358.397 278.353C361.29 271.005 361.853 262.504 361.735 256.104C361.735 256.104 363.952 250.975 368.388 252.096C368.628 252.155 369.315 253.09 369.408 255.565C369.653 261.923 365.107 273.29 358.397 278.353Z" fill="#EFF0F4"/>
<path d="M360.98 246.158C360.98 248.281 350.512 249.999 337.6 249.999C324.688 249.999 314.221 248.281 314.221 246.158C314.221 244.037 324.688 242.318 337.6 242.318C350.512 242.317 360.98 244.037 360.98 246.158Z" fill="#9EADD3"/>
<path d="M357.14 205.386C356.598 206.304 356.404 207.502 355.602 208.459C353.995 210.374 351.246 211.377 348.999 212.263C342.494 214.829 335.777 215.751 330.245 220.475C324.415 225.45 322.926 233.445 327.412 239.821C330.36 244.012 336.17 247.355 341.444 245.991C341.444 245.991 339.773 240.647 341.777 234.97C343.781 229.291 352.086 226.966 356.179 221.24C359.595 216.46 360.202 210.432 357.14 205.386Z" fill="#EFF0F4"/>
<path d="M49.1781 314.229C49.179 316.715 39.4951 318.734 27.5484 318.739C15.6025 318.743 5.91595 316.733 5.91504 314.247C5.91413 311.761 15.598 309.742 27.5447 309.736C39.4906 309.732 49.1771 311.744 49.1781 314.229Z" fill="#A3A7AE"/>
<path d="M29.6821 267.457V267.378L27.8614 267.419L26.0497 267.38V267.459L4.47363 267.962L10.6704 313.071C10.6704 313.071 17.2631 316.928 27.7152 316.544C37.8149 316.92 44.7672 313.055 44.7672 313.055L51.0012 267.943L29.6821 267.457Z" fill="#EFF0F4"/>
<path d="M50.7643 268.188C50.7643 269.214 47.4498 270.136 42.2565 270.736C39.4986 271.062 36.2041 271.297 32.5999 271.408C31.3685 271.45 30.0963 271.477 28.7968 271.485C28.3564 271.494 27.916 271.494 27.4692 271.494C26.4367 271.494 25.4197 271.486 24.4226 271.467C22.9642 271.44 21.5476 271.393 20.1918 271.331C19.4763 271.298 18.7816 271.263 18.1005 271.216C9.90139 270.716 4.17864 269.557 4.17773 268.207C4.17683 266.99 8.82622 265.928 15.7458 265.355C16.5368 265.293 17.355 265.23 18.2013 265.183C19.4599 265.099 20.7803 265.036 22.1424 264.995C23.855 264.934 25.6367 264.904 27.4665 264.904C28.6361 264.903 29.7848 264.917 30.9054 264.943C31.1597 264.943 31.4139 264.95 31.6619 264.957C35.6919 265.058 39.3588 265.305 42.3782 265.66C47.5025 266.263 50.7634 267.17 50.7643 268.188Z" fill="#9EADD3"/>
<path d="M24.8392 233.91C22.1313 239.889 19.4851 245.682 19.9074 252.422C19.9773 253.508 20.1017 254.712 20.267 255.985C20.6529 258.806 21.2868 261.962 22.1413 264.995C22.7815 267.293 23.5461 269.521 24.4206 271.467C23.9593 271.459 23.5061 271.447 23.0512 271.433C22.8033 271.426 22.5626 271.419 22.322 271.414C21.5928 271.394 20.8845 271.366 20.1898 271.331C19.4061 270.499 18.676 269.619 17.9941 268.704C17.1959 267.624 16.453 266.504 15.7438 265.355C15.544 265.038 15.3515 264.716 15.159 264.398C10.7539 257.075 9.02399 248.98 12.3975 240.848C15.6548 233.013 20.9072 226.228 22.0314 217.574C22.6698 212.691 21.9933 207.56 20.2652 203.034C21.4693 204.231 22.9894 204.767 24.2081 205.984C25.9144 207.695 27.2847 210.447 27.9866 212.743C30.1433 219.731 27.7396 227.519 24.8392 233.91Z" fill="#606D8D"/>
<path d="M22.656 270.509C22.7932 270.818 22.9176 271.121 23.0483 271.43C22.8013 271.424 22.5598 271.416 22.3191 271.41C22.0104 270.695 21.6735 269.988 21.2876 269.306C19.8092 266.678 17.8623 264.339 16.3903 261.699C15.1108 259.408 13.962 256.905 13.7559 254.257C13.5361 251.477 14.1273 248.691 15.049 246.078C19.3206 234.014 28.3788 221.907 23.6059 208.549C23.4543 208.13 24.1217 207.952 24.2661 208.365C28.8537 221.192 20.8263 233.009 16.3567 244.537C15.1807 247.564 14.0456 250.969 14.4442 254.257C14.8229 257.366 16.1986 260.186 17.8559 262.805C19.4705 265.35 21.431 267.73 22.656 270.509Z" fill="#A8B9E3"/>
<path d="M40.3821 239.687C40.0443 242.328 39.5558 244.873 38.9101 247.356C37.8023 251.614 36.2476 255.706 34.2535 259.813C33.4353 261.498 32.5336 263.219 31.6609 264.958C31.4684 265.336 31.2822 265.721 31.097 266.1C30.2298 267.861 29.4325 269.656 28.7995 271.485C28.36 271.494 27.9196 271.494 27.4728 271.494C26.4412 271.494 25.4233 271.485 24.4262 271.466C23.5045 271.445 22.6027 271.425 21.7228 271.389C21.5021 271.383 21.2833 271.376 21.0699 271.363C20.7739 271.356 20.4851 271.342 20.1963 271.329C19.4807 271.301 18.7861 271.26 18.105 271.219C18.0296 270.393 17.9951 269.553 17.9951 268.708C18.0024 267.546 18.0705 266.37 18.2022 265.185C18.5391 262.077 19.2755 258.926 20.2726 255.982C20.9328 254.03 21.7028 252.172 22.5492 250.473C24.6468 246.285 27.0478 242.295 29.2636 238.209C31.2168 234.612 33.0321 230.946 34.3597 227.018C34.5459 226.488 34.7175 225.96 34.8755 225.422C36.4574 220.173 36.7053 214.285 38.5351 209.209C41.3302 218.99 41.6408 229.625 40.3821 239.687Z" fill="#8794B4"/>
<path d="M39.1846 217.773C39.171 222.314 38.8268 228.907 37.6091 234.243C36.3922 239.575 34.2591 244.419 31.4395 249.09C28.372 254.179 25.7168 259.575 23.6191 265.139C22.8554 267.155 22.099 269.24 21.7203 271.371C21.4996 271.365 21.2808 271.366 21.0674 271.352C21.3216 269.798 21.7548 268.29 22.3051 266.756C23.2059 264.239 24.1558 261.723 25.3045 259.301C26.515 256.756 27.6637 254.014 29.1421 251.613C32.3131 246.461 35.2362 241.177 36.6674 235.24C38.0359 229.566 38.4763 223.223 38.4972 217.774H39.1846V217.773Z" fill="#A8B9E3"/>
<path d="M42.2603 270.736C40.8019 270.908 39.1982 271.052 37.4729 271.17C37.2449 271.19 37.0179 271.204 36.7845 271.219C35.4506 271.301 34.0539 271.369 32.6028 271.411C32.3894 271.025 32.2314 270.668 32.1351 270.371C31.6884 269.003 31.3587 267.573 31.0963 266.101C31.0273 265.722 30.9655 265.33 30.9038 264.945C30.2708 260.715 30.1819 256.243 29.9485 252.2C29.6797 247.627 29.2665 242.894 29.2611 238.21C29.2538 235.603 29.3709 233.009 29.7142 230.471C30.3408 225.822 31.317 219.61 33.559 215.4C33.5045 219.272 33.8069 223.159 34.3572 227.018C35.0664 232.06 36.1943 237.054 37.4593 241.93C37.9342 243.761 38.4291 245.562 38.9113 247.358C40.5894 253.514 42.1441 259.519 42.3774 265.66C42.4465 267.338 42.411 269.03 42.2603 270.736Z" fill="#A3B3DB"/>
<path d="M37.4728 271.169C37.2449 271.189 37.0179 271.203 36.7845 271.218C36.799 270.881 36.8045 270.536 36.8117 270.199C36.8735 264.704 36.3713 259.407 34.6796 254.167C33.1594 249.448 31.5221 244.86 31.3914 239.853C31.2606 234.652 31.8654 229.472 32.0724 224.274C32.0788 224.205 32.0997 224.149 32.1342 224.102C32.1896 224.007 32.2786 223.928 32.4166 223.928C32.492 223.928 32.5537 223.957 32.6019 223.99C32.6981 224.039 32.7671 224.128 32.7599 224.273C32.5328 229.886 31.7555 235.526 32.1405 241.145C32.5047 246.434 34.6514 251.222 36.0335 256.269C37.3629 261.099 37.6517 266.175 37.4728 271.169Z" fill="#D6E0FD"/>
<path d="M240.847 339.53C241.016 341.907 244.687 344.203 246.334 345.433C247.947 346.636 249.674 347.647 251.264 348.884C252.098 349.533 253.068 349.903 254.125 349.78C258.589 349.265 263.133 349.823 267.606 349.269C274.081 348.471 272.64 345.992 271.923 345.625C271.894 345.608 271.864 345.605 271.835 345.598C270.449 344.604 268.918 343.721 267.435 342.885C265.557 341.829 263.817 340.746 262.071 339.478C261.111 338.782 259.981 337.94 258.796 337.668C257.122 337.286 255.19 337.763 253.45 337.648C251.075 337.493 248.712 337.643 246.348 337.9C245.486 337.993 240.717 337.669 240.847 339.53Z" fill="#BABBD8"/>
<path d="M245.84 342.141C247.311 344.376 250.008 346.431 252.375 347.659C255.214 349.135 266.746 347.758 269.41 346.851C269.667 346.764 269.759 346.454 269.568 346.249C268.181 344.765 265.85 343.882 264.164 342.72C262.404 341.507 260.666 339.845 258.581 339.207C256.204 338.48 253.652 338.794 251.202 338.86C250.111 338.887 248.914 338.714 247.959 339.214C247.901 339.145 247.821 339.095 247.722 339.084C246.089 338.913 244.835 340.617 245.84 342.141Z" fill="#D2D3F4"/>
<path d="M237.976 332.869C238.824 335.741 238.602 338.443 240.852 340.687C243.146 342.98 245.655 345.051 248.231 347.023C249.592 348.069 251.127 349.308 252.932 349.261C252.941 349.261 252.95 349.257 252.958 349.254C253.129 349.399 253.43 349.23 253.356 348.986C253.337 348.923 253.315 348.863 253.296 348.802C253.28 348.631 253.264 348.461 253.244 348.291C253.231 348.143 253.147 348.05 253.043 348.005C251.164 342.19 248.598 336.638 247.489 330.573C247.191 328.945 246.788 328.605 245.27 328.035C243.166 327.247 239.128 324.899 237.165 323.788C233.626 321.787 237.45 331.086 237.976 332.869Z" fill="#BABBD8"/>
<path d="M302.241 286.669C301.823 283.334 300.941 280.055 299.796 276.892C299.088 274.938 298.214 273.149 297.067 271.412C295.878 269.612 294.594 267.831 292.392 267.261C287.371 265.961 281.831 267.537 279.4 271.962C276.453 277.324 277.277 285.666 277.285 285.829C277.354 287.408 277.323 289.085 277.016 290.643C276.019 295.675 271.795 300.233 272.305 305.581C272.941 312.237 281.029 314.498 286.705 313.805C299.295 312.263 303.566 297.234 302.241 286.669Z" fill="#673F33"/>
<path d="M290.712 302.176C290.712 302.176 290.016 310.263 288.228 317.654C286.744 323.788 284.18 329.392 283.596 329.978C282.305 331.266 274.568 331.983 274.998 332.843C275.427 333.702 285.172 332.843 285.172 332.412C285.172 332.052 290.297 333.999 293.578 317.653C294.204 314.536 294.581 312.419 295.107 307.717C295.107 307.717 293.292 300.314 290.712 302.176Z" fill="#CBA182"/>
<path d="M313.827 335.746C314 335.538 314.173 335.337 314.302 335.148C314.948 334.214 315.264 332.552 316.624 332.423C318.302 332.266 319.878 333.534 321.479 333.911C323.173 334.31 324.414 334.761 325.769 335.841C326.288 336.255 327.138 337.445 326.492 338.088C325.744 338.828 324.192 338.773 323.207 338.837C321.246 338.961 318.745 338.966 316.722 338.835C315.687 338.769 314.32 338.69 313.508 337.959C312.674 337.207 313.258 336.43 313.827 335.746Z" fill="#CBA182"/>
<path d="M276.656 332.324C280.037 328.883 285.513 326.914 290.191 325.608C292.79 324.883 295.31 323.992 298.016 323.673C300.554 323.37 303.194 323.95 305.679 324.443C307.453 324.792 308.497 329.178 307.869 332.782C312.214 333.328 316.017 334.042 316.94 334.886C318.578 336.383 317.465 338.8 315 339.012C311.14 339.596 307.114 339.521 303.243 339.867C300.433 340.118 297.566 340.274 294.67 340.394C291.52 340.946 288.292 341.173 285.117 341.193C282.158 341.211 277.64 341.938 274.948 340.349C271.498 338.315 274.794 334.222 276.656 332.324Z" fill="#162850"/>
<path d="M296.947 318.84C297.017 321.614 296.649 324.443 296.929 327.201C297.302 330.876 305.314 328.632 308.038 328.299C310.89 327.951 311.368 329.535 310.822 325.822C310.1 320.926 310.177 304.659 306.973 299.674C305.877 297.967 304.747 295.967 302.784 295.108C300.799 294.24 298.959 294.547 296.889 295.082C294.281 295.754 291.647 297.956 290.331 300.647C288.552 304.28 292.13 308.53 294.342 310.967C297.159 314.069 296.841 314.632 296.947 318.84Z" fill="#BABBD8"/>
<path d="M316.243 344.322C316.463 344.164 316.677 344.013 316.85 343.861C317.709 343.118 318.431 341.587 319.781 341.802C321.442 342.066 322.653 343.688 324.11 344.451C325.651 345.262 326.74 346.008 327.783 347.389C328.182 347.92 328.709 349.286 327.921 349.747C327.015 350.278 325.523 349.837 324.555 349.653C322.622 349.284 320.201 348.664 318.275 348.034C317.292 347.713 315.985 347.296 315.38 346.384C314.76 345.449 315.52 344.843 316.243 344.322Z" fill="#CBA182"/>
<path d="M279.069 342.839C279.191 340.844 280.649 338.522 281.659 337.147C284.643 333.09 289.87 330.355 294.38 328.416C296.883 327.343 299.139 327.196 301.795 326.539C304.284 325.921 308.3 325.589 310.823 325.823C313.24 326.045 313.975 333.703 311.825 337.574C310.726 339.554 308.725 339.973 306.73 341.04C306.515 341.154 306.29 341.255 306.07 341.367C311.148 342.379 315.963 343.598 316.942 344.662C318.445 346.296 317.13 348.607 314.656 348.604C310.758 348.856 306.753 348.433 302.868 348.443C297.89 348.459 292.767 348.176 287.608 347.891C284.759 347.731 280.379 347.026 279.154 344.165C278.948 343.685 278.942 343.245 279.069 342.839Z" fill="#1D336E"/>
<path d="M280.814 335.029C282.04 334.228 283.349 333.626 284.478 332.754C285.253 331.813 287.891 330.543 290.522 328.734C294.877 325.74 296.658 320.754 298.354 315.788C300.008 310.957 299.223 305.122 300.084 300.118C300.413 298.209 302.09 297.064 303.666 298.163C303.805 298.159 303.95 298.199 304.084 298.31C307.185 300.839 307.336 304.516 306.92 308.22C306.409 312.771 305.299 317.026 303.209 321.113C301.16 325.113 298.462 328.459 294.815 331.054C292.793 332.491 290.256 334.113 287.585 334.736C287.11 335.113 286.624 335.481 286.125 335.839C285.446 336.324 284.821 336.891 284.263 337.511C283.726 338.107 283.447 338.876 282.817 339.374C282.636 339.516 282.318 339.465 282.279 339.219C281.822 339.996 281.307 340.732 280.582 341.294C280.233 341.565 279.703 341.472 279.58 341.054C279.506 340.963 279.458 340.852 279.456 340.725C279.442 339.434 279.808 338.239 280.484 337.189C279.898 337.718 279.341 338.282 278.775 338.914C278.645 339.058 278.342 338.997 278.31 338.792C278.034 337 279.457 335.919 280.814 335.029Z" fill="#E5B898"/>
<path d="M289.112 340.807C289.097 340.697 289.145 340.579 289.281 340.518C289.446 340.263 289.631 340.027 289.753 339.849C290.155 339.27 290.66 338.785 291.215 338.359C291.326 338.275 291.489 338.441 291.407 338.552C291.027 339.071 290.682 339.623 290.333 340.164C295.389 338.713 301.536 340.089 306.572 340.694C306.672 340.706 306.675 340.844 306.572 340.854C303.861 341.098 301.131 340.706 298.426 340.487C295.471 340.245 292.743 340.515 289.846 340.98C289.819 341.03 289.783 341.078 289.757 341.131C289.628 341.37 289.548 341.604 289.296 341.727C289.164 341.792 289.018 341.737 288.971 341.597C288.892 341.356 288.974 341.079 289.112 340.807Z" fill="#162850"/>
<path d="M292.284 294.078C292.951 295.212 293.904 299.024 294.139 299.512C295.243 301.809 297.326 299.197 297.85 297.883C299.011 294.968 297.277 291.864 295.837 289.182C295.909 289.076 295.927 288.936 295.828 288.794C295.676 288.57 295.507 288.382 295.328 288.216C295.272 288.107 295.214 287.997 295.163 287.893C295.107 287.781 294.956 287.725 294.841 287.761C294.812 287.77 294.782 287.78 294.753 287.788C293.305 286.96 291.532 287.655 291.077 289.681C290.753 291.122 291.584 292.884 292.284 294.078Z" fill="#CBA182"/>
<path d="M295.228 276.079C294.064 276.818 292.66 277.318 291.014 277.536C287.994 277.938 284.082 277.508 280.853 278.383C281.051 281.249 282.03 284.413 283.084 287.118C285.435 293.156 289.526 294.006 293.554 292.441C297.581 290.872 300.02 287.479 297.67 281.44C296.976 279.659 296.179 277.782 295.228 276.079Z" fill="#E5B898"/>
<path d="M300.295 279.161C300.081 280.718 298.9 281.885 298.223 282.047C297.01 282.338 296.395 281.28 296.262 279.644C296.107 277.776 296.829 276.454 298.043 276.162C299.255 275.87 300.546 277.329 300.295 279.161Z" fill="#E5B898"/>
<path d="M299.126 277.54C298.382 276.434 297.457 277.656 297.107 278.354C296.301 279.969 297.406 281.035 297.406 281.035C299.493 282.099 298.47 277.018 297.34 278.926C297.527 278.116 298.078 277.28 299.126 277.54Z" fill="#CBA182"/>
<path d="M290.711 285.171L286.89 288.036C286.89 288.036 289.373 291.666 290.711 285.171Z" fill="white"/>
<path d="M288.332 281.132C288.789 281.85 289.438 282.253 289.786 282.031C290.133 281.812 290.048 281.05 289.592 280.333C289.137 279.616 288.485 279.214 288.136 279.436C287.788 279.655 287.877 280.415 288.332 281.132Z" fill="#453209"/>
<path d="M282.968 283.488C283.423 284.208 284.073 284.609 284.423 284.387C284.772 284.168 284.685 283.409 284.23 282.689C283.774 281.971 283.123 281.569 282.774 281.792C282.426 282.011 282.512 282.771 282.968 283.488Z" fill="#453209"/>
<path d="M268.997 107.161C271.254 111.222 264.045 115.572 257.937 115.572C251.828 115.572 244.484 111.144 246.875 107.161C249.68 102.488 251.828 98.748 257.937 98.748C264.045 98.748 265.881 101.553 268.997 107.161Z" fill="#162850"/>
<path d="M249.829 47.846C249.213 49.5995 248.565 51.3422 247.964 53.1011C247.423 54.6884 246.786 56.2367 246.211 57.8104C245.081 60.9025 243.658 63.9527 243.178 67.23C242.63 70.9795 245.591 74.2523 249.271 74.7635C250.187 74.8925 251.117 74.8588 252.033 74.7699C252.565 74.719 253.095 74.6464 253.623 74.5655C254.098 74.4929 254.81 74.2187 255.28 74.2895C255.28 74.2895 261.419 75.2112 266.223 74.334C270.151 73.6193 272.783 70.392 272.268 66.3864C272.046 64.652 271.581 62.962 270.852 61.3738C267.287 53.6024 265.507 49.654 265.507 49.654C265.507 49.654 254.522 41.8063 249.829 47.846Z" fill="#88664F"/>
<path d="M263.249 73.317C262.852 73.1944 255.438 72.3117 251.836 73.3878C249.179 74.1806 247.119 77.2544 246.923 79.8489C246.617 83.9361 248.25 86.7312 249.297 90.6905C249.99 93.3148 250.699 98.6099 253.128 100.093C258.903 103.618 262.615 98.9967 263.935 95.3281C266.845 87.2361 270.551 75.5881 263.249 73.317Z" fill="#BABBD8"/>
<path d="M278.074 96.1001C277.252 92.1636 275.361 88.7891 273.458 85.3012C272.265 83.11 270.842 81.0649 269.495 78.9718C268.556 77.5143 267.699 76.0342 266.228 75.0625C265.392 74.5104 264.743 74.811 264.374 75.3994C263.884 75.9615 263.887 77.1293 263.885 77.7105C263.889 79.1979 264.507 80.7344 265.047 82.1247C266.199 86.982 269.43 91.9456 272.066 95.7305C273.037 97.129 274.41 99.3102 276.22 99.6789C278.081 100.056 278.314 97.2588 278.074 96.1001Z" fill="#BABBD8"/>
<path d="M269.556 105.349C272.176 104.165 276.145 102.714 277.838 99.9067C278.228 99.2629 278.882 97.4694 278.55 96.6658C277.603 94.3937 272.567 97.2342 271.259 97.849C268.052 99.3555 265.043 101.218 262.058 103.256C261.25 103.806 258.4 105.633 259.231 107.283C260.582 109.964 268.071 106.02 269.556 105.349Z" fill="#E5B898"/>
<path d="M262.001 105.724L261.097 104.511C259.528 105.788 257.461 105.309 255.653 105.884C254.251 106.332 251.627 107.817 251.421 109.789C252.152 109.305 252.914 108.787 253.702 108.376C253.275 108.715 252.984 109.146 253.003 109.641C254.22 109.849 255.737 108.722 257.002 108.629C256.366 108.763 255.401 108.961 255.029 109.585C255.664 109.957 256.7 109.335 257.392 109.235C258.255 109.114 259.092 109.176 259.938 108.863C260.647 108.602 262.003 108.037 262.406 107.26C262.683 106.726 262.561 105.61 262.001 105.724Z" fill="#E5B898"/>
<path d="M238.9 99.6798C240.709 99.3111 242.083 97.1299 243.054 95.7314C245.689 91.9465 248.922 86.9829 250.072 82.1256C250.612 80.7344 251.231 79.1988 251.234 77.7114C251.233 77.1302 251.234 75.9615 250.744 75.4003C250.375 74.8109 249.726 74.5104 248.892 75.0634C247.42 76.035 246.563 77.5161 245.624 78.9727C244.277 81.0658 242.853 83.1108 241.66 85.3021C239.758 88.79 237.867 92.1645 237.045 96.101C236.807 97.2588 237.04 100.056 238.9 99.6798Z" fill="#BABBD8"/>
<path d="M255.89 107.282C256.72 105.632 253.869 103.805 253.062 103.255C250.077 101.216 247.068 99.3544 243.861 97.8479C242.553 97.2332 237.517 94.3918 236.571 96.6647C236.238 97.4693 236.893 99.2618 237.282 99.9057C238.975 102.713 242.945 104.164 245.564 105.348C247.049 106.02 254.539 109.964 255.89 107.282Z" fill="#E5B898"/>
<path d="M253.121 105.724L254.025 104.511C255.592 105.788 257.662 105.309 259.467 105.884C260.87 106.332 263.496 107.817 263.701 109.789C262.97 109.305 262.207 108.787 261.42 108.376C261.846 108.715 262.137 109.146 262.118 109.641C260.902 109.849 259.385 108.722 258.12 108.629C258.755 108.763 259.721 108.961 260.092 109.585C259.455 109.957 258.421 109.335 257.728 109.235C256.866 109.114 256.029 109.176 255.183 108.863C254.475 108.602 253.119 108.037 252.715 107.26C252.439 106.726 252.559 105.61 253.121 105.724Z" fill="#E5B898"/>
<path d="M260.232 70.1369C259.761 69.3178 258.39 68.6385 257.457 68.9482C256.773 69.1761 256.451 69.5493 256.312 70.0116C256.212 69.8735 256.004 69.9544 256.007 70.1287C256.042 72.0911 255.647 73.9799 256.203 75.9223C256.715 77.7021 258.889 78.2606 260.084 76.7741C261.365 75.1795 261.199 71.8232 260.232 70.1369Z" fill="#CBA182"/>
<path d="M265.698 58.152C265.992 64.3942 262.768 71.3074 258.397 71.5163C254.026 71.7233 250.164 65.146 249.868 58.903C249.571 52.659 252.954 49.1102 257.323 48.9031C261.697 48.6943 265.401 51.9071 265.698 58.152Z" fill="#E5B898"/>
<path d="M265.205 47.3394C262.958 44.489 259.152 45.131 258.132 45.368C257.873 45.3435 257.669 45.3362 257.621 45.3326C254.932 45.1946 252.254 45.506 250.436 47.65C250.096 47.9506 249.721 48.4028 249.455 49.102C249.43 49.1674 249.405 49.2455 249.383 49.32C248.788 50.6067 248.505 52.0569 248.452 53.4518C248.207 54.3671 247.907 55.0781 247.491 55.1917C247.491 55.1917 247.976 55.6321 248.596 56.1724C248.615 56.2941 248.639 56.4103 248.686 56.4712C252.882 61.7253 255.772 57.8841 257.518 53.4009C257.252 55.7501 257.456 58.2256 259.123 59.3634C259.123 59.3634 257.587 55.9962 258.586 52.0679C259.603 57.1595 262.052 62.5399 267.942 57.5046C267.94 57.5055 267.82 50.654 265.205 47.3394Z" fill="#88664F"/>
<path d="M268.509 62.3381C267.835 63.6022 266.457 64.226 265.826 64.1516C264.696 64.0172 264.503 62.9175 264.905 61.4745C265.365 59.8309 266.4 58.9246 267.531 59.0581C268.66 59.1925 269.304 60.8498 268.509 62.3381Z" fill="#E5B898"/>
<path d="M268.022 60.5829C267.732 59.3987 266.557 60.1543 266.038 60.6401C264.839 61.767 265.447 63.0293 265.447 63.0293C266.895 64.5994 267.626 59.9291 266.057 61.2022C266.472 60.5711 267.205 60.0262 268.022 60.5829Z" fill="#CBA182"/>
<path d="M247.599 62.8377C248.254 64.11 249.623 64.7592 250.256 64.692C251.386 64.5776 251.597 63.4816 251.216 62.0323C250.781 60.3805 249.762 59.4578 248.63 59.5723C247.499 59.6885 246.829 61.3367 247.599 62.8377Z" fill="#E5B898"/>
<path d="M248.114 61.0887C248.422 59.9109 249.585 60.6828 250.098 61.1777C251.281 62.3237 250.651 63.576 250.651 63.576C249.179 65.1252 248.52 60.4413 250.068 61.7407C249.664 61.1033 248.939 60.5466 248.114 61.0887Z" fill="#CBA182"/>
<path d="M255.355 65.9951C255.355 65.9951 259.31 66.3365 261.506 65.6646C261.506 65.6646 258.418 72.3426 255.355 65.9951Z" fill="white"/>
<path d="M255.158 61.8478C254.683 62.0667 254.505 62.4508 253.907 62.4099C253.341 62.3709 252.783 61.9196 252.542 61.421C252.455 61.244 252.197 61.3175 252.213 61.5127C252.281 62.3246 252.938 62.893 253.697 63.0855C254.404 63.2635 255.637 63.0356 255.577 62.0857C255.564 61.8896 255.326 61.7688 255.158 61.8478Z" fill="#453209"/>
<path d="M263.276 61.9658C262.803 62.1838 262.624 62.5688 262.028 62.5279C261.461 62.4889 260.902 62.0367 260.662 61.539C260.575 61.3629 260.316 61.4355 260.333 61.6308C260.4 62.4426 261.058 63.012 261.818 63.2026C262.523 63.3815 263.757 63.1527 263.697 62.2028C263.685 62.0049 263.448 61.8868 263.276 61.9658Z" fill="#453209"/>
<path d="M273.956 109.508C273.956 111.202 272.923 112.437 271.273 112.437H244.766C243.118 112.437 242.174 111.203 242.174 109.508V92.9109C242.174 91.2155 243.118 89.7344 244.766 89.7344H271.273C272.923 89.7344 273.956 91.2155 273.956 92.9109V109.508Z" fill="#EFF0F4"/>
<path d="M260.393 101.083C260.393 102.274 259.427 103.239 258.236 103.239C257.045 103.239 256.079 102.273 256.079 101.083C256.079 99.8922 257.045 98.926 258.236 98.926C259.428 98.9269 260.393 99.8922 260.393 101.083Z" fill="#D2D3F4"/>
<path d="M254.144 112.514C254.061 111.95 236.454 98.9724 230.647 106.529C224.84 114.083 247.824 119.185 258.083 121.147L262.675 122.396L264.065 120.086L254.144 112.514Z" fill="#1D336E"/>
<path d="M270.501 122.462C270.854 121.593 269.865 118.996 268.823 119.187C267.722 119.387 266.64 119.475 265.577 119.502C264.784 119.531 264 119.528 263.216 119.521C263.062 120.197 262.707 121.013 261.91 121.579C262.05 121.739 262.197 121.901 262.347 122.059C263.197 122.976 264.158 123.889 264.83 124.49C266.734 126.176 269.632 124.594 270.501 122.462Z" fill="#518CE3"/>
<path d="M260.436 123.541C261.039 123.846 261.972 123.128 262.428 122.809C262.861 122.507 263.403 122.079 263.6 121.558C263.517 121.891 263.569 122.227 263.835 122.539C263.906 122.621 264.074 122.593 264.094 122.478C264.191 121.971 264.125 121.531 264.433 121.078C264.693 120.696 265.029 120.372 265.234 119.956C265.277 119.867 265.189 119.727 265.085 119.797C264.685 120.063 264.127 120.536 263.81 121.065C263.813 120.839 263.847 120.445 263.847 120.388C263.847 120.001 263.855 119.613 263.831 119.227C263.777 118.503 263.603 118.098 262.793 118.014C261.894 117.921 261.048 118.543 261.319 119.54C261.565 120.449 262.171 120.708 262.912 120.93C262.14 121.15 261.424 121.398 260.826 122.002C260.507 122.324 259.734 123.182 260.436 123.541ZM263.47 120.707C263.071 120.613 262.624 120.558 262.28 120.345C261.823 120.058 261.387 119.257 261.757 118.73C262.069 118.29 262.855 118.216 263.295 118.546C263.459 118.671 263.447 119.035 263.455 119.216C263.463 119.374 263.41 120.134 263.47 120.707ZM261.485 121.981C261.981 121.563 262.631 121.401 263.253 121.234C263.052 121.749 262.635 122.121 262.174 122.447C261.806 122.705 261.171 123.215 260.691 123.161C260.33 123.118 261.351 122.092 261.485 121.981Z" fill="#BABBD8"/>
<path d="M265.469 123.001C264.582 122.223 265.705 120.542 266.325 119.962C266.407 119.884 266.548 119.973 266.514 120.081C266.365 120.556 266.089 120.978 265.905 121.439C265.702 121.94 265.795 122.389 265.732 122.9C265.715 123.041 265.572 123.092 265.469 123.001Z" fill="#BABBD8"/>
<path d="M266.41 122.808C266.365 122.345 266.655 121.744 266.813 121.31C266.998 120.809 267.297 120.47 267.733 120.179C267.838 120.11 267.944 120.273 267.858 120.352C267.446 120.718 267.288 121.253 267.159 121.77C267.063 122.163 267.04 122.67 266.719 122.947C266.588 123.059 266.424 122.958 266.41 122.808Z" fill="#BABBD8"/>
<path d="M260.806 112.514C260.888 111.95 278.496 98.9724 284.302 106.529C290.11 114.083 267.125 119.185 256.867 121.147L252.275 122.396L250.885 120.086L260.806 112.514Z" fill="#1D336E"/>
<path d="M244.448 122.462C244.095 121.593 245.084 118.996 246.127 119.187C247.227 119.387 248.308 119.475 249.373 119.502C250.166 119.531 250.95 119.528 251.733 119.521C251.888 120.197 252.243 121.013 253.041 121.579C252.899 121.739 252.753 121.901 252.603 122.059C251.752 122.976 250.792 123.889 250.12 124.49C248.216 126.176 245.318 124.594 244.448 122.462Z" fill="#518CE3"/>
<path d="M254.122 122.001C253.526 121.397 252.808 121.149 252.038 120.929C252.777 120.707 253.383 120.448 253.63 119.539C253.901 118.542 253.056 117.92 252.154 118.013C251.345 118.097 251.173 118.502 251.118 119.226C251.094 119.612 251.102 120 251.102 120.387C251.102 120.445 251.136 120.839 251.139 121.064C250.821 120.534 250.264 120.062 249.865 119.796C249.76 119.726 249.672 119.866 249.715 119.955C249.919 120.371 250.255 120.696 250.516 121.077C250.824 121.53 250.759 121.97 250.855 122.477C250.877 122.592 251.043 122.62 251.114 122.538C251.381 122.226 251.431 121.89 251.35 121.557C251.546 122.078 252.088 122.506 252.52 122.808C252.977 123.127 253.91 123.846 254.513 123.54C255.216 123.182 254.444 122.324 254.122 122.001ZM251.494 119.215C251.503 119.034 251.489 118.67 251.655 118.545C252.095 118.216 252.882 118.289 253.192 118.729C253.563 119.256 253.128 120.056 252.669 120.344C252.325 120.558 251.879 120.613 251.48 120.706C251.54 120.134 251.487 119.374 251.494 119.215ZM254.257 123.161C253.78 123.215 253.142 122.706 252.774 122.447C252.314 122.12 251.896 121.749 251.696 121.234C252.319 121.401 252.969 121.563 253.463 121.981C253.598 122.092 254.619 123.118 254.257 123.161Z" fill="#BABBD8"/>
<path d="M249.482 123.001C250.366 122.223 249.244 120.542 248.625 119.962C248.542 119.884 248.401 119.973 248.435 120.081C248.584 120.556 248.86 120.978 249.045 121.439C249.248 121.94 249.154 122.389 249.216 122.9C249.234 123.041 249.377 123.092 249.482 123.001Z" fill="#BABBD8"/>
<path d="M248.539 122.808C248.584 122.345 248.294 121.744 248.137 121.31C247.951 120.809 247.651 120.47 247.216 120.179C247.111 120.11 247.005 120.273 247.093 120.352C247.504 120.718 247.662 121.253 247.79 121.77C247.886 122.163 247.909 122.67 248.23 122.947C248.361 123.059 248.525 122.958 248.539 122.808Z" fill="#BABBD8"/>
<path d="M118.674 200.52H94.1553V176.001H118.674V200.52ZM95.0634 199.612H117.766V177.818H95.0634V199.612Z" fill="#A99D9D"/>
<path d="M120.432 178.016C118.612 180.21 116.916 182.497 115.298 184.725C111.588 189.831 108.195 195.154 105.17 200.691C104.052 197.811 103.131 194.862 102.216 191.898C101.272 188.845 100.532 185.428 99.2103 182.415C98.3621 182.843 97.5213 183.287 96.6895 183.741C97.188 186.847 98.0834 189.983 98.7817 192.959C99.8632 197.569 101.328 202.077 103.285 206.387C103.928 207.804 106.107 207.513 106.748 206.292C110.286 199.558 114.291 193.059 118.761 186.909C120.272 184.834 121.875 182.821 123.494 180.818C122.454 179.9 121.424 178.973 120.432 178.016Z" fill="#518CE3"/>
<path d="M70.5976 192.404C65.8801 189.769 60.1573 192.19 57.3831 196.423C54.4473 200.907 54.3156 206.217 58.4628 210.045C60.1437 211.596 62.7926 212.89 65.1109 212.429C68.0731 211.839 70.2316 209.067 70.6666 206.167L73.4572 199.044C74.8111 196.939 72.4056 193.415 70.5976 192.404Z" fill="#673F33"/>
<path d="M111.957 208.902C110.415 209.825 108.658 210.616 107.228 211.712C107.759 211.048 108.625 210.16 109.025 209.449C106.376 210.034 105.769 212.086 105.032 214.182C103.159 216.88 97.0479 225.676 92.7209 227.054C85.1393 229.468 76.3399 226.138 74.3675 225.033C72.8774 224.197 70.5427 225.044 70.8206 226.987C70.9531 227.915 71.6787 228.724 72.2454 229.428C72.9037 230.246 73.7428 230.903 74.6481 231.429C75.2375 231.771 75.8659 232.05 76.5052 232.287C82.3088 234.451 87.6401 234.287 93.382 232.722C100.486 230.788 107.692 214.354 107.609 214.304C111.195 212.869 111.957 211.236 111.957 208.902Z" fill="#CBA182"/>
<path d="M77.0305 279.183C76.6491 280.962 71.0017 314.709 70.1935 324.086C70.2626 324.364 70.298 324.687 70.2744 325.067C70.1699 326.858 71.3831 328.312 72.5618 329.238C72.5845 329.25 72.6081 329.271 72.619 329.283C73.5889 330.057 73.8904 330.264 74.8829 330.623C75.3805 330.796 75.6566 330.945 75.9454 331.374C76.2459 331.837 75.9108 332.436 75.5067 332.68C73.7632 333.685 69.9284 332.367 68.3574 331.652C67.6763 331.339 65.8511 330.912 65.8402 329.86C65.8284 328.833 65.8974 327.782 66.0009 326.755C66.0245 326.419 66.059 326.095 66.0944 325.773C66.1408 325.276 66.1871 324.63 66.4295 324.132C66.3832 320.541 66.1644 299.892 67.7108 290.627C69.4099 280.454 74.9183 262.794 74.9183 262.794C74.9183 262.794 77.4582 277.208 77.0305 279.183Z" fill="#CBA182"/>
<path d="M68.9806 249.868C71.8093 252.638 75.9129 252.763 79.0395 250.148C78.9523 249.952 80.1147 240.448 80.0493 239.249C79.9794 237.968 82.3258 235.389 82.7091 234.171C83.6635 231.132 84.3291 228.265 81.2834 226.306C79.953 225.448 74.5699 221.544 72.9381 221.544C70.3945 221.544 68.928 221.074 68.3577 221.998C66.4253 225.122 64.7662 229.597 65.5281 232.949C66.616 237.74 69.1341 249.801 68.9806 249.868Z" fill="#BABBD8"/>
<path d="M68.7665 222.416C69.2623 224.226 71.9175 225.137 73.3123 223.717C73.9562 223.061 73.8254 221.699 73.8354 220.886C73.8626 218.873 73.7255 216.863 73.7101 214.849C73.7074 214.694 73.6147 214.599 73.5012 214.562C73.5085 214.503 73.4985 214.438 73.4558 214.374C72.7257 213.279 69.8435 211.733 68.9445 213.423C68.2761 214.68 68.4405 215.899 68.5731 217.274C68.7283 218.904 68.3342 220.833 68.7665 222.416Z" fill="#CBA182"/>
<path d="M60.3799 211.786C61.654 212.67 63.2876 212.59 63.8579 212.206C64.8795 211.52 64.5217 210.367 63.4202 209.179C62.1688 207.823 60.7259 207.465 59.7061 208.15C58.6845 208.836 58.8834 210.747 60.3799 211.786Z" fill="#E5B898"/>
<path d="M59.9843 209.856C59.6765 208.578 61.1803 208.721 61.9204 208.933C63.6294 209.425 63.6675 210.939 63.6675 210.939C63.0509 213.163 60.0425 209.032 62.1783 209.484C61.4691 209.079 60.4929 208.921 59.9843 209.856Z" fill="#CBA182"/>
<path d="M77.6359 204.595C75.5001 200.249 72.2718 195.182 68.3171 194.337C68.2535 199.788 66.7316 205.951 62.0713 207.561C62.5862 208.877 63.1837 210.174 63.7839 211.399C66.6017 217.134 70.6908 217.626 74.5157 215.747C78.3424 213.868 80.4518 210.33 77.6359 204.595Z" fill="#E5B898"/>
<path d="M71.168 209.635L75.7974 208.771C75.7974 208.771 76.7763 212.996 71.168 209.635Z" fill="white"/>
<path d="M69.8213 205.214C70.0383 206.023 69.8975 206.763 69.5052 206.87C69.113 206.975 68.618 206.404 68.4001 205.595C68.1831 204.786 68.3265 204.046 68.7188 203.939C69.112 203.834 69.6042 204.404 69.8213 205.214Z" fill="#453209"/>
<path d="M75.1098 202.891C75.3268 203.701 75.187 204.442 74.7938 204.546C74.3997 204.652 73.9066 204.081 73.6886 203.273C73.4716 202.464 73.6132 201.722 74.0055 201.618C74.4006 201.512 74.8927 202.082 75.1098 202.891Z" fill="#453209"/>
<path d="M66.0467 320.743C66.0467 320.743 63.8818 272.381 72.3988 250.581L79.0396 250.148C79.0396 250.148 78.1733 302.552 70.8114 321.464L66.0467 320.743Z" fill="#162850"/>
<path d="M76.5923 259.365C76.5814 259.642 76.2917 259.724 76.1073 259.62C75.8068 266.952 74.3983 274.321 72.5967 281.376C71.6496 285.131 70.3791 288.85 68.8663 292.419C67.4923 295.629 65.8759 299.024 63.2543 301.414C61.1403 303.356 59.7999 305.099 54.7192 303.621C52.1557 302.883 33.5726 292.281 32.9615 292.026C31.217 291.276 29.3237 291.98 27.9715 292.835C27.5684 293.088 27.2787 293.272 27.0253 293.459C26.5513 293.794 26.2516 294.082 25.7785 294.66C25.4207 295.098 25.1783 295.329 24.6461 295.457C24.0813 295.594 23.5955 295.04 23.5029 294.556C23.1097 292.455 25.7903 289.092 27.0598 287.766C27.6138 287.2 28.6771 285.526 29.7496 285.894C29.9466 285.952 30.4197 286.229 31.0554 286.564C31.8518 286.992 32.9025 287.534 33.9422 287.939C37.8107 289.452 42.9613 291.046 44.6013 291.588C56.6825 295.583 55.9197 297.733 56.8786 296.682C59.3268 293.991 60.8742 287.338 62.2145 284.093C63.4968 281.01 64.1079 277.682 64.6282 274.403C65.3447 269.922 65.9913 265.441 66.9838 261.019C67.5959 258.304 68.3923 255.082 70.588 253.199C72.5731 251.502 75.5652 252.276 76.5469 254.643C77.1353 256.062 76.6386 257.886 76.5923 259.365Z" fill="#CBA182"/>
<path d="M68.9809 249.868C68.9809 249.868 61.1386 273.536 57.0967 295.19C57.0967 295.19 38.0932 288.58 36.0201 288.261L32.958 292.022C32.958 292.022 56.8089 308.183 61.4283 304.43C61.4283 304.43 81.6387 286.24 78.1743 250.149L68.9809 249.868Z" fill="#1D336E"/>
<path d="M111.378 222.062C109.659 222.587 107.763 222.929 106.109 223.646C106.786 223.132 107.84 222.479 108.4 221.884C105.688 221.811 104.603 223.657 103.381 225.512C100.912 227.679 92.8567 234.737 88.3254 235.029C80.386 235.541 72.6509 230.183 71.0036 228.636C69.7596 227.465 67.2896 227.722 67.0898 229.676C66.9944 230.608 67.5039 231.569 67.8825 232.388C68.323 233.342 68.9804 234.181 69.7323 234.91C70.2218 235.383 70.7639 235.806 71.3269 236.192C76.4358 239.693 81.6491 240.821 87.5989 240.69C94.9589 240.529 105.922 226.323 105.853 226.252C109.68 225.73 110.814 224.328 111.378 222.062Z" fill="#E5B898"/>
<path d="M50.8393 190.957C44.8587 195.058 53.6172 203.503 57.9633 198.564L58.4446 197.504C60.4778 193.195 54.8122 188.232 50.8393 190.957Z" fill="#673F33"/>
<path d="M31.0553 286.563C29.9111 288.076 28.1912 290.582 27.0243 293.459C26.5503 293.793 26.2506 294.082 25.7775 294.659C25.4198 295.097 25.1773 295.328 24.6452 295.456C24.0803 295.593 23.5945 295.04 23.5019 294.556C23.1087 292.454 25.7893 289.092 27.0588 287.765C27.6128 287.199 28.6761 285.525 29.7486 285.893C29.9457 285.951 30.4188 286.228 31.0553 286.563Z" fill="#518CE3"/>
<path d="M75.5067 332.679C73.7632 333.684 69.9284 332.367 68.3574 331.651C67.6763 331.339 65.8511 330.911 65.8402 329.859C65.8284 328.832 65.8974 327.781 66.0009 326.754C67.7453 327.585 70.0555 328.554 72.619 329.282C73.5889 330.056 73.8904 330.263 74.8829 330.622C75.3805 330.796 75.6566 330.944 75.9454 331.373C76.245 331.837 75.9108 332.436 75.5067 332.679Z" fill="#518CE3"/>
<defs>
<linearGradient id="paint0_linear_1320_1972" x1="301.41" y1="67.7863" x2="301.41" y2="20.1003" gradientUnits="userSpaceOnUse">
<stop stop-color="white"/>
<stop offset="1" stop-color="#D4D5D9"/>
</linearGradient>
<linearGradient id="paint1_linear_1320_1972" x1="68.7308" y1="132.763" x2="68.7308" y2="64.0848" gradientUnits="userSpaceOnUse">
<stop stop-color="white"/>
<stop offset="1" stop-color="#D4D5D9"/>
</linearGradient>
<linearGradient id="paint2_linear_1320_1972" x1="169.848" y1="54.5947" x2="169.848" y2="-4.75346" gradientUnits="userSpaceOnUse">
<stop stop-color="white"/>
<stop offset="1" stop-color="#D4D5D9"/>
</linearGradient>
<linearGradient id="paint3_linear_1320_1972" x1="322.068" y1="157.77" x2="322.068" y2="89.0925" gradientUnits="userSpaceOnUse">
<stop stop-color="white"/>
<stop offset="1" stop-color="#D4D5D9"/>
</linearGradient>
</defs>
</svg>
