<svg width="40" height="40" viewBox="0 0 40 40" fill="none" xmlns="http://www.w3.org/2000/svg">
<path d="M28.4698 4.15753L18.3208 0L15.5289 2.28263V3.42394L10.3103 6.75946L10.7524 7.44883L16.3476 3.87261V2.67071L18.4616 0.941542L20.0712 1.60144L16.9486 3.92173L17.4366 4.57836L20.9571 1.96332L22.4456 2.5741L18.3748 5.51826L18.8546 6.18143L23.338 2.93925L24.6299 3.46816L19.6684 7.10824L20.1515 7.76814L25.5174 3.83167L26.8192 4.36548L21.0193 8.69003L21.6547 10.334L20.0205 11.0038L16.4 9.28116L12.683 13.2929L13.2839 13.848L16.5916 10.2784L19.9959 11.8995L22.7076 10.786L22.0067 8.97495L28.4698 4.15753Z" fill="#E11B50"/>
<path d="M10.6753 5.02222L2 11.7326L2.58294 15.2924L3.57033 15.8622L3.8487 22.0502L4.66743 22.0126L4.36777 15.3775L3.32798 14.7766L2.8875 12.0813L4.26298 11.017L4.71 14.8814L5.52382 14.7881L5.01949 10.4324L6.29179 9.44829L6.80596 14.4458L7.62142 14.3623L7.05485 8.8588L8.1585 8.00404L8.82987 14.12L9.64369 14.0315L8.91829 7.41619L10.0301 6.55488L10.8751 13.7417L12.6173 14.0119L12.3799 15.764L9.07712 18.0368L10.6933 23.2603L11.476 23.0196L10.0383 18.3692L13.1429 16.2323L13.5359 13.3274L11.6152 13.0278L10.6753 5.02222Z" fill="#1C7ABF"/>
<path d="M2.52734 20.8647L4.00106 31.7326L7.37588 33.0082L8.36327 32.4384L13.8602 35.2908L14.2369 34.5638L8.34198 31.505L7.30219 32.1059L4.74775 31.1398L4.51359 29.4156L8.08326 30.9614L8.40912 30.2098L4.38423 28.4675L4.16808 26.8742L8.75462 28.9276L9.08867 28.1809L4.03873 25.918L3.85041 24.5359L9.48493 27.0118L9.81406 26.2618L3.72269 23.5846L3.53274 22.1895L10.1792 25.0517L11.2845 23.6779L12.6829 24.7586L12.9989 28.7557L18.3322 29.9691L18.5139 29.17L13.7685 28.0909L13.4705 24.3329L11.1502 22.5399L9.93032 24.0529L2.52734 20.8647Z" fill="#713285"/>
<path d="M12.1736 35.8425L22.3226 40.0001L25.1145 37.7158V36.5761L30.3331 33.2406L29.891 32.5512L24.2957 36.1275V37.3277L22.1818 39.0585L20.5721 38.3986L23.6948 36.0783L23.2068 35.4217L19.6863 38.0351L18.1978 37.426L22.2686 34.4818L21.7888 33.8186L17.3054 37.0608L16.0134 36.5319L20.975 32.8918L20.4903 32.2319L15.1259 36.1668L13.8241 35.6346L19.6241 31.31L18.9887 29.666L20.6229 28.9947L24.2433 30.7189L27.9604 26.7071L27.3594 26.1504L24.0518 29.7217L20.6475 28.1006L17.9358 29.2125L18.6367 31.0251L12.1736 35.8425Z" fill="#879D3B"/>
<path d="M29.9681 34.978L38.6434 28.2677L38.0604 24.7078L37.073 24.138L36.7947 17.95L35.9759 17.9877L36.2756 24.6227L37.3154 25.222L37.7559 27.9173L36.3804 28.9832L35.9334 25.1188L35.1195 25.2122L35.6239 29.5678L34.3516 30.5519L33.8374 25.5544L33.0219 25.6379L33.5885 31.1414L32.4849 31.9962L31.8135 25.8803L30.9997 25.9687L31.7251 32.584L30.6132 33.4437L29.7683 26.2585L28.026 25.9883L28.2635 24.2362L31.5662 21.9634L29.9501 16.7383L29.1673 16.9806L30.605 21.6294L27.5004 23.7679L27.1074 26.6728L29.0282 26.9724L29.9681 34.978Z" fill="#5EC3CB"/>
<path d="M38.116 19.1339L36.6422 8.26605L33.2674 6.99046L32.28 7.56194L26.7831 4.70947L26.4065 5.43651L32.3013 8.49529L33.3411 7.89434L35.8956 8.86045L36.1297 10.5847L32.56 9.03893L32.2342 9.79053L36.2591 11.5312L36.4752 13.126L31.8887 11.0727L31.5546 11.8193L36.6046 14.0807L36.7913 15.4643L31.1584 12.9885L30.8292 13.7368L36.9206 16.4157L37.1106 17.8108L30.4641 14.9485L29.3588 16.3224L27.9604 15.2417L27.6444 11.2446L22.3112 10.0312L22.1294 10.8303L26.8748 11.9094L27.1728 15.6674L29.4931 17.4604L30.713 15.9474L38.116 19.1339Z" fill="#F38E22"/>
<path d="M28.4698 4.15753L18.3208 0L15.5289 2.28263V3.42394L10.3103 6.75946L10.7524 7.44883L16.3476 3.87261V2.67071L18.4616 0.941542L20.0712 1.60144L16.9486 3.92173L17.4366 4.57836L20.9571 1.96332L22.4456 2.5741L18.3748 5.51826L18.8546 6.18143L23.338 2.93925L24.6299 3.46816L19.6684 7.10824L20.1515 7.76814L25.5174 3.83167L26.8192 4.36548L21.0193 8.69003L21.6547 10.334L20.0205 11.0038L16.4 9.28116L12.683 13.2929L13.2839 13.848L16.5916 10.2784L19.9959 11.8995L22.7076 10.786L22.0067 8.97495L28.4698 4.15753Z" fill="#E11B50"/>
</svg>
