<svg width="10" height="12" viewBox="0 0 10 12" fill="none" xmlns="http://www.w3.org/2000/svg">
<path d="M4.84277 11.2641C4.77354 11.2641 4.70457 11.2506 4.64062 11.2241C4.57698 11.1977 4.51945 11.1585 4.4707 11.1098L0.259766 6.89886C0.160962 6.80006 0.105469 6.66555 0.105469 6.52582C0.105596 6.38626 0.161076 6.25244 0.259766 6.15375C0.35852 6.05508 0.492237 5.99949 0.631836 5.99945C0.771564 5.99945 0.90608 6.05494 1.00488 6.15375L4.31641 9.46625V0.631287C4.31648 0.491798 4.37206 0.357855 4.4707 0.259216C4.56938 0.160686 4.70332 0.104919 4.84277 0.104919C4.98226 0.104992 5.11621 0.160579 5.21484 0.259216C5.31348 0.357855 5.36907 0.491799 5.36914 0.631287V9.46625L8.68066 6.15375C8.77939 6.05507 8.91316 5.99953 9.05273 5.99945C9.19246 5.99945 9.32698 6.05494 9.42578 6.15375C9.52441 6.25243 9.57995 6.38631 9.58008 6.52582C9.58008 6.6655 9.52452 6.80007 9.42578 6.89886L5.21484 11.1098C5.16604 11.1586 5.10771 11.1976 5.04395 11.2241C4.98019 11.2505 4.91178 11.2641 4.84277 11.2641Z" fill="#D71818" stroke="#D71818" stroke-width="0.210526"/>
</svg>
