<svg width="348" height="119" viewBox="0 0 348 119" fill="none" xmlns="http://www.w3.org/2000/svg">
<rect width="348" height="29" rx="4" fill="url(#paint0_linear_628_6358)"/>
<path d="M9.00426 20V9.81818H15.6264V11.3643H10.8487V14.1286H15.2834V15.6747H10.8487V18.4538H15.6662V20H9.00426ZM17.5082 9.81818H19.7653L22.788 17.196H22.9073L25.93 9.81818H28.1871V20H26.4173V13.005H26.3228L23.5089 19.9702H22.1864L19.3725 12.9901H19.2781V20H17.5082V9.81818ZM30.1957 20V9.81818H34.0138C34.796 9.81818 35.4523 9.96401 35.9826 10.2557C36.5162 10.5473 36.9189 10.9484 37.1907 11.4588C37.4658 11.9659 37.6033 12.5426 37.6033 13.1889C37.6033 13.8419 37.4658 14.4219 37.1907 14.929C36.9156 15.4361 36.5096 15.8355 35.9727 16.1271C35.4357 16.4155 34.7745 16.5597 33.989 16.5597H31.4585V15.0433H33.7404C34.1978 15.0433 34.5723 14.9638 34.864 14.8047C35.1557 14.6456 35.3711 14.4268 35.5103 14.1484C35.6528 13.87 35.7241 13.5502 35.7241 13.1889C35.7241 12.8277 35.6528 12.5095 35.5103 12.2344C35.3711 11.9593 35.154 11.7455 34.859 11.593C34.5674 11.4373 34.1912 11.3594 33.7305 11.3594H32.0401V20H30.1957ZM39.2054 20V9.81818H41.0499V18.4538H45.5343V20H39.2054ZM55.8366 14.9091C55.8366 16.0062 55.6312 16.9458 55.2202 17.728C54.8125 18.5069 54.2557 19.1035 53.5497 19.5178C52.8471 19.9321 52.05 20.1392 51.1584 20.1392C50.2668 20.1392 49.468 19.9321 48.7621 19.5178C48.0594 19.1001 47.5026 18.5019 47.0916 17.723C46.6839 16.9408 46.4801 16.0028 46.4801 14.9091C46.4801 13.812 46.6839 12.8741 47.0916 12.0952C47.5026 11.313 48.0594 10.7147 48.7621 10.3004C49.468 9.88613 50.2668 9.67898 51.1584 9.67898C52.05 9.67898 52.8471 9.88613 53.5497 10.3004C54.2557 10.7147 54.8125 11.313 55.2202 12.0952C55.6312 12.8741 55.8366 13.812 55.8366 14.9091ZM53.9822 14.9091C53.9822 14.1368 53.8613 13.4856 53.6193 12.9553C53.3807 12.4216 53.0492 12.0189 52.625 11.7472C52.2008 11.4721 51.7119 11.3345 51.1584 11.3345C50.6049 11.3345 50.116 11.4721 49.6918 11.7472C49.2675 12.0189 48.9344 12.4216 48.6925 12.9553C48.4538 13.4856 48.3345 14.1368 48.3345 14.9091C48.3345 15.6813 48.4538 16.3343 48.6925 16.8679C48.9344 17.3982 49.2675 17.8009 49.6918 18.076C50.116 18.3478 50.6049 18.4837 51.1584 18.4837C51.7119 18.4837 52.2008 18.3478 52.625 18.076C53.0492 17.8009 53.3807 17.3982 53.6193 16.8679C53.8613 16.3343 53.9822 15.6813 53.9822 14.9091ZM56.3102 9.81818H58.3933L60.8841 14.3224H60.9835L63.4743 9.81818H65.5574L61.8535 16.2017V20H60.014V16.2017L56.3102 9.81818ZM66.8636 20V9.81818H73.4858V11.3643H68.7081V14.1286H73.1428V15.6747H68.7081V18.4538H73.5256V20H66.8636ZM75.3675 20V9.81818H81.9897V11.3643H77.212V14.1286H81.6467V15.6747H77.212V18.4538H82.0295V20H75.3675Z" fill="#131313"/>
<path d="M330.444 18.4878C329.999 18.4878 329.599 18.4026 329.244 18.2321C328.891 18.0593 328.609 17.8226 328.398 17.5219C328.188 17.2212 328.075 16.878 328.061 16.4921H329.126C329.152 16.8046 329.291 17.0614 329.542 17.2627C329.793 17.4639 330.094 17.5645 330.444 17.5645C330.723 17.5645 330.971 17.5006 331.186 17.3727C331.404 17.2425 331.574 17.0638 331.697 16.8365C331.823 16.6092 331.886 16.35 331.886 16.0588C331.886 15.7629 331.822 15.4989 331.694 15.2669C331.566 15.0349 331.39 14.8526 331.165 14.72C330.942 14.5875 330.687 14.52 330.398 14.5176C330.178 14.5176 329.956 14.5555 329.734 14.6313C329.511 14.707 329.331 14.8065 329.194 14.9296L328.189 14.7804L328.597 11.1156H332.596V12.0567H329.51L329.279 14.0915H329.322C329.464 13.9542 329.652 13.8394 329.886 13.747C330.123 13.6547 330.376 13.6085 330.646 13.6085C331.089 13.6085 331.483 13.7139 331.829 13.9246C332.177 14.1353 332.45 14.4229 332.649 14.7875C332.85 15.1497 332.95 15.5664 332.947 16.0375C332.95 16.5086 332.843 16.9288 332.628 17.2982C332.415 17.6675 332.119 17.9587 331.74 18.1717C331.364 18.3824 330.932 18.4878 330.444 18.4878ZM336.776 18.5091C336.215 18.5067 335.736 18.3588 335.338 18.0652C334.941 17.7717 334.636 17.3443 334.426 16.7833C334.215 16.2222 334.11 15.5463 334.11 14.7556C334.11 13.9672 334.215 13.2937 334.426 12.735C334.639 12.1762 334.944 11.7501 335.342 11.4565C335.742 11.163 336.22 11.0162 336.776 11.0162C337.333 11.0162 337.81 11.1642 338.208 11.4601C338.605 11.7537 338.91 12.1798 339.12 12.7385C339.333 13.2949 339.44 13.9672 339.44 14.7556C339.44 15.5486 339.334 16.2257 339.124 16.7868C338.913 17.3455 338.609 17.7728 338.211 18.0688C337.813 18.3623 337.335 18.5091 336.776 18.5091ZM336.776 17.561C337.269 17.561 337.654 17.3207 337.931 16.8401C338.21 16.3595 338.35 15.6646 338.35 14.7556C338.35 14.1519 338.286 13.6417 338.158 13.225C338.032 12.806 337.851 12.4887 337.615 12.2733C337.38 12.0555 337.101 11.9466 336.776 11.9466C336.286 11.9466 335.902 12.1881 335.622 12.671C335.343 13.154 335.202 13.8488 335.2 14.7556C335.2 15.3616 335.262 15.8742 335.388 16.2932C335.516 16.7099 335.697 17.0259 335.931 17.2413C336.166 17.4544 336.447 17.561 336.776 17.561Z" fill="#131313"/>
<rect y="45" width="301" height="29" rx="4" fill="url(#paint1_linear_628_6358)"/>
<path d="M9.00426 54.8182H11.2614L14.2841 62.196H14.4034L17.4261 54.8182H19.6832V65H17.9134V58.005H17.8189L15.005 64.9702H13.6825L10.8686 57.9901H10.7741V65H9.00426V54.8182ZM22.9993 65H21.0305L24.6151 54.8182H26.892L30.4815 65H28.5128L25.7933 56.9062H25.7138L22.9993 65ZM23.0639 61.0078H28.4332V62.4893H23.0639V61.0078ZM40.1898 54.8182V65H38.5492L33.7516 58.0646H33.6671V65H31.8226V54.8182H33.4732L38.2658 61.7585H38.3553V54.8182H40.1898ZM43.5071 65H41.5384L45.1229 54.8182H47.3999L50.9893 65H49.0206L46.3011 56.9062H46.2216L43.5071 65ZM43.5717 61.0078H48.9411V62.4893H43.5717V61.0078ZM58.6729 58.0696C58.5901 57.8011 58.4757 57.5608 58.3299 57.3487C58.1874 57.1333 58.015 56.9493 57.8129 56.7969C57.614 56.6444 57.3853 56.5301 57.1268 56.4538C56.8683 56.3743 56.5865 56.3345 56.2816 56.3345C55.7347 56.3345 55.2475 56.4721 54.82 56.7472C54.3924 57.0223 54.056 57.4266 53.8107 57.9602C53.5688 58.4905 53.4478 59.1368 53.4478 59.8991C53.4478 60.6681 53.5688 61.3194 53.8107 61.853C54.0527 62.3866 54.3891 62.7926 54.82 63.071C55.2508 63.3461 55.7513 63.4837 56.3214 63.4837C56.8384 63.4837 57.2859 63.3842 57.6637 63.1854C58.0449 62.9865 58.3382 62.7048 58.5437 62.3402C58.7492 61.9723 58.8519 61.5414 58.8519 61.0476L59.2695 61.1122H56.5053V59.6705H60.6367V60.8935C60.6367 61.7652 60.4511 62.5192 60.0799 63.1555C59.7087 63.7919 59.1983 64.2824 58.5487 64.6271C57.899 64.9685 57.1533 65.1392 56.3114 65.1392C55.3735 65.1392 54.5498 64.9287 53.8406 64.5078C53.1346 64.0836 52.5827 63.482 52.185 62.7031C51.7906 61.9209 51.5934 60.9929 51.5934 59.919C51.5934 59.0971 51.7094 58.3629 51.9414 57.7166C52.1767 57.0703 52.5049 56.5218 52.9258 56.071C53.3467 55.617 53.8406 55.2723 54.4073 55.0369C54.9741 54.7983 55.5906 54.679 56.2567 54.679C56.8202 54.679 57.3455 54.7618 57.8327 54.9276C58.32 55.09 58.7525 55.322 59.1303 55.6236C59.5115 55.9252 59.8247 56.2831 60.07 56.6974C60.3152 57.1117 60.476 57.5691 60.5522 58.0696H58.6729ZM62.4203 65V54.8182H69.0424V56.3643H64.2647V59.1286H68.6994V60.6747H64.2647V63.4538H69.0822V65H62.4203ZM70.9242 65V54.8182H74.7424C75.5246 54.8182 76.1808 54.9541 76.7111 55.2259C77.2447 55.4976 77.6474 55.8788 77.9192 56.3693C78.1943 56.8565 78.3319 57.425 78.3319 58.0746C78.3319 58.7275 78.1926 59.2943 77.9142 59.7749C77.6391 60.2521 77.2331 60.6217 76.6962 60.8835C76.1593 61.142 75.4997 61.2713 74.7175 61.2713H71.998V59.7401H74.4689C74.9263 59.7401 75.3008 59.6771 75.5925 59.5511C75.8842 59.4219 76.0996 59.2346 76.2388 58.9893C76.3813 58.7408 76.4526 58.4358 76.4526 58.0746C76.4526 57.7133 76.3813 57.4051 76.2388 57.1499C76.0963 56.8913 75.8792 56.6958 75.5875 56.5632C75.2959 56.4273 74.9197 56.3594 74.459 56.3594H72.7686V65H70.9242ZM76.1841 60.3864L78.7047 65H76.6465L74.1706 60.3864H76.1841Z" fill="#131313"/>
<path d="M282.021 63.3884L285.195 57.11V57.0567H281.524V56.1156H286.332V57.0887L283.168 63.3884H282.021ZM287.567 63.3884V62.5929L290.028 60.0432C290.29 59.7662 290.507 59.5235 290.678 59.3152C290.85 59.1045 290.979 58.9045 291.065 58.7151C291.15 58.5257 291.192 58.3244 291.192 58.1114C291.192 57.8699 291.136 57.6616 291.022 57.4864C290.908 57.3088 290.753 57.1727 290.557 57.078C290.36 56.9809 290.139 56.9324 289.893 56.9324C289.632 56.9324 289.405 56.9857 289.211 57.0922C289.017 57.1987 288.868 57.3491 288.763 57.5432C288.659 57.7373 288.607 57.9646 288.607 58.225H287.56C287.56 57.7823 287.661 57.3952 287.865 57.0638C288.069 56.7324 288.348 56.4755 288.703 56.2932C289.058 56.1085 289.462 56.0162 289.914 56.0162C290.371 56.0162 290.773 56.1074 291.121 56.2896C291.472 56.4696 291.745 56.7158 291.942 57.0283C292.138 57.3384 292.237 57.6888 292.237 58.0794C292.237 58.3493 292.186 58.6133 292.084 58.8713C291.984 59.1294 291.81 59.417 291.562 59.7342C291.313 60.0491 290.968 60.4315 290.525 60.8813L289.08 62.394V62.4473H292.354V63.3884H287.567Z" fill="#131313"/>
<rect y="90" width="252" height="29" rx="4" fill="url(#paint2_linear_628_6358)"/>
<path d="M14.5376 102.617C14.4912 102.183 14.2957 101.845 13.951 101.603C13.6096 101.361 13.1655 101.24 12.6186 101.24C12.2341 101.24 11.9044 101.298 11.6293 101.414C11.3542 101.53 11.1437 101.687 10.9979 101.886C10.852 102.085 10.7775 102.312 10.7741 102.567C10.7741 102.78 10.8222 102.964 10.9183 103.119C11.0178 103.275 11.152 103.408 11.321 103.517C11.4901 103.623 11.6773 103.713 11.8828 103.786C12.0883 103.858 12.2955 103.92 12.5043 103.969L13.4588 104.208C13.8433 104.298 14.2128 104.419 14.5675 104.571C14.9254 104.723 15.2453 104.916 15.527 105.148C15.812 105.38 16.0374 105.66 16.2031 105.988C16.3688 106.316 16.4517 106.701 16.4517 107.141C16.4517 107.738 16.2992 108.263 15.9943 108.717C15.6894 109.168 15.2486 109.521 14.6719 109.776C14.0985 110.028 13.4041 110.154 12.5888 110.154C11.7966 110.154 11.1089 110.031 10.5256 109.786C9.94555 109.541 9.49148 109.183 9.16335 108.712C8.83854 108.242 8.66288 107.668 8.63636 106.992H10.451C10.4775 107.347 10.5869 107.642 10.7791 107.877C10.9714 108.112 11.2216 108.288 11.5298 108.404C11.8414 108.52 12.1894 108.578 12.5739 108.578C12.9749 108.578 13.3262 108.518 13.6278 108.399C13.9328 108.277 14.1714 108.107 14.3438 107.892C14.5161 107.673 14.6039 107.418 14.6072 107.126C14.6039 106.861 14.526 106.643 14.3736 106.47C14.2211 106.295 14.0073 106.149 13.7322 106.033C13.4605 105.913 13.1423 105.807 12.7777 105.714L11.6193 105.416C10.7808 105.201 10.1179 104.874 9.63068 104.437C9.14678 103.996 8.90483 103.411 8.90483 102.682C8.90483 102.082 9.06723 101.557 9.39205 101.106C9.72017 100.655 10.166 100.305 10.7294 100.057C11.2929 99.8049 11.9309 99.679 12.6435 99.679C13.366 99.679 13.9991 99.8049 14.5426 100.057C15.0895 100.305 15.5187 100.652 15.8303 101.096C16.1418 101.537 16.3026 102.044 16.3125 102.617H14.5376ZM18.0961 110V99.8182H24.7182V101.364H19.9405V104.129H24.3752V105.675H19.9405V108.454H24.758V110H18.0961ZM34.9672 99.8182V110H33.3265L28.5289 103.065H28.4444V110H26.6V99.8182H28.2505L33.0431 106.759H33.1326V99.8182H34.9672ZM38.8214 99.8182V110H36.9769V99.8182H38.8214ZM49.9167 104.909C49.9167 106.006 49.7112 106.946 49.3002 107.728C48.8926 108.507 48.3358 109.103 47.6298 109.518C46.9271 109.932 46.13 110.139 45.2385 110.139C44.3469 110.139 43.5481 109.932 42.8422 109.518C42.1395 109.1 41.5827 108.502 41.1717 107.723C40.764 106.941 40.5602 106.003 40.5602 104.909C40.5602 103.812 40.764 102.874 41.1717 102.095C41.5827 101.313 42.1395 100.715 42.8422 100.3C43.5481 99.8861 44.3469 99.679 45.2385 99.679C46.13 99.679 46.9271 99.8861 47.6298 100.3C48.3358 100.715 48.8926 101.313 49.3002 102.095C49.7112 102.874 49.9167 103.812 49.9167 104.909ZM48.0623 104.909C48.0623 104.137 47.9413 103.486 47.6994 102.955C47.4608 102.422 47.1293 102.019 46.7051 101.747C46.2808 101.472 45.792 101.335 45.2385 101.335C44.685 101.335 44.1961 101.472 43.7718 101.747C43.3476 102.019 43.0145 102.422 42.7725 102.955C42.5339 103.486 42.4146 104.137 42.4146 104.909C42.4146 105.681 42.5339 106.334 42.7725 106.868C43.0145 107.398 43.3476 107.801 43.7718 108.076C44.1961 108.348 44.685 108.484 45.2385 108.484C45.792 108.484 46.2808 108.348 46.7051 108.076C47.1293 107.801 47.4608 107.398 47.6994 106.868C47.9413 106.334 48.0623 105.681 48.0623 104.909ZM51.6605 110V99.8182H55.4787C56.2609 99.8182 56.9171 99.9541 57.4474 100.226C57.9811 100.498 58.3838 100.879 58.6555 101.369C58.9306 101.857 59.0682 102.425 59.0682 103.075C59.0682 103.728 58.929 104.294 58.6506 104.775C58.3755 105.252 57.9695 105.622 57.4325 105.884C56.8956 106.142 56.236 106.271 55.4538 106.271H52.7344V104.74H55.2053C55.6626 104.74 56.0372 104.677 56.3288 104.551C56.6205 104.422 56.8359 104.235 56.9751 103.989C57.1177 103.741 57.1889 103.436 57.1889 103.075C57.1889 102.713 57.1177 102.405 56.9751 102.15C56.8326 101.891 56.6155 101.696 56.3239 101.563C56.0322 101.427 55.656 101.359 55.1953 101.359H53.505V110H51.6605ZM56.9205 105.386L59.4411 110H57.3828L54.907 105.386H56.9205ZM64.2386 110V99.8182H66.0831V108.454H70.5675V110H64.2386ZM72.1683 110V99.8182H78.7905V101.364H74.0128V104.129H78.4474V105.675H74.0128V108.454H78.8303V110H72.1683ZM81.9798 110H80.011L83.5955 99.8182H85.8725L89.462 110H87.4933L84.7738 101.906H84.6942L81.9798 110ZM82.0444 106.008H87.4137V107.489H82.0444V106.008ZM94.2534 110H90.8031V99.8182H94.323C95.3339 99.8182 96.2022 100.022 96.9281 100.43C97.6573 100.834 98.2174 101.416 98.6085 102.175C98.9996 102.934 99.1951 103.842 99.1951 104.899C99.1951 105.96 98.9979 106.871 98.6035 107.634C98.2124 108.396 97.6473 108.981 96.9082 109.388C96.1724 109.796 95.2875 110 94.2534 110ZM92.6475 108.404H94.1639C94.8732 108.404 95.4648 108.275 95.9387 108.016C96.4127 107.754 96.769 107.365 97.0076 106.848C97.2463 106.328 97.3656 105.678 97.3656 104.899C97.3656 104.12 97.2463 103.474 97.0076 102.96C96.769 102.443 96.416 102.057 95.9487 101.802C95.4847 101.543 94.908 101.414 94.2186 101.414H92.6475V108.404ZM100.948 110V99.8182H107.57V101.364H102.792V104.129H107.227V105.675H102.792V108.454H107.61V110H100.948ZM109.452 110V99.8182H113.27C114.052 99.8182 114.708 99.9541 115.238 100.226C115.772 100.498 116.175 100.879 116.447 101.369C116.722 101.857 116.859 102.425 116.859 103.075C116.859 103.728 116.72 104.294 116.442 104.775C116.166 105.252 115.76 105.622 115.224 105.884C114.687 106.142 114.027 106.271 113.245 106.271H110.525V104.74H112.996C113.454 104.74 113.828 104.677 114.12 104.551C114.412 104.422 114.627 104.235 114.766 103.989C114.909 103.741 114.98 103.436 114.98 103.075C114.98 102.713 114.909 102.405 114.766 102.15C114.624 101.891 114.407 101.696 114.115 101.563C113.823 101.427 113.447 101.359 112.986 101.359H111.296V110H109.452ZM114.711 105.386L117.232 110H115.174L112.698 105.386H114.711Z" fill="#131313"/>
<path d="M232.982 108.388L236.156 102.11V102.057H232.485V101.116H237.293V102.089L234.129 108.388H232.982ZM240.839 108.488C240.33 108.488 239.88 108.4 239.489 108.225C239.101 108.05 238.797 107.808 238.577 107.501C238.356 107.193 238.247 106.842 238.25 106.449C238.247 106.142 238.31 105.859 238.438 105.601C238.568 105.34 238.745 105.124 238.967 104.951C239.19 104.776 239.438 104.664 239.713 104.617V104.574C239.351 104.487 239.061 104.293 238.843 103.992C238.625 103.691 238.517 103.346 238.52 102.955C238.517 102.583 238.616 102.252 238.814 101.961C239.016 101.667 239.291 101.436 239.642 101.268C239.992 101.1 240.391 101.016 240.839 101.016C241.281 101.016 241.677 101.101 242.025 101.272C242.375 101.44 242.651 101.671 242.852 101.964C243.053 102.256 243.155 102.586 243.157 102.955C243.155 103.346 243.044 103.691 242.824 103.992C242.604 104.293 242.317 104.487 241.964 104.574V104.617C242.237 104.664 242.482 104.776 242.699 104.951C242.92 105.124 243.095 105.34 243.225 105.601C243.358 105.859 243.425 106.142 243.427 106.449C243.425 106.842 243.314 107.193 243.094 107.501C242.873 107.808 242.568 108.05 242.177 108.225C241.789 108.4 241.343 108.488 240.839 108.488ZM240.839 107.589C241.139 107.589 241.4 107.54 241.62 107.44C241.84 107.338 242.01 107.198 242.131 107.018C242.252 106.835 242.314 106.622 242.316 106.378C242.314 106.125 242.247 105.901 242.117 105.707C241.989 105.513 241.815 105.36 241.595 105.249C241.375 105.138 241.123 105.082 240.839 105.082C240.552 105.082 240.298 105.138 240.075 105.249C239.853 105.36 239.677 105.513 239.55 105.707C239.422 105.901 239.359 106.125 239.361 106.378C239.359 106.622 239.417 106.835 239.535 107.018C239.656 107.198 239.828 107.338 240.05 107.44C240.273 107.54 240.536 107.589 240.839 107.589ZM240.839 104.205C241.08 104.205 241.294 104.157 241.481 104.06C241.668 103.962 241.815 103.828 241.922 103.655C242.031 103.482 242.086 103.279 242.089 103.047C242.086 102.82 242.032 102.621 241.925 102.451C241.821 102.28 241.675 102.149 241.488 102.057C241.301 101.962 241.085 101.915 240.839 101.915C240.588 101.915 240.367 101.962 240.178 102.057C239.991 102.149 239.845 102.28 239.741 102.451C239.637 102.621 239.586 102.82 239.589 103.047C239.586 103.279 239.638 103.482 239.745 103.655C239.851 103.828 239.998 103.962 240.185 104.06C240.375 104.157 240.592 104.205 240.839 104.205Z" fill="#131313"/>
<defs>
<linearGradient id="paint0_linear_628_6358" x1="-8.95588" y1="14.3884" x2="391.5" y2="14.3884" gradientUnits="userSpaceOnUse">
<stop stop-color="#FF5656"/>
<stop offset="1" stop-color="#FF5656" stop-opacity="0"/>
</linearGradient>
<linearGradient id="paint1_linear_628_6358" x1="-7.74632" y1="59.3884" x2="338.625" y2="59.3884" gradientUnits="userSpaceOnUse">
<stop stop-color="#FEE114"/>
<stop offset="1" stop-color="#FEE114" stop-opacity="0"/>
</linearGradient>
<linearGradient id="paint2_linear_628_6358" x1="-6.48529" y1="104.388" x2="283.5" y2="104.388" gradientUnits="userSpaceOnUse">
<stop stop-color="#30AD43"/>
<stop offset="1" stop-color="#30AD43" stop-opacity="0"/>
</linearGradient>
</defs>
</svg>
