<svg width="40" height="40" viewBox="0 0 40 40" fill="none" xmlns="http://www.w3.org/2000/svg">
<path d="M14.9993 9.16671C14.9993 8.94569 15.0871 8.73373 15.2434 8.57745C15.3997 8.42117 15.6117 8.33337 15.8327 8.33337H24.166C24.387 8.33337 24.599 8.42117 24.7553 8.57745C24.9116 8.73373 24.9993 8.94569 24.9993 9.16671C24.9993 9.38772 24.9116 9.59968 24.7553 9.75596C24.599 9.91224 24.387 10 24.166 10H15.8327C15.6117 10 15.3997 9.91224 15.2434 9.75596C15.0871 9.59968 14.9993 9.38772 14.9993 9.16671ZM12.4993 13.3334C12.2783 13.3334 12.0664 13.4212 11.9101 13.5775C11.7538 13.7337 11.666 13.9457 11.666 14.1667C11.666 14.3877 11.7538 14.5997 11.9101 14.756C12.0664 14.9122 12.2783 15 12.4993 15H27.4993C27.7204 15 27.9323 14.9122 28.0886 14.756C28.2449 14.5997 28.3327 14.3877 28.3327 14.1667C28.3327 13.9457 28.2449 13.7337 28.0886 13.5775C27.9323 13.4212 27.7204 13.3334 27.4993 13.3334H12.4993ZM11.666 17.5C11.666 17.279 11.7538 17.0671 11.9101 16.9108C12.0664 16.7545 12.2783 16.6667 12.4993 16.6667H27.4993C27.7204 16.6667 27.9323 16.7545 28.0886 16.9108C28.2449 17.0671 28.3327 17.279 28.3327 17.5C28.3327 17.7211 28.2449 17.933 28.0886 18.0893C27.9323 18.2456 27.7204 18.3334 27.4993 18.3334H12.4993C12.2783 18.3334 12.0664 18.2456 11.9101 18.0893C11.7538 17.933 11.666 17.7211 11.666 17.5ZM12.4993 20C12.2783 20 12.0664 20.0878 11.9101 20.2441C11.7538 20.4004 11.666 20.6124 11.666 20.8334C11.666 21.0544 11.7538 21.2663 11.9101 21.4226C12.0664 21.5789 12.2783 21.6667 12.4993 21.6667H27.4993C27.7204 21.6667 27.9323 21.5789 28.0886 21.4226C28.2449 21.2663 28.3327 21.0544 28.3327 20.8334C28.3327 20.6124 28.2449 20.4004 28.0886 20.2441C27.9323 20.0878 27.7204 20 27.4993 20H12.4993Z" fill="url(#paint0_linear_468_905)"/>
<path fill-rule="evenodd" clip-rule="evenodd" d="M31.6654 30C31.6654 30.8841 31.3142 31.7319 30.6891 32.3571C30.0639 32.9822 29.2161 33.3334 28.332 33.3334H25.832V36.6667L23.332 35.4167L20.832 36.6667V33.3334H11.6654C10.7813 33.3334 9.93346 32.9822 9.30834 32.3571C8.68322 31.7319 8.33203 30.8841 8.33203 30V6.66671C8.33203 5.78265 8.68322 4.93481 9.30834 4.30968C9.93346 3.68456 10.7813 3.33337 11.6654 3.33337H28.332C29.2161 3.33337 30.0639 3.68456 30.6891 4.30968C31.3142 4.93481 31.6654 5.78265 31.6654 6.66671V30ZM11.6654 5.00004C11.2233 5.00004 10.7994 5.17564 10.4869 5.4882C10.1743 5.80076 9.9987 6.22468 9.9987 6.66671V30C9.9987 30.4421 10.1743 30.866 10.4869 31.1786C10.7994 31.4911 11.2233 31.6667 11.6654 31.6667H20.832V29.705C20.4077 29.2239 20.1313 28.6306 20.0358 27.9962C19.9404 27.3619 20.03 26.7135 20.2939 26.1288C20.5578 25.5441 20.9849 25.048 21.5238 24.7C22.0627 24.352 22.6905 24.1669 23.332 24.1669C23.9735 24.1669 24.6014 24.352 25.1403 24.7C25.6792 25.048 26.1062 25.5441 26.3702 26.1288C26.6341 26.7135 26.7237 27.3619 26.6283 27.9962C26.5328 28.6306 26.2563 29.2239 25.832 29.705V31.6667H28.332C28.7741 31.6667 29.198 31.4911 29.5105 31.1786C29.8231 30.866 29.9987 30.4421 29.9987 30V6.66671C29.9987 6.22468 29.8231 5.80076 29.5105 5.4882C29.198 5.17564 28.7741 5.00004 28.332 5.00004H11.6654ZM24.1654 30.7284C23.6188 30.8695 23.0453 30.8695 22.4987 30.7284V33.97L23.332 33.5534L24.1654 33.97V30.7284ZM23.332 29.1667C23.7741 29.1667 24.198 28.9911 24.5105 28.6786C24.8231 28.366 24.9987 27.9421 24.9987 27.5C24.9987 27.058 24.8231 26.6341 24.5105 26.3215C24.198 26.009 23.7741 25.8334 23.332 25.8334C22.89 25.8334 22.4661 26.009 22.1535 26.3215C21.841 26.6341 21.6654 27.058 21.6654 27.5C21.6654 27.9421 21.841 28.366 22.1535 28.6786C22.4661 28.9911 22.89 29.1667 23.332 29.1667Z" fill="url(#paint1_linear_468_905)"/>
<defs>
<linearGradient id="paint0_linear_468_905" x1="19.9993" y1="8.33337" x2="19.9993" y2="21.6667" gradientUnits="userSpaceOnUse">
<stop stop-color="#448CD2"/>
<stop offset="1" stop-color="#1A3652"/>
</linearGradient>
<linearGradient id="paint1_linear_468_905" x1="19.9987" y1="3.33337" x2="19.9987" y2="36.6667" gradientUnits="userSpaceOnUse">
<stop stop-color="#448CD2"/>
<stop offset="1" stop-color="#1A3652"/>
</linearGradient>
</defs>
</svg>
