<svg width="40" height="40" viewBox="0 0 40 40" fill="none" xmlns="http://www.w3.org/2000/svg">
<path d="M28.3346 20.0001C28.3346 21.6483 27.8459 23.2594 26.9302 24.6298C26.0145 26.0002 24.7131 27.0683 23.1903 27.6991C21.6676 28.3298 19.9921 28.4948 18.3756 28.1733C16.759 27.8518 15.2742 27.0581 14.1087 25.8926C12.9433 24.7272 12.1496 23.2423 11.8281 21.6258C11.5066 20.0093 11.6716 18.3338 12.3023 16.8111C12.933 15.2883 14.0011 13.9868 15.3716 13.0712C16.742 12.1555 18.3531 11.6667 20.0013 11.6667" stroke="url(#paint0_linear_461_780)" stroke-width="2" stroke-linecap="round"/>
<path d="M23.75 4.08333C22.6722 3.86333 21.5611 3.75222 20.4167 3.75C11.2117 3.75 3.75 11.2117 3.75 20.4167C3.75 29.6217 11.2117 37.0833 20.4167 37.0833C29.6217 37.0833 37.0833 29.6217 37.0833 20.4167C37.0811 19.2722 36.97 18.1611 36.75 17.0833" stroke="url(#paint1_linear_461_780)" stroke-width="2" stroke-linecap="round"/>
<path d="M20.0508 19.9384L27.6391 12.35M32.9008 7.24168L31.9791 3.92835C31.9423 3.80213 31.8749 3.68693 31.7829 3.59296C31.6909 3.49898 31.5772 3.42913 31.4518 3.38958C31.3264 3.35003 31.1932 3.342 31.0639 3.36621C30.9347 3.39041 30.8134 3.4461 30.7108 3.52835C28.3174 5.48335 25.7108 8.11835 27.8391 12.2733C32.1291 14.2733 34.5791 11.5767 36.4558 9.30835C36.5407 9.20387 36.5982 9.07989 36.6231 8.9476C36.6481 8.81531 36.6396 8.67889 36.5986 8.55068C36.5576 8.42246 36.4852 8.3065 36.3881 8.21326C36.291 8.12003 36.1722 8.05247 36.0424 8.01668L32.9008 7.24168Z" stroke="url(#paint2_linear_461_780)" stroke-width="2" stroke-linecap="round" stroke-linejoin="round"/>
<defs>
<linearGradient id="paint0_linear_461_780" x1="20.0013" y1="11.6667" x2="20.0013" y2="28.3334" gradientUnits="userSpaceOnUse">
<stop stop-color="#448CD2"/>
<stop offset="1" stop-color="#1A3652"/>
</linearGradient>
<linearGradient id="paint1_linear_461_780" x1="20.4167" y1="3.75" x2="20.4167" y2="37.0833" gradientUnits="userSpaceOnUse">
<stop stop-color="#448CD2"/>
<stop offset="1" stop-color="#1A3652"/>
</linearGradient>
<linearGradient id="paint2_linear_461_780" x1="28.344" y1="3.35254" x2="28.344" y2="19.9384" gradientUnits="userSpaceOnUse">
<stop stop-color="#448CD2"/>
<stop offset="1" stop-color="#1A3652"/>
</linearGradient>
</defs>
</svg>
