<svg width="60" height="60" viewBox="0 0 60 60" fill="none" xmlns="http://www.w3.org/2000/svg">
<path d="M60 30C60 46.5685 46.5685 60 30 60C13.4315 60 0 46.5685 0 30C0 13.4315 13.4315 0 30 0C46.5685 0 60 13.4315 60 30ZM4.5 30C4.5 44.0833 15.9167 55.5 30 55.5C44.0833 55.5 55.5 44.0833 55.5 30C55.5 15.9167 44.0833 4.5 30 4.5C15.9167 4.5 4.5 15.9167 4.5 30Z" fill="#D9D9D9"/>
<path d="M26.5236 0.202105C32.4171 -0.485465 38.3821 0.590023 43.6643 3.29257C48.9465 5.99511 53.3087 10.2033 56.1993 15.3851C59.0899 20.5668 60.379 26.4893 59.9035 32.4037C59.4281 38.318 57.2096 43.9586 53.5285 48.6121C49.8474 53.2656 44.869 56.723 39.2229 58.5471C33.5768 60.3712 27.5166 60.4801 21.8086 58.86C16.1006 57.2399 11.0013 53.9636 7.15533 49.4453C3.30941 44.9271 0.889665 39.3699 0.202101 33.4764L4.67179 32.9549C5.25622 37.9644 7.31299 42.688 10.582 46.5285C13.8511 50.369 18.1855 53.1539 23.0373 54.531C27.8891 55.9081 33.0403 55.8156 37.8394 54.2651C42.6386 52.7146 46.8702 49.7758 49.9992 45.8203C53.1282 41.8648 55.0139 37.0703 55.418 32.0431C55.8221 27.0159 54.7264 21.9818 52.2694 17.5773C49.8124 13.1728 46.1045 9.59584 41.6147 7.29868C37.1248 5.00152 32.0545 4.08736 27.045 4.67179L26.5236 0.202105Z" fill="#1A3652"/>
<path d="M23.0762 22.5312V23.9375L17.4902 36.75H14.7656L20.3516 24.5625H13.125V22.5312H23.0762ZM27.5098 30.207L25.4492 29.709L26.2402 22.5312H34.0625V24.6699H28.3789L28.0078 27.9902C28.2096 27.8665 28.5026 27.7428 28.8867 27.6191C29.2773 27.4889 29.7168 27.4238 30.2051 27.4238C30.8822 27.4238 31.4876 27.5345 32.0215 27.7559C32.5553 27.9707 33.0078 28.2832 33.3789 28.6934C33.7565 29.1035 34.0397 29.6048 34.2285 30.1973C34.4238 30.7832 34.5215 31.4473 34.5215 32.1895C34.5215 32.8405 34.4238 33.4525 34.2285 34.0254C34.0397 34.5918 33.75 35.0964 33.3594 35.5391C32.9688 35.9753 32.4772 36.3203 31.8848 36.5742C31.2923 36.8216 30.5957 36.9453 29.7949 36.9453C29.1895 36.9453 28.6068 36.8574 28.0469 36.6816C27.4935 36.4993 26.9954 36.2357 26.5527 35.8906C26.11 35.5391 25.7552 35.1094 25.4883 34.6016C25.2279 34.0938 25.0846 33.5111 25.0586 32.8535H27.6074C27.653 33.2897 27.7702 33.6608 27.959 33.9668C28.1478 34.2728 28.3952 34.5072 28.7012 34.6699C29.0137 34.8327 29.375 34.9141 29.7852 34.9141C30.1562 34.9141 30.4753 34.8457 30.7422 34.709C31.0156 34.5658 31.2402 34.3672 31.416 34.1133C31.5918 33.8594 31.722 33.5599 31.8066 33.2148C31.8913 32.8698 31.9336 32.4922 31.9336 32.082C31.9336 31.6849 31.8848 31.3236 31.7871 30.998C31.6895 30.666 31.5397 30.3796 31.3379 30.1387C31.1361 29.8978 30.8822 29.7122 30.5762 29.582C30.2767 29.4518 29.9251 29.3867 29.5215 29.3867C28.9811 29.3867 28.5645 29.4681 28.2715 29.6309C27.985 29.7936 27.7311 29.9857 27.5098 30.207ZM36.3086 26.0176V25.2656C36.3086 24.7253 36.4258 24.2337 36.6602 23.791C36.8945 23.3483 37.2363 22.9935 37.6855 22.7266C38.1413 22.4596 38.6947 22.3262 39.3457 22.3262C40.0098 22.3262 40.5664 22.4596 41.0156 22.7266C41.4714 22.9935 41.8132 23.3483 42.041 23.791C42.2754 24.2337 42.3926 24.7253 42.3926 25.2656V26.0176C42.3926 26.5449 42.2754 27.0299 42.041 27.4727C41.8132 27.9154 41.4746 28.2702 41.0254 28.5371C40.5762 28.804 40.0228 28.9375 39.3652 28.9375C38.7077 28.9375 38.151 28.804 37.6953 28.5371C37.2396 28.2702 36.8945 27.9154 36.6602 27.4727C36.4258 27.0299 36.3086 26.5449 36.3086 26.0176ZM38.0566 25.2656V26.0176C38.0566 26.265 38.1022 26.4993 38.1934 26.7207C38.291 26.9355 38.4375 27.1113 38.6328 27.248C38.8281 27.3848 39.0723 27.4531 39.3652 27.4531C39.6582 27.4531 39.8958 27.3848 40.0781 27.248C40.2669 27.1113 40.4069 26.9355 40.498 26.7207C40.5957 26.4993 40.6445 26.265 40.6445 26.0176V25.2656C40.6445 25.0117 40.5957 24.7741 40.498 24.5527C40.4069 24.3314 40.2637 24.1523 40.0684 24.0156C39.8796 23.8789 39.6387 23.8105 39.3457 23.8105C39.0592 23.8105 38.8184 23.8789 38.623 24.0156C38.4342 24.1523 38.291 24.3314 38.1934 24.5527C38.1022 24.7741 38.0566 25.0117 38.0566 25.2656ZM43.1348 34.0156V33.2637C43.1348 32.7298 43.252 32.2415 43.4863 31.7988C43.7272 31.3561 44.0755 31.0013 44.5312 30.7344C44.987 30.4674 45.5371 30.334 46.1816 30.334C46.8522 30.334 47.4121 30.4674 47.8613 30.7344C48.3105 31.0013 48.6491 31.3561 48.877 31.7988C49.1113 32.2415 49.2285 32.7298 49.2285 33.2637V34.0156C49.2285 34.5495 49.1113 35.0378 48.877 35.4805C48.6491 35.9232 48.3105 36.278 47.8613 36.5449C47.4186 36.8118 46.8652 36.9453 46.2012 36.9453C45.5501 36.9453 44.9935 36.8118 44.5312 36.5449C44.0755 36.278 43.7272 35.9232 43.4863 35.4805C43.252 35.0378 43.1348 34.5495 43.1348 34.0156ZM44.8926 33.2637V34.0156C44.8926 34.2695 44.9447 34.5072 45.0488 34.7285C45.153 34.9434 45.3027 35.1191 45.498 35.2559C45.6999 35.3926 45.9342 35.4609 46.2012 35.4609C46.5267 35.4609 46.7839 35.3926 46.9727 35.2559C47.1615 35.1191 47.2949 34.9434 47.373 34.7285C47.4512 34.5072 47.4902 34.2695 47.4902 34.0156V33.2637C47.4902 33.0098 47.4414 32.7754 47.3438 32.5605C47.2461 32.3392 47.0996 32.1602 46.9043 32.0234C46.7155 31.8867 46.4746 31.8184 46.1816 31.8184C45.8952 31.8184 45.6543 31.8867 45.459 32.0234C45.2702 32.1602 45.127 32.3392 45.0293 32.5605C44.9382 32.7754 44.8926 33.0098 44.8926 33.2637ZM46.8262 24.5625L39.8828 35.6758L38.6035 34.9629L45.5469 23.8496L46.8262 24.5625Z" fill="#36454F"/>
</svg>
