<svg width="1000" height="176" viewBox="0 0 1000 176" fill="none" xmlns="http://www.w3.org/2000/svg">
<rect x="364.403" width="21.0423" height="9.01813" fill="#D73027"/>
<path d="M394.205 5.73697C394.205 5.57324 394.179 5.42878 394.128 5.30358C394.08 5.17517 393.993 5.0596 393.868 4.95687C393.746 4.85414 393.576 4.75623 393.357 4.66313C393.142 4.57004 392.869 4.47533 392.539 4.37903C392.192 4.2763 391.879 4.16233 391.6 4.03713C391.32 3.90872 391.081 3.76265 390.882 3.59893C390.683 3.43521 390.531 3.24741 390.425 3.03553C390.319 2.82365 390.266 2.58128 390.266 2.3084C390.266 2.03553 390.322 1.78353 390.434 1.55239C390.547 1.32125 390.707 1.12061 390.916 0.950463C391.128 0.777108 391.38 0.642277 391.672 0.545969C391.964 0.449661 392.29 0.401507 392.649 0.401507C393.176 0.401507 393.622 0.502631 393.988 0.704877C394.357 0.903914 394.638 1.16555 394.831 1.48979C395.023 1.81081 395.12 2.15431 395.12 2.52028H394.195C394.195 2.25704 394.139 2.0243 394.027 1.82205C393.914 1.61659 393.744 1.45608 393.516 1.34051C393.288 1.22173 392.999 1.16234 392.649 1.16234C392.319 1.16234 392.046 1.2121 391.831 1.31162C391.616 1.41114 391.455 1.54597 391.349 1.71611C391.247 1.88625 391.195 2.08048 391.195 2.29877C391.195 2.44645 391.226 2.58128 391.287 2.70327C391.351 2.82205 391.449 2.9328 391.58 3.03553C391.715 3.13826 391.885 3.23296 392.091 3.31964C392.3 3.40632 392.548 3.48978 392.837 3.57004C393.235 3.6824 393.579 3.8076 393.868 3.94564C394.157 4.08368 394.394 4.23938 394.58 4.41273C394.77 4.58288 394.909 4.7771 394.999 4.9954C395.092 5.21048 395.139 5.45446 395.139 5.72734C395.139 6.01305 395.081 6.27148 394.966 6.50262C394.85 6.73375 394.685 6.93119 394.47 7.09491C394.255 7.25863 393.996 7.38544 393.694 7.47533C393.396 7.562 393.062 7.60534 392.693 7.60534C392.369 7.60534 392.049 7.5604 391.735 7.47051C391.423 7.38062 391.139 7.24579 390.882 7.06602C390.629 6.88624 390.425 6.66473 390.271 6.40149C390.12 6.13504 390.044 5.82685 390.044 5.47694H390.969C390.969 5.71771 391.015 5.92477 391.109 6.09812C391.202 6.26827 391.328 6.40952 391.489 6.52188C391.653 6.63424 391.837 6.7177 392.043 6.77228C392.251 6.82364 392.468 6.84932 392.693 6.84932C393.017 6.84932 393.292 6.80438 393.516 6.71449C393.741 6.62461 393.911 6.49619 394.027 6.32926C394.145 6.16233 394.205 5.9649 394.205 5.73697ZM398.37 2.29877V2.98256H395.553V2.29877H398.37ZM396.507 1.03232H397.397V6.21851C397.397 6.39507 397.425 6.5283 397.479 6.61818C397.534 6.70807 397.605 6.76746 397.691 6.79635C397.778 6.82525 397.871 6.83969 397.97 6.83969C398.044 6.83969 398.121 6.83327 398.202 6.82043C398.285 6.80438 398.348 6.79154 398.389 6.78191L398.394 7.50903C398.324 7.53151 398.231 7.55237 398.115 7.57163C398.003 7.59411 397.866 7.60534 397.706 7.60534C397.487 7.60534 397.287 7.562 397.104 7.47533C396.921 7.38865 396.775 7.24419 396.666 7.04194C396.56 6.83648 396.507 6.5604 396.507 6.21369V1.03232ZM400.306 3.11739V7.50903H399.415V2.29877H400.282L400.306 3.11739ZM401.934 2.26988L401.929 3.09813C401.855 3.08208 401.784 3.07245 401.717 3.06924C401.653 3.06282 401.579 3.05961 401.495 3.05961C401.29 3.05961 401.109 3.09171 400.951 3.15591C400.794 3.22012 400.661 3.31001 400.552 3.42558C400.442 3.54115 400.356 3.67919 400.292 3.8397C400.231 3.997 400.19 4.17036 400.171 4.35976L399.921 4.50423C399.921 4.18962 399.951 3.89428 400.012 3.61819C400.076 3.34211 400.174 3.09813 400.306 2.88625C400.438 2.67116 400.605 2.50423 400.807 2.38545C401.012 2.26346 401.256 2.20247 401.539 2.20247C401.603 2.20247 401.677 2.21049 401.76 2.22654C401.844 2.23938 401.901 2.25383 401.934 2.26988ZM402.425 4.96169V4.85093C402.425 4.47533 402.479 4.12702 402.588 3.80599C402.698 3.48176 402.855 3.20086 403.06 2.9633C403.266 2.72253 403.515 2.53633 403.807 2.40471C404.099 2.26988 404.426 2.20247 404.789 2.20247C405.155 2.20247 405.484 2.26988 405.776 2.40471C406.072 2.53633 406.322 2.72253 406.527 2.9633C406.736 3.20086 406.895 3.48176 407.004 3.80599C407.113 4.12702 407.168 4.47533 407.168 4.85093V4.96169C407.168 5.33729 407.113 5.6856 407.004 6.00663C406.895 6.32766 406.736 6.60855 406.527 6.84932C406.322 7.08688 406.073 7.27308 405.781 7.40791C405.492 7.53953 405.165 7.60534 404.799 7.60534C404.433 7.60534 404.104 7.53953 403.812 7.40791C403.519 7.27308 403.269 7.08688 403.06 6.84932C402.855 6.60855 402.698 6.32766 402.588 6.00663C402.479 5.6856 402.425 5.33729 402.425 4.96169ZM403.316 4.85093V4.96169C403.316 5.22172 403.346 5.4673 403.407 5.69844C403.468 5.92637 403.56 6.12862 403.682 6.30518C403.807 6.48175 403.962 6.6214 404.149 6.72412C404.335 6.82364 404.552 6.8734 404.799 6.8734C405.043 6.8734 405.256 6.82364 405.439 6.72412C405.625 6.6214 405.779 6.48175 405.901 6.30518C406.023 6.12862 406.115 5.92637 406.176 5.69844C406.24 5.4673 406.272 5.22172 406.272 4.96169V4.85093C406.272 4.59411 406.24 4.35174 406.176 4.12381C406.115 3.89267 406.022 3.68882 405.897 3.51225C405.775 3.33248 405.621 3.19123 405.434 3.0885C405.251 2.98577 405.036 2.93441 404.789 2.93441C404.545 2.93441 404.33 2.98577 404.144 3.0885C403.961 3.19123 403.807 3.33248 403.682 3.51225C403.56 3.68882 403.468 3.89267 403.407 4.12381C403.346 4.35174 403.316 4.59411 403.316 4.85093ZM409.176 3.41113V7.50903H408.285V2.29877H409.128L409.176 3.41113ZM408.964 4.70647L408.593 4.69203C408.596 4.33569 408.649 4.00663 408.752 3.70487C408.855 3.39989 408.999 3.13505 409.186 2.91033C409.372 2.68561 409.593 2.51226 409.85 2.39027C410.11 2.26507 410.397 2.20247 410.712 2.20247C410.969 2.20247 411.2 2.23778 411.405 2.3084C411.611 2.37582 411.786 2.48497 411.93 2.63585C412.078 2.78673 412.19 2.98256 412.267 3.22333C412.344 3.46089 412.383 3.75142 412.383 4.09492V7.50903H411.487V4.08529C411.487 3.81241 411.447 3.59412 411.367 3.43039C411.287 3.26346 411.169 3.14307 411.015 3.06924C410.861 2.99219 410.672 2.95367 410.447 2.95367C410.226 2.95367 410.023 3.00022 409.84 3.09331C409.661 3.18641 409.505 3.31482 409.373 3.47855C409.245 3.64227 409.144 3.83007 409.07 4.04195C408.999 4.25061 408.964 4.47212 408.964 4.70647ZM417.112 2.29877H417.921V7.39828C417.921 7.85735 417.828 8.249 417.641 8.57324C417.455 8.89747 417.195 9.14306 416.861 9.30999C416.531 9.48014 416.149 9.56521 415.715 9.56521C415.535 9.56521 415.324 9.53632 415.08 9.47853C414.839 9.42396 414.601 9.32925 414.367 9.19442C414.136 9.0628 413.942 8.88463 413.784 8.65991L414.251 8.13022C414.47 8.39346 414.698 8.57645 414.935 8.67917C415.176 8.7819 415.413 8.83327 415.648 8.83327C415.93 8.83327 416.174 8.7803 416.38 8.67436C416.585 8.56842 416.744 8.41112 416.856 8.20245C416.972 7.99699 417.03 7.74338 417.03 7.44162V3.44484L417.112 2.29877ZM413.524 4.96169V4.86056C413.524 4.46249 413.571 4.10134 413.664 3.7771C413.76 3.44965 413.897 3.16876 414.073 2.93441C414.253 2.70006 414.47 2.52028 414.723 2.39508C414.977 2.26667 415.263 2.20247 415.58 2.20247C415.908 2.20247 416.194 2.26025 416.438 2.37582C416.685 2.48818 416.893 2.65351 417.064 2.87181C417.237 3.08689 417.373 3.34693 417.473 3.6519C417.572 3.95688 417.641 4.30198 417.68 4.68721V5.13023C417.645 5.51225 417.576 5.85575 417.473 6.16072C417.373 6.4657 417.237 6.72573 417.064 6.94082C416.893 7.1559 416.685 7.32123 416.438 7.4368C416.19 7.54916 415.901 7.60534 415.571 7.60534C415.259 7.60534 414.977 7.53953 414.723 7.40791C414.473 7.27629 414.258 7.0917 414.078 6.85414C413.898 6.61658 413.76 6.33729 413.664 6.01626C413.571 5.69202 413.524 5.3405 413.524 4.96169ZM414.415 4.86056V4.96169C414.415 5.22172 414.441 5.4657 414.492 5.69363C414.547 5.92156 414.629 6.1222 414.738 6.29555C414.85 6.46891 414.993 6.60534 415.166 6.70486C415.34 6.80117 415.547 6.84932 415.787 6.84932C416.083 6.84932 416.327 6.78672 416.519 6.66152C416.712 6.53632 416.864 6.37099 416.977 6.16554C417.092 5.96008 417.182 5.73697 417.247 5.4962V4.33569C417.211 4.15912 417.157 3.98898 417.083 3.82525C417.012 3.65832 416.919 3.51065 416.804 3.38224C416.691 3.25062 416.551 3.14628 416.385 3.06924C416.218 2.99219 416.022 2.95367 415.797 2.95367C415.553 2.95367 415.343 3.00503 415.166 3.10776C414.993 3.20728 414.85 3.34532 414.738 3.52188C414.629 3.69524 414.547 3.89749 414.492 4.12862C414.441 4.35655 414.415 4.60053 414.415 4.86056ZM420.242 0.112584V7.50903H419.346V0.112584H420.242ZM423.136 6.96971L424.585 2.29877H425.539L423.449 8.3132C423.401 8.44162 423.336 8.57966 423.256 8.72733C423.179 8.87821 423.08 9.02107 422.958 9.1559C422.836 9.29073 422.688 9.39988 422.515 9.48335C422.344 9.57002 422.141 9.61336 421.903 9.61336C421.832 9.61336 421.742 9.60373 421.633 9.58447C421.524 9.56521 421.447 9.54916 421.402 9.53632L421.397 8.81401C421.423 8.81722 421.463 8.82043 421.518 8.82364C421.576 8.83006 421.616 8.83327 421.638 8.83327C421.84 8.83327 422.012 8.80598 422.153 8.75141C422.295 8.70004 422.413 8.61176 422.51 8.48656C422.609 8.36457 422.694 8.19603 422.765 7.98094L423.136 6.96971ZM422.072 2.29877L423.425 6.34371L423.656 7.28271L423.015 7.61016L421.099 2.29877H422.072ZM430.821 7.50903H429.357L429.367 6.75302H430.821C431.322 6.75302 431.739 6.64868 432.073 6.44002C432.407 6.22814 432.657 5.93279 432.824 5.55398C432.994 5.17196 433.08 4.72573 433.08 4.2153V3.78673C433.08 3.38545 433.031 3.02911 432.935 2.71771C432.839 2.40311 432.698 2.13826 432.511 1.92317C432.325 1.70487 432.097 1.53955 431.828 1.42719C431.561 1.31483 431.255 1.25865 430.908 1.25865H429.328V0.497815H430.908C431.367 0.497815 431.786 0.574862 432.165 0.728954C432.543 0.879837 432.869 1.09974 433.142 1.38866C433.418 1.67438 433.63 2.02109 433.778 2.42879C433.925 2.83328 433.999 3.28914 433.999 3.79636V4.2153C433.999 4.72252 433.925 5.17999 433.778 5.58769C433.63 5.99218 433.417 6.33729 433.137 6.623C432.861 6.90871 432.527 7.12862 432.136 7.28271C431.747 7.43359 431.309 7.50903 430.821 7.50903ZM429.853 0.497815V7.50903H428.924V0.497815H429.853ZM436.229 2.29877V7.50903H435.333V2.29877H436.229ZM435.266 0.916755C435.266 0.772293 435.309 0.650303 435.396 0.550785C435.486 0.451267 435.617 0.401507 435.791 0.401507C435.961 0.401507 436.091 0.451267 436.181 0.550785C436.274 0.650303 436.32 0.772293 436.32 0.916755C436.32 1.0548 436.274 1.17358 436.181 1.27309C436.091 1.3694 435.961 1.41756 435.791 1.41756C435.617 1.41756 435.486 1.3694 435.396 1.27309C435.309 1.17358 435.266 1.0548 435.266 0.916755ZM440.693 6.12701C440.693 5.9986 440.664 5.87982 440.606 5.77067C440.551 5.65832 440.437 5.55719 440.264 5.4673C440.094 5.37421 439.837 5.29395 439.494 5.22654C439.205 5.16554 438.943 5.09331 438.709 5.00984C438.478 4.92638 438.28 4.82525 438.116 4.70647C437.956 4.58769 437.832 4.44805 437.746 4.28753C437.659 4.12702 437.616 3.93922 437.616 3.72413C437.616 3.51867 437.661 3.32445 437.75 3.14147C437.844 2.95848 437.974 2.79636 438.141 2.65511C438.311 2.51386 438.515 2.40311 438.752 2.32285C438.99 2.24259 439.254 2.20247 439.547 2.20247C439.964 2.20247 440.32 2.2763 440.616 2.42397C440.911 2.57165 441.137 2.76908 441.295 3.01627C441.452 3.26025 441.531 3.53152 441.531 3.83007H440.64C440.64 3.68561 440.596 3.54596 440.51 3.41113C440.426 3.27309 440.303 3.15912 440.139 3.06924C439.978 2.97935 439.781 2.93441 439.547 2.93441C439.299 2.93441 439.099 2.97293 438.945 3.04998C438.794 3.12381 438.683 3.21851 438.612 3.33408C438.545 3.44965 438.511 3.57164 438.511 3.70005C438.511 3.79636 438.527 3.88304 438.559 3.96009C438.595 4.03392 438.656 4.10294 438.742 4.16715C438.829 4.22814 438.951 4.28593 439.108 4.3405C439.266 4.39508 439.466 4.44965 439.71 4.50423C440.137 4.60053 440.489 4.7161 440.765 4.85093C441.041 4.98577 441.246 5.15109 441.381 5.34692C441.516 5.54275 441.584 5.78031 441.584 6.0596C441.584 6.28753 441.535 6.49619 441.439 6.6856C441.346 6.87501 441.21 7.03873 441.03 7.17677C440.853 7.3116 440.641 7.41754 440.394 7.49459C440.15 7.56842 439.876 7.60534 439.571 7.60534C439.112 7.60534 438.723 7.52348 438.405 7.35976C438.088 7.19603 437.847 6.98415 437.683 6.72412C437.519 6.46409 437.437 6.18961 437.437 5.90069H438.333C438.346 6.14467 438.417 6.33889 438.545 6.48335C438.673 6.62461 438.831 6.72573 439.017 6.78672C439.203 6.84451 439.388 6.8734 439.571 6.8734C439.815 6.8734 440.019 6.8413 440.182 6.77709C440.349 6.71289 440.476 6.62461 440.563 6.51225C440.649 6.39989 440.693 6.27148 440.693 6.12701ZM445.826 6.61818V3.93601C445.826 3.73055 445.784 3.55238 445.701 3.4015C445.62 3.24741 445.498 3.12863 445.335 3.04516C445.171 2.96169 444.969 2.91996 444.728 2.91996C444.503 2.91996 444.306 2.95848 444.136 3.03553C443.969 3.11258 443.837 3.2137 443.741 3.3389C443.648 3.4641 443.601 3.59893 443.601 3.74339H442.71C442.71 3.5572 442.758 3.37261 442.855 3.18962C442.951 3.00664 443.089 2.84131 443.269 2.69364C443.452 2.54275 443.67 2.42397 443.924 2.3373C444.181 2.24741 444.466 2.20247 444.781 2.20247C445.16 2.20247 445.494 2.26667 445.783 2.39508C446.075 2.52349 446.303 2.71771 446.466 2.97774C446.633 3.23457 446.717 3.5572 446.717 3.94564V6.3726C446.717 6.54595 446.731 6.73054 446.76 6.92637C446.792 7.1222 446.839 7.29074 446.9 7.43199V7.50903H445.97C445.925 7.4063 445.89 7.26987 445.864 7.09972C445.839 6.92637 445.826 6.76586 445.826 6.61818ZM445.98 4.35013L445.99 4.97613H445.089C444.836 4.97613 444.609 4.997 444.41 5.03873C444.211 5.07726 444.044 5.13665 443.909 5.2169C443.775 5.29716 443.672 5.39828 443.601 5.52027C443.531 5.63905 443.495 5.7787 443.495 5.93921C443.495 6.10294 443.532 6.25221 443.606 6.38705C443.68 6.52188 443.791 6.62942 443.938 6.70968C444.089 6.78672 444.274 6.82525 444.492 6.82525C444.765 6.82525 445.006 6.76746 445.214 6.65189C445.423 6.53632 445.588 6.39507 445.71 6.22814C445.836 6.0612 445.903 5.89909 445.913 5.74178L446.293 6.17035C446.271 6.30518 446.21 6.45446 446.11 6.61818C446.01 6.78191 445.877 6.93921 445.71 7.09009C445.547 7.23777 445.351 7.36136 445.123 7.46088C444.898 7.55719 444.645 7.60534 444.362 7.60534C444.009 7.60534 443.699 7.53632 443.433 7.39828C443.169 7.26024 442.964 7.07565 442.816 6.84451C442.672 6.61016 442.6 6.34852 442.6 6.0596C442.6 5.78031 442.654 5.53472 442.763 5.32284C442.872 5.10776 443.03 4.92959 443.235 4.78833C443.441 4.64387 443.688 4.53472 443.977 4.46089C444.266 4.38705 444.588 4.35013 444.945 4.35013H445.98ZM451.494 2.29877H452.303V7.39828C452.303 7.85735 452.21 8.249 452.023 8.57324C451.837 8.89747 451.577 9.14306 451.243 9.30999C450.913 9.48014 450.531 9.56521 450.097 9.56521C449.917 9.56521 449.706 9.53632 449.462 9.47853C449.221 9.42396 448.983 9.32925 448.749 9.19442C448.518 9.0628 448.323 8.88463 448.166 8.65991L448.633 8.13022C448.852 8.39346 449.08 8.57645 449.317 8.67917C449.558 8.7819 449.795 8.83327 450.03 8.83327C450.312 8.83327 450.556 8.7803 450.762 8.67436C450.967 8.56842 451.126 8.41112 451.238 8.20245C451.354 7.99699 451.412 7.74338 451.412 7.44162V3.44484L451.494 2.29877ZM447.906 4.96169V4.86056C447.906 4.46249 447.953 4.10134 448.046 3.7771C448.142 3.44965 448.279 3.16876 448.455 2.93441C448.635 2.70006 448.852 2.52028 449.105 2.39508C449.359 2.26667 449.645 2.20247 449.962 2.20247C450.29 2.20247 450.575 2.26025 450.819 2.37582C451.067 2.48818 451.275 2.65351 451.445 2.87181C451.619 3.08689 451.755 3.34693 451.855 3.6519C451.954 3.95688 452.023 4.30198 452.062 4.68721V5.13023C452.027 5.51225 451.958 5.85575 451.855 6.16072C451.755 6.4657 451.619 6.72573 451.445 6.94082C451.275 7.1559 451.067 7.32123 450.819 7.4368C450.572 7.54916 450.283 7.60534 449.953 7.60534C449.641 7.60534 449.359 7.53953 449.105 7.40791C448.855 7.27629 448.64 7.0917 448.46 6.85414C448.28 6.61658 448.142 6.33729 448.046 6.01626C447.953 5.69202 447.906 5.3405 447.906 4.96169ZM448.797 4.86056V4.96169C448.797 5.22172 448.823 5.4657 448.874 5.69363C448.929 5.92156 449.01 6.1222 449.12 6.29555C449.232 6.46891 449.375 6.60534 449.548 6.70486C449.722 6.80117 449.929 6.84932 450.169 6.84932C450.465 6.84932 450.709 6.78672 450.901 6.66152C451.094 6.53632 451.246 6.37099 451.359 6.16554C451.474 5.96008 451.564 5.73697 451.628 5.4962V4.33569C451.593 4.15912 451.539 3.98898 451.465 3.82525C451.394 3.65832 451.301 3.51065 451.185 3.38224C451.073 3.25062 450.933 3.14628 450.766 3.06924C450.6 2.99219 450.404 2.95367 450.179 2.95367C449.935 2.95367 449.725 3.00503 449.548 3.10776C449.375 3.20728 449.232 3.34532 449.12 3.52188C449.01 3.69524 448.929 3.89749 448.874 4.12862C448.823 4.35655 448.797 4.60053 448.797 4.86056ZM454.547 3.11739V7.50903H453.656V2.29877H454.523L454.547 3.11739ZM456.174 2.26988L456.169 3.09813C456.096 3.08208 456.025 3.07245 455.957 3.06924C455.893 3.06282 455.819 3.05961 455.736 3.05961C455.531 3.05961 455.349 3.09171 455.192 3.15591C455.035 3.22012 454.901 3.31001 454.792 3.42558C454.683 3.54115 454.596 3.67919 454.532 3.8397C454.471 3.997 454.431 4.17036 454.412 4.35976L454.161 4.50423C454.161 4.18962 454.192 3.89428 454.253 3.61819C454.317 3.34211 454.415 3.09813 454.547 2.88625C454.678 2.67116 454.845 2.50423 455.047 2.38545C455.253 2.26346 455.497 2.20247 455.779 2.20247C455.844 2.20247 455.917 2.21049 456.001 2.22654C456.084 2.23938 456.142 2.25383 456.174 2.26988ZM459.063 7.60534C458.701 7.60534 458.372 7.54435 458.076 7.42236C457.784 7.29716 457.532 7.1222 457.32 6.89748C457.112 6.67276 456.951 6.40631 456.839 6.09812C456.726 5.78994 456.67 5.45286 456.67 5.08689V4.88464C456.67 4.46089 456.733 4.08368 456.858 3.75302C456.983 3.41916 457.153 3.13665 457.368 2.90551C457.583 2.67437 457.827 2.49942 458.1 2.38064C458.373 2.26186 458.656 2.20247 458.948 2.20247C459.32 2.20247 459.641 2.26667 459.911 2.39508C460.184 2.52349 460.407 2.70327 460.58 2.93441C460.754 3.16233 460.882 3.432 460.966 3.74339C461.049 4.05158 461.091 4.38866 461.091 4.75463V5.1543H457.2V4.42718H460.2V4.35976C460.187 4.12862 460.139 3.90391 460.055 3.68561C459.975 3.46731 459.847 3.28754 459.67 3.14628C459.494 3.00503 459.253 2.93441 458.948 2.93441C458.746 2.93441 458.559 2.97774 458.389 3.06442C458.219 3.14789 458.073 3.27309 457.951 3.44002C457.829 3.60696 457.734 3.81081 457.667 4.05158C457.6 4.29235 457.566 4.57004 457.566 4.88464V5.08689C457.566 5.33408 457.6 5.56682 457.667 5.78512C457.738 6.00021 457.839 6.18961 457.97 6.35334C458.105 6.51706 458.267 6.64547 458.457 6.73857C458.649 6.83167 458.868 6.87822 459.112 6.87822C459.426 6.87822 459.693 6.81401 459.911 6.6856C460.129 6.55719 460.32 6.38544 460.484 6.17035L461.023 6.59892C460.911 6.76907 460.768 6.93119 460.595 7.08528C460.421 7.23937 460.208 7.36457 459.954 7.46088C459.704 7.55719 459.407 7.60534 459.063 7.60534ZM464.293 7.60534C463.93 7.60534 463.601 7.54435 463.306 7.42236C463.014 7.29716 462.762 7.1222 462.55 6.89748C462.341 6.67276 462.181 6.40631 462.068 6.09812C461.956 5.78994 461.9 5.45286 461.9 5.08689V4.88464C461.9 4.46089 461.962 4.08368 462.087 3.75302C462.213 3.41916 462.383 3.13665 462.598 2.90551C462.813 2.67437 463.057 2.49942 463.33 2.38064C463.603 2.26186 463.885 2.20247 464.177 2.20247C464.55 2.20247 464.871 2.26667 465.14 2.39508C465.413 2.52349 465.636 2.70327 465.81 2.93441C465.983 3.16233 466.112 3.432 466.195 3.74339C466.278 4.05158 466.32 4.38866 466.32 4.75463V5.1543H462.429V4.42718H465.429V4.35976C465.417 4.12862 465.368 3.90391 465.285 3.68561C465.205 3.46731 465.076 3.28754 464.9 3.14628C464.723 3.00503 464.482 2.93441 464.177 2.93441C463.975 2.93441 463.789 2.97774 463.619 3.06442C463.449 3.14789 463.303 3.27309 463.181 3.44002C463.059 3.60696 462.964 3.81081 462.896 4.05158C462.829 4.29235 462.795 4.57004 462.795 4.88464V5.08689C462.795 5.33408 462.829 5.56682 462.896 5.78512C462.967 6.00021 463.068 6.18961 463.2 6.35334C463.335 6.51706 463.497 6.64547 463.686 6.73857C463.879 6.83167 464.097 6.87822 464.341 6.87822C464.656 6.87822 464.922 6.81401 465.14 6.6856C465.359 6.55719 465.55 6.38544 465.713 6.17035L466.253 6.59892C466.14 6.76907 465.998 6.93119 465.824 7.08528C465.651 7.23937 465.437 7.36457 465.184 7.46088C464.933 7.55719 464.636 7.60534 464.293 7.60534Z" fill="#474747"/>
<rect x="477.875" width="21.0423" height="9.01813" fill="#E6F598"/>
<path d="M509.333 0.497815V7.50903H508.399L504.869 2.10134V7.50903H503.94V0.497815H504.869L508.413 5.91995V0.497815H509.333ZM513.007 7.60534C512.644 7.60534 512.315 7.54435 512.02 7.42236C511.728 7.29716 511.476 7.1222 511.264 6.89748C511.055 6.67276 510.895 6.40631 510.782 6.09812C510.67 5.78994 510.614 5.45286 510.614 5.08689V4.88464C510.614 4.46089 510.677 4.08368 510.802 3.75302C510.927 3.41916 511.097 3.13665 511.312 2.90551C511.527 2.67437 511.771 2.49942 512.044 2.38064C512.317 2.26186 512.599 2.20247 512.892 2.20247C513.264 2.20247 513.585 2.26667 513.855 2.39508C514.128 2.52349 514.351 2.70327 514.524 2.93441C514.697 3.16233 514.826 3.432 514.909 3.74339C514.993 4.05158 515.034 4.38866 515.034 4.75463V5.1543H511.144V4.42718H514.144V4.35976C514.131 4.12862 514.083 3.90391 513.999 3.68561C513.919 3.46731 513.79 3.28754 513.614 3.14628C513.437 3.00503 513.197 2.93441 512.892 2.93441C512.689 2.93441 512.503 2.97774 512.333 3.06442C512.163 3.14789 512.017 3.27309 511.895 3.44002C511.773 3.60696 511.678 3.81081 511.611 4.05158C511.543 4.29235 511.51 4.57004 511.51 4.88464V5.08689C511.51 5.33408 511.543 5.56682 511.611 5.78512C511.681 6.00021 511.782 6.18961 511.914 6.35334C512.049 6.51706 512.211 6.64547 512.4 6.73857C512.593 6.83167 512.811 6.87822 513.055 6.87822C513.37 6.87822 513.636 6.81401 513.855 6.6856C514.073 6.55719 514.264 6.38544 514.428 6.17035L514.967 6.59892C514.855 6.76907 514.712 6.93119 514.538 7.08528C514.365 7.23937 514.152 7.36457 513.898 7.46088C513.648 7.55719 513.351 7.60534 513.007 7.60534ZM519.262 6.30518V2.29877H520.158V7.50903H519.306L519.262 6.30518ZM519.431 5.20727L519.802 5.19764C519.802 5.54435 519.765 5.86538 519.691 6.16072C519.62 6.45286 519.505 6.70647 519.344 6.92155C519.184 7.13664 518.973 7.30518 518.713 7.42717C518.453 7.54595 518.137 7.60534 517.765 7.60534C517.511 7.60534 517.278 7.56842 517.067 7.49459C516.858 7.42075 516.678 7.30679 516.527 7.15269C516.376 6.9986 516.259 6.79796 516.176 6.55077C516.095 6.30358 516.055 6.00663 516.055 5.65992V2.29877H516.946V5.66955C516.946 5.9039 516.972 6.09812 517.023 6.25221C517.078 6.4031 517.15 6.52348 517.24 6.61337C517.333 6.70005 517.436 6.76104 517.548 6.79635C517.664 6.83167 517.782 6.84932 517.904 6.84932C518.283 6.84932 518.583 6.77709 518.805 6.63263C519.026 6.48496 519.185 6.28753 519.282 6.04034C519.381 5.78994 519.431 5.51225 519.431 5.20727ZM523.697 2.29877V2.98256H520.88V2.29877H523.697ZM521.834 1.03232H522.725V6.21851C522.725 6.39507 522.752 6.5283 522.807 6.61818C522.861 6.70807 522.932 6.76746 523.018 6.79635C523.105 6.82525 523.198 6.83969 523.298 6.83969C523.372 6.83969 523.449 6.83327 523.529 6.82043C523.612 6.80438 523.675 6.79154 523.717 6.78191L523.721 7.50903C523.651 7.53151 523.558 7.55237 523.442 7.57163C523.33 7.59411 523.193 7.60534 523.033 7.60534C522.815 7.60534 522.614 7.562 522.431 7.47533C522.248 7.38865 522.102 7.24419 521.993 7.04194C521.887 6.83648 521.834 6.5604 521.834 6.21369V1.03232ZM525.633 3.11739V7.50903H524.742V2.29877H525.609L525.633 3.11739ZM527.261 2.26988L527.256 3.09813C527.182 3.08208 527.111 3.07245 527.044 3.06924C526.98 3.06282 526.906 3.05961 526.823 3.05961C526.617 3.05961 526.436 3.09171 526.278 3.15591C526.121 3.22012 525.988 3.31001 525.879 3.42558C525.77 3.54115 525.683 3.67919 525.619 3.8397C525.558 3.997 525.518 4.17036 525.498 4.35976L525.248 4.50423C525.248 4.18962 525.278 3.89428 525.339 3.61819C525.404 3.34211 525.502 3.09813 525.633 2.88625C525.765 2.67116 525.932 2.50423 526.134 2.38545C526.339 2.26346 526.583 2.20247 526.866 2.20247C526.93 2.20247 527.004 2.21049 527.087 2.22654C527.171 2.23938 527.229 2.25383 527.261 2.26988ZM530.964 6.61818V3.93601C530.964 3.73055 530.922 3.55238 530.839 3.4015C530.758 3.24741 530.636 3.12863 530.473 3.04516C530.309 2.96169 530.107 2.91996 529.866 2.91996C529.641 2.91996 529.444 2.95848 529.274 3.03553C529.107 3.11258 528.975 3.2137 528.879 3.3389C528.786 3.4641 528.739 3.59893 528.739 3.74339H527.848C527.848 3.5572 527.896 3.37261 527.993 3.18962C528.089 3.00664 528.227 2.84131 528.407 2.69364C528.59 2.54275 528.808 2.42397 529.062 2.3373C529.319 2.24741 529.604 2.20247 529.919 2.20247C530.298 2.20247 530.632 2.26667 530.92 2.39508C531.213 2.52349 531.441 2.71771 531.604 2.97774C531.771 3.23457 531.855 3.5572 531.855 3.94564V6.3726C531.855 6.54595 531.869 6.73054 531.898 6.92637C531.93 7.1222 531.977 7.29074 532.038 7.43199V7.50903H531.108C531.063 7.4063 531.028 7.26987 531.002 7.09972C530.977 6.92637 530.964 6.76586 530.964 6.61818ZM531.118 4.35013L531.128 4.97613H530.227C529.973 4.97613 529.747 4.997 529.548 5.03873C529.349 5.07726 529.182 5.13665 529.047 5.2169C528.912 5.29716 528.81 5.39828 528.739 5.52027C528.668 5.63905 528.633 5.7787 528.633 5.93921C528.633 6.10294 528.67 6.25221 528.744 6.38705C528.818 6.52188 528.928 6.62942 529.076 6.70968C529.227 6.78672 529.412 6.82525 529.63 6.82525C529.903 6.82525 530.144 6.76746 530.352 6.65189C530.561 6.53632 530.726 6.39507 530.848 6.22814C530.973 6.0612 531.041 5.89909 531.05 5.74178L531.431 6.17035C531.408 6.30518 531.347 6.45446 531.248 6.61818C531.148 6.78191 531.015 6.93921 530.848 7.09009C530.684 7.23777 530.489 7.36136 530.261 7.46088C530.036 7.55719 529.782 7.60534 529.5 7.60534C529.147 7.60534 528.837 7.53632 528.571 7.39828C528.307 7.26024 528.102 7.07565 527.954 6.84451C527.81 6.61016 527.737 6.34852 527.737 6.0596C527.737 5.78031 527.792 5.53472 527.901 5.32284C528.01 5.10776 528.168 4.92959 528.373 4.78833C528.579 4.64387 528.826 4.53472 529.115 4.46089C529.404 4.38705 529.726 4.35013 530.083 4.35013H531.118ZM534.224 0.112584V7.50903H533.328V0.112584H534.224Z" fill="#474747"/>
<rect x="545.346" width="21.0423" height="9.01813" fill="#1A9850"/>
<path d="M575.147 5.73697C575.147 5.57324 575.122 5.42878 575.07 5.30358C575.022 5.17517 574.935 5.0596 574.81 4.95687C574.688 4.85414 574.518 4.75623 574.3 4.66313C574.085 4.57004 573.812 4.47533 573.481 4.37903C573.134 4.2763 572.821 4.16233 572.542 4.03713C572.263 3.90872 572.024 3.76265 571.825 3.59893C571.626 3.43521 571.473 3.24741 571.367 3.03553C571.261 2.82365 571.208 2.58128 571.208 2.3084C571.208 2.03553 571.264 1.78353 571.377 1.55239C571.489 1.32125 571.65 1.12061 571.858 0.950463C572.07 0.777108 572.322 0.642277 572.614 0.545969C572.906 0.449661 573.232 0.401507 573.592 0.401507C574.118 0.401507 574.565 0.502631 574.931 0.704877C575.3 0.903914 575.581 1.16555 575.773 1.48979C575.966 1.81081 576.062 2.15431 576.062 2.52028H575.138C575.138 2.25704 575.081 2.0243 574.969 1.82205C574.857 1.61659 574.687 1.45608 574.459 1.34051C574.231 1.22173 573.942 1.16234 573.592 1.16234C573.261 1.16234 572.988 1.2121 572.773 1.31162C572.558 1.41114 572.398 1.54597 572.292 1.71611C572.189 1.88625 572.138 2.08048 572.138 2.29877C572.138 2.44645 572.168 2.58128 572.229 2.70327C572.293 2.82205 572.391 2.9328 572.523 3.03553C572.658 3.13826 572.828 3.23296 573.033 3.31964C573.242 3.40632 573.491 3.48978 573.78 3.57004C574.178 3.6824 574.521 3.8076 574.81 3.94564C575.099 4.08368 575.337 4.23938 575.523 4.41273C575.712 4.58288 575.852 4.7771 575.942 4.9954C576.035 5.21048 576.081 5.45446 576.081 5.72734C576.081 6.01305 576.024 6.27148 575.908 6.50262C575.792 6.73375 575.627 6.93119 575.412 7.09491C575.197 7.25863 574.939 7.38544 574.637 7.47533C574.338 7.562 574.004 7.60534 573.635 7.60534C573.311 7.60534 572.992 7.5604 572.677 7.47051C572.366 7.38062 572.081 7.24579 571.825 7.06602C571.571 6.88624 571.367 6.66473 571.213 6.40149C571.062 6.13504 570.987 5.82685 570.987 5.47694H571.911C571.911 5.71771 571.958 5.92477 572.051 6.09812C572.144 6.26827 572.271 6.40952 572.431 6.52188C572.595 6.63424 572.78 6.7177 572.985 6.77228C573.194 6.82364 573.41 6.84932 573.635 6.84932C573.959 6.84932 574.234 6.80438 574.459 6.71449C574.683 6.62461 574.853 6.49619 574.969 6.32926C575.088 6.16233 575.147 5.9649 575.147 5.73697ZM579.313 2.29877V2.98256H576.496V2.29877H579.313ZM577.449 1.03232H578.34V6.21851C578.34 6.39507 578.367 6.5283 578.422 6.61818C578.476 6.70807 578.547 6.76746 578.634 6.79635C578.72 6.82525 578.813 6.83969 578.913 6.83969C578.987 6.83969 579.064 6.83327 579.144 6.82043C579.227 6.80438 579.29 6.79154 579.332 6.78191L579.337 7.50903C579.266 7.53151 579.173 7.55237 579.057 7.57163C578.945 7.59411 578.809 7.60534 578.648 7.60534C578.43 7.60534 578.229 7.562 578.046 7.47533C577.863 7.38865 577.717 7.24419 577.608 7.04194C577.502 6.83648 577.449 6.5604 577.449 6.21369V1.03232ZM581.248 3.11739V7.50903H580.357V2.29877H581.224L581.248 3.11739ZM582.876 2.26988L582.871 3.09813C582.797 3.08208 582.727 3.07245 582.659 3.06924C582.595 3.06282 582.521 3.05961 582.438 3.05961C582.232 3.05961 582.051 3.09171 581.894 3.15591C581.736 3.22012 581.603 3.31001 581.494 3.42558C581.385 3.54115 581.298 3.67919 581.234 3.8397C581.173 3.997 581.133 4.17036 581.114 4.35976L580.863 4.50423C580.863 4.18962 580.894 3.89428 580.955 3.61819C581.019 3.34211 581.117 3.09813 581.248 2.88625C581.38 2.67116 581.547 2.50423 581.749 2.38545C581.955 2.26346 582.199 2.20247 582.481 2.20247C582.545 2.20247 582.619 2.21049 582.703 2.22654C582.786 2.23938 582.844 2.25383 582.876 2.26988ZM583.367 4.96169V4.85093C583.367 4.47533 583.422 4.12702 583.531 3.80599C583.64 3.48176 583.797 3.20086 584.003 2.9633C584.208 2.72253 584.457 2.53633 584.749 2.40471C585.041 2.26988 585.369 2.20247 585.731 2.20247C586.097 2.20247 586.426 2.26988 586.719 2.40471C587.014 2.53633 587.264 2.72253 587.47 2.9633C587.678 3.20086 587.837 3.48176 587.947 3.80599C588.056 4.12702 588.11 4.47533 588.11 4.85093V4.96169C588.11 5.33729 588.056 5.6856 587.947 6.00663C587.837 6.32766 587.678 6.60855 587.47 6.84932C587.264 7.08688 587.016 7.27308 586.723 7.40791C586.435 7.53953 586.107 7.60534 585.741 7.60534C585.375 7.60534 585.046 7.53953 584.754 7.40791C584.462 7.27308 584.211 7.08688 584.003 6.84932C583.797 6.60855 583.64 6.32766 583.531 6.00663C583.422 5.6856 583.367 5.33729 583.367 4.96169ZM584.258 4.85093V4.96169C584.258 5.22172 584.288 5.4673 584.349 5.69844C584.41 5.92637 584.502 6.12862 584.624 6.30518C584.749 6.48175 584.905 6.6214 585.091 6.72412C585.277 6.82364 585.494 6.8734 585.741 6.8734C585.985 6.8734 586.199 6.82364 586.382 6.72412C586.568 6.6214 586.722 6.48175 586.844 6.30518C586.966 6.12862 587.057 5.92637 587.118 5.69844C587.183 5.4673 587.215 5.22172 587.215 4.96169V4.85093C587.215 4.59411 587.183 4.35174 587.118 4.12381C587.057 3.89267 586.964 3.68882 586.839 3.51225C586.717 3.33248 586.563 3.19123 586.377 3.0885C586.194 2.98577 585.979 2.93441 585.731 2.93441C585.487 2.93441 585.272 2.98577 585.086 3.0885C584.903 3.19123 584.749 3.33248 584.624 3.51225C584.502 3.68882 584.41 3.89267 584.349 4.12381C584.288 4.35174 584.258 4.59411 584.258 4.85093ZM590.118 3.41113V7.50903H589.227V2.29877H590.07L590.118 3.41113ZM589.906 4.70647L589.536 4.69203C589.539 4.33569 589.592 4.00663 589.695 3.70487C589.797 3.39989 589.942 3.13505 590.128 2.91033C590.314 2.68561 590.536 2.51226 590.792 2.39027C591.052 2.26507 591.34 2.20247 591.654 2.20247C591.911 2.20247 592.142 2.23778 592.348 2.3084C592.553 2.37582 592.728 2.48497 592.873 2.63585C593.02 2.78673 593.133 2.98256 593.21 3.22333C593.287 3.46089 593.325 3.75142 593.325 4.09492V7.50903H592.43V4.08529C592.43 3.81241 592.39 3.59412 592.309 3.43039C592.229 3.26346 592.112 3.14307 591.958 3.06924C591.804 2.99219 591.614 2.95367 591.39 2.95367C591.168 2.95367 590.966 3.00022 590.783 3.09331C590.603 3.18641 590.447 3.31482 590.316 3.47855C590.187 3.64227 590.086 3.83007 590.012 4.04195C589.942 4.25061 589.906 4.47212 589.906 4.70647ZM598.054 2.29877H598.863V7.39828C598.863 7.85735 598.77 8.249 598.584 8.57324C598.398 8.89747 598.138 9.14306 597.804 9.30999C597.473 9.48014 597.091 9.56521 596.658 9.56521C596.478 9.56521 596.266 9.53632 596.022 9.47853C595.781 9.42396 595.544 9.32925 595.309 9.19442C595.078 9.0628 594.884 8.88463 594.727 8.65991L595.194 8.13022C595.412 8.39346 595.64 8.57645 595.878 8.67917C596.118 8.7819 596.356 8.83327 596.59 8.83327C596.873 8.83327 597.117 8.7803 597.322 8.67436C597.528 8.56842 597.686 8.41112 597.799 8.20245C597.914 7.99699 597.972 7.74338 597.972 7.44162V3.44484L598.054 2.29877ZM594.467 4.96169V4.86056C594.467 4.46249 594.513 4.10134 594.606 3.7771C594.703 3.44965 594.839 3.16876 595.016 2.93441C595.195 2.70006 595.412 2.52028 595.666 2.39508C595.919 2.26667 596.205 2.20247 596.523 2.20247C596.85 2.20247 597.136 2.26025 597.38 2.37582C597.627 2.48818 597.836 2.65351 598.006 2.87181C598.179 3.08689 598.316 3.34693 598.415 3.6519C598.515 3.95688 598.584 4.30198 598.622 4.68721V5.13023C598.587 5.51225 598.518 5.85575 598.415 6.16072C598.316 6.4657 598.179 6.72573 598.006 6.94082C597.836 7.1559 597.627 7.32123 597.38 7.4368C597.133 7.54916 596.844 7.60534 596.513 7.60534C596.202 7.60534 595.919 7.53953 595.666 7.40791C595.415 7.27629 595.2 7.0917 595.02 6.85414C594.841 6.61658 594.703 6.33729 594.606 6.01626C594.513 5.69202 594.467 5.3405 594.467 4.96169ZM595.357 4.86056V4.96169C595.357 5.22172 595.383 5.4657 595.434 5.69363C595.489 5.92156 595.571 6.1222 595.68 6.29555C595.792 6.46891 595.935 6.60534 596.109 6.70486C596.282 6.80117 596.489 6.84932 596.73 6.84932C597.025 6.84932 597.269 6.78672 597.462 6.66152C597.654 6.53632 597.807 6.37099 597.919 6.16554C598.035 5.96008 598.125 5.73697 598.189 5.4962V4.33569C598.154 4.15912 598.099 3.98898 598.025 3.82525C597.955 3.65832 597.861 3.51065 597.746 3.38224C597.634 3.25062 597.494 3.14628 597.327 3.06924C597.16 2.99219 596.964 2.95367 596.739 2.95367C596.495 2.95367 596.285 3.00503 596.109 3.10776C595.935 3.20728 595.792 3.34532 595.68 3.52188C595.571 3.69524 595.489 3.89749 595.434 4.12862C595.383 4.35655 595.357 4.60053 595.357 4.86056ZM601.184 0.112584V7.50903H600.288V0.112584H601.184ZM604.078 6.96971L605.528 2.29877H606.481L604.391 8.3132C604.343 8.44162 604.279 8.57966 604.199 8.72733C604.121 8.87821 604.022 9.02107 603.9 9.1559C603.778 9.29073 603.63 9.39988 603.457 9.48335C603.287 9.57002 603.083 9.61336 602.845 9.61336C602.775 9.61336 602.685 9.60373 602.576 9.58447C602.467 9.56521 602.39 9.54916 602.345 9.53632L602.34 8.81401C602.365 8.81722 602.406 8.82043 602.46 8.82364C602.518 8.83006 602.558 8.83327 602.581 8.83327C602.783 8.83327 602.955 8.80598 603.096 8.75141C603.237 8.70004 603.356 8.61176 603.452 8.48656C603.552 8.36457 603.637 8.19603 603.707 7.98094L604.078 6.96971ZM603.014 2.29877L604.367 6.34371L604.598 7.28271L603.958 7.61016L602.041 2.29877H603.014ZM612.462 1.119L610.141 7.50903H609.192L611.865 0.497815H612.476L612.462 1.119ZM614.407 7.50903L612.081 1.119L612.067 0.497815H612.678L615.361 7.50903H614.407ZM614.287 4.91353V5.67437H610.348V4.91353H614.287ZM619.54 2.29877H620.349V7.39828C620.349 7.85735 620.256 8.249 620.07 8.57324C619.884 8.89747 619.624 9.14306 619.29 9.30999C618.959 9.48014 618.577 9.56521 618.144 9.56521C617.964 9.56521 617.752 9.53632 617.508 9.47853C617.268 9.42396 617.03 9.32925 616.796 9.19442C616.564 9.0628 616.37 8.88463 616.213 8.65991L616.68 8.13022C616.898 8.39346 617.126 8.57645 617.364 8.67917C617.605 8.7819 617.842 8.83327 618.076 8.83327C618.359 8.83327 618.603 8.7803 618.808 8.67436C619.014 8.56842 619.173 8.41112 619.285 8.20245C619.401 7.99699 619.459 7.74338 619.459 7.44162V3.44484L619.54 2.29877ZM615.953 4.96169V4.86056C615.953 4.46249 615.999 4.10134 616.093 3.7771C616.189 3.44965 616.325 3.16876 616.502 2.93441C616.682 2.70006 616.898 2.52028 617.152 2.39508C617.406 2.26667 617.691 2.20247 618.009 2.20247C618.337 2.20247 618.622 2.26025 618.866 2.37582C619.113 2.48818 619.322 2.65351 619.492 2.87181C619.666 3.08689 619.802 3.34693 619.902 3.6519C620.001 3.95688 620.07 4.30198 620.109 4.68721V5.13023C620.073 5.51225 620.004 5.85575 619.902 6.16072C619.802 6.4657 619.666 6.72573 619.492 6.94082C619.322 7.1559 619.113 7.32123 618.866 7.4368C618.619 7.54916 618.33 7.60534 617.999 7.60534C617.688 7.60534 617.406 7.53953 617.152 7.40791C616.902 7.27629 616.686 7.0917 616.507 6.85414C616.327 6.61658 616.189 6.33729 616.093 6.01626C615.999 5.69202 615.953 5.3405 615.953 4.96169ZM616.844 4.86056V4.96169C616.844 5.22172 616.869 5.4657 616.921 5.69363C616.975 5.92156 617.057 6.1222 617.166 6.29555C617.279 6.46891 617.422 6.60534 617.595 6.70486C617.768 6.80117 617.975 6.84932 618.216 6.84932C618.511 6.84932 618.755 6.78672 618.948 6.66152C619.141 6.53632 619.293 6.37099 619.406 6.16554C619.521 5.96008 619.611 5.73697 619.675 5.4962V4.33569C619.64 4.15912 619.585 3.98898 619.511 3.82525C619.441 3.65832 619.348 3.51065 619.232 3.38224C619.12 3.25062 618.98 3.14628 618.813 3.06924C618.646 2.99219 618.45 2.95367 618.226 2.95367C617.982 2.95367 617.772 3.00503 617.595 3.10776C617.422 3.20728 617.279 3.34532 617.166 3.52188C617.057 3.69524 616.975 3.89749 616.921 4.12862C616.869 4.35655 616.844 4.60053 616.844 4.86056ZM622.593 3.11739V7.50903H621.702V2.29877H622.569L622.593 3.11739ZM624.221 2.26988L624.216 3.09813C624.142 3.08208 624.072 3.07245 624.004 3.06924C623.94 3.06282 623.866 3.05961 623.783 3.05961C623.577 3.05961 623.396 3.09171 623.239 3.15591C623.081 3.22012 622.948 3.31001 622.839 3.42558C622.73 3.54115 622.643 3.67919 622.579 3.8397C622.518 3.997 622.478 4.17036 622.459 4.35976L622.208 4.50423C622.208 4.18962 622.239 3.89428 622.3 3.61819C622.364 3.34211 622.462 3.09813 622.593 2.88625C622.725 2.67116 622.892 2.50423 623.094 2.38545C623.3 2.26346 623.544 2.20247 623.826 2.20247C623.89 2.20247 623.964 2.21049 624.048 2.22654C624.131 2.23938 624.189 2.25383 624.221 2.26988ZM627.11 7.60534C626.747 7.60534 626.418 7.54435 626.123 7.42236C625.831 7.29716 625.579 7.1222 625.367 6.89748C625.158 6.67276 624.998 6.40631 624.885 6.09812C624.773 5.78994 624.717 5.45286 624.717 5.08689V4.88464C624.717 4.46089 624.78 4.08368 624.905 3.75302C625.03 3.41916 625.2 3.13665 625.415 2.90551C625.63 2.67437 625.874 2.49942 626.147 2.38064C626.42 2.26186 626.702 2.20247 626.995 2.20247C627.367 2.20247 627.688 2.26667 627.958 2.39508C628.231 2.52349 628.454 2.70327 628.627 2.93441C628.8 3.16233 628.929 3.432 629.012 3.74339C629.096 4.05158 629.137 4.38866 629.137 4.75463V5.1543H625.247V4.42718H628.247V4.35976C628.234 4.12862 628.186 3.90391 628.102 3.68561C628.022 3.46731 627.893 3.28754 627.717 3.14628C627.54 3.00503 627.3 2.93441 626.995 2.93441C626.792 2.93441 626.606 2.97774 626.436 3.06442C626.266 3.14789 626.12 3.27309 625.998 3.44002C625.876 3.60696 625.781 3.81081 625.714 4.05158C625.646 4.29235 625.613 4.57004 625.613 4.88464V5.08689C625.613 5.33408 625.646 5.56682 625.714 5.78512C625.784 6.00021 625.885 6.18961 626.017 6.35334C626.152 6.51706 626.314 6.64547 626.503 6.73857C626.696 6.83167 626.914 6.87822 627.158 6.87822C627.473 6.87822 627.739 6.81401 627.958 6.6856C628.176 6.55719 628.367 6.38544 628.531 6.17035L629.07 6.59892C628.958 6.76907 628.815 6.93119 628.641 7.08528C628.468 7.23937 628.255 7.36457 628.001 7.46088C627.751 7.55719 627.454 7.60534 627.11 7.60534ZM632.34 7.60534C631.977 7.60534 631.648 7.54435 631.353 7.42236C631.06 7.29716 630.808 7.1222 630.597 6.89748C630.388 6.67276 630.227 6.40631 630.115 6.09812C630.003 5.78994 629.946 5.45286 629.946 5.08689V4.88464C629.946 4.46089 630.009 4.08368 630.134 3.75302C630.259 3.41916 630.43 3.13665 630.645 2.90551C630.86 2.67437 631.104 2.49942 631.377 2.38064C631.649 2.26186 631.932 2.20247 632.224 2.20247C632.597 2.20247 632.918 2.26667 633.187 2.39508C633.46 2.52349 633.683 2.70327 633.857 2.93441C634.03 3.16233 634.158 3.432 634.242 3.74339C634.325 4.05158 634.367 4.38866 634.367 4.75463V5.1543H630.476V4.42718H633.476V4.35976C633.463 4.12862 633.415 3.90391 633.332 3.68561C633.251 3.46731 633.123 3.28754 632.946 3.14628C632.77 3.00503 632.529 2.93441 632.224 2.93441C632.022 2.93441 631.836 2.97774 631.666 3.06442C631.495 3.14789 631.349 3.27309 631.227 3.44002C631.105 3.60696 631.011 3.81081 630.943 4.05158C630.876 4.29235 630.842 4.57004 630.842 4.88464V5.08689C630.842 5.33408 630.876 5.56682 630.943 5.78512C631.014 6.00021 631.115 6.18961 631.247 6.35334C631.381 6.51706 631.544 6.64547 631.733 6.73857C631.926 6.83167 632.144 6.87822 632.388 6.87822C632.702 6.87822 632.969 6.81401 633.187 6.6856C633.406 6.55719 633.597 6.38544 633.76 6.17035L634.3 6.59892C634.187 6.76907 634.044 6.93119 633.871 7.08528C633.698 7.23937 633.484 7.36457 633.231 7.46088C632.98 7.55719 632.683 7.60534 632.34 7.60534Z" fill="#474747"/>
<path d="M670.696 27.5792H672.653L675.534 35.8154L678.416 27.5792H680.373L676.32 38.7971H674.748L670.696 27.5792ZM669.64 27.5792H671.59L671.944 35.6074V38.7971H669.64V27.5792ZM679.479 27.5792H681.436V38.7971H679.125V35.6074L679.479 27.5792ZM687.823 36.9172V33.2036C687.823 32.9365 687.78 32.7079 687.692 32.5178C687.605 32.3227 687.469 32.1711 687.284 32.0633C687.104 31.9554 686.87 31.9015 686.583 31.9015C686.336 31.9015 686.123 31.9451 685.943 32.0324C685.764 32.1146 685.625 32.2353 685.527 32.3946C685.43 32.5487 685.381 32.731 685.381 32.9416H683.162C683.162 32.5872 683.244 32.2507 683.408 31.9323C683.573 31.6138 683.812 31.3339 684.125 31.0925C684.438 30.8459 684.811 30.6533 685.242 30.5146C685.679 30.376 686.167 30.3066 686.706 30.3066C687.353 30.3066 687.929 30.4145 688.432 30.6302C688.935 30.8459 689.331 31.1695 689.618 31.601C689.911 32.0324 690.058 32.5718 690.058 33.219V36.7862C690.058 37.2434 690.086 37.6183 690.142 37.9111C690.199 38.1987 690.281 38.4504 690.389 38.6661V38.7971H688.147C688.039 38.5711 687.957 38.2886 687.9 37.9496C687.849 37.6055 687.823 37.2613 687.823 36.9172ZM688.116 33.7198L688.131 34.9756H686.891C686.598 34.9756 686.344 35.009 686.128 35.0758C685.912 35.1426 685.735 35.2376 685.597 35.3609C685.458 35.479 685.355 35.6177 685.288 35.7769C685.227 35.9361 685.196 36.1108 685.196 36.3008C685.196 36.4909 685.24 36.6629 685.327 36.817C685.414 36.966 685.54 37.0841 685.704 37.1714C685.869 37.2536 686.061 37.2947 686.282 37.2947C686.616 37.2947 686.906 37.2279 687.153 37.0944C687.399 36.9608 687.59 36.7965 687.723 36.6013C687.862 36.4061 687.934 36.2212 687.939 36.0466L688.524 36.9865C688.442 37.1971 688.329 37.4154 688.185 37.6414C688.047 37.8674 687.869 38.0806 687.654 38.2809C687.438 38.4761 687.179 38.6379 686.876 38.7663C686.572 38.8896 686.213 38.9512 685.797 38.9512C685.268 38.9512 684.788 38.8459 684.356 38.6353C683.93 38.4196 683.591 38.1242 683.339 37.7493C683.093 37.3692 682.969 36.9377 682.969 36.4549C682.969 36.0183 683.051 35.6305 683.216 35.2915C683.38 34.9525 683.622 34.6674 683.94 34.4363C684.264 34.2 684.667 34.0228 685.15 33.9047C685.633 33.7814 686.192 33.7198 686.829 33.7198H688.116ZM693.941 32.2405V38.7971H691.722V30.4607H693.802L693.941 32.2405ZM693.617 34.3361H693.016C693.016 33.7198 693.096 33.165 693.255 32.6719C693.414 32.1737 693.638 31.7499 693.925 31.4007C694.213 31.0463 694.554 30.7766 694.95 30.5917C695.351 30.4016 695.798 30.3066 696.291 30.3066C696.681 30.3066 697.038 30.3631 697.362 30.4761C697.685 30.5891 697.963 30.7689 698.194 31.0154C698.43 31.262 698.61 31.5881 698.733 31.9939C698.861 32.3997 698.926 32.8954 698.926 33.4809V38.7971H696.691V33.4732C696.691 33.1034 696.64 32.8158 696.537 32.6103C696.434 32.4048 696.283 32.261 696.083 32.1788C695.887 32.0915 695.646 32.0479 695.358 32.0479C695.06 32.0479 694.801 32.1069 694.58 32.2251C694.364 32.3432 694.185 32.5076 694.041 32.7182C693.902 32.9236 693.797 33.165 693.725 33.4424C693.653 33.7198 693.617 34.0177 693.617 34.3361ZM705.112 36.9172V33.2036C705.112 32.9365 705.069 32.7079 704.981 32.5178C704.894 32.3227 704.758 32.1711 704.573 32.0633C704.393 31.9554 704.16 31.9015 703.872 31.9015C703.625 31.9015 703.412 31.9451 703.232 32.0324C703.053 32.1146 702.914 32.2353 702.816 32.3946C702.719 32.5487 702.67 32.731 702.67 32.9416H700.451C700.451 32.5872 700.533 32.2507 700.698 31.9323C700.862 31.6138 701.101 31.3339 701.414 31.0925C701.728 30.8459 702.1 30.6533 702.531 30.5146C702.968 30.376 703.456 30.3066 703.995 30.3066C704.642 30.3066 705.218 30.4145 705.721 30.6302C706.224 30.8459 706.62 31.1695 706.908 31.601C707.2 32.0324 707.347 32.5718 707.347 33.219V36.7862C707.347 37.2434 707.375 37.6183 707.432 37.9111C707.488 38.1987 707.57 38.4504 707.678 38.6661V38.7971H705.436C705.328 38.5711 705.246 38.2886 705.189 37.9496C705.138 37.6055 705.112 37.2613 705.112 36.9172ZM705.405 33.7198L705.421 34.9756H704.18C703.887 34.9756 703.633 35.009 703.417 35.0758C703.202 35.1426 703.024 35.2376 702.886 35.3609C702.747 35.479 702.644 35.6177 702.578 35.7769C702.516 35.9361 702.485 36.1108 702.485 36.3008C702.485 36.4909 702.529 36.6629 702.616 36.817C702.703 36.966 702.829 37.0841 702.994 37.1714C703.158 37.2536 703.351 37.2947 703.571 37.2947C703.905 37.2947 704.196 37.2279 704.442 37.0944C704.689 36.9608 704.879 36.7965 705.012 36.6013C705.151 36.4061 705.223 36.2212 705.228 36.0466L705.814 36.9865C705.731 37.1971 705.618 37.4154 705.475 37.6414C705.336 37.8674 705.159 38.0806 704.943 38.2809C704.727 38.4761 704.468 38.6379 704.165 38.7663C703.862 38.8896 703.502 38.9512 703.086 38.9512C702.557 38.9512 702.077 38.8459 701.645 38.6353C701.219 38.4196 700.88 38.1242 700.628 37.7493C700.382 37.3692 700.258 36.9377 700.258 36.4549C700.258 36.0183 700.341 35.6305 700.505 35.2915C700.669 34.9525 700.911 34.6674 701.229 34.4363C701.553 34.2 701.956 34.0228 702.439 33.9047C702.922 33.7814 703.482 33.7198 704.119 33.7198H705.405ZM714.335 30.4607H716.346V38.5198C716.346 39.2799 716.176 39.9246 715.837 40.4536C715.503 40.9878 715.036 41.391 714.435 41.6632C713.834 41.9406 713.136 42.0793 712.339 42.0793C711.99 42.0793 711.62 42.0331 711.23 41.9406C710.845 41.8482 710.475 41.7043 710.12 41.5092C709.771 41.314 709.478 41.0674 709.242 40.7695L710.221 39.4597C710.477 39.7576 710.775 39.9888 711.114 40.1531C711.453 40.3226 711.828 40.4074 712.239 40.4074C712.64 40.4074 712.979 40.3329 713.256 40.184C713.534 40.0401 713.747 39.827 713.896 39.5445C714.045 39.2671 714.119 38.9307 714.119 38.5352V32.3869L714.335 30.4607ZM708.726 34.7291V34.5673C708.726 33.9304 708.803 33.3525 708.957 32.8337C709.116 32.3098 709.34 31.8604 709.627 31.4854C709.92 31.1105 710.275 30.8203 710.691 30.6148C711.107 30.4093 711.577 30.3066 712.101 30.3066C712.655 30.3066 713.12 30.4093 713.495 30.6148C713.87 30.8203 714.178 31.113 714.42 31.4931C714.661 31.8681 714.849 32.3124 714.982 32.826C715.121 33.3345 715.229 33.8918 715.306 34.4979V34.8523C715.229 35.4328 715.113 35.9721 714.959 36.4703C714.805 36.9686 714.602 37.4051 714.35 37.7801C714.099 38.1499 713.785 38.4376 713.41 38.643C713.04 38.8485 712.599 38.9512 712.085 38.9512C711.571 38.9512 711.107 38.8459 710.691 38.6353C710.28 38.4247 709.928 38.1294 709.635 37.7493C709.342 37.3692 709.116 36.9223 708.957 36.4087C708.803 35.895 708.726 35.3352 708.726 34.7291ZM710.945 34.5673V34.7291C710.945 35.0732 710.978 35.3942 711.045 35.6922C711.112 35.9901 711.214 36.2546 711.353 36.4857C711.497 36.7117 711.674 36.8889 711.885 37.0173C712.101 37.1406 712.355 37.2023 712.648 37.2023C713.053 37.2023 713.385 37.1175 713.641 36.948C713.898 36.7734 714.091 36.5345 714.219 36.2315C714.348 35.9284 714.422 35.5791 714.443 35.1836V34.1743C714.432 33.8507 714.389 33.5605 714.312 33.3037C714.235 33.0418 714.127 32.8183 713.988 32.6334C713.849 32.4485 713.67 32.3047 713.449 32.202C713.228 32.0992 712.966 32.0479 712.663 32.0479C712.37 32.0479 712.116 32.1146 711.9 32.2482C711.69 32.3766 711.512 32.5538 711.369 32.7798C711.23 33.0058 711.125 33.2729 711.053 33.5811C710.981 33.8841 710.945 34.2129 710.945 34.5673ZM721.909 38.9512C721.261 38.9512 720.681 38.8485 720.167 38.643C719.654 38.4324 719.217 38.1422 718.857 37.7724C718.503 37.4026 718.231 36.9737 718.041 36.4857C717.851 35.9926 717.756 35.4687 717.756 34.914V34.6058C717.756 33.974 717.846 33.3962 718.025 32.8723C718.205 32.3483 718.462 31.8938 718.796 31.5085C719.135 31.1233 719.546 30.828 720.029 30.6225C720.511 30.4119 721.056 30.3066 721.662 30.3066C722.253 30.3066 722.777 30.4042 723.234 30.5994C723.691 30.7946 724.074 31.0719 724.382 31.4315C724.695 31.791 724.931 32.2225 725.091 32.7259C725.25 33.2241 725.329 33.7788 725.329 34.3901V35.3146H718.703V33.8353H723.149V33.6658C723.149 33.3576 723.092 33.0828 722.979 32.8414C722.872 32.5949 722.707 32.3997 722.486 32.2559C722.265 32.1121 721.983 32.0402 721.639 32.0402C721.346 32.0402 721.094 32.1044 720.884 32.2328C720.673 32.3612 720.501 32.541 720.368 32.7721C720.239 33.0032 720.142 33.2755 720.075 33.5888C720.013 33.897 719.982 34.236 719.982 34.6058V34.914C719.982 35.2479 720.029 35.556 720.121 35.8385C720.219 36.121 720.355 36.365 720.529 36.5705C720.709 36.7759 720.925 36.9352 721.177 37.0482C721.433 37.1612 721.724 37.2177 722.047 37.2177C722.448 37.2177 722.82 37.1406 723.164 36.9865C723.514 36.8273 723.814 36.5885 724.066 36.27L725.144 37.4411C724.97 37.6928 724.731 37.9342 724.428 38.1653C724.13 38.3965 723.77 38.5865 723.349 38.7355C722.928 38.8793 722.448 38.9512 721.909 38.9512ZM728.812 32.279V38.7971H726.593V30.4607H728.681L728.812 32.279ZM731.324 30.4068L731.285 32.4639C731.177 32.4485 731.046 32.4357 730.892 32.4254C730.743 32.41 730.607 32.4023 730.484 32.4023C730.17 32.4023 729.898 32.4434 729.667 32.5255C729.441 32.6026 729.251 32.7182 729.097 32.8723C728.948 33.0263 728.835 33.2138 728.758 33.4347C728.686 33.6556 728.645 33.9072 728.635 34.1897L728.188 34.0511C728.188 33.5117 728.242 33.0161 728.35 32.5641C728.457 32.1069 728.614 31.7089 728.82 31.3699C729.03 31.0308 729.287 30.7689 729.59 30.584C729.893 30.3991 730.24 30.3066 730.63 30.3066C730.753 30.3066 730.879 30.3169 731.008 30.3374C731.136 30.3528 731.241 30.376 731.324 30.4068ZM734.521 26.9628V28.1339C734.521 28.4678 734.457 28.8119 734.328 29.1663C734.205 29.5207 734.038 29.8572 733.828 30.1756C733.617 30.489 733.386 30.756 733.134 30.9769L732.094 30.376C732.284 30.0729 732.446 29.7442 732.579 29.3898C732.713 29.0302 732.78 28.6142 732.78 28.1416V26.9628H734.521ZM739.128 36.4934C739.128 36.3342 739.082 36.1904 738.99 36.062C738.897 35.9336 738.725 35.8154 738.473 35.7076C738.227 35.5946 737.87 35.4918 737.403 35.3994C736.981 35.3069 736.588 35.1913 736.224 35.0527C735.864 34.9088 735.551 34.7368 735.284 34.5365C735.022 34.3361 734.816 34.0999 734.667 33.8276C734.518 33.5503 734.444 33.2344 734.444 32.88C734.444 32.5307 734.518 32.202 734.667 31.8938C734.821 31.5856 735.04 31.3134 735.322 31.0771C735.61 30.8357 735.959 30.6482 736.37 30.5146C736.786 30.376 737.254 30.3066 737.772 30.3066C738.497 30.3066 739.118 30.4222 739.637 30.6533C740.161 30.8845 740.561 31.2029 740.839 31.6087C741.121 32.0093 741.263 32.4665 741.263 32.9801H739.044C739.044 32.7644 738.997 32.5718 738.905 32.4023C738.818 32.2276 738.679 32.0915 738.489 31.9939C738.304 31.8912 738.063 31.8398 737.765 31.8398C737.518 31.8398 737.305 31.8835 737.125 31.9708C736.945 32.053 736.807 32.166 736.709 32.3098C736.617 32.4485 736.57 32.6026 736.57 32.7721C736.57 32.9005 736.596 33.0161 736.647 33.1188C736.704 33.2164 736.794 33.3063 736.917 33.3885C737.04 33.4706 737.2 33.5477 737.395 33.6196C737.595 33.6864 737.842 33.748 738.134 33.8045C738.735 33.9278 739.272 34.0896 739.745 34.2899C740.217 34.4851 740.592 34.7522 740.87 35.0912C741.147 35.4251 741.286 35.8642 741.286 36.4087C741.286 36.7785 741.203 37.1175 741.039 37.4257C740.875 37.7339 740.638 38.0035 740.33 38.2347C740.022 38.4607 739.652 38.6379 739.221 38.7663C738.795 38.8896 738.314 38.9512 737.78 38.9512C737.004 38.9512 736.347 38.8125 735.808 38.5352C735.273 38.2578 734.868 37.9059 734.59 37.4796C734.318 37.0482 734.182 36.6064 734.182 36.1544H736.285C736.296 36.4575 736.373 36.7015 736.517 36.8864C736.665 37.0713 736.853 37.2048 737.079 37.287C737.31 37.3692 737.559 37.4103 737.826 37.4103C738.114 37.4103 738.353 37.3718 738.543 37.2947C738.733 37.2125 738.877 37.1047 738.974 36.9711C739.077 36.8324 739.128 36.6732 739.128 36.4934ZM752.635 35.8617C752.635 35.6613 752.604 35.4816 752.542 35.3223C752.486 35.158 752.378 35.009 752.219 34.8755C752.059 34.7368 751.836 34.6007 751.548 34.4671C751.261 34.3336 750.888 34.1949 750.431 34.0511C749.923 33.8867 749.44 33.7018 748.983 33.4963C748.531 33.2909 748.13 33.052 747.781 32.7798C747.437 32.5024 747.164 32.1814 746.964 31.8167C746.769 31.452 746.671 31.0283 746.671 30.5455C746.671 30.078 746.774 29.6543 746.979 29.2742C747.185 28.889 747.472 28.5602 747.842 28.288C748.212 28.0106 748.649 27.7975 749.152 27.6485C749.661 27.4996 750.218 27.4251 750.824 27.4251C751.651 27.4251 752.373 27.574 752.989 27.8719C753.605 28.1699 754.083 28.5782 754.422 29.097C754.766 29.6158 754.938 30.209 754.938 30.8768H752.642C752.642 30.548 752.573 30.2604 752.434 30.0138C752.301 29.7622 752.095 29.5644 751.818 29.4206C751.546 29.2768 751.202 29.2048 750.785 29.2048C750.385 29.2048 750.051 29.2665 749.784 29.3898C749.517 29.5079 749.316 29.6697 749.183 29.8752C749.049 30.0755 748.983 30.3015 748.983 30.5532C748.983 30.7432 749.029 30.9153 749.121 31.0694C749.219 31.2235 749.363 31.3673 749.553 31.5008C749.743 31.6344 749.977 31.7602 750.254 31.8784C750.531 31.9965 750.852 32.1121 751.217 32.2251C751.828 32.41 752.365 32.618 752.827 32.8491C753.295 33.0803 753.685 33.3397 753.998 33.6273C754.312 33.9149 754.548 34.2411 754.707 34.6058C754.866 34.9705 754.946 35.384 754.946 35.8462C754.946 36.3342 754.851 36.7708 754.661 37.156C754.471 37.5413 754.196 37.8674 753.837 38.1345C753.477 38.4016 753.048 38.6045 752.55 38.7432C752.052 38.8819 751.494 38.9512 750.878 38.9512C750.323 38.9512 749.776 38.8793 749.237 38.7355C748.698 38.5865 748.207 38.3631 747.765 38.0652C747.329 37.7673 746.979 37.3872 746.717 36.9249C746.455 36.4626 746.325 35.9156 746.325 35.2838H748.644C748.644 35.6331 748.698 35.9284 748.805 36.1698C748.913 36.4113 749.065 36.6064 749.26 36.7554C749.46 36.9043 749.697 37.0122 749.969 37.079C750.246 37.1458 750.549 37.1791 750.878 37.1791C751.279 37.1791 751.607 37.1226 751.864 37.0096C752.126 36.8966 752.319 36.74 752.442 36.5397C752.57 36.3393 752.635 36.1133 752.635 35.8617ZM759.823 37.2177C760.095 37.2177 760.337 37.1663 760.547 37.0636C760.758 36.9557 760.922 36.8068 761.04 36.6167C761.164 36.4215 761.228 36.193 761.233 35.931H763.321C763.316 36.5165 763.159 37.0379 762.851 37.495C762.543 37.947 762.129 38.304 761.611 38.566C761.092 38.8228 760.511 38.9512 759.869 38.9512C759.222 38.9512 758.657 38.8433 758.174 38.6276C757.697 38.4119 757.298 38.114 756.98 37.7339C756.662 37.3486 756.423 36.9018 756.263 36.3933C756.104 35.8796 756.025 35.33 756.025 34.7445V34.521C756.025 33.9304 756.104 33.3808 756.263 32.8723C756.423 32.3586 756.662 31.9117 756.98 31.5316C757.298 31.1464 757.697 30.8459 758.174 30.6302C758.652 30.4145 759.212 30.3066 759.854 30.3066C760.537 30.3066 761.135 30.4376 761.649 30.6995C762.168 30.9615 762.574 31.3365 762.866 31.8244C763.164 32.3072 763.316 32.88 763.321 33.5426H761.233C761.228 33.2652 761.169 33.0135 761.056 32.7875C760.948 32.5615 760.789 32.3817 760.578 32.2482C760.373 32.1095 760.118 32.0402 759.815 32.0402C759.492 32.0402 759.227 32.1095 759.022 32.2482C758.816 32.3817 758.657 32.5666 758.544 32.8029C758.431 33.0341 758.351 33.2986 758.305 33.5965C758.264 33.8893 758.244 34.1975 758.244 34.521V34.7445C758.244 35.0681 758.264 35.3788 758.305 35.6767C758.346 35.9747 758.423 36.2392 758.536 36.4703C758.654 36.7015 758.816 36.8838 759.022 37.0173C759.227 37.1509 759.494 37.2177 759.823 37.2177ZM764.253 34.7137V34.5519C764.253 33.9406 764.341 33.3782 764.515 32.8646C764.69 32.3458 764.944 31.8963 765.278 31.5162C765.612 31.1361 766.023 30.8408 766.511 30.6302C766.999 30.4145 767.558 30.3066 768.19 30.3066C768.822 30.3066 769.384 30.4145 769.878 30.6302C770.371 30.8408 770.784 31.1361 771.118 31.5162C771.457 31.8963 771.714 32.3458 771.888 32.8646C772.063 33.3782 772.15 33.9406 772.15 34.5519V34.7137C772.15 35.3198 772.063 35.8822 771.888 36.401C771.714 36.9146 771.457 37.3641 771.118 37.7493C770.784 38.1294 770.373 38.4247 769.885 38.6353C769.397 38.8459 768.837 38.9512 768.206 38.9512C767.574 38.9512 767.011 38.8459 766.518 38.6353C766.03 38.4247 765.617 38.1294 765.278 37.7493C764.944 37.3641 764.69 36.9146 764.515 36.401C764.341 35.8822 764.253 35.3198 764.253 34.7137ZM766.472 34.5519V34.7137C766.472 35.0629 766.503 35.3891 766.565 35.6922C766.626 35.9952 766.724 36.2623 766.857 36.4934C766.996 36.7194 767.176 36.8966 767.397 37.0251C767.618 37.1535 767.887 37.2177 768.206 37.2177C768.514 37.2177 768.778 37.1535 768.999 37.0251C769.22 36.8966 769.397 36.7194 769.531 36.4934C769.664 36.2623 769.762 35.9952 769.824 35.6922C769.89 35.3891 769.924 35.0629 769.924 34.7137V34.5519C769.924 34.2129 769.89 33.8944 769.824 33.5965C769.762 33.2934 769.662 33.0263 769.523 32.7952C769.39 32.5589 769.212 32.374 768.992 32.2405C768.771 32.1069 768.504 32.0402 768.19 32.0402C767.877 32.0402 767.61 32.1069 767.389 32.2405C767.173 32.374 766.996 32.5589 766.857 32.7952C766.724 33.0263 766.626 33.2934 766.565 33.5965C766.503 33.8944 766.472 34.2129 766.472 34.5519ZM775.733 32.279V38.7971H773.514V30.4607H775.602L775.733 32.279ZM778.245 30.4068L778.206 32.4639C778.098 32.4485 777.967 32.4357 777.813 32.4254C777.664 32.41 777.528 32.4023 777.405 32.4023C777.092 32.4023 776.819 32.4434 776.588 32.5255C776.362 32.6026 776.172 32.7182 776.018 32.8723C775.869 33.0263 775.756 33.2138 775.679 33.4347C775.607 33.6556 775.566 33.9072 775.556 34.1897L775.109 34.0511C775.109 33.5117 775.163 33.0161 775.271 32.5641C775.379 32.1069 775.535 31.7089 775.741 31.3699C775.951 31.0308 776.208 30.7689 776.511 30.584C776.814 30.3991 777.161 30.3066 777.551 30.3066C777.675 30.3066 777.801 30.3169 777.929 30.3374C778.057 30.3528 778.163 30.376 778.245 30.4068ZM782.975 38.9512C782.328 38.9512 781.748 38.8485 781.234 38.643C780.721 38.4324 780.284 38.1422 779.924 37.7724C779.57 37.4026 779.298 36.9737 779.108 36.4857C778.918 35.9926 778.823 35.4687 778.823 34.914V34.6058C778.823 33.974 778.913 33.3962 779.092 32.8723C779.272 32.3483 779.529 31.8938 779.863 31.5085C780.202 31.1233 780.613 30.828 781.096 30.6225C781.578 30.4119 782.123 30.3066 782.729 30.3066C783.32 30.3066 783.844 30.4042 784.301 30.5994C784.758 30.7946 785.14 31.0719 785.449 31.4315C785.762 31.791 785.998 32.2225 786.157 32.7259C786.317 33.2241 786.396 33.7788 786.396 34.3901V35.3146H779.77V33.8353H784.216V33.6658C784.216 33.3576 784.159 33.0828 784.046 32.8414C783.939 32.5949 783.774 32.3997 783.553 32.2559C783.332 32.1121 783.05 32.0402 782.706 32.0402C782.413 32.0402 782.161 32.1044 781.951 32.2328C781.74 32.3612 781.568 32.541 781.435 32.7721C781.306 33.0032 781.209 33.2755 781.142 33.5888C781.08 33.897 781.049 34.236 781.049 34.6058V34.914C781.049 35.2479 781.096 35.556 781.188 35.8385C781.286 36.121 781.422 36.365 781.596 36.5705C781.776 36.7759 781.992 36.9352 782.244 37.0482C782.5 37.1612 782.791 37.2177 783.114 37.2177C783.515 37.2177 783.887 37.1406 784.231 36.9865C784.581 36.8273 784.881 36.5885 785.133 36.27L786.211 37.4411C786.037 37.6928 785.798 37.9342 785.495 38.1653C785.197 38.3965 784.837 38.5865 784.416 38.7355C783.995 38.8793 783.515 38.9512 782.975 38.9512Z" fill="black"/>
<path d="M5.81821 167.133V168.381C5.81821 169.052 5.75825 169.618 5.63832 170.079C5.5184 170.54 5.34601 170.911 5.12115 171.192C4.89629 171.473 4.62458 171.677 4.30604 171.805C3.99123 171.929 3.63521 171.99 3.23796 171.99C2.92316 171.99 2.63272 171.951 2.36663 171.872C2.10055 171.794 1.8607 171.668 1.64709 171.496C1.43722 171.32 1.25733 171.091 1.10743 170.81C0.957521 170.529 0.843218 170.188 0.764518 169.787C0.685818 169.386 0.646468 168.917 0.646468 168.381V167.133C0.646468 166.463 0.70643 165.9 0.826354 165.447C0.950026 164.994 1.12429 164.63 1.34915 164.356C1.57401 164.079 1.84384 163.88 2.15864 163.761C2.47719 163.641 2.83321 163.581 3.22672 163.581C3.54527 163.581 3.83758 163.62 4.10366 163.699C4.37349 163.774 4.61334 163.895 4.82321 164.064C5.03308 164.229 5.21109 164.45 5.35725 164.727C5.50715 165.001 5.62146 165.336 5.70016 165.734C5.77886 166.131 5.81821 166.598 5.81821 167.133ZM4.77262 168.55V166.959C4.77262 166.592 4.75013 166.27 4.70516 165.992C4.66394 165.711 4.6021 165.471 4.51965 165.273C4.4372 165.074 4.33227 164.913 4.20485 164.789C4.08118 164.666 3.93689 164.576 3.772 164.519C3.61085 164.459 3.42909 164.429 3.22672 164.429C2.97937 164.429 2.76014 164.476 2.56901 164.57C2.37788 164.66 2.21673 164.804 2.08556 165.003C1.95814 165.202 1.8607 165.462 1.79324 165.784C1.72579 166.107 1.69206 166.498 1.69206 166.959V168.55C1.69206 168.917 1.71267 169.241 1.75389 169.523C1.79887 169.804 1.86445 170.047 1.95065 170.253C2.03684 170.456 2.14177 170.622 2.26545 170.754C2.38912 170.885 2.53153 170.982 2.69268 171.046C2.85757 171.106 3.03933 171.136 3.23796 171.136C3.4928 171.136 3.71578 171.087 3.90691 170.99C4.09804 170.892 4.25732 170.741 4.38474 170.534C4.5159 170.325 4.61334 170.057 4.67705 169.731C4.74076 169.401 4.77262 169.007 4.77262 168.55Z" fill="#474747"/>
<path d="M100.745 163.648V171.878H99.7046V164.947L97.6078 165.711V164.772L100.582 163.648H100.745ZM108.941 167.133V168.381C108.941 169.052 108.881 169.618 108.761 170.079C108.641 170.54 108.468 170.911 108.244 171.192C108.019 171.473 107.747 171.677 107.428 171.805C107.114 171.929 106.758 171.99 106.36 171.99C106.046 171.99 105.755 171.951 105.489 171.872C105.223 171.794 104.983 171.668 104.769 171.496C104.56 171.32 104.38 171.091 104.23 170.81C104.08 170.529 103.966 170.188 103.887 169.787C103.808 169.386 103.769 168.917 103.769 168.381V167.133C103.769 166.463 103.829 165.9 103.949 165.447C104.072 164.994 104.247 164.63 104.472 164.356C104.696 164.079 104.966 163.88 105.281 163.761C105.6 163.641 105.956 163.581 106.349 163.581C106.668 163.581 106.96 163.62 107.226 163.699C107.496 163.774 107.736 163.895 107.946 164.064C108.155 164.229 108.333 164.45 108.48 164.727C108.63 165.001 108.744 165.336 108.823 165.734C108.901 166.131 108.941 166.598 108.941 167.133ZM107.895 168.55V166.959C107.895 166.592 107.873 166.27 107.828 165.992C107.786 165.711 107.725 165.471 107.642 165.273C107.56 165.074 107.455 164.913 107.327 164.789C107.204 164.666 107.059 164.576 106.894 164.519C106.733 164.459 106.551 164.429 106.349 164.429C106.102 164.429 105.883 164.476 105.691 164.57C105.5 164.66 105.339 164.804 105.208 165.003C105.081 165.202 104.983 165.462 104.916 165.784C104.848 166.107 104.814 166.498 104.814 166.959V168.55C104.814 168.917 104.835 169.241 104.876 169.523C104.921 169.804 104.987 170.047 105.073 170.253C105.159 170.456 105.264 170.622 105.388 170.754C105.512 170.885 105.654 170.982 105.815 171.046C105.98 171.106 106.162 171.136 106.36 171.136C106.615 171.136 106.838 171.087 107.029 170.99C107.22 170.892 107.38 170.741 107.507 170.534C107.638 170.325 107.736 170.057 107.799 169.731C107.863 169.401 107.895 169.007 107.895 168.55Z" fill="#474747"/>
<path d="M200.323 171.023V171.878H194.966V171.13L197.648 168.145C197.977 167.778 198.232 167.467 198.412 167.212C198.596 166.954 198.723 166.723 198.794 166.521C198.869 166.315 198.907 166.105 198.907 165.891C198.907 165.621 198.851 165.378 198.738 165.16C198.629 164.939 198.468 164.763 198.255 164.632C198.041 164.501 197.782 164.435 197.479 164.435C197.115 164.435 196.812 164.506 196.568 164.649C196.328 164.787 196.148 164.982 196.029 165.233C195.909 165.484 195.849 165.773 195.849 166.099H194.809C194.809 165.638 194.91 165.217 195.112 164.834C195.315 164.452 195.614 164.148 196.012 163.924C196.409 163.695 196.898 163.581 197.479 163.581C197.996 163.581 198.438 163.672 198.806 163.856C199.173 164.036 199.454 164.291 199.649 164.621C199.847 164.947 199.947 165.329 199.947 165.767C199.947 166.007 199.905 166.251 199.823 166.498C199.744 166.742 199.634 166.985 199.491 167.229C199.353 167.473 199.19 167.712 199.002 167.949C198.819 168.185 198.622 168.417 198.412 168.646L196.22 171.023H200.323ZM206.574 167.133V168.381C206.574 169.052 206.514 169.618 206.395 170.079C206.275 170.54 206.102 170.911 205.877 171.192C205.652 171.473 205.381 171.677 205.062 171.805C204.747 171.929 204.391 171.99 203.994 171.99C203.679 171.99 203.389 171.951 203.123 171.872C202.857 171.794 202.617 171.668 202.403 171.496C202.193 171.32 202.014 171.091 201.864 170.81C201.714 170.529 201.599 170.188 201.521 169.787C201.442 169.386 201.403 168.917 201.403 168.381V167.133C201.403 166.463 201.463 165.9 201.583 165.447C201.706 164.994 201.88 164.63 202.105 164.356C202.33 164.079 202.6 163.88 202.915 163.761C203.233 163.641 203.589 163.581 203.983 163.581C204.301 163.581 204.594 163.62 204.86 163.699C205.13 163.774 205.37 163.895 205.579 164.064C205.789 164.229 205.967 164.45 206.113 164.727C206.263 165.001 206.378 165.336 206.456 165.734C206.535 166.131 206.574 166.598 206.574 167.133ZM205.529 168.55V166.959C205.529 166.592 205.506 166.27 205.461 165.992C205.42 165.711 205.358 165.471 205.276 165.273C205.193 165.074 205.088 164.913 204.961 164.789C204.837 164.666 204.693 164.576 204.528 164.519C204.367 164.459 204.185 164.429 203.983 164.429C203.736 164.429 203.516 164.476 203.325 164.57C203.134 164.66 202.973 164.804 202.842 165.003C202.714 165.202 202.617 165.462 202.549 165.784C202.482 166.107 202.448 166.498 202.448 166.959V168.55C202.448 168.917 202.469 169.241 202.51 169.523C202.555 169.804 202.621 170.047 202.707 170.253C202.793 170.456 202.898 170.622 203.022 170.754C203.145 170.885 203.288 170.982 203.449 171.046C203.614 171.106 203.796 171.136 203.994 171.136C204.249 171.136 204.472 171.087 204.663 170.99C204.854 170.892 205.014 170.741 205.141 170.534C205.272 170.325 205.37 170.057 205.433 169.731C205.497 169.401 205.529 169.007 205.529 168.55Z" fill="#474747"/>
<path d="M295.097 167.274H295.839C296.203 167.274 296.503 167.214 296.739 167.094C296.979 166.97 297.157 166.804 297.273 166.594C297.393 166.38 297.453 166.14 297.453 165.874C297.453 165.559 297.4 165.295 297.295 165.082C297.19 164.868 297.033 164.707 296.823 164.598C296.613 164.489 296.347 164.435 296.025 164.435C295.733 164.435 295.474 164.493 295.249 164.609C295.028 164.722 294.854 164.883 294.726 165.093C294.603 165.303 294.541 165.55 294.541 165.835H293.501C293.501 165.419 293.606 165.04 293.816 164.699C294.026 164.358 294.32 164.087 294.698 163.884C295.081 163.682 295.523 163.581 296.025 163.581C296.52 163.581 296.952 163.669 297.324 163.845C297.695 164.017 297.983 164.276 298.189 164.621C298.395 164.962 298.498 165.387 298.498 165.897C298.498 166.103 298.45 166.324 298.352 166.56C298.259 166.792 298.111 167.01 297.908 167.212C297.71 167.414 297.451 167.581 297.132 167.712C296.814 167.84 296.432 167.904 295.986 167.904H295.097V167.274ZM295.097 168.128V167.504H295.986C296.507 167.504 296.937 167.566 297.279 167.69C297.62 167.814 297.888 167.979 298.082 168.185C298.281 168.391 298.42 168.617 298.498 168.865C298.581 169.108 298.622 169.352 298.622 169.596C298.622 169.978 298.556 170.317 298.425 170.613C298.298 170.909 298.116 171.16 297.88 171.366C297.648 171.572 297.374 171.728 297.059 171.833C296.744 171.938 296.402 171.99 296.031 171.99C295.675 171.99 295.339 171.94 295.024 171.839C294.713 171.737 294.438 171.591 294.198 171.4C293.958 171.205 293.771 170.967 293.636 170.686C293.501 170.401 293.433 170.077 293.433 169.714H294.473C294.473 169.998 294.535 170.248 294.659 170.461C294.786 170.675 294.966 170.842 295.199 170.962C295.435 171.078 295.712 171.136 296.031 171.136C296.349 171.136 296.623 171.082 296.851 170.973C297.084 170.86 297.262 170.692 297.385 170.467C297.513 170.242 297.576 169.959 297.576 169.618C297.576 169.277 297.505 168.998 297.363 168.781C297.22 168.559 297.018 168.396 296.756 168.291C296.497 168.183 296.192 168.128 295.839 168.128H295.097ZM305.194 167.133V168.381C305.194 169.052 305.134 169.618 305.014 170.079C304.894 170.54 304.721 170.911 304.496 171.192C304.272 171.473 304 171.677 303.681 171.805C303.367 171.929 303.011 171.99 302.613 171.99C302.298 171.99 302.008 171.951 301.742 171.872C301.476 171.794 301.236 171.668 301.022 171.496C300.813 171.32 300.633 171.091 300.483 170.81C300.333 170.529 300.219 170.188 300.14 169.787C300.061 169.386 300.022 168.917 300.022 168.381V167.133C300.022 166.463 300.082 165.9 300.202 165.447C300.325 164.994 300.5 164.63 300.724 164.356C300.949 164.079 301.219 163.88 301.534 163.761C301.853 163.641 302.209 163.581 302.602 163.581C302.921 163.581 303.213 163.62 303.479 163.699C303.749 163.774 303.989 163.895 304.199 164.064C304.408 164.229 304.586 164.45 304.733 164.727C304.882 165.001 304.997 165.336 305.075 165.734C305.154 166.131 305.194 166.598 305.194 167.133ZM304.148 168.55V166.959C304.148 166.592 304.125 166.27 304.08 165.992C304.039 165.711 303.977 165.471 303.895 165.273C303.813 165.074 303.708 164.913 303.58 164.789C303.457 164.666 303.312 164.576 303.147 164.519C302.986 164.459 302.804 164.429 302.602 164.429C302.355 164.429 302.135 164.476 301.944 164.57C301.753 164.66 301.592 164.804 301.461 165.003C301.333 165.202 301.236 165.462 301.169 165.784C301.101 166.107 301.067 166.498 301.067 166.959V168.55C301.067 168.917 301.088 169.241 301.129 169.523C301.174 169.804 301.24 170.047 301.326 170.253C301.412 170.456 301.517 170.622 301.641 170.754C301.764 170.885 301.907 170.982 302.068 171.046C302.233 171.106 302.415 171.136 302.613 171.136C302.868 171.136 303.091 171.087 303.282 170.99C303.473 170.892 303.633 170.741 303.76 170.534C303.891 170.325 303.989 170.057 304.052 169.731C304.116 169.401 304.148 169.007 304.148 168.55Z" fill="#474747"/>
<path d="M397.73 169.123V169.978H391.816V169.365L395.482 163.693H396.331L395.42 165.335L392.997 169.123H397.73ZM396.589 163.693V171.878H395.549V163.693H396.589ZM403.813 167.133V168.381C403.813 169.052 403.753 169.618 403.633 170.079C403.513 170.54 403.34 170.911 403.116 171.192C402.891 171.473 402.619 171.677 402.301 171.805C401.986 171.929 401.63 171.99 401.232 171.99C400.918 171.99 400.627 171.951 400.361 171.872C400.095 171.794 399.855 171.668 399.642 171.496C399.432 171.32 399.252 171.091 399.102 170.81C398.952 170.529 398.838 170.188 398.759 169.787C398.68 169.386 398.641 168.917 398.641 168.381V167.133C398.641 166.463 398.701 165.9 398.821 165.447C398.944 164.994 399.119 164.63 399.344 164.356C399.568 164.079 399.838 163.88 400.153 163.761C400.472 163.641 400.828 163.581 401.221 163.581C401.54 163.581 401.832 163.62 402.098 163.699C402.368 163.774 402.608 163.895 402.818 164.064C403.028 164.229 403.206 164.45 403.352 164.727C403.502 165.001 403.616 165.336 403.695 165.734C403.773 166.131 403.813 166.598 403.813 167.133ZM402.767 168.55V166.959C402.767 166.592 402.745 166.27 402.7 165.992C402.658 165.711 402.597 165.471 402.514 165.273C402.432 165.074 402.327 164.913 402.199 164.789C402.076 164.666 401.931 164.576 401.766 164.519C401.605 164.459 401.424 164.429 401.221 164.429C400.974 164.429 400.755 164.476 400.563 164.57C400.372 164.66 400.211 164.804 400.08 165.003C399.953 165.202 399.855 165.462 399.788 165.784C399.72 166.107 399.687 166.498 399.687 166.959V168.55C399.687 168.917 399.707 169.241 399.748 169.523C399.793 169.804 399.859 170.047 399.945 170.253C400.031 170.456 400.136 170.622 400.26 170.754C400.384 170.885 400.526 170.982 400.687 171.046C400.852 171.106 401.034 171.136 401.232 171.136C401.487 171.136 401.71 171.087 401.901 170.99C402.093 170.892 402.252 170.741 402.379 170.534C402.51 170.325 402.608 170.057 402.672 169.731C402.735 169.401 402.767 169.007 402.767 168.55Z" fill="#474747"/>
<path d="M492.133 167.982L491.301 167.769L491.712 163.693H495.911V164.654H492.594L492.347 166.88C492.497 166.794 492.686 166.714 492.915 166.639C493.147 166.564 493.413 166.526 493.713 166.526C494.091 166.526 494.431 166.592 494.73 166.723C495.03 166.85 495.285 167.034 495.495 167.274C495.709 167.514 495.872 167.802 495.984 168.14C496.096 168.477 496.153 168.854 496.153 169.27C496.153 169.663 496.098 170.025 495.99 170.355C495.885 170.684 495.725 170.973 495.512 171.22C495.298 171.464 495.028 171.653 494.702 171.788C494.38 171.923 494 171.99 493.561 171.99C493.231 171.99 492.918 171.945 492.622 171.855C492.33 171.762 492.068 171.621 491.835 171.434C491.607 171.243 491.419 171.007 491.273 170.726C491.131 170.441 491.041 170.107 491.003 169.725H491.993C492.038 170.032 492.128 170.291 492.263 170.501C492.398 170.711 492.574 170.87 492.791 170.978C493.012 171.083 493.269 171.136 493.561 171.136C493.809 171.136 494.028 171.093 494.219 171.007C494.41 170.92 494.571 170.797 494.702 170.636C494.833 170.474 494.933 170.28 495 170.051C495.071 169.822 495.107 169.566 495.107 169.281C495.107 169.022 495.071 168.782 495 168.561C494.929 168.34 494.822 168.147 494.68 167.982C494.541 167.817 494.371 167.69 494.168 167.6C493.966 167.506 493.734 167.459 493.471 167.459C493.123 167.459 492.858 167.506 492.679 167.6C492.502 167.694 492.321 167.821 492.133 167.982ZM502.432 167.133V168.381C502.432 169.052 502.372 169.618 502.252 170.079C502.132 170.54 501.96 170.911 501.735 171.192C501.51 171.473 501.238 171.677 500.92 171.805C500.605 171.929 500.249 171.99 499.852 171.99C499.537 171.99 499.246 171.951 498.98 171.872C498.714 171.794 498.474 171.668 498.261 171.496C498.051 171.32 497.871 171.091 497.721 170.81C497.571 170.529 497.457 170.188 497.378 169.787C497.299 169.386 497.26 168.917 497.26 168.381V167.133C497.26 166.463 497.32 165.9 497.44 165.447C497.564 164.994 497.738 164.63 497.963 164.356C498.188 164.079 498.457 163.88 498.772 163.761C499.091 163.641 499.447 163.581 499.84 163.581C500.159 163.581 500.451 163.62 500.717 163.699C500.987 163.774 501.227 163.895 501.437 164.064C501.647 164.229 501.825 164.45 501.971 164.727C502.121 165.001 502.235 165.336 502.314 165.734C502.392 166.131 502.432 166.598 502.432 167.133ZM501.386 168.55V166.959C501.386 166.592 501.364 166.27 501.319 165.992C501.278 165.711 501.216 165.471 501.133 165.273C501.051 165.074 500.946 164.913 500.818 164.789C500.695 164.666 500.551 164.576 500.386 164.519C500.224 164.459 500.043 164.429 499.84 164.429C499.593 164.429 499.374 164.476 499.183 164.57C498.991 164.66 498.83 164.804 498.699 165.003C498.572 165.202 498.474 165.462 498.407 165.784C498.339 166.107 498.306 166.498 498.306 166.959V168.55C498.306 168.917 498.326 169.241 498.368 169.523C498.412 169.804 498.478 170.047 498.564 170.253C498.65 170.456 498.755 170.622 498.879 170.754C499.003 170.885 499.145 170.982 499.306 171.046C499.471 171.106 499.653 171.136 499.852 171.136C500.106 171.136 500.329 171.087 500.521 170.99C500.712 170.892 500.871 170.741 500.998 170.534C501.13 170.325 501.227 170.057 501.291 169.731C501.354 169.401 501.386 169.007 501.386 168.55Z" fill="#474747"/>
<path d="M593.429 163.682H593.519V164.564H593.429C592.878 164.564 592.417 164.654 592.046 164.834C591.675 165.01 591.381 165.248 591.164 165.548C590.946 165.844 590.789 166.178 590.692 166.549C590.598 166.92 590.551 167.296 590.551 167.679V168.882C590.551 169.245 590.594 169.568 590.68 169.849C590.767 170.126 590.885 170.36 591.035 170.551C591.184 170.742 591.353 170.887 591.54 170.984C591.732 171.082 591.93 171.13 592.136 171.13C592.376 171.13 592.59 171.085 592.777 170.995C592.965 170.902 593.122 170.772 593.249 170.607C593.381 170.439 593.48 170.24 593.547 170.012C593.615 169.783 593.648 169.532 593.648 169.258C593.648 169.015 593.618 168.781 593.559 168.556C593.499 168.327 593.407 168.125 593.283 167.949C593.159 167.769 593.004 167.628 592.817 167.527C592.633 167.422 592.414 167.37 592.159 167.37C591.87 167.37 591.6 167.441 591.349 167.583C591.102 167.722 590.898 167.905 590.737 168.134C590.579 168.359 590.489 168.604 590.467 168.87L589.916 168.865C589.968 168.445 590.066 168.087 590.208 167.791C590.354 167.491 590.534 167.248 590.748 167.06C590.965 166.869 591.207 166.731 591.473 166.644C591.743 166.554 592.028 166.509 592.327 166.509C592.736 166.509 593.088 166.586 593.384 166.74C593.68 166.894 593.924 167.1 594.115 167.358C594.306 167.613 594.447 167.902 594.537 168.224C594.63 168.543 594.677 168.87 594.677 169.208C594.677 169.594 594.623 169.955 594.514 170.293C594.406 170.63 594.242 170.926 594.025 171.181C593.812 171.436 593.547 171.634 593.232 171.777C592.918 171.919 592.552 171.99 592.136 171.99C591.694 171.99 591.308 171.9 590.978 171.721C590.648 171.537 590.375 171.293 590.158 170.99C589.94 170.686 589.777 170.349 589.668 169.978C589.56 169.607 589.505 169.23 589.505 168.848V168.359C589.505 167.782 589.564 167.216 589.68 166.661C589.796 166.107 589.996 165.604 590.281 165.155C590.57 164.705 590.969 164.347 591.479 164.081C591.988 163.815 592.638 163.682 593.429 163.682ZM601.052 167.133V168.381C601.052 169.052 600.992 169.618 600.872 170.079C600.752 170.54 600.58 170.911 600.355 171.192C600.13 171.473 599.858 171.677 599.54 171.805C599.225 171.929 598.869 171.99 598.472 171.99C598.157 171.99 597.866 171.951 597.6 171.872C597.334 171.794 597.094 171.668 596.881 171.496C596.671 171.32 596.491 171.091 596.341 170.81C596.191 170.529 596.077 170.188 595.998 169.787C595.92 169.386 595.88 168.917 595.88 168.381V167.133C595.88 166.463 595.94 165.9 596.06 165.447C596.184 164.994 596.358 164.63 596.583 164.356C596.808 164.079 597.078 163.88 597.392 163.761C597.711 163.641 598.067 163.581 598.46 163.581C598.779 163.581 599.071 163.62 599.337 163.699C599.607 163.774 599.847 163.895 600.057 164.064C600.267 164.229 600.445 164.45 600.591 164.727C600.741 165.001 600.855 165.336 600.934 165.734C601.013 166.131 601.052 166.598 601.052 167.133ZM600.006 168.55V166.959C600.006 166.592 599.984 166.27 599.939 165.992C599.898 165.711 599.836 165.471 599.753 165.273C599.671 165.074 599.566 164.913 599.439 164.789C599.315 164.666 599.171 164.576 599.006 164.519C598.845 164.459 598.663 164.429 598.46 164.429C598.213 164.429 597.994 164.476 597.803 164.57C597.612 164.66 597.45 164.804 597.319 165.003C597.192 165.202 597.094 165.462 597.027 165.784C596.96 166.107 596.926 166.498 596.926 166.959V168.55C596.926 168.917 596.946 169.241 596.988 169.523C597.033 169.804 597.098 170.047 597.184 170.253C597.271 170.456 597.376 170.622 597.499 170.754C597.623 170.885 597.765 170.982 597.926 171.046C598.091 171.106 598.273 171.136 598.472 171.136C598.727 171.136 598.95 171.087 599.141 170.99C599.332 170.892 599.491 170.741 599.618 170.534C599.75 170.325 599.847 170.057 599.911 169.731C599.974 169.401 600.006 169.007 600.006 168.55Z" fill="#474747"/>
<path d="M693.347 163.693V164.278L689.957 171.878H688.861L692.245 164.548H687.815V163.693H693.347ZM699.671 167.133V168.381C699.671 169.052 699.611 169.618 699.491 170.079C699.371 170.54 699.199 170.911 698.974 171.192C698.749 171.473 698.477 171.677 698.159 171.805C697.844 171.929 697.488 171.99 697.091 171.99C696.776 171.99 696.486 171.951 696.22 171.872C695.953 171.794 695.714 171.668 695.5 171.496C695.29 171.32 695.11 171.091 694.96 170.81C694.81 170.529 694.696 170.188 694.617 169.787C694.539 169.386 694.499 168.917 694.499 168.381V167.133C694.499 166.463 694.559 165.9 694.679 165.447C694.803 164.994 694.977 164.63 695.202 164.356C695.427 164.079 695.697 163.88 696.012 163.761C696.33 163.641 696.686 163.581 697.08 163.581C697.398 163.581 697.69 163.62 697.957 163.699C698.226 163.774 698.466 163.895 698.676 164.064C698.886 164.229 699.064 164.45 699.21 164.727C699.36 165.001 699.474 165.336 699.553 165.734C699.632 166.131 699.671 166.598 699.671 167.133ZM698.625 168.55V166.959C698.625 166.592 698.603 166.27 698.558 165.992C698.517 165.711 698.455 165.471 698.373 165.273C698.29 165.074 698.185 164.913 698.058 164.789C697.934 164.666 697.79 164.576 697.625 164.519C697.464 164.459 697.282 164.429 697.08 164.429C696.832 164.429 696.613 164.476 696.422 164.57C696.231 164.66 696.07 164.804 695.938 165.003C695.811 165.202 695.714 165.462 695.646 165.784C695.579 166.107 695.545 166.498 695.545 166.959V168.55C695.545 168.917 695.566 169.241 695.607 169.523C695.652 169.804 695.717 170.047 695.804 170.253C695.89 170.456 695.995 170.622 696.118 170.754C696.242 170.885 696.384 170.982 696.546 171.046C696.71 171.106 696.892 171.136 697.091 171.136C697.346 171.136 697.569 171.087 697.76 170.99C697.951 170.892 698.11 170.741 698.238 170.534C698.369 170.325 698.466 170.057 698.53 169.731C698.594 169.401 698.625 169.007 698.625 168.55Z" fill="#474747"/>
<path d="M791.837 169.663C791.837 170.162 791.721 170.585 791.488 170.934C791.26 171.278 790.949 171.541 790.555 171.721C790.165 171.9 789.725 171.99 789.234 171.99C788.743 171.99 788.301 171.9 787.907 171.721C787.514 171.541 787.203 171.278 786.974 170.934C786.746 170.585 786.631 170.162 786.631 169.663C786.631 169.337 786.693 169.039 786.817 168.769C786.944 168.496 787.122 168.258 787.351 168.055C787.583 167.853 787.857 167.697 788.172 167.589C788.49 167.476 788.841 167.42 789.223 167.42C789.725 167.42 790.173 167.518 790.566 167.712C790.96 167.904 791.269 168.168 791.494 168.505C791.722 168.842 791.837 169.228 791.837 169.663ZM790.791 169.641C790.791 169.337 790.726 169.069 790.594 168.837C790.463 168.601 790.28 168.417 790.044 168.286C789.807 168.155 789.534 168.089 789.223 168.089C788.904 168.089 788.629 168.155 788.396 168.286C788.168 168.417 787.99 168.601 787.862 168.837C787.735 169.069 787.671 169.337 787.671 169.641C787.671 169.955 787.733 170.225 787.857 170.45C787.984 170.671 788.164 170.842 788.396 170.962C788.633 171.078 788.912 171.136 789.234 171.136C789.556 171.136 789.834 171.078 790.066 170.962C790.298 170.842 790.476 170.671 790.6 170.45C790.727 170.225 790.791 169.955 790.791 169.641ZM791.646 165.824C791.646 166.221 791.541 166.579 791.331 166.897C791.121 167.216 790.834 167.467 790.471 167.651C790.107 167.834 789.695 167.926 789.234 167.926C788.766 167.926 788.348 167.834 787.98 167.651C787.617 167.467 787.332 167.216 787.126 166.897C786.92 166.579 786.817 166.221 786.817 165.824C786.817 165.348 786.92 164.943 787.126 164.609C787.336 164.276 787.623 164.021 787.986 163.845C788.35 163.669 788.764 163.581 789.228 163.581C789.697 163.581 790.113 163.669 790.476 163.845C790.84 164.021 791.125 164.276 791.331 164.609C791.541 164.943 791.646 165.348 791.646 165.824ZM790.606 165.84C790.606 165.567 790.548 165.325 790.431 165.115C790.315 164.905 790.154 164.741 789.948 164.621C789.742 164.497 789.502 164.435 789.228 164.435C788.955 164.435 788.715 164.493 788.509 164.609C788.307 164.722 788.147 164.883 788.031 165.093C787.919 165.303 787.862 165.552 787.862 165.84C787.862 166.122 787.919 166.367 788.031 166.577C788.147 166.787 788.308 166.95 788.515 167.066C788.721 167.182 788.96 167.24 789.234 167.24C789.508 167.24 789.746 167.182 789.948 167.066C790.154 166.95 790.315 166.787 790.431 166.577C790.548 166.367 790.606 166.122 790.606 165.84ZM798.29 167.133V168.381C798.29 169.052 798.23 169.618 798.11 170.079C797.99 170.54 797.818 170.911 797.593 171.192C797.368 171.473 797.097 171.677 796.778 171.805C796.463 171.929 796.107 171.99 795.71 171.99C795.395 171.99 795.105 171.951 794.839 171.872C794.573 171.794 794.333 171.668 794.119 171.496C793.909 171.32 793.729 171.091 793.579 170.81C793.43 170.529 793.315 170.188 793.237 169.787C793.158 169.386 793.118 168.917 793.118 168.381V167.133C793.118 166.463 793.178 165.9 793.298 165.447C793.422 164.994 793.596 164.63 793.821 164.356C794.046 164.079 794.316 163.88 794.631 163.761C794.949 163.641 795.305 163.581 795.699 163.581C796.017 163.581 796.31 163.62 796.576 163.699C796.846 163.774 797.085 163.895 797.295 164.064C797.505 164.229 797.683 164.45 797.829 164.727C797.979 165.001 798.093 165.336 798.172 165.734C798.251 166.131 798.29 166.598 798.29 167.133ZM797.245 168.55V166.959C797.245 166.592 797.222 166.27 797.177 165.992C797.136 165.711 797.074 165.471 796.992 165.273C796.909 165.074 796.804 164.913 796.677 164.789C796.553 164.666 796.409 164.576 796.244 164.519C796.083 164.459 795.901 164.429 795.699 164.429C795.451 164.429 795.232 164.476 795.041 164.57C794.85 164.66 794.689 164.804 794.558 165.003C794.43 165.202 794.333 165.462 794.265 165.784C794.198 166.107 794.164 166.498 794.164 166.959V168.55C794.164 168.917 794.185 169.241 794.226 169.523C794.271 169.804 794.336 170.047 794.423 170.253C794.509 170.456 794.614 170.622 794.737 170.754C794.861 170.885 795.004 170.982 795.165 171.046C795.33 171.106 795.511 171.136 795.71 171.136C795.965 171.136 796.188 171.087 796.379 170.99C796.57 170.892 796.729 170.741 796.857 170.534C796.988 170.325 797.085 170.057 797.149 169.731C797.213 169.401 797.245 169.007 797.245 168.55Z" fill="#474747"/>
<path d="M886.33 171.007H886.437C887.036 171.007 887.523 170.922 887.898 170.754C888.273 170.585 888.561 170.358 888.764 170.073C888.966 169.789 889.105 169.468 889.18 169.112C889.255 168.752 889.292 168.383 889.292 168.005V166.751C889.292 166.38 889.249 166.05 889.163 165.762C889.081 165.473 888.964 165.231 888.814 165.037C888.668 164.842 888.502 164.694 888.314 164.593C888.127 164.491 887.928 164.441 887.718 164.441C887.478 164.441 887.263 164.489 887.072 164.587C886.884 164.681 886.725 164.814 886.594 164.986C886.467 165.158 886.369 165.361 886.302 165.593C886.234 165.825 886.2 166.078 886.2 166.352C886.2 166.596 886.23 166.832 886.29 167.06C886.35 167.289 886.442 167.495 886.566 167.679C886.69 167.862 886.843 168.008 887.027 168.117C887.214 168.222 887.433 168.275 887.685 168.275C887.917 168.275 888.134 168.23 888.337 168.14C888.543 168.046 888.725 167.92 888.882 167.763C889.043 167.602 889.17 167.42 889.264 167.218C889.362 167.015 889.418 166.804 889.433 166.583H889.928C889.928 166.894 889.866 167.201 889.742 167.504C889.622 167.804 889.453 168.078 889.236 168.325C889.019 168.573 888.764 168.771 888.472 168.921C888.179 169.067 887.861 169.14 887.516 169.14C887.111 169.14 886.761 169.062 886.465 168.904C886.169 168.747 885.925 168.537 885.734 168.275C885.547 168.012 885.406 167.72 885.312 167.398C885.222 167.072 885.177 166.742 885.177 166.408C885.177 166.018 885.232 165.653 885.34 165.312C885.449 164.971 885.61 164.671 885.824 164.413C886.037 164.15 886.302 163.946 886.616 163.8C886.935 163.654 887.302 163.581 887.718 163.581C888.187 163.581 888.586 163.674 888.916 163.862C889.245 164.049 889.513 164.3 889.72 164.615C889.929 164.93 890.083 165.284 890.18 165.677C890.278 166.071 890.327 166.476 890.327 166.892V167.268C890.327 167.692 890.299 168.123 890.242 168.561C890.19 168.996 890.087 169.412 889.933 169.809C889.783 170.206 889.564 170.563 889.275 170.877C888.987 171.188 888.61 171.436 888.146 171.619C887.685 171.799 887.115 171.889 886.437 171.889H886.33V171.007ZM896.909 167.133V168.381C896.909 169.052 896.849 169.618 896.729 170.079C896.61 170.54 896.437 170.911 896.212 171.192C895.987 171.473 895.716 171.677 895.397 171.805C895.082 171.929 894.726 171.99 894.329 171.99C894.014 171.99 893.724 171.951 893.458 171.872C893.192 171.794 892.952 171.668 892.738 171.496C892.528 171.32 892.348 171.091 892.199 170.81C892.049 170.529 891.934 170.188 891.856 169.787C891.777 169.386 891.738 168.917 891.738 168.381V167.133C891.738 166.463 891.798 165.9 891.918 165.447C892.041 164.994 892.215 164.63 892.44 164.356C892.665 164.079 892.935 163.88 893.25 163.761C893.568 163.641 893.924 163.581 894.318 163.581C894.636 163.581 894.929 163.62 895.195 163.699C895.465 163.774 895.704 163.895 895.914 164.064C896.124 164.229 896.302 164.45 896.448 164.727C896.598 165.001 896.713 165.336 896.791 165.734C896.87 166.131 896.909 166.598 896.909 167.133ZM895.864 168.55V166.959C895.864 166.592 895.841 166.27 895.796 165.992C895.755 165.711 895.693 165.471 895.611 165.273C895.528 165.074 895.423 164.913 895.296 164.789C895.172 164.666 895.028 164.576 894.863 164.519C894.702 164.459 894.52 164.429 894.318 164.429C894.071 164.429 893.851 164.476 893.66 164.57C893.469 164.66 893.308 164.804 893.177 165.003C893.049 165.202 892.952 165.462 892.884 165.784C892.817 166.107 892.783 166.498 892.783 166.959V168.55C892.783 168.917 892.804 169.241 892.845 169.523C892.89 169.804 892.956 170.047 893.042 170.253C893.128 170.456 893.233 170.622 893.357 170.754C893.48 170.885 893.623 170.982 893.784 171.046C893.949 171.106 894.13 171.136 894.329 171.136C894.584 171.136 894.807 171.087 894.998 170.99C895.189 170.892 895.348 170.741 895.476 170.534C895.607 170.325 895.704 170.057 895.768 169.731C895.832 169.401 895.864 169.007 895.864 168.55Z" fill="#474747"/>
<path d="M984.374 163.648V171.878H983.334V164.947L981.238 165.711V164.772L984.211 163.648H984.374ZM992.57 167.133V168.381C992.57 169.052 992.511 169.618 992.391 170.079C992.271 170.54 992.098 170.911 991.873 171.192C991.649 171.473 991.377 171.677 991.058 171.805C990.744 171.929 990.387 171.99 989.99 171.99C989.675 171.99 989.385 171.951 989.119 171.872C988.853 171.794 988.613 171.668 988.399 171.496C988.19 171.32 988.01 171.091 987.86 170.81C987.71 170.529 987.596 170.188 987.517 169.787C987.438 169.386 987.399 168.917 987.399 168.381V167.133C987.399 166.463 987.459 165.9 987.579 165.447C987.702 164.994 987.877 164.63 988.101 164.356C988.326 164.079 988.596 163.88 988.911 163.761C989.229 163.641 989.585 163.581 989.979 163.581C990.298 163.581 990.59 163.62 990.856 163.699C991.126 163.774 991.366 163.895 991.575 164.064C991.785 164.229 991.963 164.45 992.11 164.727C992.259 165.001 992.374 165.336 992.452 165.734C992.531 166.131 992.57 166.598 992.57 167.133ZM991.525 168.55V166.959C991.525 166.592 991.502 166.27 991.457 165.992C991.416 165.711 991.354 165.471 991.272 165.273C991.189 165.074 991.085 164.913 990.957 164.789C990.833 164.666 990.689 164.576 990.524 164.519C990.363 164.459 990.181 164.429 989.979 164.429C989.732 164.429 989.512 164.476 989.321 164.57C989.13 164.66 988.969 164.804 988.838 165.003C988.71 165.202 988.613 165.462 988.546 165.784C988.478 166.107 988.444 166.498 988.444 166.959V168.55C988.444 168.917 988.465 169.241 988.506 169.523C988.551 169.804 988.617 170.047 988.703 170.253C988.789 170.456 988.894 170.622 989.018 170.754C989.141 170.885 989.284 170.982 989.445 171.046C989.61 171.106 989.792 171.136 989.99 171.136C990.245 171.136 990.468 171.087 990.659 170.99C990.85 170.892 991.01 170.741 991.137 170.534C991.268 170.325 991.366 170.057 991.429 169.731C991.493 169.401 991.525 169.007 991.525 168.55ZM999.046 167.133V168.381C999.046 169.052 998.986 169.618 998.867 170.079C998.747 170.54 998.574 170.911 998.349 171.192C998.124 171.473 997.853 171.677 997.534 171.805C997.219 171.929 996.863 171.99 996.466 171.99C996.151 171.99 995.861 171.951 995.595 171.872C995.329 171.794 995.089 171.668 994.875 171.496C994.665 171.32 994.486 171.091 994.336 170.81C994.186 170.529 994.071 170.188 993.993 169.787C993.914 169.386 993.875 168.917 993.875 168.381V167.133C993.875 166.463 993.935 165.9 994.055 165.447C994.178 164.994 994.352 164.63 994.577 164.356C994.802 164.079 995.072 163.88 995.387 163.761C995.705 163.641 996.061 163.581 996.455 163.581C996.773 163.581 997.066 163.62 997.332 163.699C997.602 163.774 997.842 163.895 998.051 164.064C998.261 164.229 998.439 164.45 998.585 164.727C998.735 165.001 998.85 165.336 998.928 165.734C999.007 166.131 999.046 166.598 999.046 167.133ZM998.001 168.55V166.959C998.001 166.592 997.978 166.27 997.933 165.992C997.892 165.711 997.83 165.471 997.748 165.273C997.665 165.074 997.56 164.913 997.433 164.789C997.309 164.666 997.165 164.576 997 164.519C996.839 164.459 996.657 164.429 996.455 164.429C996.208 164.429 995.988 164.476 995.797 164.57C995.606 164.66 995.445 164.804 995.314 165.003C995.186 165.202 995.089 165.462 995.021 165.784C994.954 166.107 994.92 166.498 994.92 166.959V168.55C994.92 168.917 994.941 169.241 994.982 169.523C995.027 169.804 995.093 170.047 995.179 170.253C995.265 170.456 995.37 170.622 995.494 170.754C995.617 170.885 995.76 170.982 995.921 171.046C996.086 171.106 996.268 171.136 996.466 171.136C996.721 171.136 996.944 171.087 997.135 170.99C997.326 170.892 997.486 170.741 997.613 170.534C997.744 170.325 997.842 170.057 997.905 169.731C997.969 169.401 998.001 169.007 998.001 168.55Z" fill="#474747"/>
<rect width="98.6193" height="98.6193" transform="translate(3.94434 55.3691)" fill="#D73027"/>
<rect width="98.6193" height="98.6193" transform="translate(102.563 55.3691)" fill="#F46D43"/>
<rect width="98.6193" height="98.6193" transform="translate(201.183 55.3691)" fill="#FDAE61"/>
<rect width="98.6193" height="98.6193" transform="translate(299.803 55.3691)" fill="#FEE08B"/>
<rect width="98.6193" height="98.6193" transform="translate(398.422 55.3691)" fill="#FFFFBF"/>
<rect width="98.6193" height="98.6193" transform="translate(497.041 55.3691)" fill="#E6F598"/>
<rect width="98.6193" height="98.6193" transform="translate(595.66 55.3691)" fill="#ABDDA4"/>
<rect width="98.6193" height="98.6193" transform="translate(694.279 55.3691)" fill="#66C2A5"/>
<rect width="98.6193" height="98.6193" transform="translate(792.899 55.3691)" fill="#1A9850" fill-opacity="0.8"/>
<rect width="98.6193" height="98.6193" transform="translate(891.519 55.3691)" fill="#1A9850"/>
<path opacity="0.2" d="M641.519 61.7791C641.519 62.7544 641.23 63.7077 640.688 64.5186C640.146 65.3295 639.376 65.9615 638.475 66.3347C637.574 66.7079 636.583 66.8056 635.626 66.6153C634.67 66.4251 633.791 65.9554 633.101 65.2658C632.412 64.5762 631.942 63.6976 631.752 62.7411C631.562 61.7846 631.659 60.7931 632.033 59.8921C632.406 58.9911 633.038 58.221 633.849 57.6792C634.66 57.1373 635.613 56.8481 636.588 56.8481C637.896 56.8481 639.15 57.3677 640.075 58.2924C641 59.2171 641.519 60.4713 641.519 61.7791Z" fill="black"/>
<path d="M667.046 46.1142L662.115 41.1833C661.883 40.952 661.57 40.822 661.243 40.822C660.915 40.822 660.602 40.952 660.37 41.1833C660.139 41.4146 660.009 41.7283 660.009 42.0554C660.009 42.3826 660.139 42.6963 660.37 42.9276L663.198 45.7537H661.243C653.641 45.7537 651.835 50.0868 650.243 53.9083C648.798 57.3769 647.636 60.1629 642.619 60.5096C642.304 59.0149 641.445 57.6904 640.21 56.7928C638.974 55.8953 637.448 55.4886 635.93 55.6516C634.411 55.8146 633.007 56.5357 631.99 57.6752C630.972 58.8146 630.414 60.2912 630.424 61.8186C630.433 63.346 631.01 64.8155 632.041 65.9421C633.073 67.0688 634.486 67.7723 636.006 67.9163C637.527 68.0603 639.047 67.6346 640.272 66.7217C641.496 65.8087 642.338 64.4735 642.634 62.9751C649.3 62.5667 651.008 58.4833 652.518 54.8559C654.063 51.1469 655.284 48.2192 661.243 48.2192H663.198L660.37 51.0452C660.139 51.2765 660.009 51.5903 660.009 51.9174C660.009 52.2445 660.139 52.5582 660.37 52.7895C660.602 53.0209 660.915 53.1508 661.243 53.1508C661.57 53.1508 661.883 53.0209 662.115 52.7895L667.046 47.8586C667.16 47.7441 667.251 47.6081 667.313 47.4585C667.375 47.3088 667.407 47.1484 667.407 46.9864C667.407 46.8244 667.375 46.664 667.313 46.5143C667.251 46.3647 667.16 46.2287 667.046 46.1142ZM636.588 65.4775C635.856 65.4775 635.141 65.2606 634.533 64.8543C633.925 64.4479 633.451 63.8703 633.171 63.1946C632.891 62.5188 632.818 61.7752 632.961 61.0578C633.103 60.3404 633.455 59.6815 633.973 59.1643C634.49 58.6471 635.149 58.2948 635.866 58.1521C636.584 58.0095 637.327 58.0827 638.003 58.3626C638.679 58.6425 639.256 59.1165 639.663 59.7247C640.069 60.3329 640.286 61.0479 640.286 61.7793C640.286 62.7601 639.896 63.7008 639.203 64.3944C638.509 65.0879 637.569 65.4775 636.588 65.4775Z" fill="black"/>
</svg>
