<svg width="40" height="40" viewBox="0 0 40 40" fill="none" xmlns="http://www.w3.org/2000/svg">
<path fill-rule="evenodd" clip-rule="evenodd" d="M34.1404 7.625C34.3681 7.38925 34.4941 7.07349 34.4912 6.74575C34.4884 6.418 34.3569 6.10449 34.1252 5.87273C33.8934 5.64097 33.5799 5.50951 33.2521 5.50666C32.9244 5.50381 32.6086 5.6298 32.3729 5.8575L31.4579 6.7725C29.3227 4.92297 26.7715 3.61781 24.0223 2.96853C21.2731 2.31925 18.4076 2.34514 15.6706 3.044C12.9335 3.74286 10.4064 5.0939 8.30495 6.98171C6.20355 8.86952 4.59037 11.238 3.60325 13.8847C2.61613 16.5315 2.2844 19.3779 2.6364 22.1807C2.98841 24.9835 4.01369 27.6595 5.62465 29.9799C7.2356 32.3004 9.38435 34.1964 11.8873 35.5059C14.3903 36.8155 17.1731 37.4997 19.9979 37.5C19.3996 36.7042 18.8986 35.8397 18.5054 34.925C16.1665 34.6911 13.9152 33.9108 11.9333 32.6469C9.95133 31.3831 8.29414 29.6712 7.09536 27.6493C5.89658 25.6273 5.18977 23.3519 5.03194 21.0066C4.87411 18.6613 5.26967 16.3118 6.18673 14.1474C7.10378 11.9831 8.51666 10.0646 10.3114 8.5466C12.1061 7.02862 14.2325 5.95369 16.519 5.4085C18.8055 4.8633 21.1882 4.86311 23.4748 5.40792C25.7614 5.95274 27.8879 7.02732 29.6829 8.545L27.9079 10.32C26.4323 9.11516 24.7009 8.26352 22.8459 7.83012C20.9909 7.39673 19.0613 7.39305 17.2047 7.81936C15.348 8.24568 13.6133 9.09071 12.1332 10.2899C10.653 11.4891 9.46654 13.0107 8.66436 14.7386C7.86217 16.4664 7.46551 18.3548 7.50468 20.2593C7.54385 22.1639 8.01781 24.0343 8.89035 25.7277C9.76289 27.4211 11.0109 28.8927 12.5391 30.03C14.0673 31.1674 15.8353 31.9404 17.7079 32.29C17.5487 31.4312 17.48 30.5581 17.5029 29.685C15.1521 29.0708 13.1051 27.6221 11.7441 25.6094C10.383 23.5966 9.80092 21.1574 10.1064 18.7469C10.4119 16.3365 11.5842 14.1196 13.4043 12.51C15.2245 10.9005 17.5682 10.0083 19.9979 10C22.2192 9.99586 24.3779 10.7351 26.1304 12.1L24.3429 13.885C22.8102 12.792 20.9225 12.3154 19.0547 12.5498C17.1869 12.7841 15.4755 13.7123 14.2603 15.1501C13.0451 16.5878 12.4151 18.4299 12.4952 20.3107C12.5754 22.1915 13.3598 23.9733 14.6929 25.3025C14.8089 25.4187 14.9468 25.5109 15.0985 25.5739C15.2502 25.6369 15.4128 25.6693 15.577 25.6694C15.7413 25.6696 15.9039 25.6373 16.0557 25.5746C16.2075 25.5118 16.3454 25.4198 16.4616 25.3037C16.5779 25.1877 16.6701 25.0499 16.733 24.8982C16.796 24.7465 16.8285 24.5839 16.8286 24.4196C16.8287 24.2554 16.7965 24.0927 16.7337 23.9409C16.671 23.7892 16.579 23.6512 16.4629 23.535C15.6025 22.6744 15.0855 21.5296 15.0087 20.3152C14.932 19.1007 15.3007 17.8999 16.046 16.9379C16.7912 15.9758 17.8617 15.3186 19.0568 15.0893C20.2519 14.8601 21.4896 15.0745 22.5379 15.6925L20.6454 17.585C20.1138 17.4425 19.5501 17.4794 19.0416 17.69C18.5331 17.9006 18.1083 18.2731 17.8331 18.7497C17.5579 19.2263 17.4477 19.7804 17.5195 20.326C17.5913 20.8717 17.8412 21.3784 18.2304 21.7675C18.6195 22.1567 19.1262 22.4066 19.6719 22.4784C20.2175 22.5502 20.7716 22.44 21.2482 22.1648C21.7248 21.8896 22.0973 21.4648 22.3079 20.9563C22.5185 20.4478 22.5554 19.8841 22.4129 19.3525L25.3004 16.465L31.4504 10.315C33.4149 12.6289 34.6271 15.4868 34.9254 18.5075C35.8429 18.9025 36.7079 19.4075 37.4979 20C37.4979 15.91 36.0729 11.8225 33.2229 8.54L34.1404 7.625ZM39.9979 30C39.9979 32.6522 38.9443 35.1957 37.069 37.0711C35.1936 38.9464 32.6501 40 29.9979 40C27.3457 40 24.8022 38.9464 22.9268 37.0711C21.0515 35.1957 19.9979 32.6522 19.9979 30C19.9979 27.3478 21.0515 24.8043 22.9268 22.9289C24.8022 21.0536 27.3457 20 29.9979 20C32.6501 20 35.1936 21.0536 37.069 22.9289C38.9443 24.8043 39.9979 27.3478 39.9979 30ZM29.9979 31.25C29.6518 31.2478 29.3178 31.1218 29.0565 30.8948C28.7952 30.6679 28.6236 30.3549 28.5729 30.0125L27.8479 24.975C27.806 24.6684 27.8302 24.3564 27.9189 24.0599C28.0076 23.7634 28.1587 23.4894 28.3622 23.2562C28.5656 23.023 28.8167 22.8361 29.0984 22.7081C29.3801 22.58 29.6859 22.5137 29.9954 22.5137C30.3048 22.5137 30.6107 22.58 30.8924 22.7081C31.1741 22.8361 31.4252 23.023 31.6286 23.2562C31.8321 23.4894 31.9832 23.7634 32.0719 24.0599C32.1606 24.3564 32.1848 24.6684 32.1429 24.975L31.4229 30.0125C31.3722 30.3549 31.2006 30.6679 30.9393 30.8948C30.6779 31.1218 30.344 31.2478 29.9979 31.25ZM29.9979 37.5C30.6609 37.5 31.2968 37.2366 31.7657 36.7678C32.2345 36.2989 32.4979 35.663 32.4979 35C32.4979 34.337 32.2345 33.7011 31.7657 33.2322C31.2968 32.7634 30.6609 32.5 29.9979 32.5C29.3349 32.5 28.699 32.7634 28.2301 33.2322C27.7613 33.7011 27.4979 34.337 27.4979 35C27.4979 35.663 27.7613 36.2989 28.2301 36.7678C28.699 37.2366 29.3349 37.5 29.9979 37.5Z" fill="url(#paint0_linear_628_6362)"/>
<defs>
<linearGradient id="paint0_linear_628_6362" x1="21.2489" y1="2.5" x2="21.2489" y2="40" gradientUnits="userSpaceOnUse">
<stop stop-color="#448CD2"/>
<stop offset="1" stop-color="#1A3652"/>
</linearGradient>
</defs>
</svg>
