<svg width="793" height="380" viewBox="0 0 793 380" fill="none" xmlns="http://www.w3.org/2000/svg">
<path d="M772 262H780.305V263.577H777.151V270.974H775.164V263.577H772.01V262H772ZM790.426 270.974L790.406 265.304L787.382 269.976H786.474L783.419 265.414V270.974H781.543V262H783.14L786.943 267.75L790.686 262H792.283L792.303 270.974H790.426Z" fill="#1F3338"/>
<path fill-rule="evenodd" clip-rule="evenodd" d="M503.633 144.203C502.741 147.502 501.708 150.738 500.534 153.912C502.984 155.89 504.558 158.919 504.558 162.323C504.558 168.294 499.718 173.134 493.747 173.134C492.94 173.128 492.156 173.039 491.396 172.869C471.692 205.498 435.875 227.366 395.05 227.366C391.968 227.366 388.915 227.242 385.892 226.993L385.4 227.288L385.203 226.934C361.368 224.858 339.648 215.316 322.393 200.668C320.75 201.662 318.842 202.242 316.786 202.242C310.815 202.242 305.975 197.402 305.975 191.431C305.975 189.297 306.605 187.3 307.677 185.627C299.502 175.534 293.029 164.015 288.711 151.502C288.658 151.502 288.609 151.505 288.563 151.512C282.592 151.512 277.752 146.672 277.752 140.701C277.752 136.451 280.202 132.792 283.753 131.021C282.985 125.755 282.599 120.384 282.592 114.908C282.592 101.421 284.982 88.4755 289.36 76.4741C286.36 74.5559 284.353 71.1916 284.353 67.3551C284.353 61.3839 289.193 56.5441 295.164 56.5441C296.377 56.5572 297.528 56.7506 298.617 57.1244C309.772 38.5715 326.131 23.4813 345.658 13.8999C346.72 9.04036 351.039 5.41044 356.223 5.41044C358.496 5.41044 360.601 6.10887 362.342 7.30901C372.7 4.16111 383.679 2.45929 395.05 2.45929C402.517 2.45929 409.806 3.19708 416.869 4.58412C418.827 1.81988 422.044 0 425.693 0C431.517 0 436.249 4.60379 436.485 10.3585C454.664 17.5889 470.521 29.4328 482.611 44.4345C484.136 43.6082 485.887 43.1458 487.736 43.1458C493.707 43.1458 498.547 47.9857 498.547 53.9569C498.547 57.3704 496.954 60.4199 494.475 62.3971C502.787 78.0874 507.509 95.9517 507.509 114.908C507.509 123.771 506.476 132.389 504.538 140.652C504.833 141.577 504.735 142.59 504.243 143.446C504.073 143.728 503.869 143.98 503.633 144.203ZM434.193 17.4708L463.822 69.293C464.544 69.1422 465.285 69.0667 466.045 69.0667C467.472 69.0667 468.829 69.352 470.079 69.8439L478.706 59.8788C477.584 58.177 476.925 56.1407 476.925 53.9569C476.925 51.9894 477.456 50.1499 478.371 48.5661C467.039 34.3612 452.155 23.1173 435.078 16.1625C434.816 16.6215 434.52 17.0577 434.193 17.4708ZM497.013 139.235L469.016 90.2659C468.072 90.5413 467.082 90.6823 466.045 90.6889C464.206 90.6889 462.465 90.2265 460.95 89.41L422.132 134.248C423.165 135.625 423.864 137.248 424.139 139.019L497.013 139.235ZM424.169 21.504L399.812 87.0983C402.556 89.0657 404.347 92.2628 404.347 95.8927C404.347 99.08 402.96 101.933 400.776 103.91L412.482 129.939C412.81 129.906 413.141 129.89 413.476 129.89C414.872 129.89 416.21 130.165 417.45 130.657L456.7 85.2981C455.775 83.7045 455.234 81.8551 455.234 79.8778C455.234 76.7988 456.533 74.0247 458.599 72.0573L429.392 20.963C428.231 21.386 426.992 21.6319 425.693 21.6319C425.175 21.6254 424.667 21.5827 424.169 21.504ZM370.271 149.673C368.5 148.482 367.103 146.771 366.287 144.754L344.379 144.695L361.279 173.882L370.271 149.673ZM362.46 187.664L359.715 195.051L361.466 195.327L364.722 191.569L362.46 187.664ZM365.116 180.492L368.805 186.847L404.101 146.062C403.871 145.675 403.668 145.272 403.491 144.852L386.295 144.803C384.672 148.738 380.816 151.502 376.301 151.502C376.163 151.496 376.029 151.489 375.898 151.483L365.116 180.492ZM406.963 132.074L395.473 106.507C394.844 106.632 394.195 106.694 393.526 106.694C393.191 106.694 392.863 106.678 392.542 106.645L383.029 132.241C385.066 133.874 386.502 136.225 386.945 138.911L402.802 138.95C403.264 136.146 404.789 133.707 406.963 132.074ZM371.923 192.248L374.943 197.461L413.741 203.62L433.779 191.736L415.6 151.286C414.912 151.43 414.2 151.502 413.466 151.502C411.606 151.502 409.846 151.03 408.321 150.204L371.923 192.248ZM366.277 12.2965C366.749 13.5064 367.015 14.8246 367.015 16.2018C367.015 18.8579 366.06 21.2778 364.477 23.1665L392.335 85.1407C392.729 85.0948 393.126 85.0718 393.526 85.0718C393.762 85.0718 393.998 85.0817 394.234 85.1013L418.758 19.0939C416.377 17.1167 414.872 14.136 414.872 10.8012C414.879 10.6045 414.889 10.4077 414.902 10.211C408.468 8.99118 401.828 8.34193 395.041 8.34193C385.076 8.34193 375.435 9.72896 366.277 12.2965ZM352.387 26.3046L316.501 96.5715L340.946 138.773L365.647 138.842C366.523 133.756 370.949 129.88 376.291 129.88C376.724 129.88 377.153 129.906 377.58 129.959L387.033 104.51C384.417 102.533 382.715 99.4144 382.715 95.8829C382.715 92.4202 384.348 89.351 386.866 87.3737L359.509 26.5013C358.466 26.8424 357.364 27.0129 356.203 27.0129C354.856 27.0129 353.577 26.7571 352.387 26.3046ZM306.309 138.665L303.378 122.276L297.24 134.277C298.184 135.546 298.853 137.032 299.158 138.645L306.309 138.665ZM309.792 96.7486L302.601 84.3439L306.103 103.959L309.792 96.7486ZM307.834 113.57L312.32 138.684L334.129 138.743L313.323 102.828L307.834 113.57ZM303.496 60.4592C305.04 62.3283 305.975 64.7286 305.975 67.3452C305.975 69.9423 305.06 72.313 303.535 74.1821L312.989 90.4921L347.606 22.714C347.029 21.9533 346.557 21.1237 346.189 20.2252C328.492 29.4033 313.677 43.3917 303.496 60.4592ZM288.504 114.898C288.511 120 288.865 125.011 289.567 129.929C290.596 130.028 291.573 130.257 292.498 130.618L301.666 112.655L295.498 78.1366C295.387 78.1432 295.275 78.1497 295.164 78.1563C295.125 78.1563 295.082 78.153 295.036 78.1465C290.806 89.6068 288.504 101.992 288.504 114.898ZM313.884 181.014L307.372 144.567L298.656 144.547C297.82 146.721 296.315 148.551 294.377 149.791C298.44 161.477 304.48 172.249 312.103 181.693C312.674 181.417 313.268 181.191 313.884 181.014ZM351.678 199.744L326.682 195.779C326.597 195.963 326.508 196.147 326.417 196.33C332.919 201.819 340.09 206.551 347.783 210.378C347.816 210.181 347.868 209.991 347.94 209.807L351.678 199.744ZM353.774 194.097L358.623 181.033L337.552 144.656L313.372 144.587L319.895 181.063C323.888 182.263 326.899 185.706 327.489 189.926L353.774 194.097ZM381.544 220.598L371.254 202.852L363.778 201.662L353.833 213.152C362.548 216.821 371.845 219.369 381.544 220.598ZM405.793 208.332L378.77 204.043L387.525 219.152L405.793 208.332ZM436.268 213.171L414.922 209.787L395.228 221.464C409.767 221.435 423.627 218.484 436.268 213.171ZM441.079 207.958L436.229 197.157L422.88 205.066L441.079 207.958ZM486.202 170.055C485.677 169.544 485.208 168.983 484.795 168.373L441.334 194.137L447.424 207.682C463.34 198.662 476.719 185.667 486.202 170.055ZM495.094 151.601C495.875 149.476 496.59 147.321 497.239 145.138L423.431 144.921C422.831 146.318 421.945 147.558 420.853 148.581L438.895 188.716L482.955 162.608C482.949 162.51 482.942 162.415 482.936 162.323C482.936 156.352 487.776 151.512 493.747 151.512C494.206 151.519 494.655 151.548 495.094 151.601ZM501.607 114.918C501.607 96.7584 497.042 79.6614 489.005 64.6892C488.586 64.7351 488.163 64.7614 487.736 64.7679C486.103 64.7679 484.559 64.3941 483.172 63.7448L474.741 73.4738C476.069 75.2642 476.856 77.4775 476.856 79.8778C476.856 82.6814 475.784 85.2292 474.033 87.1475L500.111 132.753C501.085 126.949 501.607 120.997 501.607 114.918Z" fill="url(#paint0_linear_2014_1621)"/>
<path fill-rule="evenodd" clip-rule="evenodd" d="M55.3047 285.671C55.3047 300.211 44.5428 309.172 27.1802 309.172H12.2671V328.237H0.00012207V262.18H27.1802C44.5428 262.18 55.3047 271.043 55.3047 285.671ZM42.9394 285.671C42.9394 277.369 37.3715 272.558 26.6097 272.558H12.2671V298.794H26.6097C37.3715 298.794 42.9394 293.974 42.9394 285.671Z" fill="#1C3238"/>
<path fill-rule="evenodd" clip-rule="evenodd" d="M63.7942 295.203C63.7942 275.667 78.8942 261.236 99.3752 261.236C119.846 261.236 134.946 275.578 134.946 295.203C134.946 314.838 119.846 329.181 99.3752 329.181C78.8942 329.181 63.7942 314.74 63.7942 295.203ZM122.581 295.203C122.581 281.707 112.675 271.988 99.3752 271.988C86.0655 271.988 76.1595 281.707 76.1595 295.203C76.1595 308.7 86.0655 318.419 99.3752 318.419C112.675 318.419 122.581 308.7 122.581 295.203Z" fill="#1C3238"/>
<path fill-rule="evenodd" clip-rule="evenodd" d="M147.971 262.18H176.843C198.268 262.18 212.896 275.391 212.896 295.203C212.896 315.025 198.268 328.237 176.843 328.237H147.971V262.18ZM176.282 317.858C190.998 317.858 200.531 308.887 200.531 295.203C200.531 281.52 190.998 272.558 176.282 272.558H160.238V317.858H176.282Z" fill="#1C3238"/>
<path d="M222.704 297.092H248.654V306.91H222.704V297.092Z" fill="#1C3238"/>
<path d="M262.721 262.18H274.988V328.237H262.721V262.18Z" fill="#1C3238"/>
<path d="M341.33 299.355V328.237H329.526V300.87C329.526 291.898 325.099 287.56 317.544 287.56C309.143 287.56 303.487 292.656 303.487 302.758V328.237H291.692V277.841H302.916V284.353C306.782 279.73 312.92 277.27 320.279 277.27C332.359 277.27 341.33 284.166 341.33 299.355Z" fill="#1C3238"/>
<path d="M350.577 323.229L355.102 314.268C359.539 317.189 366.336 319.265 372.652 319.265C380.108 319.265 383.226 317.189 383.226 313.697C383.226 304.077 352.082 313.137 352.082 293.039C352.082 283.507 360.67 277.27 374.255 277.27C380.964 277.27 388.607 278.884 393.133 281.618L388.607 290.58C383.787 287.747 378.977 286.802 374.166 286.802C366.995 286.802 363.591 289.163 363.591 292.469C363.591 302.66 394.736 293.6 394.736 313.323C394.736 322.757 386.06 328.896 371.904 328.896C363.503 328.896 355.102 326.446 350.577 323.229Z" fill="#1C3238"/>
<path d="M403.324 262.455C403.324 258.491 406.531 255.383 410.879 255.383C415.217 255.383 418.424 258.304 418.424 262.18C418.424 266.331 415.306 269.538 410.879 269.538C406.531 269.538 403.324 266.42 403.324 262.455ZM404.927 277.841H416.722V328.237H404.927V277.841Z" fill="#1C3238"/>
<path fill-rule="evenodd" clip-rule="evenodd" d="M482.218 277.841V320.593C482.218 338.9 472.686 347.203 455.038 347.203C445.604 347.203 436.259 344.753 430.504 340.031L435.787 331.158C440.223 334.837 447.394 337.198 454.379 337.198C465.514 337.198 470.423 332.103 470.423 321.911V319.265C466.272 323.8 460.32 325.974 453.523 325.974C439.092 325.974 428.045 316.157 428.045 301.529C428.045 286.901 439.092 277.27 453.523 277.27C460.606 277.27 466.833 279.543 470.984 284.54V277.841H482.218ZM470.61 301.529C470.61 293.039 464.196 287.275 455.323 287.275C446.361 287.275 439.938 293.039 439.938 301.529C439.938 310.117 446.361 315.97 455.323 315.97C464.196 315.97 470.61 310.117 470.61 301.529Z" fill="#1C3238"/>
<path d="M547.33 299.355V328.237H535.535V300.87C535.535 291.898 531.099 287.56 523.544 287.56C515.153 287.56 509.487 292.656 509.487 302.758V328.237H497.692V258.216H509.487V283.694C513.353 279.543 519.304 277.27 526.289 277.27C538.359 277.27 547.33 284.166 547.33 299.355Z" fill="#1C3238"/>
<path d="M592.621 325.502C589.797 327.764 585.548 328.896 581.298 328.896C570.261 328.896 563.935 323.043 563.935 311.907V287.658H555.633V278.215H563.935V266.705H575.73V278.215H589.227V287.658H575.73V311.622C575.73 316.53 578.19 319.177 582.715 319.177C585.164 319.177 587.525 318.517 589.325 317.101L592.621 325.502Z" fill="#1C3238"/>
<path d="M596.585 323.229L601.12 314.268C605.557 317.189 612.344 319.265 618.669 319.265C626.126 319.265 629.235 317.189 629.235 313.697C629.235 304.077 598.1 313.137 598.1 293.039C598.1 283.507 606.688 277.27 620.273 277.27C626.972 277.27 634.615 278.884 639.15 281.618L634.615 290.58C629.805 287.747 624.995 286.802 620.175 286.802C613.003 286.802 609.609 289.163 609.609 292.469C609.609 302.66 640.754 293.6 640.754 313.323C640.754 322.757 632.068 328.896 617.912 328.896C609.511 328.896 601.12 326.446 596.585 323.229Z" fill="#1C3238"/>
<path fill-rule="evenodd" clip-rule="evenodd" d="M720.966 312.95H687.933L681.421 328.237H668.78L698.508 262.18H710.588L740.404 328.237H727.567L720.966 312.95ZM716.913 303.319L704.45 274.447L692.094 303.319H716.913Z" fill="#1C3238"/>
<path d="M748.795 262.18H761.072V328.237H748.795V262.18Z" fill="#1C3238"/>
<path d="M234.754 378.623L235.492 376.96C236.416 377.698 237.882 378.229 239.299 378.229C241.089 378.229 241.846 377.59 241.846 376.724C241.846 374.245 235 375.878 235 371.599C235 369.74 236.485 368.156 239.643 368.156C241.02 368.156 242.476 368.52 243.479 369.179L242.801 370.842C241.768 370.232 240.627 369.937 239.623 369.937C237.853 369.937 237.125 370.625 237.125 371.501C237.125 373.95 243.952 372.357 243.952 376.577C243.952 378.426 242.456 380 239.299 380C237.508 380 235.708 379.439 234.754 378.623Z" fill="#1C3238"/>
<path d="M249.48 370.133H245.663V368.323H255.441V370.133H251.625V379.843H249.48V370.133Z" fill="#1C3238"/>
<path fill-rule="evenodd" clip-rule="evenodd" d="M265.819 379.843L263.468 376.468C263.318 376.482 263.17 376.485 263.026 376.478H260.419V379.843H258.284V368.323H263.026C266.046 368.323 267.925 369.868 267.925 372.416C267.925 374.167 267.039 375.445 265.475 376.055L268.121 379.843H265.819ZM262.927 370.133H260.419V374.717H262.927C264.796 374.717 265.77 373.871 265.77 372.416C265.77 370.969 264.796 370.133 262.927 370.133Z" fill="#1C3238"/>
<path fill-rule="evenodd" clip-rule="evenodd" d="M279.011 377.177H273.256L272.125 379.843H269.922L275.096 368.323H277.201L282.405 379.843H280.162L279.011 377.177ZM278.313 375.495L276.139 370.458L273.984 375.495H278.313Z" fill="#1C3238"/>
<path d="M286.861 370.133H283.045V368.323H292.823V370.133H289.006V379.843H286.861V370.133Z" fill="#1C3238"/>
<path d="M304.302 378.042V379.843H295.665V368.323H304.076V370.114H297.81V373.114H303.368V374.875H297.81V378.042H304.302Z" fill="#1C3238"/>
<path d="M315.743 373.95H317.76V378.534C316.56 379.508 314.887 380 313.254 380C309.684 380 307.057 377.521 307.057 374.078C307.057 370.645 309.684 368.156 313.294 368.156C315.212 368.156 316.825 368.795 317.917 370.035L316.56 371.353C315.655 370.448 314.622 370.035 313.392 370.035C310.933 370.035 309.211 371.697 309.211 374.078C309.211 376.419 310.933 378.131 313.372 378.131C314.199 378.131 314.996 377.964 315.743 377.531V373.95Z" fill="#1C3238"/>
<path d="M321.813 368.323H323.947V379.843H321.813V368.323Z" fill="#1C3238"/>
<path d="M327.469 374.078C327.469 370.645 330.105 368.156 333.647 368.156C335.516 368.156 337.129 368.835 338.201 370.084L336.814 371.383C335.975 370.478 334.952 370.028 333.745 370.035C331.355 370.035 329.633 371.707 329.633 374.078C329.633 376.449 331.355 378.131 333.745 378.131C334.952 378.137 335.975 377.682 336.814 376.764L338.201 378.082C337.129 379.331 335.516 380 333.627 380C330.105 380 327.469 377.521 327.469 374.078Z" fill="#1C3238"/>
<path d="M347.271 368.323H349.406V379.843H347.271V368.323Z" fill="#1C3238"/>
<path d="M363.985 368.323V379.843H362.224L355.869 372.042V379.843H353.744V368.323H355.505L361.86 376.124V368.323H363.985Z" fill="#1C3238"/>
<path d="M370.644 370.133H366.828V368.323H376.606V370.133H372.789V379.843H370.644V370.133Z" fill="#1C3238"/>
<path d="M388.086 378.042V379.843H379.449V368.323H387.86V370.114H381.593V373.114H387.151V374.875H381.593V378.042H388.086Z" fill="#1C3238"/>
<path d="M391.706 368.323H393.85V378.033H399.871V379.843H391.706V368.323Z" fill="#1C3238"/>
<path d="M402.802 368.323H404.937V378.033H410.957V379.843H402.802V368.323Z" fill="#1C3238"/>
<path d="M413.889 368.323H416.023V379.843H413.889V368.323Z" fill="#1C3238"/>
<path d="M428.231 373.95H430.258V378.534C429.058 379.508 427.375 380 425.752 380C422.181 380 419.545 377.521 419.545 374.078C419.545 370.645 422.181 368.156 425.782 368.156C427.71 368.156 429.323 368.795 430.405 370.035L429.058 371.353C428.153 370.448 427.12 370.035 425.88 370.035C423.431 370.035 421.709 371.697 421.709 374.078C421.709 376.419 423.431 378.131 425.87 378.131C426.687 378.131 427.493 377.964 428.231 377.531V373.95Z" fill="#1C3238"/>
<path d="M442.948 378.042V379.843H434.311V368.323H442.712V370.114H436.445V373.114H442.003V374.875H436.445V378.042H442.948Z" fill="#1C3238"/>
<path d="M456.798 368.323V379.843H455.038L448.693 372.042V379.843H446.568V368.323H448.329L454.674 376.124V368.323H456.798Z" fill="#1C3238"/>
<path d="M460.31 374.078C460.31 370.645 462.937 368.156 466.478 368.156C468.347 368.156 469.961 368.835 471.033 370.084L469.646 371.383C468.806 370.478 467.783 370.028 466.577 370.035C464.186 370.035 462.465 371.707 462.465 374.078C462.465 376.449 464.186 378.131 466.577 378.131C467.783 378.137 468.806 377.682 469.646 376.764L471.033 378.082C469.961 379.331 468.347 380 466.459 380C462.937 380 460.31 377.521 460.31 374.078Z" fill="#1C3238"/>
<path d="M482.965 378.042V379.843H474.328V368.323H482.729V370.114H476.463V373.114H482.021V374.875H476.463V378.042H482.965Z" fill="#1C3238"/>
<path d="M492.36 368.323H494.495V378.033H500.515V379.843H492.36V368.323Z" fill="#1C3238"/>
<path fill-rule="evenodd" clip-rule="evenodd" d="M511.001 377.177H505.237L504.105 379.843H501.902L507.086 368.323H509.191L514.385 379.843H512.152L511.001 377.177ZM510.293 375.495L508.119 370.458L505.965 375.495H510.293Z" fill="#1C3238"/>
<path d="M521.36 375.78V379.843H519.225V375.809L514.7 368.323H516.992L520.356 373.931L523.77 368.323H525.875L521.36 375.78Z" fill="#1C3238"/>
<path d="M536.981 378.042V379.843H528.344V368.323H536.745V370.114H530.479V373.114H536.037V374.875H530.479V378.042H536.981Z" fill="#1C3238"/>
<path fill-rule="evenodd" clip-rule="evenodd" d="M548.136 379.843L545.785 376.468C545.634 376.482 545.484 376.485 545.333 376.478H542.736V379.843H540.601V368.323H545.333C548.363 368.323 550.241 369.868 550.241 372.416C550.241 374.167 549.346 375.445 547.792 376.055L550.438 379.843H548.136ZM545.244 370.133H542.736V374.717H545.244C547.113 374.717 548.087 373.871 548.087 372.416C548.087 370.969 547.113 370.133 545.244 370.133Z" fill="#1C3238"/>
<defs>
<linearGradient id="paint0_linear_2014_1621" x1="188.389" y1="152.686" x2="330.482" y2="-83.798" gradientUnits="userSpaceOnUse">
<stop stop-color="#E21A4F"/>
<stop offset="0.319" stop-color="#713286"/>
<stop offset="0.513" stop-color="#5161A6"/>
<stop offset="0.656" stop-color="#1D79BF"/>
<stop offset="0.986" stop-color="#5AC4CB"/>
</linearGradient>
</defs>
</svg>
