<svg width="40" height="40" viewBox="0 0 40 40" fill="none" xmlns="http://www.w3.org/2000/svg">
<path d="M4.16699 21.6667C9.05033 15.8675 13.487 12.5284 15.5112 11.1567C16.1728 10.7075 17.0453 10.8542 17.5478 11.4759C18.5022 12.6649 19.422 13.8812 20.3062 15.1234C20.9795 16.0667 22.4003 16.0967 23.1462 15.21C26.5928 11.1167 31.2512 7.08337 31.2512 7.08337" stroke="url(#paint0_linear_461_823)" stroke-width="2" stroke-linecap="round" stroke-linejoin="round"/>
<path d="M35.3133 9.43592C35.8667 6.74008 35.8608 4.36342 35.8142 3.24425C35.8079 3.05409 35.7297 2.87341 35.5952 2.73879C35.4607 2.60418 35.2802 2.5257 35.09 2.51925C33.0136 2.44211 30.9353 2.61021 28.8983 3.02008C28.2708 3.14842 28.0633 3.91592 28.515 4.36842L33.965 9.81842C34.4183 10.2709 35.185 10.0626 35.3133 9.43592ZM4.38917 37.4667C3.44917 37.4359 2.72917 36.8676 2.63417 35.9326C2.55833 35.1992 2.5 34.1101 2.5 32.5001C2.5 30.8901 2.56 29.8001 2.63333 29.0676C2.72917 28.1326 3.44917 27.5643 4.38917 27.5326C4.945 27.5143 5.68917 27.5001 6.66667 27.5001C7.64417 27.5001 8.38833 27.5143 8.94417 27.5334C9.88417 27.5643 10.6042 28.1326 10.6992 29.0676C10.7742 29.8009 10.8333 30.8901 10.8333 32.5001C10.8333 34.1101 10.7733 35.2001 10.7 35.9326C10.6042 36.8676 9.88417 37.4359 8.94417 37.4676C8.3875 37.4859 7.64417 37.5001 6.66667 37.5001C5.68917 37.5001 4.945 37.4859 4.38917 37.4667ZM31.2975 37.4451C30.2142 37.3784 29.4617 36.5968 29.3833 35.5143C29.2767 34.0468 29.1667 31.3892 29.1667 26.6668C29.1667 21.9443 29.2767 19.2867 29.3833 17.8192C29.4617 16.7367 30.2142 15.9543 31.2975 15.8884C31.8225 15.8559 32.4917 15.8334 33.3333 15.8334C34.175 15.8334 34.8442 15.8559 35.3692 15.8884C36.4525 15.9551 37.205 16.7367 37.2833 17.8192C37.39 19.2867 37.5 21.9443 37.5 26.6668C37.5 31.3892 37.39 34.0468 37.2833 35.5143C37.205 36.5968 36.4525 37.3792 35.3692 37.4451C34.8442 37.4776 34.1758 37.5001 33.3333 37.5001C32.4917 37.5001 31.8225 37.4776 31.2975 37.4451ZM17.9167 37.4601C16.8633 37.4142 16.0942 36.7101 16.0058 35.6601C15.915 34.5784 15.8333 32.8217 15.8333 30.0001C15.8333 27.1784 15.915 25.4218 16.0058 24.3401C16.0942 23.2901 16.8633 22.5859 17.9158 22.5401C18.6102 22.5115 19.3051 22.4982 20 22.5001C20.8683 22.5001 21.5517 22.5168 22.0833 22.5401C23.1367 22.5859 23.9058 23.2901 23.9942 24.3401C24.085 25.4218 24.1667 27.1784 24.1667 30.0001C24.1667 32.8217 24.085 34.5784 23.9942 35.6601C23.9058 36.7101 23.1367 37.4142 22.0842 37.4601C21.5517 37.4834 20.8683 37.5001 20 37.5001C19.3053 37.5017 18.6107 37.4884 17.9167 37.4601Z" stroke="url(#paint1_linear_461_823)" stroke-width="2" stroke-linecap="round" stroke-linejoin="round"/>
<defs>
<linearGradient id="paint0_linear_461_823" x1="17.7091" y1="7.08337" x2="17.7091" y2="21.6667" gradientUnits="userSpaceOnUse">
<stop stop-color="#448CD2"/>
<stop offset="1" stop-color="#1A3652"/>
</linearGradient>
<linearGradient id="paint1_linear_461_823" x1="20" y1="2.50104" x2="20" y2="37.5002" gradientUnits="userSpaceOnUse">
<stop stop-color="#448CD2"/>
<stop offset="1" stop-color="#1A3652"/>
</linearGradient>
</defs>
</svg>
