<svg width="40" height="40" viewBox="0 0 40 40" fill="none" xmlns="http://www.w3.org/2000/svg">
<g clip-path="url(#clip0_694_903)">
<path d="M9.57324 33.0583C9.74241 34.15 9.91824 35.1433 10.0649 35.9283C10.2732 37.0325 11.0582 37.9192 12.1691 38.0867C13.0407 38.2192 14.2516 38.3333 15.8332 38.3333C17.3374 38.3333 18.5732 38.23 19.5141 38.1067C20.8341 37.9333 21.7591 36.835 21.9024 35.5117L22.1699 33.0433" stroke="url(#paint0_linear_694_903)" stroke-width="2" stroke-linecap="round" stroke-linejoin="round"/>
<path d="M29.6857 2.16999C29.7575 2.03892 29.8633 1.92958 29.9919 1.85341C30.1204 1.77725 30.2671 1.73706 30.4166 1.73706C30.566 1.73706 30.7127 1.77725 30.8413 1.85341C30.9699 1.92958 31.0756 2.03892 31.1474 2.16999L32.8074 5.20499C33.2662 6.0439 33.956 6.73366 34.7949 7.19249L37.8299 8.85249C37.961 8.92429 38.0703 9.03002 38.1465 9.1586C38.2226 9.28718 38.2628 9.43387 38.2628 9.58332C38.2628 9.73276 38.2226 9.87946 38.1465 10.008C38.0703 10.1366 37.961 10.2423 37.8299 10.3142L34.7949 11.9742C33.956 12.433 33.2662 13.1227 32.8074 13.9617L31.1474 16.9967C31.0756 17.1277 30.9699 17.2371 30.8413 17.3132C30.7127 17.3894 30.566 17.4296 30.4166 17.4296C30.2671 17.4296 30.1204 17.3894 29.9919 17.3132C29.8633 17.2371 29.7575 17.1277 29.6857 16.9967L28.0257 13.9617C27.5669 13.1227 26.8772 12.433 26.0382 11.9742L23.0032 10.3142C22.8722 10.2423 22.7628 10.1366 22.6867 10.008C22.6105 9.87946 22.5703 9.73276 22.5703 9.58332C22.5703 9.43387 22.6105 9.28718 22.6867 9.1586C22.7628 9.03002 22.8722 8.92429 23.0032 8.85249L26.0382 7.19249C26.8772 6.73366 27.5669 6.0439 28.0257 5.20499L29.6857 2.16999Z" stroke="url(#paint1_linear_694_903)" stroke-width="2"/>
<path d="M21.2503 4.40582C19.5326 3.69649 17.6921 3.33207 15.8337 3.33332C8.00949 3.33332 1.66699 9.67582 1.66699 17.5C1.66699 22.0275 3.79116 26.0592 7.09699 28.6525C7.3406 29.6262 7.61042 30.5933 7.90616 31.5525C8.16199 32.3842 8.85283 32.9883 9.71866 33.0792C10.8795 33.2 12.837 33.3333 15.8337 33.3333C18.8303 33.3333 20.7878 33.2 21.9487 33.0792C22.8145 32.9883 23.5053 32.3842 23.7603 31.5517C23.9995 30.7742 24.302 29.735 24.5703 28.6525C26.6738 27.0041 28.2693 24.7956 29.1737 22.2808" stroke="url(#paint2_linear_694_903)" stroke-width="2" stroke-linecap="round" stroke-linejoin="round"/>
</g>
<defs>
<linearGradient id="paint0_linear_694_903" x1="15.8716" y1="33.0433" x2="15.8716" y2="38.3333" gradientUnits="userSpaceOnUse">
<stop stop-color="#448CD2"/>
<stop offset="1" stop-color="#1A3652"/>
</linearGradient>
<linearGradient id="paint1_linear_694_903" x1="30.4166" y1="1.73706" x2="30.4166" y2="17.4296" gradientUnits="userSpaceOnUse">
<stop stop-color="#448CD2"/>
<stop offset="1" stop-color="#1A3652"/>
</linearGradient>
<linearGradient id="paint2_linear_694_903" x1="15.4203" y1="3.33331" x2="15.4203" y2="33.3333" gradientUnits="userSpaceOnUse">
<stop stop-color="#448CD2"/>
<stop offset="1" stop-color="#1A3652"/>
</linearGradient>
<clipPath id="clip0_694_903">
<rect width="40" height="40" fill="white"/>
</clipPath>
</defs>
</svg>
