<svg width="10" height="12" viewBox="0 0 10 12" fill="none" xmlns="http://www.w3.org/2000/svg">
<path d="M4.84277 0.105042C4.912 0.105042 4.98098 0.118547 5.04492 0.145081C5.10856 0.17149 5.1661 0.210648 5.21484 0.259338L9.42578 4.47028C9.52458 4.56908 9.58008 4.70359 9.58008 4.84332C9.57995 4.98288 9.52447 5.1167 9.42578 5.21539C9.32703 5.31406 9.19331 5.36965 9.05371 5.36969C8.91398 5.36969 8.77947 5.3142 8.68066 5.21539L5.36914 1.90289V10.7379C5.36907 10.8773 5.31348 11.0113 5.21484 11.1099C5.11617 11.2085 4.98223 11.2642 4.84277 11.2642C4.70329 11.2641 4.56934 11.2086 4.4707 11.1099C4.37206 11.0113 4.31648 10.8773 4.31641 10.7379V1.90289L1.00488 5.21539C0.906157 5.31407 0.772392 5.36961 0.632812 5.36969C0.493084 5.36969 0.358569 5.3142 0.259766 5.21539C0.16114 5.11671 0.105596 4.98283 0.105469 4.84332C0.105469 4.70364 0.161022 4.56907 0.259766 4.47028L4.4707 0.259338C4.51951 0.210517 4.57784 0.17154 4.6416 0.145081C4.70536 0.11868 4.77377 0.105078 4.84277 0.105042Z" fill="#3F9933" stroke="#3F9933" stroke-width="0.210526"/>
</svg>
