<svg width="89" height="89" viewBox="0 0 89 89" fill="none" xmlns="http://www.w3.org/2000/svg">
<path d="M44.1667 2.5C67.1792 2.5 85.8333 21.1542 85.8333 44.1667C85.8333 67.1792 67.1792 85.8333 44.1667 85.8333C21.1542 85.8333 2.5 67.1792 2.5 44.1667C2.5 21.1542 21.1542 2.5 44.1667 2.5Z" fill="#FFEBEB"/>
<path d="M44.1667 60.8333H44.2H44.1667ZM44.1667 27.5V48.3333V27.5ZM85.8333 44.1667C85.8333 21.1542 67.1792 2.5 44.1667 2.5C21.1542 2.5 2.5 21.1542 2.5 44.1667C2.5 67.1792 21.1542 85.8333 44.1667 85.8333C67.1792 85.8333 85.8333 67.1792 85.8333 44.1667Z" fill="#FFEBEB"/>
<path d="M44.1667 60.8333H44.2M44.1667 27.5V48.3333M85.8333 44.1667C85.8333 21.1542 67.1792 2.5 44.1667 2.5C21.1542 2.5 2.5 21.1542 2.5 44.1667C2.5 67.1792 21.1542 85.8333 44.1667 85.8333C67.1792 85.8333 85.8333 67.1792 85.8333 44.1667Z" stroke="#D71818" stroke-width="5" stroke-miterlimit="10" stroke-linecap="round" stroke-linejoin="round"/>
</svg>
